G04*
G04 #@! TF.GenerationSoftware,Altium Limited,Altium Designer,21.7.2 (23)*
G04*
G04 Layer_Color=32768*
%FSLAX25Y25*%
%MOIN*%
G70*
G04*
G04 #@! TF.SameCoordinates,38115651-3DBD-42AD-B4A0-95CC447B3A10*
G04*
G04*
G04 #@! TF.FilePolarity,Positive*
G04*
G01*
G75*
%ADD59C,0.00000*%
D59*
X954000Y906000D02*
X953904Y906975D01*
X953619Y907913D01*
X953157Y908778D01*
X952536Y909536D01*
X951778Y910157D01*
X950913Y910619D01*
X949975Y910904D01*
X949000Y911000D01*
Y730500D02*
X949975Y730596D01*
X950913Y730881D01*
X951778Y731343D01*
X952536Y731964D01*
X953157Y732722D01*
X953619Y733587D01*
X953904Y734524D01*
X954000Y735500D01*
X849500D02*
X849596Y734524D01*
X849881Y733587D01*
X850343Y732722D01*
X850965Y731964D01*
X851722Y731343D01*
X852587Y730881D01*
X853525Y730596D01*
X854500Y730500D01*
X849500Y742584D02*
X849472Y743588D01*
X849387Y744590D01*
X849247Y745585D01*
X849051Y746570D01*
X848800Y747544D01*
X848495Y748501D01*
X848136Y749440D01*
X847726Y750357D01*
X847264Y751250D01*
X846754Y752116D01*
X846196Y752951D01*
X845591Y753754D01*
X844943Y754522D01*
X844252Y755253D01*
X843522Y755943D01*
X842754Y756591D01*
X841951Y757196D01*
X841116Y757754D01*
X840250Y758264D01*
X839357Y758726D01*
X838440Y759136D01*
X837501Y759495D01*
X836544Y759800D01*
X835571Y760051D01*
X834585Y760247D01*
X833590Y760387D01*
X832588Y760472D01*
X831584Y760500D01*
X735416D02*
X734412Y760472D01*
X733410Y760387D01*
X732415Y760247D01*
X731429Y760051D01*
X730456Y759800D01*
X729499Y759495D01*
X728560Y759136D01*
X727643Y758726D01*
X726750Y758264D01*
X725884Y757754D01*
X725049Y757196D01*
X724246Y756591D01*
X723478Y755943D01*
X722748Y755253D01*
X722057Y754522D01*
X721409Y753754D01*
X720804Y752951D01*
X720246Y752116D01*
X719735Y751250D01*
X719274Y750357D01*
X718864Y749440D01*
X718505Y748501D01*
X718200Y747544D01*
X717949Y746571D01*
X717753Y745585D01*
X717613Y744590D01*
X717528Y743588D01*
X717500Y742584D01*
X712500Y730500D02*
X713476Y730596D01*
X714413Y730881D01*
X715278Y731343D01*
X716036Y731964D01*
X716657Y732722D01*
X717119Y733587D01*
X717404Y734524D01*
X717500Y735500D01*
X624012Y911000D02*
X623036Y910904D01*
X622098Y910619D01*
X621234Y910157D01*
X620476Y909536D01*
X619854Y908778D01*
X619392Y907913D01*
X619108Y906975D01*
X619012Y906000D01*
Y735500D02*
X619108Y734524D01*
X619392Y733587D01*
X619854Y732722D01*
X620476Y731964D01*
X621234Y731343D01*
X622098Y730881D01*
X623036Y730596D01*
X624012Y730500D01*
X954000Y735500D02*
Y906000D01*
X854500Y730500D02*
X949000D01*
X849500Y735500D02*
Y742584D01*
X800500Y760500D02*
X831584D01*
X624012Y911000D02*
X949000D01*
X766500Y760500D02*
X800500D01*
X735416D02*
X766500D01*
X717500Y735500D02*
Y742584D01*
X699000Y730500D02*
X712500D01*
X624012D02*
X699000D01*
X619012Y735500D02*
Y906000D01*
M02*
