G04*
G04 #@! TF.GenerationSoftware,Altium Limited,Altium Designer,21.7.2 (23)*
G04*
G04 Layer_Physical_Order=2*
G04 Layer_Color=16711680*
%FSLAX25Y25*%
%MOIN*%
G70*
G04*
G04 #@! TF.SameCoordinates,38115651-3DBD-42AD-B4A0-95CC447B3A10*
G04*
G04*
G04 #@! TF.FilePolarity,Positive*
G04*
G01*
G75*
%ADD12C,0.01000*%
%ADD34R,0.03000X0.03600*%
%ADD35R,0.03600X0.03000*%
%ADD46C,0.03000*%
%ADD47C,0.05000*%
%ADD48C,0.13583*%
%ADD49C,0.05591*%
%ADD50R,0.07480X0.07480*%
%ADD51C,0.07480*%
%ADD52C,0.02362*%
%ADD53C,0.23622*%
%ADD54R,0.04134X0.01772*%
G04:AMPARAMS|DCode=55|XSize=17.72mil|YSize=41.34mil|CornerRadius=4.43mil|HoleSize=0mil|Usage=FLASHONLY|Rotation=90.000|XOffset=0mil|YOffset=0mil|HoleType=Round|Shape=RoundedRectangle|*
%AMROUNDEDRECTD55*
21,1,0.01772,0.03248,0,0,90.0*
21,1,0.00886,0.04134,0,0,90.0*
1,1,0.00886,0.01624,0.00443*
1,1,0.00886,0.01624,-0.00443*
1,1,0.00886,-0.01624,-0.00443*
1,1,0.00886,-0.01624,0.00443*
%
%ADD55ROUNDEDRECTD55*%
G36*
X950224Y910036D02*
X950988Y909719D01*
X951676Y909260D01*
X952260Y908675D01*
X952719Y907988D01*
X953036Y907224D01*
X953197Y906413D01*
Y906000D01*
Y735500D01*
Y735087D01*
X953036Y734276D01*
X952719Y733512D01*
X952260Y732824D01*
X951676Y732240D01*
X950988Y731780D01*
X950224Y731464D01*
X949413Y731303D01*
X854087D01*
X853276Y731464D01*
X852512Y731780D01*
X851824Y732240D01*
X851240Y732825D01*
X850780Y733512D01*
X850464Y734276D01*
X850303Y735087D01*
Y742584D01*
X850300Y742597D01*
X850302Y742610D01*
X850264Y743782D01*
X850255Y743821D01*
X850258Y743860D01*
X849952Y746184D01*
X849935Y746234D01*
X849931Y746287D01*
X849325Y748551D01*
X849301Y748598D01*
X849291Y748650D01*
X848394Y750815D01*
X848365Y750859D01*
X848348Y750909D01*
X847176Y752939D01*
X847141Y752979D01*
X847118Y753026D01*
X845691Y754885D01*
X845651Y754920D01*
X845622Y754964D01*
X843964Y756622D01*
X843920Y756651D01*
X843886Y756691D01*
X842026Y758117D01*
X841979Y758141D01*
X841939Y758176D01*
X839909Y759348D01*
X839859Y759365D01*
X839815Y759394D01*
X837650Y760291D01*
X837598Y760301D01*
X837551Y760325D01*
X835287Y760931D01*
X835234Y760935D01*
X835184Y760952D01*
X832860Y761258D01*
X832821Y761255D01*
X832782Y761264D01*
X831610Y761302D01*
X831597Y761300D01*
X831584Y761303D01*
X735416D01*
X735403Y761300D01*
X735390Y761302D01*
X734218Y761264D01*
X734179Y761255D01*
X734140Y761258D01*
X731816Y760952D01*
X731766Y760935D01*
X731713Y760931D01*
X729449Y760325D01*
X729402Y760301D01*
X729350Y760291D01*
X727185Y759394D01*
X727141Y759365D01*
X727091Y759348D01*
X725061Y758176D01*
X725021Y758141D01*
X724974Y758117D01*
X723114Y756691D01*
X723080Y756651D01*
X723036Y756622D01*
X721378Y754964D01*
X721349Y754920D01*
X721309Y754885D01*
X719882Y753026D01*
X719859Y752979D01*
X719824Y752939D01*
X718652Y750909D01*
X718635Y750859D01*
X718606Y750815D01*
X717709Y748650D01*
X717699Y748598D01*
X717675Y748551D01*
X717069Y746287D01*
X717065Y746234D01*
X717048Y746184D01*
X716742Y743860D01*
X716745Y743821D01*
X716736Y743782D01*
X716698Y742610D01*
X716700Y742597D01*
X716697Y742584D01*
Y735087D01*
X716536Y734276D01*
X716220Y733512D01*
X715760Y732824D01*
X715175Y732240D01*
X714488Y731780D01*
X713724Y731464D01*
X712913Y731303D01*
X623598D01*
X622788Y731464D01*
X622024Y731780D01*
X621336Y732240D01*
X620752Y732825D01*
X620292Y733512D01*
X619976Y734276D01*
X619815Y735087D01*
Y735500D01*
Y906000D01*
Y906413D01*
X619976Y907224D01*
X620292Y907988D01*
X620752Y908675D01*
X621336Y909260D01*
X622024Y909719D01*
X622788Y910036D01*
X623598Y910197D01*
X949413D01*
X950224Y910036D01*
D02*
G37*
%LPC*%
G36*
X636493Y899480D02*
X635507D01*
X634595Y899103D01*
X633897Y898405D01*
X633520Y897493D01*
Y897275D01*
X633208Y897020D01*
X632262D01*
X632103Y897405D01*
X631405Y898103D01*
X630493Y898480D01*
X629507D01*
X628595Y898103D01*
X627897Y897405D01*
X627520Y896493D01*
Y895507D01*
X627897Y894595D01*
X628595Y893897D01*
X629507Y893520D01*
X630493D01*
X631405Y893897D01*
X632103Y894595D01*
X632262Y894980D01*
X632786D01*
X639523Y888244D01*
X639854Y888023D01*
X640244Y887945D01*
X641502D01*
X641654Y887445D01*
X640476Y886658D01*
X639350Y885532D01*
X638464Y884206D01*
X637854Y882734D01*
X637543Y881171D01*
Y879577D01*
X637854Y878014D01*
X638464Y876542D01*
X639350Y875217D01*
X640476Y874090D01*
X641802Y873204D01*
X643274Y872594D01*
X644837Y872283D01*
X646431D01*
X647994Y872594D01*
X649466Y873204D01*
X650791Y874090D01*
X651918Y875217D01*
X652804Y876542D01*
X653149Y877375D01*
X653784Y877921D01*
X654381Y878368D01*
X654927Y878731D01*
X655416Y879007D01*
X655843Y879194D01*
X656199Y879299D01*
X656540Y879336D01*
X656574Y879354D01*
X658460D01*
X658512Y879333D01*
X658518Y879335D01*
X658524Y879333D01*
X659034Y879344D01*
X659050Y879351D01*
X659067Y879346D01*
X659168Y879354D01*
X659887D01*
X659980Y878865D01*
Y878638D01*
X659959Y878590D01*
X659954Y878417D01*
X659943Y878284D01*
X659926Y878181D01*
X659906Y878109D01*
X659898Y878089D01*
X659895Y878087D01*
X659000D01*
Y874012D01*
X658603Y873707D01*
X658259Y873799D01*
X657181D01*
X656140Y873520D01*
X655206Y872981D01*
X654444Y872219D01*
X653905Y871285D01*
X653626Y870244D01*
Y869166D01*
X653905Y868124D01*
X654444Y867191D01*
X655206Y866428D01*
X656140Y865889D01*
X657181Y865610D01*
X658259D01*
X659301Y865889D01*
X660234Y866428D01*
X660997Y867191D01*
X661536Y868124D01*
X661815Y869166D01*
Y870244D01*
X661536Y871285D01*
X660997Y872219D01*
X660234Y872981D01*
X660194Y873004D01*
X660324Y873487D01*
X663000D01*
Y878087D01*
X662105D01*
X662102Y878089D01*
X662094Y878109D01*
X662075Y878181D01*
X662057Y878284D01*
X662046Y878417D01*
X662041Y878590D01*
X662020Y878638D01*
Y878937D01*
X662041Y878985D01*
X662046Y879161D01*
X662057Y879296D01*
X662075Y879402D01*
X662094Y879475D01*
X662099Y879487D01*
X663000D01*
Y884087D01*
X659000D01*
Y881474D01*
X658986Y881468D01*
X658912Y881449D01*
X658807Y881431D01*
X658673Y881420D01*
X658498Y881415D01*
X658450Y881394D01*
X656574D01*
X656540Y881412D01*
X656199Y881449D01*
X655843Y881554D01*
X655416Y881742D01*
X654927Y882017D01*
X654381Y882380D01*
X653788Y882825D01*
X653135Y883406D01*
X652804Y884206D01*
X651918Y885532D01*
X650791Y886658D01*
X649614Y887445D01*
X649766Y887945D01*
X670521D01*
X674217Y884249D01*
X674025Y883787D01*
X670700D01*
Y882887D01*
X670688Y882882D01*
X670614Y882862D01*
X670509Y882845D01*
X670374Y882833D01*
X670198Y882828D01*
X670150Y882807D01*
X669550D01*
X669502Y882828D01*
X669326Y882833D01*
X669191Y882845D01*
X669086Y882862D01*
X669012Y882882D01*
X669000Y882887D01*
Y884087D01*
X665000D01*
Y879487D01*
X669000D01*
Y880688D01*
X669012Y880693D01*
X669086Y880713D01*
X669191Y880730D01*
X669326Y880742D01*
X669502Y880746D01*
X669550Y880768D01*
X670150D01*
X670198Y880746D01*
X670374Y880742D01*
X670509Y880730D01*
X670614Y880713D01*
X670688Y880693D01*
X670700Y880688D01*
Y879787D01*
X673252D01*
X673289Y879765D01*
X673333Y879775D01*
X673374Y879758D01*
X673444Y879787D01*
X673709D01*
X673763Y879757D01*
X673885Y879672D01*
X674220Y879389D01*
X674412Y879203D01*
X674462Y879183D01*
X675068Y878578D01*
Y877787D01*
X670700D01*
Y876887D01*
X670688Y876882D01*
X670614Y876862D01*
X670509Y876845D01*
X670374Y876833D01*
X670198Y876828D01*
X670150Y876807D01*
X669550D01*
X669502Y876828D01*
X669326Y876833D01*
X669191Y876845D01*
X669086Y876862D01*
X669012Y876882D01*
X669000Y876887D01*
Y878087D01*
X665000D01*
Y873487D01*
X665000D01*
X665124Y873024D01*
X665049Y872981D01*
X664287Y872219D01*
X663748Y871285D01*
X663469Y870244D01*
Y869166D01*
X663748Y868124D01*
X664287Y867191D01*
X665049Y866428D01*
X665983Y865889D01*
X667024Y865610D01*
X668102D01*
X669143Y865889D01*
X670077Y866428D01*
X670839Y867191D01*
X671211Y867835D01*
X671789D01*
X672161Y867191D01*
X672923Y866428D01*
X673857Y865889D01*
X674898Y865610D01*
X675976D01*
X677017Y865889D01*
X677951Y866428D01*
X678512Y866989D01*
X679012Y866782D01*
Y850256D01*
X679089Y849866D01*
X679311Y849535D01*
X680795Y848051D01*
X681126Y847830D01*
X681516Y847752D01*
X682293D01*
X682591Y847455D01*
X682608Y847407D01*
X682962Y847026D01*
X683080Y846879D01*
X683169Y846751D01*
X683200Y846697D01*
Y846432D01*
X683171Y846361D01*
X683188Y846320D01*
X683177Y846277D01*
X683200Y846240D01*
Y844520D01*
X672410D01*
X670609Y846320D01*
X670592Y846368D01*
X670238Y846749D01*
X670120Y846896D01*
X670031Y847024D01*
X670000Y847078D01*
Y847343D01*
X670029Y847414D01*
X670012Y847455D01*
X670023Y847498D01*
X670000Y847535D01*
Y850087D01*
X666000D01*
Y845487D01*
X667952D01*
X667989Y845465D01*
X668033Y845475D01*
X668074Y845458D01*
X668144Y845487D01*
X668409D01*
X668463Y845457D01*
X668585Y845372D01*
X668920Y845089D01*
X669112Y844903D01*
X669162Y844883D01*
X671266Y842779D01*
X671597Y842558D01*
X671987Y842480D01*
X682780D01*
X683200Y842287D01*
Y838287D01*
X685771D01*
X685787Y838277D01*
X685831Y838287D01*
X685832D01*
X685874Y838270D01*
X685915Y838287D01*
X686216D01*
X686258Y838263D01*
X686381Y838176D01*
X686718Y837890D01*
X686912Y837703D01*
X686962Y837683D01*
X686980Y837665D01*
Y836638D01*
X686959Y836590D01*
X686954Y836414D01*
X686943Y836279D01*
X686925Y836173D01*
X686906Y836099D01*
X686901Y836087D01*
X686000D01*
Y831487D01*
X688902D01*
X689000Y831468D01*
X689178D01*
X690099Y830546D01*
X689851Y830087D01*
X689562Y830087D01*
X686000D01*
Y828599D01*
X685988Y828594D01*
X685914Y828575D01*
X685809Y828557D01*
X685674Y828546D01*
X685498Y828541D01*
X685450Y828520D01*
X663762D01*
X663603Y828905D01*
X662905Y829603D01*
X661993Y829980D01*
X661007D01*
X660095Y829603D01*
X659397Y828905D01*
X659020Y827993D01*
Y827007D01*
X659397Y826095D01*
X660095Y825397D01*
X661007Y825020D01*
X661993D01*
X662905Y825397D01*
X663603Y826095D01*
X663762Y826480D01*
X685450D01*
X685498Y826459D01*
X685674Y826454D01*
X685809Y826443D01*
X685914Y826425D01*
X685988Y826406D01*
X686000Y826401D01*
Y825487D01*
X690000D01*
Y829613D01*
X690000Y829938D01*
X690459Y830186D01*
X691391Y829255D01*
X691409Y829207D01*
X691765Y828823D01*
X691885Y828675D01*
X691975Y828546D01*
X692000Y828503D01*
Y828203D01*
X691983Y828161D01*
X692000Y828120D01*
Y828118D01*
X691990Y828075D01*
X692000Y828058D01*
Y825487D01*
X696000D01*
Y830087D01*
X694029D01*
X694012Y830098D01*
X693969Y830087D01*
X693968D01*
X693926Y830105D01*
X693885Y830087D01*
X693584D01*
X693542Y830112D01*
X693419Y830198D01*
X693082Y830484D01*
X692888Y830672D01*
X692838Y830692D01*
X692504Y831026D01*
X692695Y831487D01*
X696000D01*
Y832618D01*
X696500Y832857D01*
X696713Y832770D01*
X696974Y832642D01*
Y826500D01*
X697077Y825717D01*
X697379Y824987D01*
X697860Y824360D01*
X698487Y823880D01*
X699217Y823577D01*
X700000Y823474D01*
X700783Y823577D01*
X701513Y823880D01*
X702140Y824360D01*
X702621Y824987D01*
X702923Y825717D01*
X703026Y826500D01*
Y834287D01*
X702923Y835071D01*
X702621Y835800D01*
X702457Y836013D01*
X702432Y836114D01*
X702151Y836490D01*
X701490Y837429D01*
X701207Y837883D01*
X701181Y837931D01*
X701339Y838088D01*
X701560Y838419D01*
X701638Y838809D01*
Y846766D01*
X701560Y847156D01*
X701520Y847216D01*
Y851447D01*
X701541Y851499D01*
X701541Y851500D01*
X701541Y851501D01*
X701540Y852011D01*
X701539Y852014D01*
X701540Y852017D01*
X701534Y852467D01*
X701527Y852481D01*
X701532Y852496D01*
X701530Y852526D01*
X701520Y852548D01*
Y853287D01*
X701500Y853386D01*
Y856587D01*
X700605D01*
X700602Y856589D01*
X700594Y856609D01*
X700574Y856680D01*
X700557Y856784D01*
X700546Y856917D01*
X700541Y857090D01*
X700520Y857138D01*
Y861559D01*
X706678Y867718D01*
X706899Y868048D01*
X706976Y868439D01*
Y891007D01*
X707405Y891185D01*
X708103Y891882D01*
X708262Y892268D01*
X773287D01*
X773678Y892345D01*
X774008Y892566D01*
X775621Y894179D01*
X776007Y894020D01*
X776993D01*
X777905Y894397D01*
X778603Y895095D01*
X778980Y896007D01*
Y896993D01*
X778603Y897905D01*
X777905Y898603D01*
X776993Y898980D01*
X776007D01*
X775095Y898603D01*
X774397Y897905D01*
X774020Y896993D01*
Y896007D01*
X774179Y895621D01*
X772865Y894307D01*
X708262D01*
X708103Y894692D01*
X707405Y895390D01*
X706493Y895768D01*
X705507D01*
X705121Y895608D01*
X703008Y897721D01*
X702678Y897942D01*
X702287Y898020D01*
X638262D01*
X638103Y898405D01*
X637405Y899103D01*
X636493Y899480D01*
D02*
G37*
G36*
X908000Y884587D02*
X904000D01*
Y883387D01*
X903988Y883382D01*
X903914Y883362D01*
X903809Y883345D01*
X903674Y883333D01*
X903498Y883328D01*
X903450Y883307D01*
X902850D01*
X902802Y883328D01*
X902626Y883333D01*
X902491Y883345D01*
X902386Y883362D01*
X902312Y883382D01*
X902300Y883387D01*
Y884287D01*
X897700D01*
Y882335D01*
X897677Y882298D01*
X897688Y882255D01*
X897671Y882214D01*
X897700Y882143D01*
Y881878D01*
X897669Y881824D01*
X897584Y881702D01*
X897301Y881367D01*
X897116Y881175D01*
X897096Y881125D01*
X896192Y880221D01*
X895971Y879890D01*
X895893Y879500D01*
Y874179D01*
X895873Y874139D01*
X895861Y873974D01*
X895831Y873826D01*
X895777Y873656D01*
X895750Y873592D01*
X895483Y873520D01*
X894549Y872981D01*
X893787Y872219D01*
X893248Y871285D01*
X892968Y870244D01*
Y869166D01*
X893248Y868124D01*
X893787Y867191D01*
X894549Y866428D01*
X895483Y865889D01*
X896524Y865610D01*
X897602D01*
X898643Y865889D01*
X899577Y866428D01*
X900339Y867191D01*
X900711Y867835D01*
X901289D01*
X901661Y867191D01*
X902423Y866428D01*
X903357Y865889D01*
X904398Y865610D01*
X905476D01*
X906517Y865889D01*
X907451Y866428D01*
X908213Y867191D01*
X908753Y868124D01*
X909031Y869166D01*
Y870244D01*
X908753Y871285D01*
X908213Y872219D01*
X907451Y872981D01*
X906985Y873250D01*
X906834Y873915D01*
X906884Y873987D01*
X908000D01*
Y878587D01*
X904000D01*
Y877387D01*
X903988Y877382D01*
X903914Y877362D01*
X903809Y877345D01*
X903674Y877333D01*
X903498Y877328D01*
X903450Y877307D01*
X902850D01*
X902802Y877328D01*
X902626Y877333D01*
X902491Y877345D01*
X902386Y877362D01*
X902312Y877382D01*
X902300Y877387D01*
Y878287D01*
X897932D01*
Y879078D01*
X898532Y879678D01*
X898580Y879696D01*
X898962Y880050D01*
X899109Y880167D01*
X899237Y880257D01*
X899291Y880287D01*
X899556D01*
X899626Y880258D01*
X899667Y880275D01*
X899711Y880265D01*
X899747Y880287D01*
X902300D01*
Y881188D01*
X902312Y881193D01*
X902386Y881213D01*
X902491Y881230D01*
X902626Y881242D01*
X902802Y881246D01*
X902850Y881268D01*
X903450D01*
X903498Y881246D01*
X903674Y881242D01*
X903809Y881230D01*
X903914Y881213D01*
X903988Y881193D01*
X904000Y881188D01*
Y879987D01*
X908000D01*
Y884587D01*
D02*
G37*
G36*
X748500D02*
X744500D01*
Y883387D01*
X744488Y883382D01*
X744414Y883362D01*
X744309Y883345D01*
X744174Y883333D01*
X743998Y883328D01*
X743950Y883307D01*
X743350D01*
X743302Y883328D01*
X743126Y883333D01*
X742991Y883345D01*
X742886Y883362D01*
X742812Y883382D01*
X742800Y883387D01*
Y884287D01*
X738200D01*
Y882335D01*
X738177Y882298D01*
X738188Y882255D01*
X738171Y882214D01*
X738200Y882143D01*
Y881878D01*
X738169Y881824D01*
X738084Y881702D01*
X737801Y881367D01*
X737615Y881175D01*
X737596Y881125D01*
X736692Y880221D01*
X736471Y879890D01*
X736393Y879500D01*
Y874179D01*
X736373Y874139D01*
X736361Y873974D01*
X736331Y873826D01*
X736277Y873656D01*
X736250Y873592D01*
X735983Y873520D01*
X735049Y872981D01*
X734287Y872219D01*
X733747Y871285D01*
X733468Y870244D01*
Y869166D01*
X733747Y868124D01*
X734287Y867191D01*
X735049Y866428D01*
X735983Y865889D01*
X737024Y865610D01*
X738102D01*
X739143Y865889D01*
X740077Y866428D01*
X740839Y867191D01*
X741211Y867835D01*
X741789D01*
X742161Y867191D01*
X742923Y866428D01*
X743857Y865889D01*
X744898Y865610D01*
X745976D01*
X747017Y865889D01*
X747951Y866428D01*
X748713Y867191D01*
X749253Y868124D01*
X749532Y869166D01*
Y870244D01*
X749253Y871285D01*
X748713Y872219D01*
X747951Y872981D01*
X747485Y873250D01*
X747334Y873915D01*
X747385Y873987D01*
X748500D01*
Y878587D01*
X744500D01*
Y877387D01*
X744488Y877382D01*
X744414Y877362D01*
X744309Y877345D01*
X744174Y877333D01*
X743998Y877328D01*
X743950Y877307D01*
X743350D01*
X743302Y877328D01*
X743126Y877333D01*
X742991Y877345D01*
X742886Y877362D01*
X742812Y877382D01*
X742800Y877387D01*
Y878287D01*
X738432D01*
Y879078D01*
X739033Y879678D01*
X739080Y879696D01*
X739462Y880050D01*
X739609Y880167D01*
X739737Y880257D01*
X739791Y880287D01*
X740056D01*
X740126Y880258D01*
X740167Y880275D01*
X740211Y880265D01*
X740247Y880287D01*
X742800D01*
Y881188D01*
X742812Y881193D01*
X742886Y881213D01*
X742991Y881230D01*
X743126Y881242D01*
X743302Y881246D01*
X743350Y881268D01*
X743950D01*
X743998Y881246D01*
X744174Y881242D01*
X744309Y881230D01*
X744414Y881213D01*
X744488Y881193D01*
X744500Y881188D01*
Y879987D01*
X748500D01*
Y884587D01*
D02*
G37*
G36*
X927663Y888465D02*
X926069D01*
X924506Y888154D01*
X923034Y887544D01*
X921709Y886658D01*
X920582Y885532D01*
X920166Y884908D01*
X918350Y883881D01*
X917186Y883311D01*
X916772Y883144D01*
X916479Y883054D01*
X916262Y883023D01*
X916234Y883007D01*
X914550D01*
X914502Y883028D01*
X914326Y883033D01*
X914191Y883045D01*
X914086Y883062D01*
X914012Y883082D01*
X914000Y883087D01*
Y884587D01*
X910000D01*
Y879987D01*
X910895D01*
X910898Y879986D01*
X910906Y879966D01*
X910925Y879894D01*
X910943Y879791D01*
X910954Y879658D01*
X910959Y879485D01*
X910980Y879437D01*
Y879138D01*
X910959Y879090D01*
X910954Y878914D01*
X910943Y878779D01*
X910925Y878673D01*
X910906Y878599D01*
X910901Y878587D01*
X910000D01*
Y873987D01*
X912832D01*
X912882Y873915D01*
X912732Y873250D01*
X912265Y872981D01*
X911503Y872219D01*
X910964Y871285D01*
X910685Y870244D01*
Y869166D01*
X910964Y868124D01*
X911503Y867191D01*
X912265Y866428D01*
X913199Y865889D01*
X914240Y865610D01*
X915319D01*
X916360Y865889D01*
X917294Y866428D01*
X918056Y867191D01*
X918595Y868124D01*
X918874Y869166D01*
Y870244D01*
X918595Y871285D01*
X918056Y872219D01*
X917294Y872981D01*
X916360Y873520D01*
X915319Y873799D01*
X914422D01*
X914184Y873905D01*
X914000Y874252D01*
Y878587D01*
X913099D01*
X913094Y878599D01*
X913075Y878673D01*
X913057Y878779D01*
X913046Y878914D01*
X913041Y879090D01*
X913020Y879138D01*
Y879437D01*
X913041Y879485D01*
X913046Y879658D01*
X913057Y879791D01*
X913074Y879894D01*
X913094Y879966D01*
X913102Y879986D01*
X913105Y879987D01*
X914000D01*
Y880888D01*
X914012Y880893D01*
X914086Y880913D01*
X914191Y880930D01*
X914326Y880942D01*
X914502Y880946D01*
X914550Y880968D01*
X915955D01*
X915963Y880962D01*
X916002Y880968D01*
X916037Y880949D01*
X916434Y880908D01*
X916801Y880799D01*
X917196Y880605D01*
X917619Y880322D01*
X918066Y879945D01*
X918533Y879472D01*
X918876Y879071D01*
X919086Y878014D01*
X919696Y876542D01*
X920582Y875217D01*
X921709Y874090D01*
X923034Y873204D01*
X924506Y872594D01*
X926069Y872283D01*
X927663D01*
X929226Y872594D01*
X930698Y873204D01*
X932024Y874090D01*
X933150Y875217D01*
X934036Y876542D01*
X934646Y878014D01*
X934957Y879577D01*
Y881171D01*
X934646Y882734D01*
X934036Y884206D01*
X933150Y885532D01*
X932024Y886658D01*
X930698Y887544D01*
X929226Y888154D01*
X927663Y888465D01*
D02*
G37*
G36*
X768163D02*
X766569D01*
X765006Y888154D01*
X763534Y887544D01*
X762209Y886658D01*
X761082Y885532D01*
X760666Y884908D01*
X758850Y883881D01*
X757686Y883311D01*
X757272Y883144D01*
X756979Y883054D01*
X756762Y883023D01*
X756734Y883007D01*
X755050D01*
X755002Y883028D01*
X754826Y883033D01*
X754691Y883045D01*
X754586Y883062D01*
X754512Y883082D01*
X754500Y883087D01*
Y884587D01*
X750500D01*
Y879987D01*
X751395D01*
X751398Y879986D01*
X751406Y879966D01*
X751426Y879894D01*
X751443Y879791D01*
X751454Y879658D01*
X751459Y879485D01*
X751480Y879437D01*
Y879138D01*
X751459Y879090D01*
X751454Y878914D01*
X751443Y878779D01*
X751425Y878673D01*
X751406Y878599D01*
X751401Y878587D01*
X750500D01*
Y873987D01*
X753332D01*
X753382Y873915D01*
X753232Y873250D01*
X752766Y872981D01*
X752003Y872219D01*
X751464Y871285D01*
X751185Y870244D01*
Y869166D01*
X751464Y868124D01*
X752003Y867191D01*
X752766Y866428D01*
X753699Y865889D01*
X754740Y865610D01*
X755819D01*
X756860Y865889D01*
X757794Y866428D01*
X758556Y867191D01*
X759095Y868124D01*
X759374Y869166D01*
Y870244D01*
X759095Y871285D01*
X758556Y872219D01*
X757794Y872981D01*
X756860Y873520D01*
X755819Y873799D01*
X754922D01*
X754684Y873905D01*
X754500Y874252D01*
Y878587D01*
X753599D01*
X753594Y878599D01*
X753575Y878673D01*
X753557Y878779D01*
X753546Y878914D01*
X753541Y879090D01*
X753520Y879138D01*
Y879437D01*
X753541Y879485D01*
X753546Y879658D01*
X753557Y879791D01*
X753575Y879894D01*
X753594Y879966D01*
X753602Y879986D01*
X753605Y879987D01*
X754500D01*
Y880888D01*
X754512Y880893D01*
X754586Y880913D01*
X754691Y880930D01*
X754826Y880942D01*
X755002Y880946D01*
X755050Y880968D01*
X756455D01*
X756463Y880962D01*
X756502Y880968D01*
X756537Y880949D01*
X756934Y880908D01*
X757301Y880799D01*
X757696Y880605D01*
X758119Y880322D01*
X758566Y879945D01*
X759033Y879472D01*
X759376Y879071D01*
X759586Y878014D01*
X760196Y876542D01*
X761082Y875217D01*
X762209Y874090D01*
X763534Y873204D01*
X765006Y872594D01*
X766569Y872283D01*
X768163D01*
X769726Y872594D01*
X771198Y873204D01*
X772524Y874090D01*
X773651Y875217D01*
X774536Y876542D01*
X775146Y878014D01*
X775457Y879577D01*
Y881171D01*
X775146Y882734D01*
X774536Y884206D01*
X773651Y885532D01*
X772524Y886658D01*
X771198Y887544D01*
X769726Y888154D01*
X768163Y888465D01*
D02*
G37*
G36*
X790493Y898480D02*
X789507D01*
X788595Y898103D01*
X787897Y897405D01*
X787520Y896493D01*
Y895507D01*
X787897Y894595D01*
X788595Y893897D01*
X789507Y893520D01*
X790493D01*
X791405Y893897D01*
X792103Y894595D01*
X792262Y894980D01*
X822986D01*
X833717Y884249D01*
X833525Y883787D01*
X830200D01*
Y882887D01*
X830188Y882882D01*
X830114Y882862D01*
X830009Y882845D01*
X829874Y882833D01*
X829698Y882828D01*
X829650Y882807D01*
X829050D01*
X829002Y882828D01*
X828826Y882833D01*
X828691Y882845D01*
X828586Y882862D01*
X828512Y882882D01*
X828500Y882887D01*
Y884087D01*
X824500D01*
Y879487D01*
X828500D01*
Y880688D01*
X828512Y880693D01*
X828586Y880713D01*
X828691Y880730D01*
X828826Y880742D01*
X829002Y880746D01*
X829050Y880768D01*
X829650D01*
X829698Y880746D01*
X829874Y880742D01*
X830009Y880730D01*
X830114Y880713D01*
X830188Y880693D01*
X830200Y880688D01*
Y879787D01*
X832753D01*
X832789Y879765D01*
X832833Y879775D01*
X832874Y879758D01*
X832944Y879787D01*
X833209D01*
X833263Y879757D01*
X833385Y879672D01*
X833720Y879389D01*
X833912Y879203D01*
X833962Y879183D01*
X834568Y878578D01*
Y877787D01*
X830200D01*
Y876887D01*
X830188Y876882D01*
X830114Y876862D01*
X830009Y876845D01*
X829874Y876833D01*
X829698Y876828D01*
X829650Y876807D01*
X829050D01*
X829002Y876828D01*
X828826Y876833D01*
X828691Y876845D01*
X828586Y876862D01*
X828512Y876882D01*
X828500Y876887D01*
Y878087D01*
X824500D01*
Y873487D01*
X824500D01*
X824624Y873024D01*
X824549Y872981D01*
X823787Y872219D01*
X823248Y871285D01*
X822968Y870244D01*
Y869166D01*
X823248Y868124D01*
X823787Y867191D01*
X824549Y866428D01*
X825483Y865889D01*
X826524Y865610D01*
X827602D01*
X828643Y865889D01*
X829577Y866428D01*
X830339Y867191D01*
X830711Y867835D01*
X831289D01*
X831661Y867191D01*
X832423Y866428D01*
X833357Y865889D01*
X834398Y865610D01*
X835476D01*
X836517Y865889D01*
X837451Y866428D01*
X838012Y866989D01*
X838512Y866782D01*
Y850256D01*
X838589Y849866D01*
X838811Y849535D01*
X840295Y848051D01*
X840626Y847830D01*
X841016Y847752D01*
X841793D01*
X842091Y847455D01*
X842108Y847407D01*
X842462Y847026D01*
X842580Y846879D01*
X842669Y846751D01*
X842700Y846697D01*
Y846432D01*
X842671Y846361D01*
X842688Y846320D01*
X842677Y846277D01*
X842700Y846240D01*
Y844520D01*
X831910D01*
X830109Y846320D01*
X830092Y846368D01*
X829738Y846749D01*
X829620Y846896D01*
X829531Y847024D01*
X829500Y847078D01*
Y847343D01*
X829529Y847414D01*
X829512Y847455D01*
X829523Y847498D01*
X829500Y847535D01*
Y850087D01*
X825500D01*
Y845487D01*
X827452D01*
X827489Y845465D01*
X827533Y845475D01*
X827574Y845458D01*
X827644Y845487D01*
X827909D01*
X827963Y845457D01*
X828085Y845372D01*
X828420Y845089D01*
X828612Y844903D01*
X828662Y844883D01*
X830766Y842779D01*
X831097Y842558D01*
X831487Y842480D01*
X842280D01*
X842700Y842287D01*
Y838287D01*
X845271D01*
X845288Y838277D01*
X845331Y838287D01*
X845332D01*
X845374Y838270D01*
X845415Y838287D01*
X845716D01*
X845758Y838263D01*
X845881Y838176D01*
X846218Y837890D01*
X846412Y837703D01*
X846462Y837683D01*
X846480Y837665D01*
Y836638D01*
X846459Y836590D01*
X846454Y836414D01*
X846443Y836279D01*
X846425Y836173D01*
X846406Y836099D01*
X846401Y836087D01*
X845500D01*
Y831487D01*
X848402D01*
X848500Y831468D01*
X848678D01*
X849599Y830546D01*
X849351Y830087D01*
X849062Y830087D01*
X845500D01*
Y827600D01*
X845486Y827594D01*
X845412Y827575D01*
X845307Y827557D01*
X845173Y827546D01*
X844998Y827541D01*
X844950Y827520D01*
X821762D01*
X821603Y827905D01*
X820905Y828603D01*
X819993Y828980D01*
X819007D01*
X818095Y828603D01*
X817397Y827905D01*
X817020Y826993D01*
Y826007D01*
X817397Y825095D01*
X818095Y824397D01*
X819007Y824020D01*
X819993D01*
X820905Y824397D01*
X821603Y825095D01*
X821762Y825480D01*
X844958D01*
X845012Y825458D01*
X846012D01*
X846066Y825480D01*
X846500D01*
X846535Y825487D01*
X849500D01*
Y829613D01*
X849500Y829938D01*
X849959Y830186D01*
X850891Y829255D01*
X850909Y829207D01*
X851265Y828823D01*
X851385Y828675D01*
X851475Y828546D01*
X851500Y828503D01*
Y828203D01*
X851483Y828161D01*
X851500Y828120D01*
Y828118D01*
X851490Y828075D01*
X851500Y828058D01*
Y825487D01*
X855500D01*
Y830087D01*
X853529D01*
X853512Y830098D01*
X853469Y830087D01*
X853468D01*
X853426Y830105D01*
X853385Y830087D01*
X853084D01*
X853042Y830112D01*
X852919Y830198D01*
X852582Y830484D01*
X852388Y830672D01*
X852338Y830692D01*
X852004Y831026D01*
X852195Y831487D01*
X855500D01*
Y832823D01*
X855984Y833226D01*
X856086Y833224D01*
X856903Y833159D01*
X857230Y833113D01*
X857461Y833068D01*
Y828469D01*
X857397Y828405D01*
X857020Y827493D01*
Y826507D01*
X857397Y825595D01*
X858095Y824897D01*
X859007Y824520D01*
X859993D01*
X860905Y824897D01*
X861603Y825595D01*
X861980Y826507D01*
Y827493D01*
X861603Y828405D01*
X861539Y828469D01*
Y834287D01*
X861500Y834484D01*
Y836587D01*
X860665D01*
X860637Y836741D01*
X860547Y837793D01*
X860547Y837796D01*
X860839Y838088D01*
X861060Y838419D01*
X861138Y838809D01*
Y846766D01*
X861060Y847156D01*
X861020Y847216D01*
Y851447D01*
X861041Y851499D01*
X861041Y851500D01*
X861041Y851501D01*
X861040Y852011D01*
X861039Y852014D01*
X861040Y852017D01*
X861034Y852467D01*
X861027Y852481D01*
X861032Y852496D01*
X861030Y852526D01*
X861020Y852548D01*
Y853287D01*
X861000Y853386D01*
Y856587D01*
X860105D01*
X860102Y856589D01*
X860094Y856609D01*
X860075Y856680D01*
X860057Y856784D01*
X860046Y856917D01*
X860041Y857090D01*
X860020Y857138D01*
Y861559D01*
X866178Y867718D01*
X866399Y868048D01*
X866476Y868439D01*
Y891007D01*
X866905Y891185D01*
X867603Y891882D01*
X867980Y892794D01*
Y893781D01*
X867603Y894692D01*
X866905Y895390D01*
X865993Y895768D01*
X865007D01*
X864095Y895390D01*
X863397Y894692D01*
X863020Y893781D01*
Y892794D01*
X863397Y891882D01*
X864095Y891185D01*
X864437Y891043D01*
Y884506D01*
X863937Y884354D01*
X863151Y885532D01*
X862024Y886658D01*
X860699Y887544D01*
X859226Y888154D01*
X857663Y888465D01*
X856069D01*
X854506Y888154D01*
X853034Y887544D01*
X851709Y886658D01*
X850582Y885532D01*
X849696Y884206D01*
X849086Y882734D01*
X848776Y881171D01*
Y879577D01*
X849086Y878014D01*
X849696Y876542D01*
X850582Y875217D01*
X851709Y874090D01*
X853034Y873204D01*
X854506Y872594D01*
X856069Y872283D01*
X857663D01*
X859226Y872594D01*
X860699Y873204D01*
X862024Y874090D01*
X863151Y875217D01*
X863937Y876394D01*
X864437Y876242D01*
Y868861D01*
X858279Y862703D01*
X858058Y862372D01*
X857980Y861982D01*
Y857138D01*
X857959Y857090D01*
X857954Y856917D01*
X857943Y856784D01*
X857926Y856680D01*
X857906Y856609D01*
X857898Y856589D01*
X857895Y856587D01*
X857000D01*
Y854017D01*
X856990Y854000D01*
X857000Y853957D01*
Y853955D01*
X856983Y853914D01*
X857000Y853872D01*
Y853572D01*
X856975Y853529D01*
X856889Y853406D01*
X856603Y853069D01*
X856416Y852876D01*
X856396Y852825D01*
X856043Y852472D01*
X855822Y852141D01*
X855744Y851751D01*
Y849841D01*
X855723Y849793D01*
X855718Y849617D01*
X855706Y849483D01*
X855689Y849377D01*
X855669Y849303D01*
X855665Y849291D01*
X854197D01*
Y846620D01*
X853745Y846411D01*
X853300Y846606D01*
Y848287D01*
X848700D01*
Y847387D01*
X848688Y847382D01*
X848614Y847362D01*
X848509Y847345D01*
X848374Y847333D01*
X848198Y847328D01*
X848150Y847307D01*
X847850D01*
X847802Y847328D01*
X847626Y847333D01*
X847491Y847345D01*
X847386Y847362D01*
X847312Y847382D01*
X847300Y847387D01*
Y848287D01*
X844748D01*
X844711Y848310D01*
X844667Y848300D01*
X844626Y848317D01*
X844556Y848287D01*
X844291D01*
X844237Y848318D01*
X844115Y848403D01*
X843780Y848686D01*
X843588Y848872D01*
X843538Y848892D01*
X842937Y849493D01*
X842606Y849714D01*
X842216Y849791D01*
X841438D01*
X840551Y850678D01*
Y867840D01*
X841051Y867974D01*
X841503Y867191D01*
X842266Y866428D01*
X843199Y865889D01*
X844240Y865610D01*
X845319D01*
X846360Y865889D01*
X847294Y866428D01*
X848056Y867191D01*
X848595Y868124D01*
X848874Y869166D01*
Y870244D01*
X848595Y871285D01*
X848056Y872219D01*
X847294Y872981D01*
X846360Y873520D01*
X845319Y873799D01*
X844240D01*
X843199Y873520D01*
X842266Y872981D01*
X841503Y872219D01*
X841051Y871436D01*
X840551Y871570D01*
Y879877D01*
X840473Y880267D01*
X840252Y880597D01*
X824129Y896721D01*
X823798Y896942D01*
X823408Y897020D01*
X792262D01*
X792103Y897405D01*
X791405Y898103D01*
X790493Y898480D01*
D02*
G37*
G36*
X805931Y888465D02*
X804337D01*
X802774Y888154D01*
X801302Y887544D01*
X799976Y886658D01*
X798849Y885532D01*
X797964Y884206D01*
X797354Y882734D01*
X797043Y881171D01*
Y879577D01*
X797354Y878014D01*
X797964Y876542D01*
X798849Y875217D01*
X799976Y874090D01*
X801302Y873204D01*
X802774Y872594D01*
X804337Y872283D01*
X805931D01*
X807494Y872594D01*
X808966Y873204D01*
X810291Y874090D01*
X811418Y875217D01*
X812304Y876542D01*
X812649Y877375D01*
X813284Y877921D01*
X813881Y878368D01*
X814427Y878731D01*
X814916Y879007D01*
X815343Y879194D01*
X815699Y879299D01*
X816040Y879336D01*
X816074Y879354D01*
X817960D01*
X818012Y879333D01*
X818018Y879335D01*
X818024Y879333D01*
X818534Y879344D01*
X818550Y879351D01*
X818567Y879346D01*
X818668Y879354D01*
X819387D01*
X819480Y878865D01*
Y878638D01*
X819459Y878590D01*
X819454Y878417D01*
X819443Y878284D01*
X819425Y878181D01*
X819406Y878109D01*
X819398Y878089D01*
X819395Y878087D01*
X818500D01*
Y874012D01*
X818103Y873707D01*
X817760Y873799D01*
X816681D01*
X815640Y873520D01*
X814706Y872981D01*
X813944Y872219D01*
X813405Y871285D01*
X813126Y870244D01*
Y869166D01*
X813405Y868124D01*
X813944Y867191D01*
X814706Y866428D01*
X815640Y865889D01*
X816681Y865610D01*
X817760D01*
X818801Y865889D01*
X819734Y866428D01*
X820497Y867191D01*
X821036Y868124D01*
X821315Y869166D01*
Y870244D01*
X821036Y871285D01*
X820497Y872219D01*
X819734Y872981D01*
X819694Y873004D01*
X819824Y873487D01*
X822500D01*
Y878087D01*
X821605D01*
X821602Y878089D01*
X821594Y878109D01*
X821574Y878181D01*
X821557Y878284D01*
X821546Y878417D01*
X821541Y878590D01*
X821520Y878638D01*
Y878937D01*
X821541Y878985D01*
X821546Y879161D01*
X821557Y879296D01*
X821575Y879402D01*
X821594Y879475D01*
X821599Y879487D01*
X822500D01*
Y884087D01*
X818500D01*
Y881474D01*
X818486Y881468D01*
X818412Y881449D01*
X818307Y881431D01*
X818173Y881420D01*
X817998Y881415D01*
X817950Y881394D01*
X816074D01*
X816040Y881412D01*
X815699Y881449D01*
X815343Y881554D01*
X814916Y881742D01*
X814427Y882017D01*
X813881Y882380D01*
X813288Y882825D01*
X812635Y883406D01*
X812304Y884206D01*
X811418Y885532D01*
X810291Y886658D01*
X808966Y887544D01*
X807494Y888154D01*
X805931Y888465D01*
D02*
G37*
G36*
X875931D02*
X874337D01*
X872774Y888154D01*
X871301Y887544D01*
X869976Y886658D01*
X868849Y885532D01*
X867964Y884206D01*
X867354Y882734D01*
X867043Y881171D01*
Y879577D01*
X867354Y878014D01*
X867964Y876542D01*
X868849Y875217D01*
X869976Y874090D01*
X871301Y873204D01*
X872774Y872594D01*
X874337Y872283D01*
X875931D01*
X877494Y872594D01*
X878966Y873204D01*
X880291Y874090D01*
X881418Y875217D01*
X882304Y876542D01*
X882913Y878014D01*
X883224Y879577D01*
Y881171D01*
X882913Y882734D01*
X882304Y884206D01*
X881418Y885532D01*
X880291Y886658D01*
X878966Y887544D01*
X877494Y888154D01*
X875931Y888465D01*
D02*
G37*
G36*
X716431D02*
X714837D01*
X713274Y888154D01*
X711802Y887544D01*
X710476Y886658D01*
X709349Y885532D01*
X708464Y884206D01*
X707854Y882734D01*
X707543Y881171D01*
Y879577D01*
X707854Y878014D01*
X708464Y876542D01*
X709349Y875217D01*
X710476Y874090D01*
X711802Y873204D01*
X713274Y872594D01*
X714837Y872283D01*
X716431D01*
X717994Y872594D01*
X719466Y873204D01*
X720791Y874090D01*
X721918Y875217D01*
X722804Y876542D01*
X723414Y878014D01*
X723724Y879577D01*
Y881171D01*
X723414Y882734D01*
X722804Y884206D01*
X721918Y885532D01*
X720791Y886658D01*
X719466Y887544D01*
X717994Y888154D01*
X716431Y888465D01*
D02*
G37*
G36*
X887759Y873799D02*
X886681D01*
X885640Y873520D01*
X884706Y872981D01*
X883944Y872219D01*
X883405Y871285D01*
X883126Y870244D01*
Y869166D01*
X883405Y868124D01*
X883944Y867191D01*
X884706Y866428D01*
X885640Y865889D01*
X886681Y865610D01*
X887759D01*
X888801Y865889D01*
X889734Y866428D01*
X890497Y867191D01*
X891036Y868124D01*
X891315Y869166D01*
Y870244D01*
X891036Y871285D01*
X890497Y872219D01*
X889734Y872981D01*
X888801Y873520D01*
X887759Y873799D01*
D02*
G37*
G36*
X728260D02*
X727181D01*
X726140Y873520D01*
X725206Y872981D01*
X724444Y872219D01*
X723905Y871285D01*
X723626Y870244D01*
Y869166D01*
X723905Y868124D01*
X724444Y867191D01*
X725206Y866428D01*
X726140Y865889D01*
X727181Y865610D01*
X728260D01*
X729301Y865889D01*
X730234Y866428D01*
X730997Y867191D01*
X731536Y868124D01*
X731815Y869166D01*
Y870244D01*
X731536Y871285D01*
X730997Y872219D01*
X730234Y872981D01*
X729301Y873520D01*
X728260Y873799D01*
D02*
G37*
G36*
X867000Y856587D02*
X866500D01*
Y855787D01*
X867000D01*
Y856587D01*
D02*
G37*
G36*
X707500D02*
X707000D01*
Y855787D01*
X707500D01*
Y856587D01*
D02*
G37*
G36*
X863500D02*
X863000D01*
Y855787D01*
X863500D01*
Y856587D01*
D02*
G37*
G36*
X704000D02*
X703500D01*
Y855787D01*
X704000D01*
Y856587D01*
D02*
G37*
G36*
X867000Y852787D02*
X866500D01*
Y851987D01*
X867000D01*
Y852787D01*
D02*
G37*
G36*
X863500D02*
X863000D01*
Y851987D01*
X863500D01*
Y852787D01*
D02*
G37*
G36*
X707500D02*
X707000D01*
Y851987D01*
X707500D01*
Y852787D01*
D02*
G37*
G36*
X704000D02*
X703500D01*
Y851987D01*
X704000D01*
Y852787D01*
D02*
G37*
G36*
X874479Y853782D02*
X873493D01*
X872581Y853404D01*
X871883Y852707D01*
X871506Y851795D01*
Y850808D01*
X871665Y850423D01*
X870168Y848925D01*
X870113D01*
X870065Y848947D01*
X869933Y848950D01*
X869820Y848958D01*
X869712Y848972D01*
X869610Y848991D01*
X869513Y849014D01*
X869421Y849043D01*
X869333Y849076D01*
X869249Y849114D01*
X869170Y849157D01*
X869078Y849214D01*
X869009Y849225D01*
X868992Y849237D01*
X868881Y849259D01*
X868792Y849296D01*
X868761Y849283D01*
X868624Y849310D01*
X865376D01*
X865008Y849237D01*
X864696Y849028D01*
X864488Y848716D01*
X864415Y848348D01*
Y847463D01*
X864460Y847232D01*
X864433Y846732D01*
X864433Y846732D01*
X864433Y846732D01*
Y843443D01*
X864398Y843443D01*
X864297Y843401D01*
X864010Y843344D01*
X863679Y843122D01*
X862925Y842368D01*
X862704Y842038D01*
X862626Y841647D01*
Y836442D01*
X862704Y836051D01*
X862885Y835780D01*
X862919Y835696D01*
X863500Y835106D01*
Y831987D01*
X864401D01*
X864406Y831975D01*
X864425Y831902D01*
X864443Y831796D01*
X864454Y831661D01*
X864459Y831485D01*
X864480Y831437D01*
Y830987D01*
X864558Y830597D01*
X864779Y830266D01*
X864960Y830085D01*
X864961Y829902D01*
X864963Y829897D01*
X864961Y829893D01*
X864967Y829601D01*
X864973Y829587D01*
X864968Y829572D01*
X864970Y829544D01*
X864980Y829524D01*
Y828787D01*
X865000Y828689D01*
Y825487D01*
X869000D01*
Y830087D01*
X867078D01*
X867069Y830127D01*
X867054Y830221D01*
X867045Y830342D01*
X867041Y830500D01*
X866997Y830599D01*
X866942Y830878D01*
X866721Y831208D01*
X866520Y831410D01*
Y831437D01*
X866541Y831485D01*
X866546Y831661D01*
X866557Y831796D01*
X866575Y831902D01*
X866594Y831975D01*
X866599Y831987D01*
X867500D01*
Y836587D01*
X864993D01*
X864665Y836904D01*
Y838842D01*
X865500D01*
Y840228D01*
X868500D01*
Y840214D01*
X869055Y840769D01*
X868998Y840691D01*
X868970Y840599D01*
Y840493D01*
X868998Y840373D01*
X869055Y840238D01*
X869140Y840090D01*
X869253Y839927D01*
X869394Y839750D01*
X869567Y839565D01*
Y840625D01*
X870029Y840817D01*
X871679Y839166D01*
X871520Y838781D01*
Y837794D01*
X871897Y836882D01*
X872595Y836185D01*
X873507Y835807D01*
X874493D01*
X875405Y836185D01*
X876103Y836882D01*
X876480Y837794D01*
Y838781D01*
X876103Y839692D01*
X875405Y840390D01*
X874493Y840768D01*
X873507D01*
X873121Y840608D01*
X870607Y843122D01*
X870276Y843344D01*
X869996Y843399D01*
X869897Y843443D01*
X869753Y843446D01*
X869641Y843454D01*
X869567Y843463D01*
Y844265D01*
X869624Y844277D01*
X869895Y844302D01*
X870066Y844305D01*
X870115Y844327D01*
X877150D01*
X877198Y844305D01*
X877371Y844301D01*
X877504Y844289D01*
X877607Y844272D01*
X877678Y844253D01*
X877698Y844245D01*
X877700Y844242D01*
Y843287D01*
X882300D01*
Y847287D01*
X877700D01*
Y846451D01*
X877698Y846448D01*
X877678Y846440D01*
X877607Y846421D01*
X877504Y846404D01*
X877371Y846392D01*
X877198Y846387D01*
X877150Y846366D01*
X870740D01*
X870536Y846866D01*
X870556Y846886D01*
X870590D01*
X870980Y846964D01*
X871311Y847184D01*
X873107Y848981D01*
X873493Y848821D01*
X874479D01*
X875391Y849199D01*
X876089Y849897D01*
X876466Y850808D01*
Y851795D01*
X876089Y852707D01*
X875391Y853404D01*
X874479Y853782D01*
D02*
G37*
G36*
X714979D02*
X713993D01*
X713081Y853404D01*
X712383Y852707D01*
X712006Y851795D01*
Y850808D01*
X712165Y850423D01*
X710668Y848925D01*
X710613D01*
X710565Y848947D01*
X710433Y848950D01*
X710320Y848958D01*
X710212Y848972D01*
X710110Y848991D01*
X710013Y849014D01*
X709921Y849043D01*
X709833Y849076D01*
X709749Y849114D01*
X709669Y849157D01*
X709578Y849214D01*
X709509Y849225D01*
X709492Y849237D01*
X709381Y849259D01*
X709292Y849296D01*
X709261Y849283D01*
X709124Y849310D01*
X705876D01*
X705508Y849237D01*
X705196Y849028D01*
X704988Y848716D01*
X704915Y848348D01*
Y847463D01*
X704960Y847232D01*
X704933Y846732D01*
X704933Y846732D01*
X704933Y846732D01*
Y843443D01*
X704897Y843443D01*
X704797Y843401D01*
X704510Y843344D01*
X704179Y843122D01*
X703425Y842368D01*
X703204Y842038D01*
X703126Y841647D01*
Y836442D01*
X703204Y836051D01*
X703385Y835780D01*
X703419Y835696D01*
X704000Y835106D01*
Y831987D01*
X704901D01*
X704906Y831975D01*
X704925Y831902D01*
X704943Y831796D01*
X704954Y831661D01*
X704959Y831485D01*
X704980Y831437D01*
Y830987D01*
X705058Y830597D01*
X705279Y830266D01*
X705460Y830085D01*
X705461Y829902D01*
X705463Y829897D01*
X705461Y829893D01*
X705467Y829601D01*
X705473Y829587D01*
X705468Y829572D01*
X705470Y829544D01*
X705480Y829524D01*
Y828787D01*
X705500Y828689D01*
Y825487D01*
X709500D01*
Y830087D01*
X707578D01*
X707569Y830127D01*
X707554Y830221D01*
X707545Y830342D01*
X707541Y830500D01*
X707497Y830599D01*
X707442Y830878D01*
X707221Y831208D01*
X707020Y831410D01*
Y831437D01*
X707041Y831485D01*
X707046Y831661D01*
X707057Y831796D01*
X707075Y831902D01*
X707094Y831975D01*
X707099Y831987D01*
X708000D01*
Y836587D01*
X705493D01*
X705165Y836904D01*
Y838842D01*
X706000D01*
Y840228D01*
X709000D01*
Y840214D01*
X709555Y840769D01*
X709498Y840691D01*
X709470Y840599D01*
Y840493D01*
X709498Y840373D01*
X709555Y840238D01*
X709640Y840090D01*
X709753Y839927D01*
X709894Y839750D01*
X710067Y839565D01*
Y840625D01*
X710529Y840817D01*
X712179Y839166D01*
X712020Y838781D01*
Y837794D01*
X712397Y836882D01*
X713095Y836185D01*
X714007Y835807D01*
X714993D01*
X715905Y836185D01*
X716603Y836882D01*
X716980Y837794D01*
Y838781D01*
X716603Y839692D01*
X715905Y840390D01*
X714993Y840768D01*
X714007D01*
X713621Y840608D01*
X711107Y843122D01*
X710776Y843344D01*
X710496Y843399D01*
X710397Y843443D01*
X710253Y843446D01*
X710141Y843454D01*
X710067Y843463D01*
Y844265D01*
X710124Y844277D01*
X710395Y844302D01*
X710566Y844305D01*
X710615Y844327D01*
X717650D01*
X717698Y844305D01*
X717871Y844301D01*
X718004Y844289D01*
X718107Y844272D01*
X718179Y844253D01*
X718198Y844245D01*
X718200Y844242D01*
Y843287D01*
X722800D01*
Y847287D01*
X718200D01*
Y846451D01*
X718198Y846448D01*
X718179Y846440D01*
X718107Y846421D01*
X718004Y846404D01*
X717871Y846392D01*
X717698Y846387D01*
X717650Y846366D01*
X711240D01*
X711036Y846866D01*
X711056Y846886D01*
X711090D01*
X711480Y846964D01*
X711811Y847184D01*
X713607Y848981D01*
X713993Y848821D01*
X714979D01*
X715891Y849199D01*
X716589Y849897D01*
X716966Y850808D01*
Y851795D01*
X716589Y852707D01*
X715891Y853404D01*
X714979Y853782D01*
D02*
G37*
G36*
X897500Y854087D02*
X893500D01*
Y849487D01*
X894395D01*
X894398Y849486D01*
X894406Y849466D01*
X894425Y849394D01*
X894443Y849291D01*
X894454Y849158D01*
X894459Y848985D01*
X894480Y848937D01*
Y848638D01*
X894459Y848590D01*
X894454Y848414D01*
X894443Y848279D01*
X894425Y848173D01*
X894406Y848099D01*
X894401Y848087D01*
X893500D01*
Y845535D01*
X893477Y845498D01*
X893395Y845382D01*
X893328Y845299D01*
X893085Y845105D01*
X892210D01*
X891916Y844983D01*
X891500Y845261D01*
Y848087D01*
X890599D01*
X890594Y848099D01*
X890575Y848173D01*
X890557Y848279D01*
X890546Y848414D01*
X890541Y848590D01*
X890520Y848638D01*
Y848937D01*
X890541Y848985D01*
X890546Y849158D01*
X890557Y849291D01*
X890574Y849394D01*
X890594Y849466D01*
X890602Y849486D01*
X890605Y849487D01*
X891500D01*
Y854087D01*
X887500D01*
Y852387D01*
X887488Y852382D01*
X887414Y852362D01*
X887309Y852345D01*
X887174Y852333D01*
X886998Y852328D01*
X886626Y852637D01*
X886603Y852692D01*
X885905Y853390D01*
X884993Y853768D01*
X884007D01*
X883095Y853390D01*
X882800Y853095D01*
X882300Y853287D01*
Y853287D01*
X877700D01*
Y849287D01*
X882300D01*
Y849287D01*
X882800Y849480D01*
X883095Y849185D01*
X884007Y848807D01*
X884993D01*
X885905Y849185D01*
X886603Y849882D01*
X886626Y849938D01*
X886998Y850246D01*
X887174Y850242D01*
X887309Y850230D01*
X887414Y850213D01*
X887488Y850193D01*
X887500Y850188D01*
Y849487D01*
X888395D01*
X888398Y849486D01*
X888406Y849466D01*
X888426Y849394D01*
X888443Y849291D01*
X888454Y849158D01*
X888459Y848985D01*
X888480Y848937D01*
Y848638D01*
X888459Y848590D01*
X888454Y848414D01*
X888443Y848279D01*
X888425Y848173D01*
X888406Y848099D01*
X888401Y848087D01*
X887500D01*
Y843487D01*
X889976D01*
X890223Y843118D01*
Y842132D01*
X890600Y841220D01*
X891298Y840522D01*
X892210Y840145D01*
X893196D01*
X894108Y840522D01*
X894806Y841220D01*
X895183Y842132D01*
Y843017D01*
X895310Y843248D01*
X895511Y843465D01*
X895547Y843487D01*
X897500D01*
Y848087D01*
X896599D01*
X896594Y848099D01*
X896575Y848173D01*
X896557Y848279D01*
X896546Y848414D01*
X896541Y848590D01*
X896520Y848638D01*
Y848937D01*
X896541Y848985D01*
X896546Y849158D01*
X896557Y849291D01*
X896574Y849394D01*
X896594Y849466D01*
X896602Y849486D01*
X896605Y849487D01*
X897500D01*
Y854087D01*
D02*
G37*
G36*
X738000D02*
X734000D01*
Y849487D01*
X734895D01*
X734898Y849486D01*
X734906Y849466D01*
X734926Y849394D01*
X734943Y849291D01*
X734954Y849158D01*
X734959Y848985D01*
X734980Y848937D01*
Y848638D01*
X734959Y848590D01*
X734954Y848414D01*
X734943Y848279D01*
X734925Y848173D01*
X734906Y848099D01*
X734901Y848087D01*
X734000D01*
Y845535D01*
X733977Y845498D01*
X733895Y845382D01*
X733827Y845299D01*
X733585Y845105D01*
X732710D01*
X732416Y844983D01*
X732000Y845261D01*
Y848087D01*
X731099D01*
X731094Y848099D01*
X731075Y848173D01*
X731057Y848279D01*
X731046Y848414D01*
X731041Y848590D01*
X731020Y848638D01*
Y848937D01*
X731041Y848985D01*
X731046Y849158D01*
X731057Y849291D01*
X731074Y849394D01*
X731094Y849466D01*
X731102Y849486D01*
X731105Y849487D01*
X732000D01*
Y854087D01*
X728000D01*
Y852387D01*
X727988Y852382D01*
X727914Y852362D01*
X727809Y852345D01*
X727674Y852333D01*
X727498Y852328D01*
X727126Y852637D01*
X727103Y852692D01*
X726405Y853390D01*
X725493Y853768D01*
X724507D01*
X723595Y853390D01*
X723300Y853095D01*
X722800Y853287D01*
Y853287D01*
X718200D01*
Y849287D01*
X722800D01*
Y849287D01*
X723300Y849480D01*
X723595Y849185D01*
X724507Y848807D01*
X725493D01*
X726405Y849185D01*
X727103Y849882D01*
X727126Y849938D01*
X727498Y850246D01*
X727674Y850242D01*
X727809Y850230D01*
X727914Y850213D01*
X727988Y850193D01*
X728000Y850188D01*
Y849487D01*
X728895D01*
X728898Y849486D01*
X728906Y849466D01*
X728926Y849394D01*
X728943Y849291D01*
X728954Y849158D01*
X728959Y848985D01*
X728980Y848937D01*
Y848638D01*
X728959Y848590D01*
X728954Y848414D01*
X728943Y848279D01*
X728925Y848173D01*
X728906Y848099D01*
X728901Y848087D01*
X728000D01*
Y843487D01*
X730476D01*
X730723Y843118D01*
Y842132D01*
X731101Y841220D01*
X731798Y840522D01*
X732710Y840145D01*
X733697D01*
X734608Y840522D01*
X735306Y841220D01*
X735683Y842132D01*
Y843017D01*
X735810Y843248D01*
X736011Y843465D01*
X736048Y843487D01*
X738000D01*
Y848087D01*
X737099D01*
X737094Y848099D01*
X737075Y848173D01*
X737057Y848279D01*
X737046Y848414D01*
X737041Y848590D01*
X737020Y848638D01*
Y848937D01*
X737041Y848985D01*
X737046Y849158D01*
X737057Y849291D01*
X737075Y849394D01*
X737094Y849466D01*
X737102Y849486D01*
X737105Y849487D01*
X738000D01*
Y854087D01*
D02*
G37*
G36*
X818993Y853768D02*
X818007D01*
X817095Y853390D01*
X816792Y853087D01*
X813500D01*
Y848487D01*
X814401D01*
X814406Y848475D01*
X814425Y848402D01*
X814443Y848296D01*
X814454Y848161D01*
X814459Y847985D01*
X814480Y847937D01*
Y847638D01*
X814459Y847590D01*
X814454Y847416D01*
X814443Y847284D01*
X814425Y847180D01*
X814406Y847109D01*
X814398Y847089D01*
X814395Y847087D01*
X813500D01*
Y843472D01*
X813493Y843468D01*
X812507D01*
X812091Y843368D01*
X811735Y843752D01*
X811615Y843900D01*
X811525Y844029D01*
X811500Y844072D01*
Y844372D01*
X811517Y844414D01*
X811500Y844455D01*
Y844456D01*
X811510Y844500D01*
X811500Y844517D01*
Y847087D01*
X810605D01*
X810602Y847089D01*
X810594Y847109D01*
X810575Y847180D01*
X810557Y847284D01*
X810546Y847416D01*
X810541Y847590D01*
X810520Y847638D01*
Y847937D01*
X810541Y847985D01*
X810546Y848161D01*
X810557Y848296D01*
X810575Y848402D01*
X810594Y848475D01*
X810599Y848487D01*
X811500D01*
Y853087D01*
X807500D01*
Y848487D01*
X808401D01*
X808406Y848475D01*
X808425Y848402D01*
X808443Y848296D01*
X808454Y848161D01*
X808459Y847985D01*
X808480Y847937D01*
Y847638D01*
X808459Y847590D01*
X808454Y847416D01*
X808443Y847284D01*
X808426Y847180D01*
X808406Y847109D01*
X808398Y847089D01*
X808395Y847087D01*
X807500D01*
Y842487D01*
X809471D01*
X809488Y842477D01*
X809531Y842487D01*
X809532D01*
X809574Y842470D01*
X809615Y842487D01*
X809916D01*
X809958Y842463D01*
X810081Y842376D01*
X810418Y842090D01*
X810612Y841903D01*
X810520Y841481D01*
Y840494D01*
X810897Y839582D01*
X811595Y838885D01*
X812507Y838507D01*
X813493D01*
X814405Y838885D01*
X815103Y839582D01*
X815480Y840494D01*
Y841481D01*
X815270Y841987D01*
X815604Y842487D01*
X817500D01*
Y847087D01*
X816605D01*
X816602Y847089D01*
X816594Y847109D01*
X816574Y847180D01*
X816557Y847284D01*
X816546Y847416D01*
X816541Y847590D01*
X816520Y847638D01*
Y847937D01*
X816541Y847985D01*
X816546Y848161D01*
X816557Y848296D01*
X816575Y848402D01*
X816594Y848475D01*
X816599Y848487D01*
X817500D01*
Y848567D01*
X817916Y848845D01*
X818007Y848807D01*
X818993D01*
X819201Y848893D01*
X819265Y848823D01*
X819385Y848675D01*
X819475Y848546D01*
X819500Y848503D01*
Y848203D01*
X819483Y848161D01*
X819500Y848120D01*
Y848118D01*
X819490Y848075D01*
X819500Y848058D01*
Y845487D01*
X823500D01*
Y850087D01*
X821529D01*
X821513Y850098D01*
X821469Y850087D01*
X821468D01*
X821426Y850105D01*
X821385Y850087D01*
X821208D01*
X820856Y850493D01*
X820980Y850794D01*
Y851781D01*
X820603Y852692D01*
X819905Y853390D01*
X818993Y853768D01*
D02*
G37*
G36*
X659493D02*
X658507D01*
X657595Y853390D01*
X657292Y853087D01*
X654000D01*
Y848487D01*
X654901D01*
X654906Y848475D01*
X654925Y848402D01*
X654943Y848296D01*
X654954Y848161D01*
X654959Y847985D01*
X654980Y847937D01*
Y847638D01*
X654959Y847590D01*
X654954Y847416D01*
X654943Y847284D01*
X654925Y847180D01*
X654906Y847109D01*
X654898Y847089D01*
X654895Y847087D01*
X654000D01*
Y843472D01*
X653993Y843468D01*
X653007D01*
X652591Y843368D01*
X652235Y843752D01*
X652115Y843900D01*
X652025Y844029D01*
X652000Y844072D01*
Y844372D01*
X652017Y844414D01*
X652000Y844455D01*
Y844456D01*
X652010Y844500D01*
X652000Y844517D01*
Y847087D01*
X651105D01*
X651102Y847089D01*
X651094Y847109D01*
X651075Y847180D01*
X651057Y847284D01*
X651046Y847416D01*
X651041Y847590D01*
X651020Y847638D01*
Y847937D01*
X651041Y847985D01*
X651046Y848161D01*
X651057Y848296D01*
X651075Y848402D01*
X651094Y848475D01*
X651099Y848487D01*
X652000D01*
Y853087D01*
X648000D01*
Y848487D01*
X648901D01*
X648906Y848475D01*
X648925Y848402D01*
X648943Y848296D01*
X648954Y848161D01*
X648959Y847985D01*
X648980Y847937D01*
Y847638D01*
X648959Y847590D01*
X648954Y847416D01*
X648943Y847284D01*
X648925Y847180D01*
X648906Y847109D01*
X648898Y847089D01*
X648895Y847087D01*
X648000D01*
Y842487D01*
X649971D01*
X649988Y842477D01*
X650031Y842487D01*
X650032D01*
X650074Y842470D01*
X650115Y842487D01*
X650416D01*
X650458Y842463D01*
X650582Y842376D01*
X650918Y842090D01*
X651112Y841903D01*
X651020Y841481D01*
Y840494D01*
X651397Y839582D01*
X652095Y838885D01*
X653007Y838507D01*
X653993D01*
X654905Y838885D01*
X655603Y839582D01*
X655980Y840494D01*
Y841481D01*
X655770Y841987D01*
X656105Y842487D01*
X658000D01*
Y847087D01*
X657105D01*
X657102Y847089D01*
X657094Y847109D01*
X657074Y847180D01*
X657057Y847284D01*
X657046Y847416D01*
X657041Y847590D01*
X657020Y847638D01*
Y847937D01*
X657041Y847985D01*
X657046Y848161D01*
X657057Y848296D01*
X657075Y848402D01*
X657094Y848475D01*
X657099Y848487D01*
X658000D01*
Y848567D01*
X658416Y848845D01*
X658507Y848807D01*
X659493D01*
X659701Y848893D01*
X659765Y848823D01*
X659885Y848675D01*
X659975Y848546D01*
X660000Y848503D01*
Y848203D01*
X659983Y848161D01*
X660000Y848120D01*
Y848118D01*
X659990Y848075D01*
X660000Y848058D01*
Y845487D01*
X664000D01*
Y850087D01*
X662029D01*
X662012Y850098D01*
X661969Y850087D01*
X661968D01*
X661926Y850105D01*
X661885Y850087D01*
X661708D01*
X661355Y850493D01*
X661480Y850794D01*
Y851781D01*
X661103Y852692D01*
X660405Y853390D01*
X659493Y853768D01*
D02*
G37*
G36*
X869567Y839159D02*
X869250Y838842D01*
X869567D01*
Y839159D01*
D02*
G37*
G36*
X868500Y839141D02*
Y838842D01*
X868853D01*
X868850Y838845D01*
X868500Y839141D01*
D02*
G37*
G36*
X710067Y839159D02*
X709750Y838842D01*
X710067D01*
Y839159D01*
D02*
G37*
G36*
X709000Y839141D02*
Y838842D01*
X709353D01*
X709350Y838845D01*
X709000Y839141D01*
D02*
G37*
G36*
X717993Y830480D02*
X717007D01*
X716095Y830103D01*
X715910Y829918D01*
X715500Y830087D01*
Y830087D01*
X711500D01*
Y825487D01*
X715500D01*
Y825839D01*
X715962Y826030D01*
X716095Y825897D01*
X717007Y825520D01*
X717993D01*
X718905Y825897D01*
X719603Y826595D01*
X719980Y827507D01*
Y828493D01*
X719603Y829405D01*
X718905Y830103D01*
X717993Y830480D01*
D02*
G37*
G36*
X876993D02*
X876007D01*
X875453Y830251D01*
X875000Y830087D01*
X875000Y830087D01*
X875000Y830087D01*
X871000D01*
Y825487D01*
X875000D01*
Y825487D01*
X875500Y825730D01*
X876007Y825520D01*
X876993D01*
X877905Y825897D01*
X878603Y826595D01*
X878980Y827507D01*
Y828493D01*
X878603Y829405D01*
X877905Y830103D01*
X876993Y830480D01*
D02*
G37*
G36*
X851831Y785488D02*
Y783000D01*
X854319D01*
X854282Y783137D01*
X853724Y784103D01*
X852934Y784893D01*
X851967Y785451D01*
X851831Y785488D01*
D02*
G37*
G36*
X848831D02*
X848694Y785451D01*
X847727Y784893D01*
X846938Y784103D01*
X846379Y783137D01*
X846343Y783000D01*
X848831D01*
Y785488D01*
D02*
G37*
G36*
X854319Y780000D02*
X851831D01*
Y777512D01*
X851967Y777549D01*
X852934Y778107D01*
X853724Y778897D01*
X854282Y779863D01*
X854319Y780000D01*
D02*
G37*
G36*
X848831D02*
X846343D01*
X846379Y779863D01*
X846938Y778897D01*
X847727Y778107D01*
X848694Y777549D01*
X848831Y777512D01*
Y780000D01*
D02*
G37*
G36*
X866500Y810541D02*
X804500D01*
X804117Y810383D01*
X803959Y810000D01*
Y789041D01*
X675000D01*
X674617Y788883D01*
X674459Y788500D01*
Y775000D01*
X674617Y774617D01*
X675000Y774459D01*
X844000D01*
X844383Y774617D01*
X844541Y775000D01*
Y791459D01*
X866500D01*
X866883Y791617D01*
X867041Y792000D01*
Y810000D01*
X866883Y810383D01*
X866500Y810541D01*
D02*
G37*
%LPD*%
G36*
X636910Y897765D02*
X636983Y897709D01*
X637062Y897660D01*
X637147Y897618D01*
X637237Y897582D01*
X637334Y897552D01*
X637436Y897529D01*
X637544Y897513D01*
X637659Y897503D01*
X637779Y897500D01*
Y896500D01*
X637659Y896497D01*
X637544Y896487D01*
X637436Y896471D01*
X637334Y896448D01*
X637237Y896418D01*
X637147Y896382D01*
X637062Y896340D01*
X636983Y896291D01*
X636910Y896235D01*
X636843Y896173D01*
Y897827D01*
X636910Y897765D01*
D02*
G37*
G36*
X630910Y896765D02*
X630983Y896709D01*
X631062Y896660D01*
X631147Y896618D01*
X631237Y896582D01*
X631334Y896552D01*
X631436Y896529D01*
X631544Y896513D01*
X631659Y896503D01*
X631779Y896500D01*
Y895500D01*
X631659Y895497D01*
X631544Y895487D01*
X631436Y895471D01*
X631334Y895448D01*
X631237Y895418D01*
X631147Y895382D01*
X631062Y895340D01*
X630983Y895291D01*
X630910Y895235D01*
X630843Y895173D01*
Y896827D01*
X630910Y896765D01*
D02*
G37*
G36*
X776488Y895319D02*
X776397Y895315D01*
X776306Y895303D01*
X776216Y895282D01*
X776126Y895252D01*
X776036Y895214D01*
X775947Y895166D01*
X775859Y895110D01*
X775771Y895045D01*
X775683Y894971D01*
X775596Y894889D01*
X774889Y895596D01*
X774971Y895683D01*
X775045Y895771D01*
X775110Y895859D01*
X775166Y895947D01*
X775214Y896036D01*
X775252Y896126D01*
X775282Y896216D01*
X775303Y896306D01*
X775316Y896397D01*
X775319Y896488D01*
X776488Y895319D01*
D02*
G37*
G36*
X705183Y894816D02*
X705271Y894742D01*
X705359Y894677D01*
X705447Y894621D01*
X705536Y894574D01*
X705626Y894535D01*
X705716Y894505D01*
X705806Y894484D01*
X705897Y894472D01*
X705988Y894468D01*
X704819Y893299D01*
X704815Y893390D01*
X704803Y893481D01*
X704782Y893572D01*
X704752Y893662D01*
X704714Y893751D01*
X704666Y893840D01*
X704610Y893929D01*
X704545Y894017D01*
X704471Y894104D01*
X704389Y894192D01*
X705096Y894899D01*
X705183Y894816D01*
D02*
G37*
G36*
X706911Y894052D02*
X706983Y893997D01*
X707062Y893948D01*
X707147Y893905D01*
X707237Y893869D01*
X707334Y893840D01*
X707436Y893817D01*
X707545Y893801D01*
X707659Y893791D01*
X707779Y893787D01*
Y892787D01*
X707659Y892784D01*
X707545Y892774D01*
X707436Y892758D01*
X707334Y892735D01*
X707237Y892706D01*
X707147Y892670D01*
X707062Y892627D01*
X706983Y892578D01*
X706911Y892523D01*
X706844Y892461D01*
Y894114D01*
X706911Y894052D01*
D02*
G37*
G36*
X706795Y892414D02*
X706731Y892349D01*
X706673Y892278D01*
X706623Y892201D01*
X706579Y892118D01*
X706541Y892029D01*
X706511Y891933D01*
X706487Y891832D01*
X706470Y891724D01*
X706460Y891610D01*
X706457Y891490D01*
X705457Y891530D01*
X705453Y891650D01*
X705444Y891764D01*
X705428Y891873D01*
X705407Y891976D01*
X705378Y892073D01*
X705344Y892165D01*
X705303Y892251D01*
X705256Y892331D01*
X705202Y892406D01*
X705143Y892475D01*
X706795Y892414D01*
D02*
G37*
G36*
X703679Y894166D02*
X703520Y893781D01*
Y892794D01*
X703897Y891882D01*
X704595Y891185D01*
X704937Y891043D01*
Y884506D01*
X704437Y884354D01*
X703651Y885532D01*
X702524Y886658D01*
X701198Y887544D01*
X699726Y888154D01*
X698163Y888465D01*
X696569D01*
X695006Y888154D01*
X693534Y887544D01*
X692209Y886658D01*
X691082Y885532D01*
X690196Y884206D01*
X689586Y882734D01*
X689276Y881171D01*
Y879577D01*
X689586Y878014D01*
X690196Y876542D01*
X691082Y875217D01*
X692209Y874090D01*
X693534Y873204D01*
X695006Y872594D01*
X696569Y872283D01*
X698163D01*
X699726Y872594D01*
X701198Y873204D01*
X702524Y874090D01*
X703651Y875217D01*
X704437Y876394D01*
X704937Y876242D01*
Y868861D01*
X698779Y862703D01*
X698558Y862372D01*
X698480Y861982D01*
Y857138D01*
X698459Y857090D01*
X698454Y856917D01*
X698443Y856784D01*
X698425Y856680D01*
X698406Y856609D01*
X698398Y856589D01*
X698395Y856587D01*
X697500D01*
Y854017D01*
X697490Y854000D01*
X697500Y853957D01*
Y853955D01*
X697483Y853914D01*
X697500Y853872D01*
Y853572D01*
X697475Y853529D01*
X697389Y853406D01*
X697103Y853069D01*
X696916Y852876D01*
X696896Y852825D01*
X696543Y852472D01*
X696322Y852141D01*
X696244Y851751D01*
Y849841D01*
X696223Y849793D01*
X696218Y849617D01*
X696206Y849483D01*
X696189Y849377D01*
X696169Y849303D01*
X696165Y849291D01*
X694697D01*
Y846620D01*
X694245Y846411D01*
X693800Y846606D01*
Y848287D01*
X689200D01*
Y847387D01*
X689188Y847382D01*
X689114Y847362D01*
X689009Y847345D01*
X688874Y847333D01*
X688698Y847328D01*
X688650Y847307D01*
X688350D01*
X688302Y847328D01*
X688126Y847333D01*
X687991Y847345D01*
X687886Y847362D01*
X687812Y847382D01*
X687800Y847387D01*
Y848287D01*
X685248D01*
X685211Y848310D01*
X685167Y848300D01*
X685126Y848317D01*
X685056Y848287D01*
X684791D01*
X684737Y848318D01*
X684615Y848403D01*
X684280Y848686D01*
X684088Y848872D01*
X684038Y848892D01*
X683437Y849493D01*
X683106Y849714D01*
X682716Y849791D01*
X681938D01*
X681051Y850678D01*
Y867840D01*
X681551Y867974D01*
X682003Y867191D01*
X682765Y866428D01*
X683699Y865889D01*
X684740Y865610D01*
X685819D01*
X686860Y865889D01*
X687794Y866428D01*
X688556Y867191D01*
X689095Y868124D01*
X689374Y869166D01*
Y870244D01*
X689095Y871285D01*
X688556Y872219D01*
X687794Y872981D01*
X686860Y873520D01*
X685819Y873799D01*
X684740D01*
X683699Y873520D01*
X682765Y872981D01*
X682003Y872219D01*
X681551Y871436D01*
X681051Y871570D01*
Y879877D01*
X680973Y880267D01*
X680753Y880597D01*
X671664Y889686D01*
X671334Y889907D01*
X670943Y889984D01*
X640666D01*
X636592Y894058D01*
X636737Y894621D01*
X637405Y894897D01*
X638103Y895595D01*
X638262Y895980D01*
X701865D01*
X703679Y894166D01*
D02*
G37*
G36*
X671224Y880787D02*
X671214Y880882D01*
X671183Y880967D01*
X671133Y881042D01*
X671062Y881107D01*
X670971Y881162D01*
X670860Y881207D01*
X670728Y881242D01*
X670576Y881267D01*
X670404Y881282D01*
X670212Y881287D01*
Y882287D01*
X670404Y882292D01*
X670576Y882307D01*
X670728Y882332D01*
X670860Y882367D01*
X670971Y882412D01*
X671062Y882467D01*
X671133Y882532D01*
X671183Y882607D01*
X671214Y882692D01*
X671224Y882787D01*
Y880787D01*
D02*
G37*
G36*
X668486Y882692D02*
X668516Y882607D01*
X668567Y882532D01*
X668638Y882467D01*
X668729Y882412D01*
X668840Y882367D01*
X668972Y882332D01*
X669124Y882307D01*
X669296Y882292D01*
X669488Y882287D01*
Y881287D01*
X669296Y881282D01*
X669124Y881267D01*
X668972Y881242D01*
X668840Y881207D01*
X668729Y881162D01*
X668638Y881107D01*
X668567Y881042D01*
X668516Y880967D01*
X668486Y880882D01*
X668476Y880787D01*
Y882787D01*
X668486Y882692D01*
D02*
G37*
G36*
X659512Y879999D02*
X659502Y879976D01*
X659472Y879954D01*
X659422Y879935D01*
X659352Y879919D01*
X659262Y879905D01*
X659022Y879885D01*
X658512Y879874D01*
Y880874D01*
X658704Y880879D01*
X658875Y880894D01*
X659026Y880919D01*
X659158Y880954D01*
X659269Y880999D01*
X659360Y881054D01*
X659431Y881119D01*
X659482Y881194D01*
X659513Y881279D01*
X659524Y881374D01*
X659512Y879999D01*
D02*
G37*
G36*
X674731Y881636D02*
X674703Y881544D01*
Y881438D01*
X674731Y881318D01*
X674788Y881183D01*
X674873Y881035D01*
X674986Y880872D01*
X675127Y880695D01*
X675495Y880299D01*
X674788Y879592D01*
X674583Y879790D01*
X674215Y880101D01*
X674053Y880215D01*
X673904Y880299D01*
X673770Y880356D01*
X673650Y880384D01*
X673544D01*
X673452Y880356D01*
X673374Y880299D01*
X674788Y881714D01*
X674731Y881636D01*
D02*
G37*
G36*
X661905Y880001D02*
X661820Y879971D01*
X661745Y879920D01*
X661680Y879850D01*
X661625Y879758D01*
X661580Y879647D01*
X661545Y879515D01*
X661520Y879364D01*
X661505Y879192D01*
X661500Y878999D01*
X660500D01*
X660495Y879192D01*
X660480Y879364D01*
X660455Y879515D01*
X660420Y879647D01*
X660375Y879758D01*
X660320Y879850D01*
X660255Y879920D01*
X660180Y879971D01*
X660095Y880001D01*
X660000Y880011D01*
X662000D01*
X661905Y880001D01*
D02*
G37*
G36*
X661505Y878385D02*
X661520Y878215D01*
X661545Y878065D01*
X661580Y877935D01*
X661625Y877825D01*
X661680Y877735D01*
X661745Y877665D01*
X661820Y877615D01*
X661905Y877585D01*
X662000Y877575D01*
X660000D01*
X660095Y877585D01*
X660180Y877615D01*
X660255Y877665D01*
X660320Y877735D01*
X660375Y877825D01*
X660420Y877935D01*
X660455Y878065D01*
X660480Y878215D01*
X660495Y878385D01*
X660500Y878575D01*
X661500D01*
X661505Y878385D01*
D02*
G37*
G36*
X651294Y884320D02*
X653445Y882405D01*
X654068Y881938D01*
X654644Y881555D01*
X655174Y881257D01*
X655657Y881044D01*
X656093Y880917D01*
X656482Y880874D01*
Y879874D01*
X656093Y879832D01*
X655657Y879704D01*
X655174Y879491D01*
X654644Y879193D01*
X654068Y878811D01*
X653445Y878343D01*
X652058Y877151D01*
X650484Y875620D01*
Y885128D01*
X651294Y884320D01*
D02*
G37*
G36*
X671224Y874787D02*
X671214Y874882D01*
X671183Y874967D01*
X671133Y875042D01*
X671062Y875107D01*
X670971Y875162D01*
X670860Y875207D01*
X670728Y875242D01*
X670576Y875267D01*
X670404Y875282D01*
X670212Y875287D01*
Y876287D01*
X670404Y876292D01*
X670576Y876307D01*
X670728Y876332D01*
X670860Y876367D01*
X670971Y876412D01*
X671062Y876467D01*
X671133Y876532D01*
X671183Y876607D01*
X671214Y876692D01*
X671224Y876787D01*
Y874787D01*
D02*
G37*
G36*
X668486Y876692D02*
X668516Y876607D01*
X668567Y876532D01*
X668638Y876467D01*
X668729Y876412D01*
X668840Y876367D01*
X668972Y876332D01*
X669124Y876307D01*
X669296Y876292D01*
X669488Y876287D01*
Y875287D01*
X669296Y875282D01*
X669124Y875267D01*
X668972Y875242D01*
X668840Y875207D01*
X668729Y875162D01*
X668638Y875107D01*
X668567Y875042D01*
X668516Y874967D01*
X668486Y874882D01*
X668476Y874787D01*
Y876787D01*
X668486Y876692D01*
D02*
G37*
G36*
X668072Y874002D02*
X668488Y873999D01*
X668407Y873989D01*
X668335Y873959D01*
X668271Y873909D01*
X668216Y873839D01*
X668169Y873749D01*
X668139Y873661D01*
X668194Y873492D01*
X668296Y873262D01*
X668427Y873023D01*
X668587Y872775D01*
X668777Y872519D01*
X668995Y872255D01*
X669520Y871701D01*
X665606D01*
X665883Y871982D01*
X666349Y872519D01*
X666539Y872775D01*
X666699Y873023D01*
X666830Y873262D01*
X666932Y873492D01*
X666983Y873647D01*
X666938Y873757D01*
X666883Y873848D01*
X666818Y873919D01*
X666743Y873970D01*
X666658Y874001D01*
X666563Y874011D01*
X667054Y874008D01*
X667063Y874132D01*
X668063D01*
X668072Y874002D01*
D02*
G37*
G36*
X676587Y873930D02*
X676600Y873758D01*
X676636Y873564D01*
X676697Y873347D01*
X676782Y873107D01*
X676892Y872845D01*
X677184Y872252D01*
X677573Y871567D01*
X677805Y871191D01*
X673998Y872101D01*
X674300Y872294D01*
X674571Y872489D01*
X674809Y872688D01*
X675015Y872891D01*
X675190Y873096D01*
X675333Y873305D01*
X675444Y873517D01*
X675524Y873732D01*
X675571Y873951D01*
X675587Y874173D01*
X676587Y873930D01*
D02*
G37*
G36*
X700005Y856885D02*
X700020Y856715D01*
X700045Y856565D01*
X700080Y856435D01*
X700125Y856325D01*
X700180Y856235D01*
X700245Y856165D01*
X700320Y856115D01*
X700405Y856085D01*
X700500Y856075D01*
X698500D01*
X698595Y856085D01*
X698680Y856115D01*
X698755Y856165D01*
X698820Y856235D01*
X698875Y856325D01*
X698920Y856435D01*
X698955Y856565D01*
X698980Y856715D01*
X698995Y856885D01*
X699000Y857075D01*
X700000D01*
X700005Y856885D01*
D02*
G37*
G36*
X699426Y852511D02*
X699349Y852567D01*
X699258Y852594D01*
X699153Y852593D01*
X699033Y852563D01*
X698899Y852505D01*
X698750Y852419D01*
X698587Y852305D01*
X698410Y852162D01*
X698012Y851792D01*
X697305Y852499D01*
X697504Y852705D01*
X697818Y853075D01*
X697932Y853238D01*
X698018Y853386D01*
X698076Y853520D01*
X698105Y853640D01*
X698106Y853746D01*
X698079Y853837D01*
X698024Y853914D01*
X699426Y852511D01*
D02*
G37*
G36*
X700988Y852499D02*
X700990Y852489D01*
X700992Y852459D01*
X700999Y852009D01*
X701000Y851499D01*
X700000D01*
X699995Y851691D01*
X699980Y851862D01*
X699955Y852014D01*
X699920Y852145D01*
X699875Y852256D01*
X699820Y852347D01*
X699755Y852419D01*
X699680Y852470D01*
X699595Y852501D01*
X699500Y852511D01*
X700988Y852499D01*
D02*
G37*
G36*
X697769Y849587D02*
X697784Y849415D01*
X697809Y849263D01*
X697844Y849132D01*
X697889Y849020D01*
X697944Y848929D01*
X698009Y848858D01*
X698084Y848808D01*
X698169Y848777D01*
X698264Y848767D01*
X696264D01*
X696359Y848777D01*
X696444Y848808D01*
X696519Y848858D01*
X696584Y848929D01*
X696639Y849020D01*
X696684Y849132D01*
X696719Y849263D01*
X696744Y849415D01*
X696759Y849587D01*
X696764Y849779D01*
X697764D01*
X697769Y849587D01*
D02*
G37*
G36*
X683917Y848285D02*
X684285Y847973D01*
X684447Y847860D01*
X684596Y847775D01*
X684730Y847719D01*
X684850Y847691D01*
X684957D01*
X685048Y847719D01*
X685126Y847775D01*
X683712Y846361D01*
X683769Y846439D01*
X683797Y846531D01*
Y846637D01*
X683769Y846757D01*
X683712Y846891D01*
X683627Y847040D01*
X683514Y847203D01*
X683373Y847379D01*
X683005Y847775D01*
X683712Y848483D01*
X683917Y848285D01*
D02*
G37*
G36*
X669431Y847336D02*
X669403Y847244D01*
Y847138D01*
X669431Y847018D01*
X669488Y846883D01*
X669573Y846735D01*
X669686Y846572D01*
X669827Y846395D01*
X670195Y845999D01*
X669488Y845292D01*
X669283Y845490D01*
X668915Y845801D01*
X668753Y845915D01*
X668604Y845999D01*
X668470Y846056D01*
X668350Y846084D01*
X668244D01*
X668152Y846056D01*
X668074Y845999D01*
X669488Y847414D01*
X669431Y847336D01*
D02*
G37*
G36*
X689724Y845287D02*
X689714Y845382D01*
X689683Y845467D01*
X689633Y845542D01*
X689562Y845607D01*
X689471Y845662D01*
X689360Y845707D01*
X689228Y845742D01*
X689076Y845767D01*
X688904Y845782D01*
X688712Y845787D01*
Y846787D01*
X688904Y846792D01*
X689076Y846807D01*
X689228Y846832D01*
X689360Y846867D01*
X689471Y846912D01*
X689562Y846967D01*
X689633Y847032D01*
X689683Y847107D01*
X689714Y847192D01*
X689724Y847287D01*
Y845287D01*
D02*
G37*
G36*
X687286Y847192D02*
X687317Y847107D01*
X687367Y847032D01*
X687438Y846967D01*
X687529Y846912D01*
X687640Y846867D01*
X687772Y846832D01*
X687924Y846807D01*
X688096Y846792D01*
X688288Y846787D01*
Y845787D01*
X688096Y845782D01*
X687924Y845767D01*
X687772Y845742D01*
X687640Y845707D01*
X687529Y845662D01*
X687438Y845607D01*
X687367Y845542D01*
X687317Y845467D01*
X687286Y845382D01*
X687276Y845287D01*
Y847287D01*
X687286Y847192D01*
D02*
G37*
G36*
X693298Y846251D02*
X693328Y846167D01*
X693378Y846091D01*
X693448Y846026D01*
X693538Y845971D01*
X693648Y845926D01*
X693778Y845891D01*
X693928Y845866D01*
X694098Y845851D01*
X694254Y845847D01*
X694399Y845850D01*
X694719Y845880D01*
X694849Y845906D01*
X694959Y845940D01*
X695049Y845981D01*
X695119Y846030D01*
X695169Y846086D01*
X695199Y846149D01*
X695209Y846220D01*
Y844473D01*
X695199Y844544D01*
X695169Y844607D01*
X695119Y844663D01*
X695049Y844712D01*
X694959Y844753D01*
X694849Y844787D01*
X694719Y844813D01*
X694569Y844831D01*
X694399Y844843D01*
X694265Y844845D01*
X693288Y844799D01*
Y846346D01*
X693298Y846251D01*
D02*
G37*
G36*
X695209Y841914D02*
X695199Y841985D01*
X695169Y842048D01*
X695119Y842104D01*
X695049Y842153D01*
X694959Y842194D01*
X694849Y842228D01*
X694719Y842254D01*
X694569Y842272D01*
X694399Y842284D01*
X694209Y842287D01*
Y843287D01*
X694399Y843291D01*
X694719Y843321D01*
X694849Y843347D01*
X694959Y843381D01*
X695049Y843422D01*
X695119Y843471D01*
X695169Y843527D01*
X695199Y843590D01*
X695209Y843661D01*
Y841914D01*
D02*
G37*
G36*
X687286Y841192D02*
X687317Y841107D01*
X687367Y841032D01*
X687438Y840967D01*
X687529Y840912D01*
X687640Y840867D01*
X687772Y840832D01*
X687924Y840807D01*
X688096Y840792D01*
X688288Y840787D01*
Y839787D01*
X688096Y839782D01*
X687924Y839767D01*
X687772Y839742D01*
X687640Y839707D01*
X687529Y839662D01*
X687438Y839607D01*
X687367Y839542D01*
X687366Y839541D01*
X687368Y839538D01*
X687482Y839375D01*
X687625Y839197D01*
X687995Y838799D01*
X687288Y838092D01*
X687082Y838291D01*
X686713Y838605D01*
X686550Y838719D01*
X686401Y838805D01*
X686267Y838863D01*
X686147Y838893D01*
X686042Y838894D01*
X685951Y838867D01*
X685874Y838811D01*
X687276Y840214D01*
X687221Y840137D01*
X687193Y840046D01*
X687195Y839940D01*
X687224Y839820D01*
X687276Y839700D01*
Y841287D01*
X687286Y841192D01*
D02*
G37*
G36*
X693298Y841133D02*
X693328Y841048D01*
X693378Y840973D01*
X693448Y840908D01*
X693538Y840853D01*
X693648Y840808D01*
X693778Y840773D01*
X693928Y840748D01*
X694098Y840733D01*
X694254Y840729D01*
X694399Y840732D01*
X694719Y840762D01*
X694849Y840788D01*
X694959Y840822D01*
X695049Y840863D01*
X695119Y840911D01*
X695169Y840968D01*
X695199Y841031D01*
X695209Y841102D01*
Y839355D01*
X695199Y839426D01*
X695169Y839489D01*
X695119Y839545D01*
X695049Y839594D01*
X694959Y839635D01*
X694849Y839668D01*
X694719Y839695D01*
X694569Y839713D01*
X694399Y839725D01*
X694254Y839727D01*
X694098Y839723D01*
X693928Y839708D01*
X693778Y839683D01*
X693648Y839648D01*
X693538Y839603D01*
X693448Y839548D01*
X693378Y839483D01*
X693328Y839408D01*
X693298Y839323D01*
X693288Y839228D01*
Y841228D01*
X693298Y841133D01*
D02*
G37*
G36*
X689724Y839287D02*
X689714Y839382D01*
X689683Y839467D01*
X689633Y839542D01*
X689562Y839607D01*
X689471Y839662D01*
X689360Y839707D01*
X689228Y839742D01*
X689076Y839767D01*
X688904Y839782D01*
X688712Y839787D01*
Y840787D01*
X688904Y840792D01*
X689076Y840807D01*
X689228Y840832D01*
X689360Y840867D01*
X689471Y840912D01*
X689562Y840967D01*
X689633Y841032D01*
X689683Y841107D01*
X689714Y841192D01*
X689724Y841287D01*
Y839287D01*
D02*
G37*
G36*
X694697Y838965D02*
Y838842D01*
X695138D01*
X695209Y838813D01*
X695246Y838829D01*
X695284Y838819D01*
X695325Y838842D01*
X698677D01*
X699012Y838351D01*
X698965Y838273D01*
X698957Y838224D01*
X698938Y838167D01*
X698891Y838068D01*
X697844Y836484D01*
X697821Y836452D01*
X697762Y836408D01*
X697415Y836179D01*
X697066Y835978D01*
X696713Y835805D01*
X696500Y835718D01*
X696000Y835957D01*
Y836087D01*
X692000D01*
Y832183D01*
X691538Y831991D01*
X690321Y833208D01*
X690000Y833423D01*
Y836087D01*
X689099D01*
X689094Y836099D01*
X689075Y836173D01*
X689057Y836279D01*
X689046Y836414D01*
X689041Y836590D01*
X689020Y836638D01*
Y837862D01*
X689136Y838137D01*
X689490Y838287D01*
X693800D01*
Y838937D01*
X694244Y839160D01*
X694697Y838965D01*
D02*
G37*
G36*
X688505Y836383D02*
X688520Y836211D01*
X688545Y836059D01*
X688580Y835928D01*
X688625Y835816D01*
X688680Y835725D01*
X688745Y835655D01*
X688820Y835604D01*
X688905Y835573D01*
X689000Y835563D01*
X687000D01*
X687095Y835573D01*
X687180Y835604D01*
X687255Y835655D01*
X687320Y835725D01*
X687375Y835816D01*
X687420Y835928D01*
X687455Y836059D01*
X687480Y836211D01*
X687495Y836383D01*
X687500Y836575D01*
X688500D01*
X688505Y836383D01*
D02*
G37*
G36*
X700515Y838093D02*
X700560Y837964D01*
X700635Y837803D01*
X700740Y837610D01*
X701039Y837130D01*
X701713Y836173D01*
X701998Y835791D01*
X698442D01*
Y835046D01*
X698484Y835107D01*
X698514Y835192D01*
X698524Y835287D01*
Y833287D01*
X698514Y833382D01*
X698484Y833467D01*
X698442Y833529D01*
Y832332D01*
X698074Y832609D01*
X697700Y832856D01*
X697320Y833074D01*
X696935Y833264D01*
X696544Y833424D01*
X696146Y833555D01*
X695744Y833657D01*
X695725Y833660D01*
X695638Y833607D01*
X695567Y833542D01*
X695516Y833467D01*
X695486Y833382D01*
X695476Y833287D01*
Y833704D01*
X695335Y833729D01*
X694920Y833773D01*
X694500Y833787D01*
Y834787D01*
X694920Y834802D01*
X695335Y834846D01*
X695476Y834871D01*
Y835287D01*
X695486Y835192D01*
X695516Y835107D01*
X695567Y835032D01*
X695638Y834967D01*
X695725Y834915D01*
X695744Y834918D01*
X696146Y835020D01*
X696544Y835151D01*
X696935Y835311D01*
X697320Y835500D01*
X697700Y835719D01*
X698074Y835966D01*
X698208Y836067D01*
X698287Y836173D01*
X699365Y837803D01*
X699440Y837964D01*
X699485Y838093D01*
X699500Y838191D01*
X700500D01*
X700515Y838093D01*
D02*
G37*
G36*
X692718Y830083D02*
X693087Y829770D01*
X693250Y829655D01*
X693399Y829569D01*
X693533Y829512D01*
X693653Y829482D01*
X693758Y829481D01*
X693850Y829508D01*
X693926Y829563D01*
X692524Y828161D01*
X692579Y828238D01*
X692606Y828329D01*
X692605Y828434D01*
X692576Y828554D01*
X692518Y828689D01*
X692432Y828837D01*
X692318Y829000D01*
X692175Y829177D01*
X691805Y829575D01*
X692512Y830282D01*
X692718Y830083D01*
D02*
G37*
G36*
X662410Y828265D02*
X662483Y828209D01*
X662562Y828160D01*
X662647Y828118D01*
X662737Y828082D01*
X662834Y828052D01*
X662936Y828029D01*
X663045Y828013D01*
X663159Y828003D01*
X663279Y828000D01*
Y827000D01*
X663159Y826997D01*
X663045Y826987D01*
X662936Y826971D01*
X662834Y826948D01*
X662737Y826918D01*
X662647Y826882D01*
X662562Y826840D01*
X662483Y826791D01*
X662410Y826735D01*
X662344Y826673D01*
Y828327D01*
X662410Y828265D01*
D02*
G37*
G36*
X686524Y826500D02*
X686514Y826595D01*
X686483Y826680D01*
X686433Y826755D01*
X686362Y826820D01*
X686271Y826875D01*
X686160Y826920D01*
X686028Y826955D01*
X685876Y826980D01*
X685704Y826995D01*
X685512Y827000D01*
Y828000D01*
X685704Y828005D01*
X685876Y828020D01*
X686028Y828045D01*
X686160Y828080D01*
X686271Y828125D01*
X686362Y828180D01*
X686433Y828245D01*
X686483Y828320D01*
X686514Y828405D01*
X686524Y828500D01*
Y826500D01*
D02*
G37*
G36*
X904524Y881287D02*
X904514Y881382D01*
X904484Y881467D01*
X904433Y881542D01*
X904362Y881607D01*
X904271Y881662D01*
X904160Y881707D01*
X904028Y881742D01*
X903876Y881767D01*
X903704Y881782D01*
X903512Y881787D01*
Y882787D01*
X903704Y882792D01*
X903876Y882807D01*
X904028Y882832D01*
X904160Y882867D01*
X904271Y882912D01*
X904362Y882967D01*
X904433Y883032D01*
X904484Y883107D01*
X904514Y883192D01*
X904524Y883287D01*
Y881287D01*
D02*
G37*
G36*
X901786Y883192D02*
X901816Y883107D01*
X901867Y883032D01*
X901938Y882967D01*
X902029Y882912D01*
X902140Y882867D01*
X902272Y882832D01*
X902424Y882807D01*
X902596Y882792D01*
X902788Y882787D01*
Y881787D01*
X902596Y881782D01*
X902424Y881767D01*
X902272Y881742D01*
X902140Y881707D01*
X902029Y881662D01*
X901938Y881607D01*
X901867Y881542D01*
X901816Y881467D01*
X901786Y881382D01*
X901776Y881287D01*
Y883287D01*
X901786Y883192D01*
D02*
G37*
G36*
X899626Y880799D02*
X899548Y880856D01*
X899457Y880884D01*
X899350D01*
X899230Y880856D01*
X899096Y880799D01*
X898947Y880715D01*
X898785Y880601D01*
X898608Y880460D01*
X898212Y880092D01*
X897505Y880799D01*
X897703Y881005D01*
X898014Y881372D01*
X898127Y881535D01*
X898212Y881683D01*
X898269Y881818D01*
X898297Y881938D01*
Y882044D01*
X898269Y882136D01*
X898212Y882214D01*
X899626Y880799D01*
D02*
G37*
G36*
X904524Y875287D02*
X904514Y875382D01*
X904484Y875467D01*
X904433Y875542D01*
X904362Y875607D01*
X904271Y875662D01*
X904160Y875707D01*
X904028Y875742D01*
X903876Y875767D01*
X903704Y875782D01*
X903512Y875787D01*
Y876787D01*
X903704Y876792D01*
X903876Y876807D01*
X904028Y876832D01*
X904160Y876867D01*
X904271Y876912D01*
X904362Y876967D01*
X904433Y877032D01*
X904484Y877107D01*
X904514Y877192D01*
X904524Y877287D01*
Y875287D01*
D02*
G37*
G36*
X901786Y877192D02*
X901816Y877107D01*
X901867Y877032D01*
X901938Y876967D01*
X902029Y876912D01*
X902140Y876867D01*
X902272Y876832D01*
X902424Y876807D01*
X902596Y876792D01*
X902788Y876787D01*
Y875787D01*
X902596Y875782D01*
X902424Y875767D01*
X902272Y875742D01*
X902140Y875707D01*
X902029Y875662D01*
X901938Y875607D01*
X901867Y875542D01*
X901816Y875467D01*
X901786Y875382D01*
X901776Y875287D01*
Y877287D01*
X901786Y877192D01*
D02*
G37*
G36*
X905905Y874489D02*
X905820Y874459D01*
X905745Y874409D01*
X905680Y874339D01*
X905625Y874249D01*
X905580Y874139D01*
X905545Y874009D01*
X905523Y873876D01*
X905558Y873705D01*
X905629Y873483D01*
X905730Y873251D01*
X905859Y873010D01*
X906018Y872758D01*
X906205Y872497D01*
X906665Y871946D01*
X906938Y871656D01*
X903026Y871745D01*
X903306Y872017D01*
X903778Y872540D01*
X903969Y872791D01*
X904132Y873035D01*
X904264Y873271D01*
X904367Y873500D01*
X904441Y873721D01*
X904485Y873936D01*
X904500Y874143D01*
X904508Y874143D01*
X904512Y874499D01*
X906000D01*
X905905Y874489D01*
D02*
G37*
G36*
X897428Y873945D02*
X897472Y873730D01*
X897547Y873509D01*
X897652Y873282D01*
X897787Y873050D01*
X897952Y872812D01*
X898146Y872568D01*
X898371Y872319D01*
X898909Y871803D01*
X895002Y871593D01*
X895270Y871895D01*
X895721Y872465D01*
X895905Y872733D01*
X896060Y872990D01*
X896187Y873235D01*
X896286Y873468D01*
X896356Y873691D01*
X896399Y873901D01*
X896413Y874100D01*
X897413Y874155D01*
X897428Y873945D01*
D02*
G37*
G36*
X745024Y881287D02*
X745014Y881382D01*
X744983Y881467D01*
X744933Y881542D01*
X744862Y881607D01*
X744771Y881662D01*
X744660Y881707D01*
X744528Y881742D01*
X744376Y881767D01*
X744204Y881782D01*
X744012Y881787D01*
Y882787D01*
X744204Y882792D01*
X744376Y882807D01*
X744528Y882832D01*
X744660Y882867D01*
X744771Y882912D01*
X744862Y882967D01*
X744933Y883032D01*
X744983Y883107D01*
X745014Y883192D01*
X745024Y883287D01*
Y881287D01*
D02*
G37*
G36*
X742286Y883192D02*
X742316Y883107D01*
X742367Y883032D01*
X742438Y882967D01*
X742529Y882912D01*
X742640Y882867D01*
X742772Y882832D01*
X742924Y882807D01*
X743096Y882792D01*
X743288Y882787D01*
Y881787D01*
X743096Y881782D01*
X742924Y881767D01*
X742772Y881742D01*
X742640Y881707D01*
X742529Y881662D01*
X742438Y881607D01*
X742367Y881542D01*
X742316Y881467D01*
X742286Y881382D01*
X742276Y881287D01*
Y883287D01*
X742286Y883192D01*
D02*
G37*
G36*
X740126Y880799D02*
X740048Y880856D01*
X739957Y880884D01*
X739850D01*
X739730Y880856D01*
X739596Y880799D01*
X739447Y880715D01*
X739285Y880601D01*
X739108Y880460D01*
X738712Y880092D01*
X738005Y880799D01*
X738203Y881005D01*
X738514Y881372D01*
X738627Y881535D01*
X738712Y881683D01*
X738769Y881818D01*
X738797Y881938D01*
Y882044D01*
X738769Y882136D01*
X738712Y882214D01*
X740126Y880799D01*
D02*
G37*
G36*
X745024Y875287D02*
X745014Y875382D01*
X744983Y875467D01*
X744933Y875542D01*
X744862Y875607D01*
X744771Y875662D01*
X744660Y875707D01*
X744528Y875742D01*
X744376Y875767D01*
X744204Y875782D01*
X744012Y875787D01*
Y876787D01*
X744204Y876792D01*
X744376Y876807D01*
X744528Y876832D01*
X744660Y876867D01*
X744771Y876912D01*
X744862Y876967D01*
X744933Y877032D01*
X744983Y877107D01*
X745014Y877192D01*
X745024Y877287D01*
Y875287D01*
D02*
G37*
G36*
X742286Y877192D02*
X742316Y877107D01*
X742367Y877032D01*
X742438Y876967D01*
X742529Y876912D01*
X742640Y876867D01*
X742772Y876832D01*
X742924Y876807D01*
X743096Y876792D01*
X743288Y876787D01*
Y875787D01*
X743096Y875782D01*
X742924Y875767D01*
X742772Y875742D01*
X742640Y875707D01*
X742529Y875662D01*
X742438Y875607D01*
X742367Y875542D01*
X742316Y875467D01*
X742286Y875382D01*
X742276Y875287D01*
Y877287D01*
X742286Y877192D01*
D02*
G37*
G36*
X746405Y874489D02*
X746320Y874459D01*
X746245Y874409D01*
X746180Y874339D01*
X746125Y874249D01*
X746080Y874139D01*
X746045Y874009D01*
X746023Y873876D01*
X746058Y873705D01*
X746129Y873483D01*
X746230Y873251D01*
X746360Y873010D01*
X746518Y872758D01*
X746705Y872497D01*
X747165Y871946D01*
X747438Y871656D01*
X743526Y871745D01*
X743806Y872017D01*
X744278Y872540D01*
X744469Y872791D01*
X744631Y873035D01*
X744764Y873271D01*
X744867Y873500D01*
X744941Y873721D01*
X744985Y873936D01*
X745000Y874143D01*
X745008Y874143D01*
X745012Y874499D01*
X746500D01*
X746405Y874489D01*
D02*
G37*
G36*
X737928Y873945D02*
X737972Y873730D01*
X738047Y873509D01*
X738152Y873282D01*
X738287Y873050D01*
X738451Y872812D01*
X738646Y872568D01*
X738871Y872319D01*
X739409Y871803D01*
X735502Y871593D01*
X735770Y871895D01*
X736221Y872465D01*
X736405Y872733D01*
X736560Y872990D01*
X736687Y873235D01*
X736786Y873468D01*
X736856Y873691D01*
X736899Y873901D01*
X736913Y874100D01*
X737913Y874155D01*
X737928Y873945D01*
D02*
G37*
G36*
X913486Y882892D02*
X913517Y882807D01*
X913567Y882732D01*
X913638Y882667D01*
X913729Y882612D01*
X913840Y882567D01*
X913972Y882532D01*
X914124Y882507D01*
X914296Y882492D01*
X914488Y882487D01*
Y881487D01*
X914296Y881482D01*
X914124Y881467D01*
X913972Y881442D01*
X913840Y881407D01*
X913729Y881362D01*
X913638Y881307D01*
X913567Y881242D01*
X913517Y881167D01*
X913486Y881082D01*
X913476Y880987D01*
Y882987D01*
X913486Y882892D01*
D02*
G37*
G36*
X912905Y880489D02*
X912820Y880459D01*
X912745Y880409D01*
X912680Y880339D01*
X912625Y880249D01*
X912580Y880139D01*
X912545Y880009D01*
X912520Y879859D01*
X912505Y879689D01*
X912500Y879499D01*
X911500D01*
X911495Y879689D01*
X911480Y879859D01*
X911455Y880009D01*
X911420Y880139D01*
X911375Y880249D01*
X911320Y880339D01*
X911255Y880409D01*
X911180Y880459D01*
X911095Y880489D01*
X911000Y880499D01*
X913000D01*
X912905Y880489D01*
D02*
G37*
G36*
X912505Y878883D02*
X912520Y878711D01*
X912545Y878559D01*
X912580Y878428D01*
X912625Y878316D01*
X912680Y878225D01*
X912745Y878154D01*
X912820Y878104D01*
X912905Y878074D01*
X913000Y878063D01*
X911000D01*
X911095Y878074D01*
X911180Y878104D01*
X911255Y878154D01*
X911320Y878225D01*
X911375Y878316D01*
X911420Y878428D01*
X911455Y878559D01*
X911480Y878711D01*
X911495Y878883D01*
X911500Y879075D01*
X912500D01*
X912505Y878883D01*
D02*
G37*
G36*
X921026Y876908D02*
X920487Y877778D01*
X919440Y879244D01*
X918932Y879839D01*
X918434Y880343D01*
X917945Y880755D01*
X917467Y881075D01*
X916999Y881304D01*
X916540Y881442D01*
X916092Y881487D01*
X916337Y882487D01*
X916597Y882524D01*
X916953Y882634D01*
X917406Y882817D01*
X918602Y883402D01*
X921122Y884828D01*
X923284Y886144D01*
X921026Y876908D01*
D02*
G37*
G36*
X753986Y882892D02*
X754016Y882807D01*
X754067Y882732D01*
X754138Y882667D01*
X754229Y882612D01*
X754340Y882567D01*
X754472Y882532D01*
X754624Y882507D01*
X754796Y882492D01*
X754988Y882487D01*
Y881487D01*
X754796Y881482D01*
X754624Y881467D01*
X754472Y881442D01*
X754340Y881407D01*
X754229Y881362D01*
X754138Y881307D01*
X754067Y881242D01*
X754016Y881167D01*
X753986Y881082D01*
X753976Y880987D01*
Y882987D01*
X753986Y882892D01*
D02*
G37*
G36*
X753405Y880489D02*
X753320Y880459D01*
X753245Y880409D01*
X753180Y880339D01*
X753125Y880249D01*
X753080Y880139D01*
X753045Y880009D01*
X753020Y879859D01*
X753005Y879689D01*
X753000Y879499D01*
X752000D01*
X751995Y879689D01*
X751980Y879859D01*
X751955Y880009D01*
X751920Y880139D01*
X751875Y880249D01*
X751820Y880339D01*
X751755Y880409D01*
X751680Y880459D01*
X751595Y880489D01*
X751500Y880499D01*
X753500D01*
X753405Y880489D01*
D02*
G37*
G36*
X753005Y878883D02*
X753020Y878711D01*
X753045Y878559D01*
X753080Y878428D01*
X753125Y878316D01*
X753180Y878225D01*
X753245Y878154D01*
X753320Y878104D01*
X753405Y878074D01*
X753500Y878063D01*
X751500D01*
X751595Y878074D01*
X751680Y878104D01*
X751755Y878154D01*
X751820Y878225D01*
X751875Y878316D01*
X751920Y878428D01*
X751955Y878559D01*
X751980Y878711D01*
X751995Y878883D01*
X752000Y879075D01*
X753000D01*
X753005Y878883D01*
D02*
G37*
G36*
X761526Y876908D02*
X760987Y877778D01*
X759940Y879244D01*
X759432Y879839D01*
X758934Y880343D01*
X758445Y880755D01*
X757967Y881075D01*
X757499Y881304D01*
X757040Y881442D01*
X756592Y881487D01*
X756837Y882487D01*
X757097Y882524D01*
X757453Y882634D01*
X757906Y882817D01*
X759102Y883402D01*
X761622Y884828D01*
X763784Y886144D01*
X761526Y876908D01*
D02*
G37*
G36*
X790910Y896765D02*
X790983Y896709D01*
X791062Y896660D01*
X791147Y896618D01*
X791237Y896582D01*
X791334Y896552D01*
X791436Y896529D01*
X791544Y896513D01*
X791659Y896503D01*
X791779Y896500D01*
Y895500D01*
X791659Y895497D01*
X791544Y895487D01*
X791436Y895471D01*
X791334Y895448D01*
X791237Y895418D01*
X791147Y895382D01*
X791062Y895340D01*
X790983Y895291D01*
X790910Y895235D01*
X790843Y895173D01*
Y896827D01*
X790910Y896765D01*
D02*
G37*
G36*
X866295Y892414D02*
X866231Y892349D01*
X866173Y892278D01*
X866123Y892201D01*
X866079Y892118D01*
X866041Y892029D01*
X866011Y891933D01*
X865987Y891832D01*
X865970Y891724D01*
X865960Y891610D01*
X865957Y891490D01*
X864957Y891530D01*
X864954Y891650D01*
X864944Y891764D01*
X864928Y891873D01*
X864907Y891976D01*
X864878Y892073D01*
X864844Y892165D01*
X864803Y892251D01*
X864756Y892331D01*
X864703Y892406D01*
X864643Y892475D01*
X866295Y892414D01*
D02*
G37*
G36*
X830724Y880787D02*
X830714Y880882D01*
X830684Y880967D01*
X830633Y881042D01*
X830562Y881107D01*
X830471Y881162D01*
X830360Y881207D01*
X830228Y881242D01*
X830076Y881267D01*
X829904Y881282D01*
X829712Y881287D01*
Y882287D01*
X829904Y882292D01*
X830076Y882307D01*
X830228Y882332D01*
X830360Y882367D01*
X830471Y882412D01*
X830562Y882467D01*
X830633Y882532D01*
X830684Y882607D01*
X830714Y882692D01*
X830724Y882787D01*
Y880787D01*
D02*
G37*
G36*
X827986Y882692D02*
X828016Y882607D01*
X828067Y882532D01*
X828138Y882467D01*
X828229Y882412D01*
X828340Y882367D01*
X828472Y882332D01*
X828624Y882307D01*
X828796Y882292D01*
X828988Y882287D01*
Y881287D01*
X828796Y881282D01*
X828624Y881267D01*
X828472Y881242D01*
X828340Y881207D01*
X828229Y881162D01*
X828138Y881107D01*
X828067Y881042D01*
X828016Y880967D01*
X827986Y880882D01*
X827976Y880787D01*
Y882787D01*
X827986Y882692D01*
D02*
G37*
G36*
X834231Y881636D02*
X834203Y881544D01*
Y881438D01*
X834231Y881318D01*
X834288Y881183D01*
X834373Y881035D01*
X834486Y880872D01*
X834627Y880695D01*
X834995Y880299D01*
X834288Y879592D01*
X834083Y879790D01*
X833715Y880101D01*
X833553Y880215D01*
X833404Y880299D01*
X833270Y880356D01*
X833150Y880384D01*
X833043D01*
X832952Y880356D01*
X832874Y880299D01*
X834288Y881714D01*
X834231Y881636D01*
D02*
G37*
G36*
X830724Y874787D02*
X830714Y874882D01*
X830684Y874967D01*
X830633Y875042D01*
X830562Y875107D01*
X830471Y875162D01*
X830360Y875207D01*
X830228Y875242D01*
X830076Y875267D01*
X829904Y875282D01*
X829712Y875287D01*
Y876287D01*
X829904Y876292D01*
X830076Y876307D01*
X830228Y876332D01*
X830360Y876367D01*
X830471Y876412D01*
X830562Y876467D01*
X830633Y876532D01*
X830684Y876607D01*
X830714Y876692D01*
X830724Y876787D01*
Y874787D01*
D02*
G37*
G36*
X827986Y876692D02*
X828016Y876607D01*
X828067Y876532D01*
X828138Y876467D01*
X828229Y876412D01*
X828340Y876367D01*
X828472Y876332D01*
X828624Y876307D01*
X828796Y876292D01*
X828988Y876287D01*
Y875287D01*
X828796Y875282D01*
X828624Y875267D01*
X828472Y875242D01*
X828340Y875207D01*
X828229Y875162D01*
X828138Y875107D01*
X828067Y875042D01*
X828016Y874967D01*
X827986Y874882D01*
X827976Y874787D01*
Y876787D01*
X827986Y876692D01*
D02*
G37*
G36*
X827572Y874002D02*
X827988Y873999D01*
X827907Y873989D01*
X827835Y873959D01*
X827771Y873909D01*
X827716Y873839D01*
X827669Y873749D01*
X827639Y873661D01*
X827694Y873492D01*
X827796Y873262D01*
X827927Y873023D01*
X828087Y872775D01*
X828277Y872519D01*
X828495Y872255D01*
X829020Y871701D01*
X825106D01*
X825383Y871982D01*
X825849Y872519D01*
X826039Y872775D01*
X826199Y873023D01*
X826330Y873262D01*
X826432Y873492D01*
X826483Y873647D01*
X826438Y873757D01*
X826383Y873848D01*
X826318Y873919D01*
X826243Y873970D01*
X826158Y874001D01*
X826063Y874011D01*
X826554Y874008D01*
X826563Y874132D01*
X827563D01*
X827572Y874002D01*
D02*
G37*
G36*
X836087Y873930D02*
X836100Y873758D01*
X836136Y873564D01*
X836197Y873347D01*
X836282Y873107D01*
X836392Y872845D01*
X836684Y872252D01*
X837073Y871567D01*
X837304Y871191D01*
X833498Y872101D01*
X833800Y872294D01*
X834070Y872489D01*
X834309Y872688D01*
X834515Y872891D01*
X834690Y873096D01*
X834833Y873305D01*
X834944Y873517D01*
X835024Y873732D01*
X835071Y873951D01*
X835087Y874173D01*
X836087Y873930D01*
D02*
G37*
G36*
X859505Y856885D02*
X859520Y856715D01*
X859545Y856565D01*
X859580Y856435D01*
X859625Y856325D01*
X859680Y856235D01*
X859745Y856165D01*
X859820Y856115D01*
X859905Y856085D01*
X860000Y856075D01*
X858000D01*
X858095Y856085D01*
X858180Y856115D01*
X858255Y856165D01*
X858320Y856235D01*
X858375Y856325D01*
X858420Y856435D01*
X858455Y856565D01*
X858480Y856715D01*
X858495Y856885D01*
X858500Y857075D01*
X859500D01*
X859505Y856885D01*
D02*
G37*
G36*
X858926Y852511D02*
X858850Y852567D01*
X858758Y852594D01*
X858653Y852593D01*
X858533Y852563D01*
X858399Y852505D01*
X858250Y852419D01*
X858087Y852305D01*
X857910Y852162D01*
X857512Y851792D01*
X856805Y852499D01*
X857004Y852705D01*
X857318Y853075D01*
X857432Y853238D01*
X857518Y853386D01*
X857576Y853520D01*
X857605Y853640D01*
X857607Y853746D01*
X857579Y853837D01*
X857524Y853914D01*
X858926Y852511D01*
D02*
G37*
G36*
X860488Y852499D02*
X860490Y852489D01*
X860492Y852459D01*
X860499Y852009D01*
X860500Y851499D01*
X859500D01*
X859495Y851691D01*
X859480Y851862D01*
X859455Y852014D01*
X859420Y852145D01*
X859375Y852256D01*
X859320Y852347D01*
X859255Y852419D01*
X859180Y852470D01*
X859095Y852501D01*
X859000Y852511D01*
X860488Y852499D01*
D02*
G37*
G36*
X857269Y849587D02*
X857284Y849415D01*
X857309Y849263D01*
X857344Y849132D01*
X857389Y849020D01*
X857444Y848929D01*
X857509Y848858D01*
X857584Y848808D01*
X857669Y848777D01*
X857764Y848767D01*
X855764D01*
X855859Y848777D01*
X855944Y848808D01*
X856019Y848858D01*
X856084Y848929D01*
X856139Y849020D01*
X856184Y849132D01*
X856219Y849263D01*
X856244Y849415D01*
X856259Y849587D01*
X856264Y849779D01*
X857264D01*
X857269Y849587D01*
D02*
G37*
G36*
X843417Y848285D02*
X843785Y847973D01*
X843947Y847860D01*
X844096Y847775D01*
X844230Y847719D01*
X844350Y847691D01*
X844456D01*
X844548Y847719D01*
X844626Y847775D01*
X843212Y846361D01*
X843269Y846439D01*
X843297Y846531D01*
Y846637D01*
X843269Y846757D01*
X843212Y846891D01*
X843127Y847040D01*
X843014Y847203D01*
X842873Y847379D01*
X842505Y847775D01*
X843212Y848483D01*
X843417Y848285D01*
D02*
G37*
G36*
X828931Y847336D02*
X828903Y847244D01*
Y847138D01*
X828931Y847018D01*
X828988Y846883D01*
X829073Y846735D01*
X829186Y846572D01*
X829327Y846395D01*
X829695Y845999D01*
X828988Y845292D01*
X828783Y845490D01*
X828415Y845801D01*
X828253Y845915D01*
X828104Y845999D01*
X827970Y846056D01*
X827850Y846084D01*
X827744D01*
X827652Y846056D01*
X827574Y845999D01*
X828988Y847414D01*
X828931Y847336D01*
D02*
G37*
G36*
X849224Y845287D02*
X849214Y845382D01*
X849183Y845467D01*
X849133Y845542D01*
X849062Y845607D01*
X848971Y845662D01*
X848860Y845707D01*
X848728Y845742D01*
X848576Y845767D01*
X848404Y845782D01*
X848212Y845787D01*
Y846787D01*
X848404Y846792D01*
X848576Y846807D01*
X848728Y846832D01*
X848860Y846867D01*
X848971Y846912D01*
X849062Y846967D01*
X849133Y847032D01*
X849183Y847107D01*
X849214Y847192D01*
X849224Y847287D01*
Y845287D01*
D02*
G37*
G36*
X846786Y847192D02*
X846817Y847107D01*
X846867Y847032D01*
X846938Y846967D01*
X847029Y846912D01*
X847140Y846867D01*
X847272Y846832D01*
X847424Y846807D01*
X847596Y846792D01*
X847788Y846787D01*
Y845787D01*
X847596Y845782D01*
X847424Y845767D01*
X847272Y845742D01*
X847140Y845707D01*
X847029Y845662D01*
X846938Y845607D01*
X846867Y845542D01*
X846817Y845467D01*
X846786Y845382D01*
X846776Y845287D01*
Y847287D01*
X846786Y847192D01*
D02*
G37*
G36*
X852798Y846251D02*
X852828Y846167D01*
X852878Y846091D01*
X852948Y846026D01*
X853038Y845971D01*
X853148Y845926D01*
X853278Y845891D01*
X853428Y845866D01*
X853598Y845851D01*
X853754Y845847D01*
X853899Y845850D01*
X854219Y845880D01*
X854349Y845906D01*
X854459Y845940D01*
X854549Y845981D01*
X854619Y846030D01*
X854669Y846086D01*
X854699Y846149D01*
X854709Y846220D01*
Y844473D01*
X854699Y844544D01*
X854669Y844607D01*
X854619Y844663D01*
X854549Y844712D01*
X854459Y844753D01*
X854349Y844787D01*
X854219Y844813D01*
X854069Y844831D01*
X853899Y844843D01*
X853765Y844845D01*
X852788Y844799D01*
Y846346D01*
X852798Y846251D01*
D02*
G37*
G36*
X854709Y841914D02*
X854699Y841985D01*
X854669Y842048D01*
X854619Y842104D01*
X854549Y842153D01*
X854459Y842194D01*
X854349Y842228D01*
X854219Y842254D01*
X854069Y842272D01*
X853899Y842284D01*
X853709Y842287D01*
Y843287D01*
X853899Y843291D01*
X854219Y843321D01*
X854349Y843347D01*
X854459Y843381D01*
X854549Y843422D01*
X854619Y843471D01*
X854669Y843527D01*
X854699Y843590D01*
X854709Y843661D01*
Y841914D01*
D02*
G37*
G36*
X846786Y841192D02*
X846817Y841107D01*
X846867Y841032D01*
X846938Y840967D01*
X847029Y840912D01*
X847140Y840867D01*
X847272Y840832D01*
X847424Y840807D01*
X847596Y840792D01*
X847788Y840787D01*
Y839787D01*
X847596Y839782D01*
X847424Y839767D01*
X847272Y839742D01*
X847140Y839707D01*
X847029Y839662D01*
X846938Y839607D01*
X846867Y839542D01*
X846866Y839541D01*
X846868Y839538D01*
X846982Y839375D01*
X847125Y839197D01*
X847495Y838799D01*
X846788Y838092D01*
X846582Y838291D01*
X846213Y838605D01*
X846050Y838719D01*
X845901Y838805D01*
X845767Y838863D01*
X845647Y838893D01*
X845542Y838894D01*
X845450Y838867D01*
X845374Y838811D01*
X846776Y840214D01*
X846721Y840137D01*
X846694Y840046D01*
X846695Y839940D01*
X846724Y839820D01*
X846776Y839700D01*
Y841287D01*
X846786Y841192D01*
D02*
G37*
G36*
X852798Y841133D02*
X852828Y841048D01*
X852878Y840973D01*
X852948Y840908D01*
X853038Y840853D01*
X853148Y840808D01*
X853278Y840773D01*
X853428Y840748D01*
X853598Y840733D01*
X853754Y840729D01*
X853899Y840732D01*
X854219Y840762D01*
X854349Y840788D01*
X854459Y840822D01*
X854549Y840863D01*
X854619Y840911D01*
X854669Y840968D01*
X854699Y841031D01*
X854709Y841102D01*
Y839355D01*
X854699Y839426D01*
X854669Y839489D01*
X854619Y839545D01*
X854549Y839594D01*
X854459Y839635D01*
X854349Y839668D01*
X854219Y839695D01*
X854069Y839713D01*
X853899Y839725D01*
X853754Y839727D01*
X853598Y839723D01*
X853428Y839708D01*
X853278Y839683D01*
X853148Y839648D01*
X853038Y839603D01*
X852948Y839548D01*
X852878Y839483D01*
X852828Y839408D01*
X852798Y839323D01*
X852788Y839228D01*
Y841228D01*
X852798Y841133D01*
D02*
G37*
G36*
X849224Y839287D02*
X849214Y839382D01*
X849183Y839467D01*
X849133Y839542D01*
X849062Y839607D01*
X848971Y839662D01*
X848860Y839707D01*
X848728Y839742D01*
X848576Y839767D01*
X848404Y839782D01*
X848212Y839787D01*
Y840787D01*
X848404Y840792D01*
X848576Y840807D01*
X848728Y840832D01*
X848860Y840867D01*
X848971Y840912D01*
X849062Y840967D01*
X849133Y841032D01*
X849183Y841107D01*
X849214Y841192D01*
X849224Y841287D01*
Y839287D01*
D02*
G37*
G36*
X848005Y836383D02*
X848020Y836211D01*
X848045Y836059D01*
X848080Y835928D01*
X848125Y835816D01*
X848180Y835725D01*
X848245Y835655D01*
X848320Y835604D01*
X848405Y835573D01*
X848500Y835563D01*
X846500D01*
X846595Y835573D01*
X846680Y835604D01*
X846755Y835655D01*
X846820Y835725D01*
X846875Y835816D01*
X846920Y835928D01*
X846955Y836059D01*
X846980Y836211D01*
X846995Y836383D01*
X847000Y836575D01*
X848000D01*
X848005Y836383D01*
D02*
G37*
G36*
X854197Y838965D02*
Y838842D01*
X854638D01*
X854709Y838813D01*
X854746Y838829D01*
X854784Y838819D01*
X854825Y838842D01*
X858177D01*
X858510Y838342D01*
X858502Y838299D01*
X858459Y838199D01*
X858453Y837783D01*
X858435Y837412D01*
X858364Y836747D01*
X858335Y836587D01*
X857500D01*
Y835515D01*
X857246Y835465D01*
X855991Y835365D01*
X855500Y835754D01*
Y836087D01*
X851500D01*
Y832183D01*
X851038Y831991D01*
X849821Y833208D01*
X849500Y833423D01*
Y836087D01*
X848599D01*
X848594Y836099D01*
X848575Y836173D01*
X848557Y836279D01*
X848546Y836414D01*
X848541Y836590D01*
X848520Y836638D01*
Y837862D01*
X848636Y838137D01*
X848990Y838287D01*
X853300D01*
Y838937D01*
X853744Y839160D01*
X854197Y838965D01*
D02*
G37*
G36*
X860006Y837766D02*
X860100Y836668D01*
X860157Y836362D01*
X860191Y836223D01*
X860245Y836165D01*
X860320Y836115D01*
X860405Y836085D01*
X860500Y836075D01*
X860229D01*
X860307Y835839D01*
X860401Y835623D01*
X860507Y835435D01*
X860626Y835278D01*
X858440D01*
Y833226D01*
X858305Y833333D01*
X858126Y833428D01*
X858024Y833467D01*
Y833287D01*
X858014Y833382D01*
X857983Y833467D01*
X857971Y833487D01*
X857902Y833512D01*
X857634Y833585D01*
X857320Y833647D01*
X856963Y833698D01*
X856114Y833765D01*
X855699Y833774D01*
X855624Y833767D01*
X855472Y833742D01*
X855340Y833707D01*
X855229Y833662D01*
X855138Y833607D01*
X855067Y833542D01*
X855017Y833467D01*
X854986Y833382D01*
X854976Y833287D01*
Y835287D01*
X854986Y835192D01*
X855017Y835107D01*
X855067Y835032D01*
X855138Y834967D01*
X855229Y834912D01*
X855340Y834867D01*
X855472Y834832D01*
X855624Y834807D01*
X855709Y834800D01*
X857320Y834928D01*
X857634Y834989D01*
X857902Y835062D01*
X857971Y835088D01*
X857983Y835107D01*
X858014Y835192D01*
X858024Y835287D01*
Y835108D01*
X858126Y835147D01*
X858305Y835242D01*
X858408Y835323D01*
X858493Y835435D01*
X858599Y835623D01*
X858693Y835839D01*
X858771Y836075D01*
X858500D01*
X858595Y836085D01*
X858680Y836115D01*
X858755Y836165D01*
X858809Y836223D01*
X858844Y836362D01*
X858900Y836668D01*
X858975Y837370D01*
X858994Y837766D01*
X859000Y838191D01*
X860000D01*
X860006Y837766D01*
D02*
G37*
G36*
X852218Y830083D02*
X852587Y829770D01*
X852750Y829655D01*
X852899Y829569D01*
X853033Y829512D01*
X853153Y829482D01*
X853258Y829481D01*
X853349Y829508D01*
X853426Y829563D01*
X852024Y828161D01*
X852079Y828238D01*
X852106Y828329D01*
X852105Y828434D01*
X852076Y828554D01*
X852018Y828689D01*
X851932Y828837D01*
X851818Y829000D01*
X851675Y829177D01*
X851305Y829575D01*
X852012Y830282D01*
X852218Y830083D01*
D02*
G37*
G36*
X846012Y825999D02*
X845012D01*
Y827000D01*
X845204Y827005D01*
X845375Y827020D01*
X845526Y827045D01*
X845658Y827080D01*
X845769Y827125D01*
X845860Y827180D01*
X845931Y827245D01*
X845982Y827320D01*
X846013Y827405D01*
X846024Y827500D01*
X846012Y825999D01*
D02*
G37*
G36*
X820411Y827265D02*
X820483Y827209D01*
X820562Y827160D01*
X820647Y827118D01*
X820737Y827082D01*
X820834Y827052D01*
X820936Y827029D01*
X821045Y827013D01*
X821159Y827003D01*
X821279Y827000D01*
Y826000D01*
X821159Y825997D01*
X821045Y825987D01*
X820936Y825971D01*
X820834Y825948D01*
X820737Y825918D01*
X820647Y825882D01*
X820562Y825840D01*
X820483Y825791D01*
X820411Y825735D01*
X820343Y825673D01*
Y827327D01*
X820411Y827265D01*
D02*
G37*
G36*
X819012Y879999D02*
X819002Y879976D01*
X818972Y879954D01*
X818922Y879935D01*
X818852Y879919D01*
X818762Y879905D01*
X818522Y879885D01*
X818012Y879874D01*
Y880874D01*
X818204Y880879D01*
X818375Y880894D01*
X818526Y880919D01*
X818658Y880954D01*
X818769Y880999D01*
X818860Y881054D01*
X818931Y881119D01*
X818982Y881194D01*
X819013Y881279D01*
X819024Y881374D01*
X819012Y879999D01*
D02*
G37*
G36*
X821405Y880001D02*
X821320Y879971D01*
X821245Y879920D01*
X821180Y879850D01*
X821125Y879758D01*
X821080Y879647D01*
X821045Y879515D01*
X821020Y879364D01*
X821005Y879192D01*
X821000Y878999D01*
X820000D01*
X819995Y879192D01*
X819980Y879364D01*
X819955Y879515D01*
X819920Y879647D01*
X819875Y879758D01*
X819820Y879850D01*
X819755Y879920D01*
X819680Y879971D01*
X819595Y880001D01*
X819500Y880011D01*
X821500D01*
X821405Y880001D01*
D02*
G37*
G36*
X821005Y878385D02*
X821020Y878215D01*
X821045Y878065D01*
X821080Y877935D01*
X821125Y877825D01*
X821180Y877735D01*
X821245Y877665D01*
X821320Y877615D01*
X821405Y877585D01*
X821500Y877575D01*
X819500D01*
X819595Y877585D01*
X819680Y877615D01*
X819755Y877665D01*
X819820Y877735D01*
X819875Y877825D01*
X819920Y877935D01*
X819955Y878065D01*
X819980Y878215D01*
X819995Y878385D01*
X820000Y878575D01*
X821000D01*
X821005Y878385D01*
D02*
G37*
G36*
X810794Y884320D02*
X812945Y882405D01*
X813568Y881938D01*
X814145Y881555D01*
X814674Y881257D01*
X815157Y881044D01*
X815593Y880917D01*
X815982Y880874D01*
Y879874D01*
X815593Y879832D01*
X815157Y879704D01*
X814674Y879491D01*
X814145Y879193D01*
X813568Y878811D01*
X812945Y878343D01*
X811558Y877151D01*
X809984Y875620D01*
Y885128D01*
X810794Y884320D01*
D02*
G37*
G36*
X873974Y850121D02*
X873883Y850117D01*
X873792Y850105D01*
X873702Y850084D01*
X873612Y850054D01*
X873522Y850015D01*
X873433Y849968D01*
X873345Y849912D01*
X873256Y849847D01*
X873169Y849773D01*
X873082Y849690D01*
X872375Y850397D01*
X872457Y850484D01*
X872531Y850572D01*
X872596Y850660D01*
X872652Y850749D01*
X872700Y850838D01*
X872738Y850927D01*
X872768Y851017D01*
X872789Y851108D01*
X872801Y851198D01*
X872805Y851290D01*
X873974Y850121D01*
D02*
G37*
G36*
X868899Y848688D02*
X869010Y848629D01*
X869125Y848576D01*
X869244Y848531D01*
X869368Y848493D01*
X869496Y848461D01*
X869629Y848437D01*
X869765Y848419D01*
X869907Y848409D01*
X870052Y848405D01*
Y847406D01*
X869907Y847402D01*
X869629Y847374D01*
X869496Y847350D01*
X869368Y847318D01*
X869244Y847280D01*
X869125Y847235D01*
X869010Y847182D01*
X868899Y847123D01*
X868792Y847057D01*
Y848754D01*
X868899Y848688D01*
D02*
G37*
G36*
X869065Y846149D02*
X869095Y846086D01*
X869145Y846030D01*
X869215Y845981D01*
X869305Y845940D01*
X869415Y845906D01*
X869545Y845880D01*
X869695Y845861D01*
X869865Y845850D01*
X870055Y845846D01*
Y844847D01*
X869865Y844843D01*
X869545Y844813D01*
X869415Y844787D01*
X869305Y844753D01*
X869215Y844712D01*
X869145Y844663D01*
X869095Y844607D01*
X869065Y844544D01*
X869055Y844473D01*
Y846220D01*
X869065Y846149D01*
D02*
G37*
G36*
X878212Y844347D02*
X878202Y844442D01*
X878172Y844526D01*
X878122Y844601D01*
X878052Y844666D01*
X877962Y844722D01*
X877852Y844767D01*
X877722Y844801D01*
X877572Y844826D01*
X877402Y844841D01*
X877212Y844847D01*
Y845846D01*
X877402Y845851D01*
X877572Y845866D01*
X877722Y845891D01*
X877852Y845926D01*
X877962Y845971D01*
X878052Y846026D01*
X878122Y846091D01*
X878172Y846167D01*
X878202Y846251D01*
X878212Y846346D01*
Y844347D01*
D02*
G37*
G36*
X869063Y843170D02*
X869088Y843113D01*
X869130Y843064D01*
X869188Y843021D01*
X869263Y842984D01*
X869354Y842955D01*
X869462Y842931D01*
X869587Y842915D01*
X869728Y842905D01*
X869886Y842902D01*
Y841902D01*
X869055Y841914D01*
Y843233D01*
X869063Y843170D01*
D02*
G37*
G36*
X864945Y841914D02*
X864940Y841911D01*
X864923Y841909D01*
X864896Y841908D01*
X864400Y841902D01*
Y842902D01*
X864506Y842902D01*
X864935Y842931D01*
X864951Y842938D01*
X864957Y842947D01*
X864945Y841914D01*
D02*
G37*
G36*
X873183Y839816D02*
X873271Y839742D01*
X873359Y839677D01*
X873447Y839621D01*
X873536Y839574D01*
X873626Y839535D01*
X873716Y839505D01*
X873806Y839484D01*
X873897Y839472D01*
X873988Y839468D01*
X872819Y838299D01*
X872816Y838391D01*
X872803Y838481D01*
X872782Y838572D01*
X872752Y838662D01*
X872714Y838751D01*
X872666Y838840D01*
X872610Y838929D01*
X872545Y839017D01*
X872471Y839104D01*
X872389Y839192D01*
X873096Y839899D01*
X873183Y839816D01*
D02*
G37*
G36*
X864745Y836075D02*
X864012Y835343D01*
X864007Y835352D01*
X863988Y835376D01*
X863905Y835466D01*
X863305Y836075D01*
X864012Y836782D01*
X864745Y836075D01*
D02*
G37*
G36*
X866405Y832501D02*
X866320Y832471D01*
X866245Y832420D01*
X866180Y832349D01*
X866125Y832258D01*
X866080Y832147D01*
X866045Y832016D01*
X866020Y831864D01*
X866005Y831692D01*
X866000Y831499D01*
X865000D01*
X864995Y831692D01*
X864980Y831864D01*
X864955Y832016D01*
X864920Y832147D01*
X864875Y832258D01*
X864820Y832349D01*
X864755Y832420D01*
X864680Y832471D01*
X864595Y832501D01*
X864500Y832511D01*
X866500D01*
X866405Y832501D01*
D02*
G37*
G36*
X866504Y830314D02*
X866516Y830159D01*
X866537Y830022D01*
X866566Y829904D01*
X866603Y829803D01*
X866648Y829721D01*
X866702Y829657D01*
X866764Y829612D01*
X866834Y829585D01*
X866912Y829575D01*
X865512D01*
X865510Y829585D01*
X865508Y829612D01*
X865502Y829904D01*
X865500Y830487D01*
X866500D01*
X866504Y830314D01*
D02*
G37*
G36*
X714474Y850121D02*
X714383Y850117D01*
X714292Y850105D01*
X714202Y850084D01*
X714112Y850054D01*
X714022Y850015D01*
X713933Y849968D01*
X713845Y849912D01*
X713757Y849847D01*
X713669Y849773D01*
X713582Y849690D01*
X712875Y850397D01*
X712957Y850484D01*
X713031Y850572D01*
X713096Y850660D01*
X713152Y850749D01*
X713200Y850838D01*
X713238Y850927D01*
X713268Y851017D01*
X713289Y851108D01*
X713301Y851198D01*
X713305Y851290D01*
X714474Y850121D01*
D02*
G37*
G36*
X709399Y848688D02*
X709510Y848629D01*
X709625Y848576D01*
X709744Y848531D01*
X709868Y848493D01*
X709996Y848461D01*
X710129Y848437D01*
X710265Y848419D01*
X710407Y848409D01*
X710552Y848405D01*
Y847406D01*
X710407Y847402D01*
X710129Y847374D01*
X709996Y847350D01*
X709868Y847318D01*
X709744Y847280D01*
X709625Y847235D01*
X709510Y847182D01*
X709399Y847123D01*
X709292Y847057D01*
Y848754D01*
X709399Y848688D01*
D02*
G37*
G36*
X709565Y846149D02*
X709595Y846086D01*
X709645Y846030D01*
X709715Y845981D01*
X709805Y845940D01*
X709915Y845906D01*
X710045Y845880D01*
X710195Y845861D01*
X710365Y845850D01*
X710555Y845846D01*
Y844847D01*
X710365Y844843D01*
X710045Y844813D01*
X709915Y844787D01*
X709805Y844753D01*
X709715Y844712D01*
X709645Y844663D01*
X709595Y844607D01*
X709565Y844544D01*
X709555Y844473D01*
Y846220D01*
X709565Y846149D01*
D02*
G37*
G36*
X718712Y844347D02*
X718702Y844442D01*
X718672Y844526D01*
X718622Y844601D01*
X718552Y844666D01*
X718462Y844722D01*
X718352Y844767D01*
X718222Y844801D01*
X718072Y844826D01*
X717902Y844841D01*
X717712Y844847D01*
Y845846D01*
X717902Y845851D01*
X718072Y845866D01*
X718222Y845891D01*
X718352Y845926D01*
X718462Y845971D01*
X718552Y846026D01*
X718622Y846091D01*
X718672Y846167D01*
X718702Y846251D01*
X718712Y846346D01*
Y844347D01*
D02*
G37*
G36*
X709563Y843170D02*
X709588Y843113D01*
X709630Y843064D01*
X709688Y843021D01*
X709763Y842984D01*
X709854Y842955D01*
X709962Y842931D01*
X710087Y842915D01*
X710228Y842905D01*
X710386Y842902D01*
Y841902D01*
X709555Y841914D01*
Y843233D01*
X709563Y843170D01*
D02*
G37*
G36*
X705445Y841914D02*
X705440Y841911D01*
X705423Y841909D01*
X705396Y841908D01*
X704900Y841902D01*
Y842902D01*
X705006Y842902D01*
X705435Y842931D01*
X705451Y842938D01*
X705457Y842947D01*
X705445Y841914D01*
D02*
G37*
G36*
X713683Y839816D02*
X713771Y839742D01*
X713859Y839677D01*
X713947Y839621D01*
X714036Y839574D01*
X714126Y839535D01*
X714216Y839505D01*
X714306Y839484D01*
X714397Y839472D01*
X714488Y839468D01*
X713319Y838299D01*
X713315Y838391D01*
X713303Y838481D01*
X713282Y838572D01*
X713252Y838662D01*
X713214Y838751D01*
X713166Y838840D01*
X713110Y838929D01*
X713045Y839017D01*
X712971Y839104D01*
X712889Y839192D01*
X713596Y839899D01*
X713683Y839816D01*
D02*
G37*
G36*
X705245Y836075D02*
X704512Y835343D01*
X704507Y835352D01*
X704488Y835376D01*
X704405Y835466D01*
X703805Y836075D01*
X704512Y836782D01*
X705245Y836075D01*
D02*
G37*
G36*
X706905Y832501D02*
X706820Y832471D01*
X706745Y832420D01*
X706680Y832349D01*
X706625Y832258D01*
X706580Y832147D01*
X706545Y832016D01*
X706520Y831864D01*
X706505Y831692D01*
X706500Y831499D01*
X705500D01*
X705495Y831692D01*
X705480Y831864D01*
X705455Y832016D01*
X705420Y832147D01*
X705375Y832258D01*
X705320Y832349D01*
X705255Y832420D01*
X705180Y832471D01*
X705095Y832501D01*
X705000Y832511D01*
X707000D01*
X706905Y832501D01*
D02*
G37*
G36*
X707004Y830314D02*
X707017Y830159D01*
X707037Y830022D01*
X707066Y829904D01*
X707103Y829803D01*
X707148Y829721D01*
X707202Y829657D01*
X707264Y829612D01*
X707334Y829585D01*
X707412Y829575D01*
X706012D01*
X706010Y829585D01*
X706008Y829612D01*
X706002Y829904D01*
X706000Y830487D01*
X707000D01*
X707004Y830314D01*
D02*
G37*
G36*
X885410Y852052D02*
X885483Y851997D01*
X885562Y851947D01*
X885647Y851905D01*
X885737Y851869D01*
X885834Y851840D01*
X885936Y851817D01*
X886045Y851801D01*
X886159Y851791D01*
X886279Y851787D01*
Y850787D01*
X886159Y850784D01*
X886045Y850774D01*
X885936Y850758D01*
X885834Y850735D01*
X885737Y850706D01*
X885647Y850670D01*
X885562Y850627D01*
X885483Y850578D01*
X885410Y850523D01*
X885343Y850461D01*
Y852114D01*
X885410Y852052D01*
D02*
G37*
G36*
X881786Y852192D02*
X881816Y852107D01*
X881867Y852032D01*
X881938Y851967D01*
X882029Y851912D01*
X882140Y851867D01*
X882272Y851832D01*
X882424Y851807D01*
X882596Y851792D01*
X882754Y851788D01*
X882841Y851791D01*
X882955Y851801D01*
X883064Y851817D01*
X883166Y851840D01*
X883263Y851869D01*
X883353Y851905D01*
X883438Y851947D01*
X883517Y851997D01*
X883589Y852052D01*
X883657Y852114D01*
Y850461D01*
X883589Y850523D01*
X883517Y850578D01*
X883438Y850627D01*
X883353Y850670D01*
X883263Y850706D01*
X883166Y850735D01*
X883064Y850758D01*
X882955Y850774D01*
X882841Y850784D01*
X882754Y850786D01*
X882596Y850782D01*
X882424Y850767D01*
X882272Y850742D01*
X882140Y850707D01*
X882029Y850662D01*
X881938Y850607D01*
X881867Y850542D01*
X881816Y850467D01*
X881786Y850382D01*
X881776Y850287D01*
Y852287D01*
X881786Y852192D01*
D02*
G37*
G36*
X888024Y850287D02*
X888014Y850382D01*
X887984Y850467D01*
X887933Y850542D01*
X887862Y850607D01*
X887771Y850662D01*
X887660Y850707D01*
X887528Y850742D01*
X887376Y850767D01*
X887204Y850782D01*
X887012Y850787D01*
Y851787D01*
X887204Y851792D01*
X887376Y851807D01*
X887528Y851832D01*
X887660Y851867D01*
X887771Y851912D01*
X887862Y851967D01*
X887933Y852032D01*
X887984Y852107D01*
X888014Y852192D01*
X888024Y852287D01*
Y850287D01*
D02*
G37*
G36*
X896405Y849989D02*
X896320Y849959D01*
X896245Y849909D01*
X896180Y849839D01*
X896125Y849749D01*
X896080Y849639D01*
X896045Y849509D01*
X896020Y849359D01*
X896005Y849189D01*
X896000Y848999D01*
X895000D01*
X894995Y849189D01*
X894980Y849359D01*
X894955Y849509D01*
X894920Y849639D01*
X894875Y849749D01*
X894820Y849839D01*
X894755Y849909D01*
X894680Y849959D01*
X894595Y849989D01*
X894500Y849999D01*
X896500D01*
X896405Y849989D01*
D02*
G37*
G36*
X890405D02*
X890320Y849959D01*
X890245Y849909D01*
X890180Y849839D01*
X890125Y849749D01*
X890080Y849639D01*
X890045Y849509D01*
X890020Y849359D01*
X890005Y849189D01*
X890000Y848999D01*
X889000D01*
X888995Y849189D01*
X888980Y849359D01*
X888955Y849509D01*
X888920Y849639D01*
X888875Y849749D01*
X888820Y849839D01*
X888755Y849909D01*
X888680Y849959D01*
X888595Y849989D01*
X888500Y849999D01*
X890500D01*
X890405Y849989D01*
D02*
G37*
G36*
X896005Y848383D02*
X896020Y848211D01*
X896045Y848059D01*
X896080Y847928D01*
X896125Y847816D01*
X896180Y847725D01*
X896245Y847655D01*
X896320Y847604D01*
X896405Y847573D01*
X896500Y847563D01*
X894500D01*
X894595Y847573D01*
X894680Y847604D01*
X894755Y847655D01*
X894820Y847725D01*
X894875Y847816D01*
X894920Y847928D01*
X894955Y848059D01*
X894980Y848211D01*
X894995Y848383D01*
X895000Y848575D01*
X896000D01*
X896005Y848383D01*
D02*
G37*
G36*
X890005D02*
X890020Y848211D01*
X890045Y848059D01*
X890080Y847928D01*
X890125Y847816D01*
X890180Y847725D01*
X890245Y847655D01*
X890320Y847604D01*
X890405Y847573D01*
X890500Y847563D01*
X888500D01*
X888595Y847573D01*
X888680Y847604D01*
X888755Y847655D01*
X888820Y847725D01*
X888875Y847816D01*
X888920Y847928D01*
X888955Y848059D01*
X888980Y848211D01*
X888995Y848383D01*
X889000Y848575D01*
X890000D01*
X890005Y848383D01*
D02*
G37*
G36*
X895426Y843999D02*
X895348Y844056D01*
X895257Y844084D01*
X895150D01*
X895030Y844056D01*
X894896Y843999D01*
X894747Y843915D01*
X894585Y843801D01*
X894408Y843660D01*
X894178Y843446D01*
X894140Y843401D01*
X894076Y843313D01*
X894021Y843224D01*
X893975Y843135D01*
X893938Y843046D01*
X893911Y842956D01*
X893892Y842865D01*
X893883Y842774D01*
X893883Y842683D01*
X892669Y843806D01*
X892760Y843812D01*
X892850Y843828D01*
X892940Y843851D01*
X893030Y843884D01*
X893119Y843924D01*
X893208Y843973D01*
X893296Y844030D01*
X893384Y844096D01*
X893463Y844163D01*
X893503Y844205D01*
X893814Y844572D01*
X893927Y844735D01*
X894012Y844883D01*
X894069Y845018D01*
X894097Y845138D01*
Y845244D01*
X894069Y845336D01*
X894012Y845414D01*
X895426Y843999D01*
D02*
G37*
G36*
X725911Y852052D02*
X725983Y851997D01*
X726062Y851947D01*
X726147Y851905D01*
X726237Y851869D01*
X726334Y851840D01*
X726436Y851817D01*
X726545Y851801D01*
X726659Y851791D01*
X726779Y851787D01*
Y850787D01*
X726659Y850784D01*
X726545Y850774D01*
X726436Y850758D01*
X726334Y850735D01*
X726237Y850706D01*
X726147Y850670D01*
X726062Y850627D01*
X725983Y850578D01*
X725911Y850523D01*
X725843Y850461D01*
Y852114D01*
X725911Y852052D01*
D02*
G37*
G36*
X722286Y852192D02*
X722317Y852107D01*
X722367Y852032D01*
X722438Y851967D01*
X722529Y851912D01*
X722640Y851867D01*
X722772Y851832D01*
X722924Y851807D01*
X723096Y851792D01*
X723254Y851788D01*
X723341Y851791D01*
X723455Y851801D01*
X723564Y851817D01*
X723666Y851840D01*
X723763Y851869D01*
X723853Y851905D01*
X723938Y851947D01*
X724017Y851997D01*
X724089Y852052D01*
X724157Y852114D01*
Y850461D01*
X724089Y850523D01*
X724017Y850578D01*
X723938Y850627D01*
X723853Y850670D01*
X723763Y850706D01*
X723666Y850735D01*
X723564Y850758D01*
X723455Y850774D01*
X723341Y850784D01*
X723254Y850786D01*
X723096Y850782D01*
X722924Y850767D01*
X722772Y850742D01*
X722640Y850707D01*
X722529Y850662D01*
X722438Y850607D01*
X722367Y850542D01*
X722317Y850467D01*
X722286Y850382D01*
X722276Y850287D01*
Y852287D01*
X722286Y852192D01*
D02*
G37*
G36*
X728524Y850287D02*
X728514Y850382D01*
X728483Y850467D01*
X728433Y850542D01*
X728362Y850607D01*
X728271Y850662D01*
X728160Y850707D01*
X728028Y850742D01*
X727876Y850767D01*
X727704Y850782D01*
X727512Y850787D01*
Y851787D01*
X727704Y851792D01*
X727876Y851807D01*
X728028Y851832D01*
X728160Y851867D01*
X728271Y851912D01*
X728362Y851967D01*
X728433Y852032D01*
X728483Y852107D01*
X728514Y852192D01*
X728524Y852287D01*
Y850287D01*
D02*
G37*
G36*
X736905Y849989D02*
X736820Y849959D01*
X736745Y849909D01*
X736680Y849839D01*
X736625Y849749D01*
X736580Y849639D01*
X736545Y849509D01*
X736520Y849359D01*
X736505Y849189D01*
X736500Y848999D01*
X735500D01*
X735495Y849189D01*
X735480Y849359D01*
X735455Y849509D01*
X735420Y849639D01*
X735375Y849749D01*
X735320Y849839D01*
X735255Y849909D01*
X735180Y849959D01*
X735095Y849989D01*
X735000Y849999D01*
X737000D01*
X736905Y849989D01*
D02*
G37*
G36*
X730905D02*
X730820Y849959D01*
X730745Y849909D01*
X730680Y849839D01*
X730625Y849749D01*
X730580Y849639D01*
X730545Y849509D01*
X730520Y849359D01*
X730505Y849189D01*
X730500Y848999D01*
X729500D01*
X729495Y849189D01*
X729480Y849359D01*
X729455Y849509D01*
X729420Y849639D01*
X729375Y849749D01*
X729320Y849839D01*
X729255Y849909D01*
X729180Y849959D01*
X729095Y849989D01*
X729000Y849999D01*
X731000D01*
X730905Y849989D01*
D02*
G37*
G36*
X736505Y848383D02*
X736520Y848211D01*
X736545Y848059D01*
X736580Y847928D01*
X736625Y847816D01*
X736680Y847725D01*
X736745Y847655D01*
X736820Y847604D01*
X736905Y847573D01*
X737000Y847563D01*
X735000D01*
X735095Y847573D01*
X735180Y847604D01*
X735255Y847655D01*
X735320Y847725D01*
X735375Y847816D01*
X735420Y847928D01*
X735455Y848059D01*
X735480Y848211D01*
X735495Y848383D01*
X735500Y848575D01*
X736500D01*
X736505Y848383D01*
D02*
G37*
G36*
X730505D02*
X730520Y848211D01*
X730545Y848059D01*
X730580Y847928D01*
X730625Y847816D01*
X730680Y847725D01*
X730745Y847655D01*
X730820Y847604D01*
X730905Y847573D01*
X731000Y847563D01*
X729000D01*
X729095Y847573D01*
X729180Y847604D01*
X729255Y847655D01*
X729320Y847725D01*
X729375Y847816D01*
X729420Y847928D01*
X729455Y848059D01*
X729480Y848211D01*
X729495Y848383D01*
X729500Y848575D01*
X730500D01*
X730505Y848383D01*
D02*
G37*
G36*
X735926Y843999D02*
X735848Y844056D01*
X735756Y844084D01*
X735650D01*
X735530Y844056D01*
X735396Y843999D01*
X735247Y843915D01*
X735085Y843801D01*
X734908Y843660D01*
X734678Y843446D01*
X734640Y843401D01*
X734576Y843313D01*
X734521Y843224D01*
X734475Y843135D01*
X734438Y843046D01*
X734410Y842956D01*
X734392Y842865D01*
X734383Y842774D01*
X734383Y842683D01*
X733169Y843806D01*
X733259Y843812D01*
X733350Y843828D01*
X733440Y843851D01*
X733530Y843884D01*
X733619Y843924D01*
X733708Y843973D01*
X733796Y844030D01*
X733884Y844096D01*
X733963Y844163D01*
X734003Y844205D01*
X734314Y844572D01*
X734427Y844735D01*
X734512Y844883D01*
X734569Y845018D01*
X734597Y845138D01*
Y845244D01*
X734569Y845336D01*
X734512Y845414D01*
X735926Y843999D01*
D02*
G37*
G36*
X816986Y852192D02*
X817017Y852107D01*
X817067Y852032D01*
X817138Y851967D01*
X817229Y851912D01*
X817300Y851884D01*
X817353Y851905D01*
X817438Y851947D01*
X817517Y851997D01*
X817589Y852052D01*
X817657Y852114D01*
Y851805D01*
X817796Y851792D01*
X817988Y851787D01*
Y850787D01*
X817796Y850782D01*
X817657Y850770D01*
Y850461D01*
X817589Y850523D01*
X817517Y850578D01*
X817438Y850627D01*
X817353Y850670D01*
X817300Y850691D01*
X817229Y850662D01*
X817138Y850607D01*
X817067Y850542D01*
X817017Y850467D01*
X816986Y850382D01*
X816976Y850287D01*
Y850771D01*
X816955Y850774D01*
X816841Y850784D01*
X816721Y850787D01*
Y851787D01*
X816841Y851791D01*
X816955Y851801D01*
X816976Y851804D01*
Y852287D01*
X816986Y852192D01*
D02*
G37*
G36*
X819664Y851044D02*
X819667Y850954D01*
X819681Y850864D01*
X819703Y850775D01*
X819736Y850686D01*
X819779Y850597D01*
X819832Y850508D01*
X819895Y850420D01*
X819968Y850332D01*
X820037Y850259D01*
X820218Y850083D01*
X820587Y849770D01*
X820750Y849656D01*
X820899Y849569D01*
X821033Y849512D01*
X821153Y849482D01*
X821258Y849481D01*
X821350Y849508D01*
X821426Y849563D01*
X820024Y848161D01*
X820079Y848238D01*
X820107Y848329D01*
X820105Y848434D01*
X820076Y848554D01*
X820018Y848689D01*
X819932Y848837D01*
X819818Y849000D01*
X819675Y849177D01*
X819305Y849575D01*
X819725Y849995D01*
X819249Y849632D01*
X819162Y849714D01*
X818988Y849857D01*
X818901Y849916D01*
X818813Y849968D01*
X818725Y850013D01*
X818637Y850049D01*
X818548Y850078D01*
X818459Y850100D01*
X818370Y850113D01*
X819671Y851134D01*
X819664Y851044D01*
D02*
G37*
G36*
X816405Y849001D02*
X816320Y848971D01*
X816245Y848920D01*
X816180Y848849D01*
X816125Y848758D01*
X816080Y848647D01*
X816045Y848516D01*
X816020Y848364D01*
X816005Y848192D01*
X816000Y847999D01*
X815000D01*
X814995Y848192D01*
X814980Y848364D01*
X814955Y848516D01*
X814920Y848647D01*
X814875Y848758D01*
X814820Y848849D01*
X814755Y848920D01*
X814680Y848971D01*
X814595Y849001D01*
X814500Y849011D01*
X816500D01*
X816405Y849001D01*
D02*
G37*
G36*
X810405D02*
X810320Y848971D01*
X810245Y848920D01*
X810180Y848849D01*
X810125Y848758D01*
X810080Y848647D01*
X810045Y848516D01*
X810020Y848364D01*
X810005Y848192D01*
X810000Y847999D01*
X809000D01*
X808995Y848192D01*
X808980Y848364D01*
X808955Y848516D01*
X808920Y848647D01*
X808875Y848758D01*
X808820Y848849D01*
X808755Y848920D01*
X808680Y848971D01*
X808595Y849001D01*
X808500Y849011D01*
X810500D01*
X810405Y849001D01*
D02*
G37*
G36*
X816005Y847385D02*
X816020Y847215D01*
X816045Y847065D01*
X816080Y846935D01*
X816125Y846825D01*
X816180Y846735D01*
X816245Y846665D01*
X816320Y846615D01*
X816405Y846585D01*
X816500Y846575D01*
X814500D01*
X814595Y846585D01*
X814680Y846615D01*
X814755Y846665D01*
X814820Y846735D01*
X814875Y846825D01*
X814920Y846935D01*
X814955Y847065D01*
X814980Y847215D01*
X814995Y847385D01*
X815000Y847575D01*
X816000D01*
X816005Y847385D01*
D02*
G37*
G36*
X810005D02*
X810020Y847215D01*
X810045Y847065D01*
X810080Y846935D01*
X810125Y846825D01*
X810180Y846735D01*
X810245Y846665D01*
X810320Y846615D01*
X810405Y846585D01*
X810500Y846575D01*
X808500D01*
X808595Y846585D01*
X808680Y846615D01*
X808755Y846665D01*
X808820Y846735D01*
X808875Y846825D01*
X808920Y846935D01*
X808955Y847065D01*
X808980Y847215D01*
X808995Y847385D01*
X809000Y847575D01*
X810000D01*
X810005Y847385D01*
D02*
G37*
G36*
X810921Y844337D02*
X810894Y844246D01*
X810895Y844140D01*
X810924Y844020D01*
X810982Y843886D01*
X811068Y843738D01*
X811182Y843575D01*
X811325Y843397D01*
X811695Y842999D01*
X810988Y842292D01*
X810782Y842492D01*
X810413Y842805D01*
X810250Y842919D01*
X810101Y843005D01*
X809967Y843063D01*
X809847Y843093D01*
X809742Y843094D01*
X809651Y843067D01*
X809574Y843011D01*
X810976Y844414D01*
X810921Y844337D01*
D02*
G37*
G36*
X812183Y842516D02*
X812271Y842442D01*
X812359Y842377D01*
X812447Y842321D01*
X812536Y842274D01*
X812626Y842235D01*
X812716Y842205D01*
X812806Y842184D01*
X812897Y842172D01*
X812988Y842168D01*
X811819Y840999D01*
X811815Y841090D01*
X811803Y841181D01*
X811782Y841272D01*
X811752Y841362D01*
X811714Y841451D01*
X811666Y841540D01*
X811610Y841629D01*
X811545Y841717D01*
X811471Y841804D01*
X811389Y841892D01*
X812096Y842599D01*
X812183Y842516D01*
D02*
G37*
G36*
X657486Y852192D02*
X657516Y852107D01*
X657567Y852032D01*
X657638Y851967D01*
X657729Y851912D01*
X657800Y851884D01*
X657853Y851905D01*
X657938Y851947D01*
X658017Y851997D01*
X658089Y852052D01*
X658156Y852114D01*
Y851805D01*
X658296Y851792D01*
X658488Y851787D01*
Y850787D01*
X658296Y850782D01*
X658156Y850770D01*
Y850461D01*
X658089Y850523D01*
X658017Y850578D01*
X657938Y850627D01*
X657853Y850670D01*
X657800Y850691D01*
X657729Y850662D01*
X657638Y850607D01*
X657567Y850542D01*
X657516Y850467D01*
X657486Y850382D01*
X657476Y850287D01*
Y850771D01*
X657455Y850774D01*
X657341Y850784D01*
X657221Y850787D01*
Y851787D01*
X657341Y851791D01*
X657455Y851801D01*
X657476Y851804D01*
Y852287D01*
X657486Y852192D01*
D02*
G37*
G36*
X660164Y851044D02*
X660167Y850954D01*
X660181Y850864D01*
X660203Y850775D01*
X660236Y850686D01*
X660279Y850597D01*
X660332Y850508D01*
X660395Y850420D01*
X660468Y850332D01*
X660537Y850259D01*
X660718Y850083D01*
X661087Y849770D01*
X661250Y849656D01*
X661399Y849569D01*
X661533Y849512D01*
X661653Y849482D01*
X661758Y849481D01*
X661849Y849508D01*
X661926Y849563D01*
X660524Y848161D01*
X660579Y848238D01*
X660606Y848329D01*
X660605Y848434D01*
X660576Y848554D01*
X660518Y848689D01*
X660432Y848837D01*
X660318Y849000D01*
X660175Y849177D01*
X659805Y849575D01*
X660225Y849995D01*
X659749Y849632D01*
X659662Y849714D01*
X659488Y849857D01*
X659401Y849916D01*
X659313Y849968D01*
X659225Y850013D01*
X659137Y850049D01*
X659048Y850078D01*
X658959Y850100D01*
X658870Y850113D01*
X660171Y851134D01*
X660164Y851044D01*
D02*
G37*
G36*
X656905Y849001D02*
X656820Y848971D01*
X656745Y848920D01*
X656680Y848849D01*
X656625Y848758D01*
X656580Y848647D01*
X656545Y848516D01*
X656520Y848364D01*
X656505Y848192D01*
X656500Y847999D01*
X655500D01*
X655495Y848192D01*
X655480Y848364D01*
X655455Y848516D01*
X655420Y848647D01*
X655375Y848758D01*
X655320Y848849D01*
X655255Y848920D01*
X655180Y848971D01*
X655095Y849001D01*
X655000Y849011D01*
X657000D01*
X656905Y849001D01*
D02*
G37*
G36*
X650905D02*
X650820Y848971D01*
X650745Y848920D01*
X650680Y848849D01*
X650625Y848758D01*
X650580Y848647D01*
X650545Y848516D01*
X650520Y848364D01*
X650505Y848192D01*
X650500Y847999D01*
X649500D01*
X649495Y848192D01*
X649480Y848364D01*
X649455Y848516D01*
X649420Y848647D01*
X649375Y848758D01*
X649320Y848849D01*
X649255Y848920D01*
X649180Y848971D01*
X649095Y849001D01*
X649000Y849011D01*
X651000D01*
X650905Y849001D01*
D02*
G37*
G36*
X656505Y847385D02*
X656520Y847215D01*
X656545Y847065D01*
X656580Y846935D01*
X656625Y846825D01*
X656680Y846735D01*
X656745Y846665D01*
X656820Y846615D01*
X656905Y846585D01*
X657000Y846575D01*
X655000D01*
X655095Y846585D01*
X655180Y846615D01*
X655255Y846665D01*
X655320Y846735D01*
X655375Y846825D01*
X655420Y846935D01*
X655455Y847065D01*
X655480Y847215D01*
X655495Y847385D01*
X655500Y847575D01*
X656500D01*
X656505Y847385D01*
D02*
G37*
G36*
X650505D02*
X650520Y847215D01*
X650545Y847065D01*
X650580Y846935D01*
X650625Y846825D01*
X650680Y846735D01*
X650745Y846665D01*
X650820Y846615D01*
X650905Y846585D01*
X651000Y846575D01*
X649000D01*
X649095Y846585D01*
X649180Y846615D01*
X649255Y846665D01*
X649320Y846735D01*
X649375Y846825D01*
X649420Y846935D01*
X649455Y847065D01*
X649480Y847215D01*
X649495Y847385D01*
X649500Y847575D01*
X650500D01*
X650505Y847385D01*
D02*
G37*
G36*
X651421Y844337D02*
X651394Y844246D01*
X651395Y844140D01*
X651424Y844020D01*
X651482Y843886D01*
X651568Y843738D01*
X651682Y843575D01*
X651825Y843397D01*
X652195Y842999D01*
X651488Y842292D01*
X651282Y842492D01*
X650913Y842805D01*
X650750Y842919D01*
X650601Y843005D01*
X650467Y843063D01*
X650347Y843093D01*
X650242Y843094D01*
X650150Y843067D01*
X650074Y843011D01*
X651476Y844414D01*
X651421Y844337D01*
D02*
G37*
G36*
X652683Y842516D02*
X652771Y842442D01*
X652859Y842377D01*
X652947Y842321D01*
X653036Y842274D01*
X653126Y842235D01*
X653216Y842205D01*
X653306Y842184D01*
X653397Y842172D01*
X653488Y842168D01*
X652319Y840999D01*
X652316Y841090D01*
X652303Y841181D01*
X652282Y841272D01*
X652252Y841362D01*
X652214Y841451D01*
X652166Y841540D01*
X652110Y841629D01*
X652045Y841717D01*
X651971Y841804D01*
X651889Y841892D01*
X652596Y842599D01*
X652683Y842516D01*
D02*
G37*
G36*
X714986Y828692D02*
X715017Y828607D01*
X715067Y828532D01*
X715138Y828467D01*
X715229Y828412D01*
X715340Y828367D01*
X715472Y828332D01*
X715624Y828307D01*
X715787Y828293D01*
X715880Y828302D01*
X715986Y828321D01*
X716085Y828347D01*
X716176Y828381D01*
X716260Y828422D01*
X716336Y828471D01*
X716406Y828527D01*
X716467Y828590D01*
X716522Y828661D01*
X716819Y827035D01*
X716745Y827083D01*
X716666Y827126D01*
X716581Y827164D01*
X716492Y827197D01*
X716398Y827224D01*
X716298Y827247D01*
X716194Y827265D01*
X716084Y827277D01*
X715902Y827285D01*
X715796Y827282D01*
X715624Y827267D01*
X715472Y827242D01*
X715340Y827207D01*
X715229Y827162D01*
X715138Y827107D01*
X715067Y827042D01*
X715017Y826967D01*
X714986Y826882D01*
X714976Y826787D01*
Y828787D01*
X714986Y828692D01*
D02*
G37*
G36*
X874486D02*
X874516Y828607D01*
X874567Y828532D01*
X874638Y828467D01*
X874729Y828412D01*
X874840Y828367D01*
X874972Y828332D01*
X875007Y828327D01*
X875085Y828347D01*
X875176Y828381D01*
X875260Y828422D01*
X875336Y828471D01*
X875406Y828527D01*
X875467Y828590D01*
X875521Y828661D01*
X875819Y827035D01*
X875745Y827083D01*
X875666Y827126D01*
X875581Y827164D01*
X875492Y827197D01*
X875398Y827224D01*
X875298Y827247D01*
X875194Y827265D01*
X875150Y827270D01*
X875124Y827267D01*
X874972Y827242D01*
X874840Y827207D01*
X874729Y827162D01*
X874638Y827107D01*
X874567Y827042D01*
X874516Y826967D01*
X874486Y826882D01*
X874476Y826787D01*
Y828787D01*
X874486Y828692D01*
D02*
G37*
G36*
X866500Y792000D02*
X844000D01*
Y775000D01*
X675000D01*
Y788500D01*
X804500D01*
Y810000D01*
X866500D01*
Y792000D01*
D02*
G37*
%LPC*%
G36*
X854571Y805740D02*
X851831D01*
Y803000D01*
X854571D01*
Y805740D01*
D02*
G37*
G36*
X848831D02*
X846091D01*
Y803000D01*
X848831D01*
Y805740D01*
D02*
G37*
G36*
X854571Y800000D02*
X851831D01*
Y797260D01*
X854571D01*
Y800000D01*
D02*
G37*
G36*
X848831D02*
X846091D01*
Y797260D01*
X848831D01*
Y800000D01*
D02*
G37*
%LPD*%
D12*
X640244Y888965D02*
X670943D01*
X633208Y896000D02*
X640244Y888965D01*
X630000Y896000D02*
X633208D01*
X896913Y869855D02*
Y879500D01*
Y869855D02*
X897063Y869705D01*
X900000Y882287D02*
X906000D01*
X899700D02*
X900000D01*
X912000Y881987D02*
X925253D01*
X926866Y880374D01*
X905000Y869768D02*
Y875287D01*
X904937Y869705D02*
X905000Y869768D01*
Y875287D02*
X906000Y876287D01*
X896913Y879500D02*
X899700Y882287D01*
X729000Y835000D02*
X731000D01*
X736500Y829500D01*
X661500Y827500D02*
X687713D01*
X688000Y827787D01*
X883000Y828000D02*
X896500D01*
X880409D02*
X883000D01*
X883087Y828087D01*
X881998Y848410D02*
X883087Y847321D01*
X877757Y848410D02*
X881998D01*
X876667Y849500D02*
X877757Y848410D01*
X876667Y849500D02*
Y852412D01*
X874792Y854287D02*
X876667Y852412D01*
X883087Y828087D02*
Y847321D01*
X865000Y854287D02*
X874792D01*
X868181Y840228D02*
X880409Y828000D01*
X867000Y840228D02*
X868181D01*
X876287Y827787D02*
X876500Y828000D01*
X873000Y827787D02*
X876287D01*
X819500Y826500D02*
X846500D01*
X847500Y827500D02*
Y827787D01*
X846500Y826500D02*
X847500Y827500D01*
X727213Y836787D02*
X729000Y835000D01*
X708681Y840228D02*
X713909Y835000D01*
X707500Y840228D02*
X708681D01*
X713909Y835000D02*
X729000D01*
X717287Y827787D02*
X717500Y828000D01*
X713500Y827787D02*
X717287D01*
X727213Y836787D02*
Y843695D01*
X722408Y848500D02*
X727213Y843695D01*
X718167Y848500D02*
X722408D01*
X717167Y849500D02*
X718167Y848500D01*
X717167Y849500D02*
Y852412D01*
X715596Y853983D02*
X717167Y852412D01*
X705805Y853983D02*
X715596D01*
X705500Y854287D02*
X705805Y853983D01*
X790000Y896000D02*
X823408D01*
X839532Y879877D01*
X773287Y893287D02*
X776500Y896500D01*
X706000Y893287D02*
X773287D01*
X670943Y888965D02*
X680031Y879877D01*
X702287Y897000D02*
X706000Y893287D01*
X636000Y897000D02*
X702287D01*
X866000Y828787D02*
Y830487D01*
X849100Y832487D02*
X853500Y828087D01*
Y827787D02*
Y828087D01*
X912000Y876287D02*
Y881987D01*
Y882287D01*
X889000Y851287D02*
X889500Y851787D01*
X892703Y842625D02*
Y842691D01*
X895500Y845487D01*
X889500Y845787D02*
Y851787D01*
X895500Y845787D02*
Y851787D01*
Y845487D02*
Y845787D01*
X866000Y828787D02*
X867000Y827787D01*
X880000Y851287D02*
X884500D01*
X879941Y845347D02*
X880000Y845287D01*
X884500Y851287D02*
X889000D01*
X867000Y847906D02*
X870590D01*
X867000Y845347D02*
X879941D01*
X900000Y876287D02*
X906000D01*
X867386Y842402D02*
X869886D01*
X874000Y838287D01*
X867000Y842787D02*
X867386Y842402D01*
X866614D02*
X867000Y842787D01*
X870590Y847906D02*
X873986Y851301D01*
X864400Y842402D02*
X866614D01*
X863646Y836442D02*
Y841647D01*
X860000Y846884D02*
X860118Y846766D01*
X859000Y854287D02*
X860000Y853287D01*
X859000Y853987D02*
Y854287D01*
X859500Y838191D02*
X860118Y838809D01*
X860000Y846884D02*
Y853287D01*
X860118Y838809D02*
Y846766D01*
X863646Y841647D02*
X864400Y842402D01*
X865500Y830987D02*
X866000Y830487D01*
X848500Y832487D02*
X849100D01*
X847500Y833787D02*
Y838087D01*
X859500Y834287D02*
Y838191D01*
X865500Y830987D02*
Y834287D01*
X853500Y833787D02*
X854000Y834287D01*
X847500Y833487D02*
Y833787D01*
X854000Y834287D02*
X859500D01*
X847500Y833487D02*
X848500Y832487D01*
X816000Y851287D02*
X818500D01*
Y851087D02*
Y851287D01*
Y851087D02*
X821500Y848087D01*
X815500Y844787D02*
Y850787D01*
X816000Y851287D01*
X809500Y844487D02*
X813000Y840987D01*
X809500Y844787D02*
Y850787D01*
Y844487D02*
Y844787D01*
X865457Y893244D02*
X865500Y893287D01*
X839532Y850256D02*
Y879877D01*
X859000Y861982D02*
X865457Y868439D01*
X859000Y854287D02*
Y861982D01*
X856764Y851751D02*
X859000Y853987D01*
X865457Y868439D02*
Y893244D01*
X835587Y870355D02*
Y879000D01*
X834937Y869705D02*
X835587Y870355D01*
X827063Y869705D02*
Y875224D01*
X820500Y875787D02*
Y881487D01*
X832500Y881787D02*
X832800D01*
X835587Y879000D01*
X826500Y875787D02*
X827063Y875224D01*
X826500Y875787D02*
X832500D01*
X826500Y881787D02*
X832500D01*
X820500Y881487D02*
Y881787D01*
X819387Y880374D02*
X820500Y881487D01*
X805134Y880374D02*
X819387D01*
X845300Y840287D02*
X851000D01*
X845300D02*
X847500Y838087D01*
X845000Y840287D02*
X845300D01*
X831487Y843500D02*
X852908D01*
X841016Y848772D02*
X842216D01*
X844700Y846287D01*
X839532Y850256D02*
X841016Y848772D01*
X845000Y846287D02*
X851000D01*
X844700D02*
X845000D01*
X827500Y847487D02*
Y847787D01*
Y847487D02*
X831487Y843500D01*
X821500Y847787D02*
Y848087D01*
X851000Y840287D02*
X851059Y840228D01*
X852908Y843500D02*
X853621Y842787D01*
X851059Y840228D02*
X856764D01*
X851941Y845347D02*
X856764D01*
X851000Y846287D02*
X851941Y845347D01*
X853621Y842787D02*
X856764D01*
Y847906D02*
Y851751D01*
X863646Y836442D02*
X865500Y834587D01*
Y834287D02*
Y834587D01*
X661000Y875787D02*
Y881487D01*
X645634Y880374D02*
X659887D01*
X661000Y881487D01*
Y881787D01*
X688000Y833787D02*
Y838087D01*
X680031Y850256D02*
Y879877D01*
X685800Y840287D02*
X688000Y838087D01*
X680031Y850256D02*
X681516Y848772D01*
X688000Y833487D02*
X689000Y832487D01*
X688000Y833487D02*
Y833787D01*
X689000Y832487D02*
X689600D01*
X682716Y848772D02*
X685200Y846287D01*
X685500Y840287D02*
X685800D01*
X681516Y848772D02*
X682716D01*
X668000Y847487D02*
X671987Y843500D01*
X668000Y847487D02*
Y847787D01*
X662000D02*
Y848087D01*
X671987Y843500D02*
X693408D01*
X685500Y846287D02*
X691500D01*
X685200D02*
X685500D01*
X685800Y840287D02*
X691500D01*
X659000Y851087D02*
X662000Y848087D01*
X656500Y851287D02*
X659000D01*
X656000Y844787D02*
Y850787D01*
X659000Y851087D02*
Y851287D01*
X650000Y844487D02*
Y844787D01*
Y850787D01*
Y844487D02*
X653500Y840987D01*
X656000Y850787D02*
X656500Y851287D01*
X673300Y881787D02*
X676087Y879000D01*
X673000Y881787D02*
X673300D01*
X667000D02*
X673000D01*
X667000Y875787D02*
X667563Y875224D01*
Y869705D02*
Y875224D01*
X675437Y869705D02*
X676087Y870355D01*
Y879000D01*
X667000Y875787D02*
X673000D01*
X706500Y828787D02*
X707500Y827787D01*
X706500Y828787D02*
Y830487D01*
X691500Y840287D02*
X691559Y840228D01*
X691500Y846287D02*
X692441Y845347D01*
X697264Y847906D02*
Y851751D01*
X692441Y845347D02*
X697264D01*
X691559Y840228D02*
X697264D01*
X694121Y842787D02*
X697264D01*
X693408Y843500D02*
X694121Y842787D01*
X737413Y869855D02*
Y879500D01*
X740200Y882287D01*
X765753Y881987D02*
X767366Y880374D01*
X752500Y881987D02*
X765753D01*
X737413Y869855D02*
X737563Y869705D01*
X745437D02*
X745500Y869768D01*
Y875287D01*
X707500Y845347D02*
X720441D01*
X707886Y842402D02*
X710386D01*
X707500Y842787D02*
X707886Y842402D01*
X707114D02*
X707500Y842787D01*
X740500Y876287D02*
X746500D01*
X752500Y881987D02*
Y882287D01*
Y876287D02*
Y881987D01*
X740500Y882287D02*
X746500D01*
X745500Y875287D02*
X746500Y876287D01*
X740200Y882287D02*
X740500D01*
X736000Y845487D02*
Y845787D01*
Y851787D01*
X730000Y845787D02*
Y851787D01*
X729500Y851287D02*
X730000Y851787D01*
X733203Y842691D02*
X736000Y845487D01*
X733203Y842625D02*
Y842691D01*
X720441Y845347D02*
X720500Y845287D01*
Y851287D02*
X725000D01*
X729500D01*
X711090Y847906D02*
X714486Y851301D01*
X710386Y842402D02*
X714500Y838287D01*
X707500Y847906D02*
X711090D01*
X697264Y851751D02*
X699500Y853987D01*
Y854287D02*
Y861982D01*
X704900Y842402D02*
X707114D01*
X705957Y868439D02*
Y893244D01*
X699500Y861982D02*
X705957Y868439D01*
Y893244D02*
X706000Y893287D01*
X700500Y846884D02*
Y853287D01*
X699500Y853987D02*
Y854287D01*
X700500Y853287D01*
Y846884D02*
X700618Y846766D01*
X704146Y836442D02*
X706000Y834587D01*
Y834287D02*
Y834587D01*
X704146Y836442D02*
Y841647D01*
X704900Y842402D01*
X700000Y838191D02*
X700618Y838809D01*
Y846766D01*
X700000Y834287D02*
Y838191D01*
X694000Y827787D02*
Y828087D01*
X689600Y832487D02*
X694000Y828087D01*
X706000Y830987D02*
X706500Y830487D01*
X694000Y833787D02*
X694500Y834287D01*
X706000Y830987D02*
Y834287D01*
X694500D02*
X700000D01*
D34*
X906000Y882287D02*
D03*
X912000D02*
D03*
X906000Y876287D02*
D03*
X912000D02*
D03*
X826500Y875787D02*
D03*
X820500D02*
D03*
X826500Y881787D02*
D03*
X820500D02*
D03*
X746500Y882287D02*
D03*
X752500D02*
D03*
X746500Y876287D02*
D03*
X752500D02*
D03*
X667000Y881787D02*
D03*
X661000D02*
D03*
X667000Y875787D02*
D03*
X661000D02*
D03*
X730000Y851787D02*
D03*
X736000D02*
D03*
X730000Y845787D02*
D03*
X736000D02*
D03*
X705500Y854287D02*
D03*
X699500D02*
D03*
X815500Y844787D02*
D03*
X809500D02*
D03*
X815500Y850787D02*
D03*
X809500D02*
D03*
X821500Y847787D02*
D03*
X827500D02*
D03*
X865500Y834287D02*
D03*
X859500D02*
D03*
X873000Y827787D02*
D03*
X867000D02*
D03*
X847500D02*
D03*
X853500D02*
D03*
X847500Y833787D02*
D03*
X853500D02*
D03*
X889500Y845787D02*
D03*
X895500D02*
D03*
X889500Y851787D02*
D03*
X895500D02*
D03*
X865000Y854287D02*
D03*
X859000D02*
D03*
X688000Y833787D02*
D03*
X694000D02*
D03*
X706000Y834287D02*
D03*
X700000D02*
D03*
X713500Y827787D02*
D03*
X707500D02*
D03*
X688000D02*
D03*
X694000D02*
D03*
X662000Y847787D02*
D03*
X668000D02*
D03*
X656000Y844787D02*
D03*
X650000D02*
D03*
X656000Y850787D02*
D03*
X650000D02*
D03*
D35*
X900000Y882287D02*
D03*
Y876287D02*
D03*
X832500Y875787D02*
D03*
Y881787D02*
D03*
X740500Y882287D02*
D03*
Y876287D02*
D03*
X673000Y875787D02*
D03*
Y881787D02*
D03*
X720500Y851287D02*
D03*
Y845287D02*
D03*
X880000Y851287D02*
D03*
Y845287D02*
D03*
X851000Y840287D02*
D03*
Y846287D02*
D03*
X845000D02*
D03*
Y840287D02*
D03*
X691500D02*
D03*
Y846287D02*
D03*
X685500D02*
D03*
Y840287D02*
D03*
D46*
X859500Y827000D02*
Y834287D01*
D47*
X700000Y826500D02*
Y834287D01*
D48*
X875134Y880374D02*
D03*
X926866D02*
D03*
X645634D02*
D03*
X697366D02*
D03*
X856866D02*
D03*
X805134D02*
D03*
X715634D02*
D03*
X767366D02*
D03*
D49*
X914779Y869705D02*
D03*
X887220D02*
D03*
X904937D02*
D03*
X897063D02*
D03*
X685280D02*
D03*
X657721D02*
D03*
X675437D02*
D03*
X667563D02*
D03*
X827063D02*
D03*
X834937D02*
D03*
X817220D02*
D03*
X844779D02*
D03*
X755279D02*
D03*
X727720D02*
D03*
X745437D02*
D03*
X737563D02*
D03*
D50*
X850331Y801500D02*
D03*
D51*
Y781500D02*
D03*
D52*
X899500Y834000D02*
D03*
X896500D02*
D03*
X899500Y831000D02*
D03*
Y828000D02*
D03*
X896500Y831000D02*
D03*
X807500D02*
D03*
X804500D02*
D03*
Y828000D02*
D03*
Y825000D02*
D03*
X736500Y827000D02*
D03*
Y829500D02*
D03*
X735000Y824500D02*
D03*
X732000D02*
D03*
X661500Y819000D02*
D03*
Y821500D02*
D03*
X659500Y817000D02*
D03*
X656500D02*
D03*
X654000Y819000D02*
D03*
Y821500D02*
D03*
X661500Y827500D02*
D03*
X896500Y828000D02*
D03*
X876500D02*
D03*
X859500Y827000D02*
D03*
X819500Y826500D02*
D03*
X717500Y828000D02*
D03*
X700000Y826500D02*
D03*
X841500Y801000D02*
D03*
Y798000D02*
D03*
Y795000D02*
D03*
X838500D02*
D03*
Y798000D02*
D03*
Y801000D02*
D03*
X835500D02*
D03*
Y798000D02*
D03*
Y795000D02*
D03*
X832500D02*
D03*
Y798000D02*
D03*
Y801000D02*
D03*
X683000Y777500D02*
D03*
Y780500D02*
D03*
Y783500D02*
D03*
Y786500D02*
D03*
X732000Y777500D02*
D03*
Y780500D02*
D03*
Y783500D02*
D03*
Y786500D02*
D03*
X763000D02*
D03*
Y783500D02*
D03*
Y780500D02*
D03*
Y777500D02*
D03*
X811000Y786500D02*
D03*
Y783500D02*
D03*
Y780500D02*
D03*
Y777500D02*
D03*
X790000Y896000D02*
D03*
X776500Y896500D02*
D03*
X630000Y896000D02*
D03*
X636000Y897000D02*
D03*
X653500Y840987D02*
D03*
X659000Y851287D02*
D03*
X865500Y893287D02*
D03*
X884500Y851287D02*
D03*
X874000Y838287D02*
D03*
X873986Y851301D02*
D03*
X892703Y842625D02*
D03*
X818500Y851287D02*
D03*
X714500Y838287D02*
D03*
X706000Y893287D02*
D03*
X813000Y840987D02*
D03*
X725000Y851287D02*
D03*
X714486Y851301D02*
D03*
X733203Y842625D02*
D03*
D53*
X783465Y824803D02*
D03*
X631890Y746063D02*
D03*
X935059D02*
D03*
D54*
X697264Y847906D02*
D03*
Y845347D02*
D03*
Y842787D02*
D03*
X707500D02*
D03*
Y845347D02*
D03*
Y840228D02*
D03*
X697264D02*
D03*
X856764Y847906D02*
D03*
Y845347D02*
D03*
Y842787D02*
D03*
X867000D02*
D03*
Y845347D02*
D03*
Y840228D02*
D03*
X856764D02*
D03*
D55*
X707500Y847906D02*
D03*
X867000D02*
D03*
M02*
