G04*
G04 #@! TF.GenerationSoftware,Altium Limited,Altium Designer,21.7.2 (23)*
G04*
G04 Layer_Physical_Order=1*
G04 Layer_Color=255*
%FSLAX25Y25*%
%MOIN*%
G70*
G04*
G04 #@! TF.SameCoordinates,38115651-3DBD-42AD-B4A0-95CC447B3A10*
G04*
G04*
G04 #@! TF.FilePolarity,Positive*
G04*
G01*
G75*
%ADD10C,0.00787*%
%ADD12C,0.01000*%
%ADD28R,0.00394X0.00394*%
%ADD34R,0.03000X0.03600*%
%ADD35R,0.03600X0.03000*%
%ADD36R,0.05512X0.08071*%
%ADD37R,0.07500X0.06000*%
G04:AMPARAMS|DCode=38|XSize=60mil|YSize=75mil|CornerRadius=0mil|HoleSize=0mil|Usage=FLASHONLY|Rotation=270.000|XOffset=0mil|YOffset=0mil|HoleType=Round|Shape=Octagon|*
%AMOCTAGOND38*
4,1,8,0.03750,0.01500,0.03750,-0.01500,0.02250,-0.03000,-0.02250,-0.03000,-0.03750,-0.01500,-0.03750,0.01500,-0.02250,0.03000,0.02250,0.03000,0.03750,0.01500,0.0*
%
%ADD38OCTAGOND38*%

%ADD39R,0.03600X0.03500*%
G04:AMPARAMS|DCode=40|XSize=36mil|YSize=40mil|CornerRadius=0mil|HoleSize=0mil|Usage=FLASHONLY|Rotation=270.000|XOffset=0mil|YOffset=0mil|HoleType=Round|Shape=Octagon|*
%AMOCTAGOND40*
4,1,8,0.02000,0.00900,0.02000,-0.00900,0.01100,-0.01800,-0.01100,-0.01800,-0.02000,-0.00900,-0.02000,0.00900,-0.01100,0.01800,0.01100,0.01800,0.02000,0.00900,0.0*
%
%ADD40OCTAGOND40*%

%ADD41R,0.15000X0.08000*%
%ADD42R,0.04500X0.06500*%
%ADD43R,0.09646X0.05512*%
%ADD44R,0.13000X0.08000*%
%ADD45C,0.04000*%
%ADD46C,0.03000*%
%ADD47C,0.05000*%
%ADD48C,0.13583*%
%ADD49C,0.05591*%
%ADD50R,0.07480X0.07480*%
%ADD51C,0.07480*%
%ADD52C,0.02362*%
%ADD53C,0.23622*%
G36*
X940224Y905500D02*
X940214Y905595D01*
X940184Y905680D01*
X940133Y905755D01*
X940062Y905820D01*
X939971Y905875D01*
X939860Y905920D01*
X939728Y905955D01*
X939576Y905980D01*
X939404Y905995D01*
X939212Y906000D01*
Y907000D01*
X939404Y907005D01*
X939576Y907020D01*
X939728Y907045D01*
X939860Y907080D01*
X939971Y907125D01*
X940062Y907180D01*
X940133Y907245D01*
X940184Y907320D01*
X940214Y907405D01*
X940224Y907500D01*
Y905500D01*
D02*
G37*
G36*
X937786Y907405D02*
X937817Y907320D01*
X937867Y907245D01*
X937938Y907180D01*
X938029Y907125D01*
X938140Y907080D01*
X938272Y907045D01*
X938424Y907020D01*
X938596Y907005D01*
X938788Y907000D01*
Y906000D01*
X938596Y905995D01*
X938424Y905980D01*
X938272Y905955D01*
X938140Y905920D01*
X938029Y905875D01*
X937938Y905820D01*
X937867Y905755D01*
X937817Y905680D01*
X937786Y905595D01*
X937776Y905500D01*
Y907500D01*
X937786Y907405D01*
D02*
G37*
G36*
X950224Y910036D02*
X950988Y909719D01*
X951676Y909260D01*
X952260Y908675D01*
X952719Y907988D01*
X953036Y907224D01*
X953197Y906413D01*
Y906000D01*
Y735500D01*
Y735087D01*
X953036Y734276D01*
X952719Y733512D01*
X952260Y732824D01*
X951676Y732240D01*
X950988Y731780D01*
X950224Y731464D01*
X949413Y731303D01*
X854087D01*
X853276Y731464D01*
X852512Y731780D01*
X851824Y732240D01*
X851240Y732825D01*
X850780Y733512D01*
X850464Y734276D01*
X850303Y735087D01*
Y742584D01*
X850300Y742597D01*
X850302Y742610D01*
X850264Y743782D01*
X850255Y743821D01*
X850258Y743860D01*
X849952Y746184D01*
X849935Y746234D01*
X849931Y746287D01*
X849325Y748551D01*
X849301Y748598D01*
X849291Y748650D01*
X848394Y750815D01*
X848365Y750859D01*
X848348Y750909D01*
X847176Y752939D01*
X847141Y752979D01*
X847118Y753026D01*
X845691Y754885D01*
X845651Y754920D01*
X845622Y754964D01*
X843964Y756622D01*
X843920Y756651D01*
X843886Y756691D01*
X842026Y758117D01*
X841979Y758141D01*
X841939Y758176D01*
X839909Y759348D01*
X839859Y759365D01*
X839815Y759394D01*
X837650Y760291D01*
X837598Y760301D01*
X837551Y760325D01*
X835287Y760931D01*
X835234Y760935D01*
X835184Y760952D01*
X832860Y761258D01*
X832821Y761255D01*
X832782Y761264D01*
X831610Y761302D01*
X831597Y761300D01*
X831584Y761303D01*
X735416D01*
X735403Y761300D01*
X735390Y761302D01*
X734218Y761264D01*
X734179Y761255D01*
X734140Y761258D01*
X731816Y760952D01*
X731766Y760935D01*
X731713Y760931D01*
X729449Y760325D01*
X729402Y760301D01*
X729350Y760291D01*
X727185Y759394D01*
X727141Y759365D01*
X727091Y759348D01*
X725061Y758176D01*
X725021Y758141D01*
X724974Y758117D01*
X723114Y756691D01*
X723080Y756651D01*
X723036Y756622D01*
X721378Y754964D01*
X721349Y754920D01*
X721309Y754885D01*
X719882Y753026D01*
X719859Y752979D01*
X719824Y752939D01*
X718652Y750909D01*
X718635Y750859D01*
X718606Y750815D01*
X717709Y748650D01*
X717699Y748598D01*
X717675Y748551D01*
X717069Y746287D01*
X717065Y746234D01*
X717048Y746184D01*
X716742Y743860D01*
X716745Y743821D01*
X716736Y743782D01*
X716698Y742610D01*
X716700Y742597D01*
X716697Y742584D01*
Y735087D01*
X716536Y734276D01*
X716220Y733512D01*
X715760Y732824D01*
X715175Y732240D01*
X714488Y731780D01*
X713724Y731464D01*
X712913Y731303D01*
X623598D01*
X622788Y731464D01*
X622024Y731780D01*
X621336Y732240D01*
X620752Y732825D01*
X620292Y733512D01*
X619976Y734276D01*
X619815Y735087D01*
Y735500D01*
Y906000D01*
Y906413D01*
X619976Y907224D01*
X620292Y907988D01*
X620752Y908675D01*
X621336Y909260D01*
X622024Y909719D01*
X622788Y910036D01*
X623598Y910197D01*
X639459D01*
Y885705D01*
X639478Y885660D01*
X639350Y885532D01*
X638464Y884206D01*
X637854Y882734D01*
X637543Y881171D01*
Y879577D01*
X637854Y878014D01*
X638464Y876542D01*
X639350Y875217D01*
X639478Y875089D01*
X639459Y875043D01*
Y832500D01*
X639617Y832117D01*
X640000Y831959D01*
X650500D01*
Y831787D01*
X653417D01*
X653443Y831773D01*
X653760Y831740D01*
X653975Y831663D01*
X654166Y831536D01*
X654346Y831342D01*
X654515Y831064D01*
X654666Y830694D01*
X654790Y830231D01*
X654883Y829676D01*
X654939Y829031D01*
X654951Y828589D01*
Y827000D01*
X655145Y826025D01*
X655200Y825942D01*
Y825000D01*
X655993D01*
X656525Y824645D01*
X657500Y824451D01*
X658475Y824645D01*
X658917Y824940D01*
X659024Y824967D01*
X659069Y825000D01*
X659800D01*
Y825019D01*
X659827Y825054D01*
X660300Y825312D01*
X661007Y825020D01*
X661993D01*
X662905Y825397D01*
X663603Y826095D01*
X663980Y827007D01*
Y827993D01*
X663603Y828905D01*
X662905Y829603D01*
X661993Y829980D01*
X661007D01*
X660650Y829833D01*
X660203Y830188D01*
X660210Y830231D01*
X660334Y830694D01*
X660485Y831064D01*
X660654Y831342D01*
X660834Y831536D01*
X661025Y831663D01*
X661240Y831740D01*
X661557Y831773D01*
X661583Y831787D01*
X664500D01*
Y831959D01*
X678215D01*
X678409Y831893D01*
X678659Y831684D01*
X678700Y831618D01*
Y830787D01*
X679493D01*
X680024Y830433D01*
X680760Y830286D01*
X680744Y829780D01*
X680217Y829710D01*
X679487Y829408D01*
X678860Y828927D01*
X678753Y828787D01*
X678700D01*
Y828718D01*
X678379Y828300D01*
X678077Y827571D01*
X677974Y826787D01*
X678077Y826004D01*
X678379Y825274D01*
X678700Y824857D01*
Y824787D01*
X678753D01*
X678860Y824648D01*
X686005Y817503D01*
X685814Y817041D01*
X661978D01*
X661878Y817000D01*
X661770D01*
X661694Y816924D01*
X661595Y816883D01*
X661554Y816783D01*
X661478Y816707D01*
X661144Y815902D01*
X660617Y815375D01*
X660459Y814992D01*
X660459Y814992D01*
Y789000D01*
X660562Y788750D01*
X660331Y788250D01*
X658250D01*
Y786000D01*
X663750D01*
Y787900D01*
X663865Y788015D01*
X664250Y788203D01*
X664459Y788094D01*
Y779300D01*
X664000D01*
Y777000D01*
X662500D01*
Y775500D01*
X660500D01*
Y774932D01*
X628595D01*
X626520Y777008D01*
Y860450D01*
X626541Y860498D01*
X626546Y860674D01*
X626557Y860809D01*
X626575Y860914D01*
X626594Y860988D01*
X626599Y861000D01*
X628000D01*
X629750Y862750D01*
Y866250D01*
X628000Y868000D01*
X623000D01*
X621250Y866250D01*
Y862750D01*
X623000Y861000D01*
X624401D01*
X624406Y860988D01*
X624425Y860914D01*
X624443Y860809D01*
X624454Y860674D01*
X624459Y860498D01*
X624480Y860450D01*
Y776586D01*
X624558Y776196D01*
X624779Y775865D01*
X627452Y773192D01*
X627783Y772971D01*
X628173Y772893D01*
X670533D01*
X670923Y772971D01*
X671254Y773192D01*
X673043Y774980D01*
X674467D01*
X674617Y774617D01*
X675000Y774459D01*
X684500D01*
X684883Y774617D01*
X685041Y775000D01*
Y776033D01*
X685103Y776095D01*
X685480Y777007D01*
Y777993D01*
X685103Y778905D01*
X685041Y778967D01*
Y779034D01*
X685103Y779095D01*
X685480Y780007D01*
Y780993D01*
X685103Y781905D01*
X685041Y781966D01*
Y782033D01*
X685103Y782095D01*
X685480Y783007D01*
Y783993D01*
X685103Y784905D01*
X685041Y784967D01*
Y785034D01*
X685103Y785095D01*
X685480Y786007D01*
Y786993D01*
X685103Y787905D01*
X685041Y787966D01*
Y788500D01*
X684959Y788698D01*
X684989Y788742D01*
X685040Y788764D01*
X685101Y788910D01*
X685188Y789041D01*
X685178Y789095D01*
X685199Y789146D01*
Y796963D01*
X714459D01*
Y779900D01*
X714000Y779800D01*
X713959Y779800D01*
X713500D01*
Y777500D01*
Y775200D01*
X713959D01*
X714000Y775200D01*
X714459Y775101D01*
Y774000D01*
X714617Y773617D01*
X715000Y773459D01*
X723801D01*
X723947Y773519D01*
X724102Y773550D01*
X724132Y773596D01*
X724184Y773617D01*
X724244Y773763D01*
X724332Y773894D01*
X724431Y774394D01*
X724484Y774459D01*
X733500D01*
X733883Y774617D01*
X734041Y775000D01*
Y776033D01*
X734103Y776095D01*
X734480Y777007D01*
Y777993D01*
X734103Y778905D01*
X734041Y778967D01*
Y779034D01*
X734103Y779095D01*
X734480Y780007D01*
Y780993D01*
X734103Y781905D01*
X734041Y781966D01*
Y782033D01*
X734103Y782095D01*
X734480Y783007D01*
Y783993D01*
X734103Y784905D01*
X734041Y784967D01*
Y785034D01*
X734103Y785095D01*
X734480Y786007D01*
Y786993D01*
X734288Y787459D01*
X734622Y787959D01*
X734801D01*
X734947Y788019D01*
X735102Y788050D01*
X735133Y788096D01*
X735184Y788117D01*
X735244Y788263D01*
X735332Y788394D01*
X735431Y788894D01*
X735484Y788959D01*
X744459D01*
Y779900D01*
X744000Y779800D01*
X743959Y779800D01*
X743500D01*
Y777500D01*
Y775200D01*
X743959D01*
X744000Y775200D01*
X744459Y775101D01*
Y774500D01*
X744617Y774117D01*
X745000Y773959D01*
X753625D01*
X753676Y773980D01*
X753730Y773969D01*
X753862Y774057D01*
X754007Y774117D01*
X754027Y774163D01*
X754032Y774171D01*
X754075Y774199D01*
X754202Y774389D01*
X754315Y774535D01*
X754500Y774459D01*
X764000D01*
X764383Y774617D01*
X764541Y775000D01*
Y775533D01*
X765103Y776095D01*
X765480Y777007D01*
Y777993D01*
X765103Y778905D01*
X765008Y779000D01*
X765103Y779095D01*
X765480Y780007D01*
Y780993D01*
X765103Y781905D01*
X765008Y782000D01*
X765103Y782095D01*
X765480Y783007D01*
Y783993D01*
X765103Y784905D01*
X765008Y785000D01*
X765103Y785095D01*
X765480Y786007D01*
Y786993D01*
X765103Y787905D01*
X764541Y788467D01*
Y788500D01*
X764383Y788883D01*
X764170Y788971D01*
X764199Y789041D01*
Y798459D01*
X792959D01*
Y779399D01*
X792500Y779300D01*
X792459Y779300D01*
X792000D01*
Y777000D01*
Y774700D01*
X792500D01*
X792500Y774700D01*
X793000Y774754D01*
X793117Y774471D01*
X793471Y774117D01*
X793854Y773959D01*
X793854Y773959D01*
X794083D01*
X794195Y774005D01*
X794317Y774012D01*
X794734Y774212D01*
X794796Y774282D01*
X794883Y774317D01*
X794929Y774430D01*
X795011Y774520D01*
X795476Y774700D01*
X797524D01*
X797990Y774520D01*
X798071Y774430D01*
X798117Y774317D01*
X798204Y774282D01*
X798266Y774212D01*
X798683Y774012D01*
X798805Y774005D01*
X798917Y773959D01*
X804500D01*
X804883Y774117D01*
X805041Y774500D01*
Y775500D01*
X806901D01*
X807000Y775459D01*
X808776D01*
X808917Y775117D01*
X809300Y774959D01*
X816500D01*
X816883Y775117D01*
X817041Y775500D01*
Y791459D01*
X866500D01*
X866883Y791617D01*
X867041Y792000D01*
Y810000D01*
X866883Y810383D01*
X866500Y810541D01*
X834041D01*
Y811980D01*
X933500D01*
X933890Y812058D01*
X934221Y812279D01*
X949221Y827279D01*
X949442Y827610D01*
X949520Y828000D01*
Y885450D01*
X949541Y885498D01*
X949546Y885674D01*
X949557Y885809D01*
X949575Y885914D01*
X949594Y885988D01*
X949599Y886000D01*
X950800D01*
Y890000D01*
X946200D01*
Y886000D01*
X947401D01*
X947406Y885988D01*
X947425Y885914D01*
X947443Y885809D01*
X947454Y885674D01*
X947459Y885498D01*
X947480Y885450D01*
Y828422D01*
X933078Y814020D01*
X834041D01*
Y823000D01*
X833883Y823383D01*
X833500Y823541D01*
X820045D01*
X819993Y824020D01*
X820905Y824397D01*
X821603Y825095D01*
X821700Y825330D01*
X822200Y825231D01*
Y824500D01*
X824303D01*
X824500Y824461D01*
X839913D01*
X840693Y824616D01*
X840891Y824748D01*
X858455D01*
X859007Y824520D01*
X859993D01*
X860545Y824748D01*
X865485D01*
X867976Y822258D01*
X868637Y821816D01*
X869417Y821661D01*
X902113D01*
X902893Y821816D01*
X903555Y822258D01*
X908577Y827280D01*
X908580Y827282D01*
X909389Y828033D01*
X909755Y828331D01*
X910108Y828589D01*
X910442Y828803D01*
X910756Y828974D01*
X911049Y829102D01*
X911318Y829191D01*
X911564Y829241D01*
X911827Y829260D01*
X911832Y829262D01*
X911837Y829260D01*
X911889Y829287D01*
X912300D01*
Y829754D01*
X912328Y829838D01*
X912325Y829843D01*
X912327Y829849D01*
X912300Y829900D01*
Y831459D01*
X933000D01*
X933383Y831617D01*
X933541Y832000D01*
Y849032D01*
X934091D01*
Y855543D01*
X933541D01*
Y875583D01*
X933490Y875706D01*
X933489Y875723D01*
X934036Y876542D01*
X934646Y878014D01*
X934957Y879577D01*
Y881171D01*
X934646Y882734D01*
X934036Y884206D01*
X933489Y885025D01*
X933490Y885042D01*
X933541Y885165D01*
Y891494D01*
X933813D01*
X934204Y891571D01*
X934534Y891792D01*
X940431Y897689D01*
X940481Y897709D01*
X940661Y897882D01*
X940816Y898019D01*
X940953Y898126D01*
X941062Y898200D01*
X941385D01*
X941426Y898183D01*
X941465Y898199D01*
X941505Y898189D01*
X941524Y898200D01*
X943350D01*
X944500Y899350D01*
Y901650D01*
X943350Y902800D01*
X940650D01*
X939500Y901650D01*
Y900224D01*
X939489Y900205D01*
X939499Y900165D01*
X939483Y900126D01*
X939500Y900085D01*
Y899762D01*
X939431Y899659D01*
X939177Y899356D01*
X939009Y899181D01*
X938789Y899123D01*
X938300Y899461D01*
Y902500D01*
X933700D01*
X933541Y902934D01*
Y904066D01*
X933700Y904500D01*
X934041Y904500D01*
X938300D01*
Y905401D01*
X938312Y905406D01*
X938386Y905425D01*
X938491Y905443D01*
X938626Y905454D01*
X938802Y905459D01*
X938850Y905480D01*
X939150D01*
X939198Y905459D01*
X939374Y905454D01*
X939509Y905443D01*
X939614Y905425D01*
X939688Y905406D01*
X939700Y905401D01*
Y904250D01*
X944300D01*
Y908750D01*
X939700D01*
Y907599D01*
X939688Y907594D01*
X939614Y907575D01*
X939509Y907557D01*
X939374Y907546D01*
X939198Y907541D01*
X939150Y907520D01*
X938850D01*
X938802Y907541D01*
X938626Y907546D01*
X938491Y907557D01*
X938386Y907575D01*
X938312Y907594D01*
X938300Y907599D01*
Y908500D01*
X933700Y908500D01*
X933541Y908934D01*
Y910197D01*
X949413D01*
X950224Y910036D01*
D02*
G37*
G36*
X798959Y901520D02*
X798350D01*
X798302Y901541D01*
X798126Y901546D01*
X797991Y901557D01*
X797886Y901575D01*
X797812Y901594D01*
X797800Y901599D01*
Y902500D01*
X793200D01*
Y898500D01*
X797800D01*
Y899401D01*
X797812Y899406D01*
X797886Y899425D01*
X797991Y899443D01*
X798126Y899454D01*
X798302Y899459D01*
X798350Y899480D01*
X798959D01*
Y885705D01*
X798978Y885660D01*
X798849Y885532D01*
X797964Y884206D01*
X797354Y882734D01*
X797043Y881171D01*
Y879577D01*
X797354Y878014D01*
X797964Y876542D01*
X798849Y875217D01*
X798978Y875089D01*
X798959Y875043D01*
Y831500D01*
X799117Y831117D01*
X799500Y830959D01*
X802022D01*
X802122Y831000D01*
X802230D01*
X802306Y831076D01*
X802405Y831117D01*
X802446Y831217D01*
X802522Y831293D01*
X802856Y832098D01*
X803402Y832644D01*
X804114Y832939D01*
X804886D01*
X805598Y832644D01*
X805617Y832625D01*
X806000Y832467D01*
X806383Y832625D01*
X806402Y832644D01*
X807114Y832939D01*
X807886D01*
X808598Y832644D01*
X809117Y832125D01*
X809190Y832095D01*
X809239Y832033D01*
X809374Y832018D01*
X809500Y831966D01*
X810000Y831787D01*
Y831787D01*
X812917D01*
X812943Y831773D01*
X813260Y831740D01*
X813476Y831663D01*
X813666Y831536D01*
X813846Y831342D01*
X814015Y831064D01*
X814166Y830694D01*
X814291Y830231D01*
X814383Y829676D01*
X814424Y829205D01*
X814044Y828800D01*
X813500D01*
Y828007D01*
X813145Y827475D01*
X812951Y826500D01*
X813145Y825525D01*
X813500Y824993D01*
Y824200D01*
X814442D01*
X814524Y824145D01*
X815047Y824041D01*
X814997Y823541D01*
X806008D01*
X806008Y823541D01*
X805625Y823383D01*
X805598Y823356D01*
X804886Y823061D01*
X804114D01*
X803402Y823356D01*
X803375Y823383D01*
X802992Y823541D01*
X802992Y823541D01*
X796453D01*
X796298Y823477D01*
X796135Y823438D01*
X796111Y823400D01*
X796070Y823383D01*
X796006Y823228D01*
X795918Y823085D01*
X795724Y821860D01*
X795113Y819978D01*
X794215Y818215D01*
X793052Y816615D01*
X791653Y815216D01*
X790582Y814438D01*
X790515Y814329D01*
X790418Y814246D01*
X790411Y814159D01*
X790365Y814085D01*
X790385Y814000D01*
X790379Y813906D01*
X790145Y813720D01*
X789929Y813619D01*
X789856Y813663D01*
X789791Y813674D01*
X789741Y813717D01*
X789593Y813705D01*
X789447Y813728D01*
X789394Y813689D01*
X789328Y813684D01*
X788289Y813155D01*
X786408Y812544D01*
X784454Y812234D01*
X782475D01*
X780521Y812544D01*
X778640Y813155D01*
X776877Y814053D01*
X775276Y815216D01*
X773877Y816615D01*
X772715Y818215D01*
X771816Y819978D01*
X771205Y821860D01*
X771011Y823085D01*
X770923Y823228D01*
X770859Y823383D01*
X770818Y823400D01*
X770795Y823438D01*
X770632Y823477D01*
X770476Y823541D01*
X747686D01*
X747495Y824003D01*
X752640Y829148D01*
X752747Y829287D01*
X752800D01*
Y829357D01*
X753121Y829774D01*
X753423Y830504D01*
X753520Y831246D01*
X757250D01*
Y830000D01*
X760000D01*
Y833500D01*
X763000D01*
Y830000D01*
X765750D01*
Y831246D01*
X772334D01*
X772375Y831263D01*
X772418Y831253D01*
X772562Y831341D01*
X772717Y831405D01*
X772734Y831446D01*
X772772Y831469D01*
X773438Y832386D01*
X773477Y832549D01*
X773541Y832704D01*
Y849032D01*
X774590D01*
Y855543D01*
X773541D01*
Y875043D01*
X773522Y875089D01*
X773651Y875217D01*
X774536Y876542D01*
X775146Y878014D01*
X775457Y879577D01*
Y881171D01*
X775146Y882734D01*
X774536Y884206D01*
X773651Y885532D01*
X773522Y885660D01*
X773541Y885705D01*
Y891494D01*
X780013D01*
X780404Y891571D01*
X780734Y891792D01*
X783221Y894279D01*
X783442Y894610D01*
X783520Y895000D01*
Y897650D01*
X783541Y897698D01*
X783546Y897874D01*
X783557Y898009D01*
X783575Y898114D01*
X783594Y898188D01*
X783599Y898200D01*
X783850D01*
X785000Y899350D01*
Y901650D01*
X783850Y902800D01*
X781150D01*
X780000Y901650D01*
Y899350D01*
X781150Y898200D01*
X781401D01*
X781406Y898188D01*
X781425Y898114D01*
X781443Y898009D01*
X781454Y897874D01*
X781459Y897698D01*
X781480Y897650D01*
Y895422D01*
X779591Y893533D01*
X777026D01*
X776993Y894020D01*
X777905Y894397D01*
X778603Y895095D01*
X778980Y896007D01*
Y896993D01*
X778603Y897905D01*
X778470Y898038D01*
X778661Y898500D01*
X778800D01*
Y902500D01*
X774200D01*
Y898500D01*
X774339D01*
X774530Y898038D01*
X774397Y897905D01*
X774020Y896993D01*
X773541Y897045D01*
Y910197D01*
X798959D01*
Y901520D01*
D02*
G37*
G36*
X934212Y899500D02*
X934202Y899595D01*
X934172Y899680D01*
X934122Y899755D01*
X934052Y899820D01*
X933962Y899875D01*
X933852Y899920D01*
X933722Y899955D01*
X933572Y899980D01*
X933402Y899995D01*
X933212Y900000D01*
Y901000D01*
X933402Y901005D01*
X933572Y901020D01*
X933722Y901045D01*
X933852Y901080D01*
X933962Y901125D01*
X934052Y901180D01*
X934122Y901245D01*
X934172Y901320D01*
X934202Y901405D01*
X934212Y901500D01*
Y899500D01*
D02*
G37*
G36*
X797286Y901405D02*
X797317Y901320D01*
X797367Y901245D01*
X797438Y901180D01*
X797529Y901125D01*
X797640Y901080D01*
X797772Y901045D01*
X797924Y901020D01*
X798096Y901005D01*
X798288Y901000D01*
Y900000D01*
X798096Y899995D01*
X797924Y899980D01*
X797772Y899955D01*
X797640Y899920D01*
X797529Y899875D01*
X797438Y899820D01*
X797367Y899755D01*
X797317Y899680D01*
X797286Y899595D01*
X797276Y899500D01*
Y901500D01*
X797286Y901405D01*
D02*
G37*
G36*
X933000Y901520D02*
X872713D01*
X872322Y901442D01*
X871992Y901221D01*
X869962Y899191D01*
X869500Y899383D01*
Y910197D01*
X933000D01*
Y901520D01*
D02*
G37*
G36*
X941426Y898724D02*
X941350Y898780D01*
X941262Y898810D01*
X941161Y898814D01*
X941048Y898791D01*
X940922Y898741D01*
X940784Y898666D01*
X940633Y898563D01*
X940470Y898435D01*
X940294Y898280D01*
X940106Y898098D01*
X939398Y898806D01*
X939580Y898994D01*
X939863Y899333D01*
X939966Y899484D01*
X940041Y899622D01*
X940091Y899748D01*
X940114Y899861D01*
X940110Y899962D01*
X940080Y900050D01*
X940024Y900126D01*
X941426Y898724D01*
D02*
G37*
G36*
X862500Y898383D02*
X862038Y898191D01*
X859008Y901221D01*
X858678Y901442D01*
X858287Y901520D01*
X799500D01*
Y910197D01*
X862500D01*
Y898383D01*
D02*
G37*
G36*
X783405Y898714D02*
X783320Y898683D01*
X783245Y898633D01*
X783180Y898562D01*
X783125Y898471D01*
X783080Y898360D01*
X783045Y898228D01*
X783020Y898076D01*
X783005Y897904D01*
X783000Y897712D01*
X782000D01*
X781995Y897904D01*
X781980Y898076D01*
X781955Y898228D01*
X781920Y898360D01*
X781875Y898471D01*
X781820Y898562D01*
X781755Y898633D01*
X781680Y898683D01*
X781595Y898714D01*
X781500Y898724D01*
X783500D01*
X783405Y898714D01*
D02*
G37*
G36*
X777405Y899014D02*
X777320Y898983D01*
X777245Y898933D01*
X777180Y898862D01*
X777125Y898771D01*
X777080Y898660D01*
X777045Y898528D01*
X777020Y898376D01*
X777005Y898204D01*
X777004Y898154D01*
X777013Y898044D01*
X777029Y897936D01*
X777052Y897834D01*
X777082Y897737D01*
X777118Y897647D01*
X777160Y897562D01*
X777209Y897483D01*
X777265Y897410D01*
X777327Y897344D01*
X775673D01*
X775735Y897410D01*
X775791Y897483D01*
X775840Y897562D01*
X775882Y897647D01*
X775918Y897737D01*
X775948Y897834D01*
X775971Y897936D01*
X775987Y898044D01*
X775996Y898154D01*
X775995Y898204D01*
X775980Y898376D01*
X775955Y898528D01*
X775920Y898660D01*
X775875Y898771D01*
X775820Y898862D01*
X775755Y898933D01*
X775680Y898983D01*
X775595Y899014D01*
X775500Y899024D01*
X777500D01*
X777405Y899014D01*
D02*
G37*
G36*
X868959Y899383D02*
X869000Y899283D01*
Y899175D01*
X869076Y899099D01*
X869117Y899000D01*
X869267Y898497D01*
X866379Y895608D01*
X865993Y895768D01*
X865007D01*
X864621Y895608D01*
X862733Y897497D01*
X862883Y898000D01*
X862924Y898099D01*
X863000Y898176D01*
Y898283D01*
X863041Y898383D01*
Y910197D01*
X868959D01*
Y899383D01*
D02*
G37*
G36*
X867111Y894192D02*
X867029Y894104D01*
X866955Y894017D01*
X866890Y893929D01*
X866834Y893840D01*
X866786Y893751D01*
X866748Y893662D01*
X866718Y893572D01*
X866697Y893481D01*
X866685Y893390D01*
X866681Y893299D01*
X865512Y894468D01*
X865603Y894472D01*
X865694Y894484D01*
X865784Y894505D01*
X865874Y894535D01*
X865964Y894574D01*
X866053Y894621D01*
X866141Y894677D01*
X866229Y894742D01*
X866317Y894816D01*
X866404Y894899D01*
X867111Y894192D01*
D02*
G37*
G36*
X864683Y894816D02*
X864771Y894742D01*
X864859Y894677D01*
X864947Y894621D01*
X865036Y894574D01*
X865126Y894535D01*
X865216Y894505D01*
X865306Y894484D01*
X865397Y894472D01*
X865488Y894468D01*
X864319Y893299D01*
X864316Y893390D01*
X864303Y893481D01*
X864282Y893572D01*
X864252Y893662D01*
X864214Y893751D01*
X864166Y893840D01*
X864110Y893929D01*
X864045Y894017D01*
X863971Y894104D01*
X863889Y894192D01*
X864596Y894899D01*
X864683Y894816D01*
D02*
G37*
G36*
X868959Y894651D02*
Y888984D01*
X869000Y888885D01*
Y888777D01*
X869076Y888701D01*
X869117Y888602D01*
X869267Y888098D01*
X865822Y884653D01*
X865601Y884322D01*
X865524Y883932D01*
Y858744D01*
X865601Y858354D01*
X865822Y858023D01*
X871665Y852180D01*
X871506Y851795D01*
Y850808D01*
X871715Y850302D01*
X871686Y849802D01*
X871686Y849802D01*
X871686Y849802D01*
Y848907D01*
X871684Y848904D01*
X871664Y848896D01*
X871593Y848876D01*
X871490Y848859D01*
X871357Y848848D01*
X871184Y848843D01*
X871136Y848822D01*
X870836D01*
X870788Y848843D01*
X870615Y848848D01*
X870482Y848859D01*
X870379Y848876D01*
X870307Y848896D01*
X870288Y848904D01*
X870286Y848907D01*
Y849802D01*
X865686D01*
Y845802D01*
X868959D01*
Y843802D01*
X865686D01*
Y839802D01*
X868959D01*
Y832000D01*
X869117Y831617D01*
X869500Y831459D01*
X877076D01*
X877267Y830997D01*
X876751Y830480D01*
X876007D01*
X875095Y830103D01*
X874397Y829405D01*
X874020Y828493D01*
Y827507D01*
X874397Y826595D01*
X874753Y826239D01*
X874546Y825739D01*
X870262D01*
X867772Y828229D01*
X867110Y828671D01*
X866330Y828827D01*
X861181D01*
X860905Y829103D01*
X859993Y829480D01*
X859007D01*
X858095Y829103D01*
X857819Y828827D01*
X840200D01*
X840003Y828787D01*
X838200D01*
Y828539D01*
X824500D01*
X824303Y828500D01*
X822200D01*
Y827769D01*
X821700Y827670D01*
X821603Y827905D01*
X820905Y828603D01*
X819993Y828980D01*
X819600Y829480D01*
X819617Y829676D01*
X819709Y830231D01*
X819834Y830694D01*
X819985Y831064D01*
X820154Y831342D01*
X820334Y831536D01*
X820525Y831663D01*
X820740Y831740D01*
X821057Y831773D01*
X821083Y831787D01*
X822987D01*
X823464Y831712D01*
X823551Y831564D01*
X823617Y831405D01*
X823654Y831390D01*
X823674Y831355D01*
X824055Y831068D01*
X824222Y831025D01*
X824381Y830959D01*
X837752D01*
X838200Y830787D01*
Y830787D01*
X838993D01*
X839525Y830433D01*
X840500Y830238D01*
X841475Y830433D01*
X842007Y830787D01*
X842800D01*
Y830787D01*
X843300Y830969D01*
X843325Y830959D01*
X862500D01*
X862883Y831117D01*
X863041Y831500D01*
Y844532D01*
X862883Y844914D01*
X862591Y845035D01*
Y850540D01*
X862883Y850661D01*
X863041Y851043D01*
Y875043D01*
X863022Y875089D01*
X863151Y875217D01*
X864036Y876542D01*
X864646Y878014D01*
X864957Y879577D01*
Y881171D01*
X864646Y882734D01*
X864036Y884206D01*
X863151Y885532D01*
X863022Y885660D01*
X863041Y885705D01*
Y891535D01*
X863541Y891739D01*
X864095Y891185D01*
X865007Y890807D01*
X865993D01*
X866905Y891185D01*
X867603Y891882D01*
X867980Y892794D01*
Y893781D01*
X867821Y894166D01*
X868497Y894842D01*
X868959Y894651D01*
D02*
G37*
G36*
X709459Y888984D02*
X709500Y888885D01*
Y888777D01*
X709576Y888701D01*
X709617Y888602D01*
X709767Y888098D01*
X706322Y884653D01*
X706101Y884322D01*
X706024Y883932D01*
Y858744D01*
X706101Y858354D01*
X706322Y858023D01*
X712165Y852180D01*
X712006Y851795D01*
Y850808D01*
X712215Y850302D01*
X712186Y849802D01*
X712186Y849802D01*
X712186Y849802D01*
Y848907D01*
X712184Y848904D01*
X712164Y848896D01*
X712093Y848876D01*
X711989Y848859D01*
X711857Y848848D01*
X711684Y848843D01*
X711635Y848822D01*
X711336D01*
X711288Y848843D01*
X711115Y848848D01*
X710982Y848859D01*
X710879Y848876D01*
X710807Y848896D01*
X710788Y848904D01*
X710786Y848907D01*
Y849802D01*
X706186D01*
Y845802D01*
X709459D01*
Y843802D01*
X706186D01*
Y839802D01*
X709459D01*
Y831787D01*
X709617Y831405D01*
X710000Y831246D01*
X724145D01*
X724166Y831194D01*
X724291Y830731D01*
X724383Y830176D01*
X724439Y829531D01*
X724440Y829520D01*
X723976Y829020D01*
X719762D01*
X719603Y829405D01*
X718905Y830103D01*
X717993Y830480D01*
X717007D01*
X716095Y830103D01*
X715397Y829405D01*
X715020Y828493D01*
Y827507D01*
X715397Y826595D01*
X716095Y825897D01*
X717007Y825520D01*
X717993D01*
X718905Y825897D01*
X719603Y826595D01*
X719762Y826980D01*
X724450D01*
X724498Y826959D01*
X724616Y826956D01*
X724645Y826812D01*
X725000Y826281D01*
Y825487D01*
X725942D01*
X726024Y825432D01*
X727000Y825238D01*
X727976Y825432D01*
X728058Y825487D01*
X729000D01*
Y826281D01*
X729355Y826812D01*
X729549Y827787D01*
Y829089D01*
X729561Y829531D01*
X729617Y830176D01*
X729709Y830731D01*
X729834Y831194D01*
X729855Y831246D01*
X735541D01*
X735640Y831287D01*
X735748D01*
X736114Y831439D01*
X736886D01*
X737252Y831287D01*
X737360D01*
X737459Y831246D01*
X745526D01*
X745718Y830784D01*
X736959Y822026D01*
X703026D01*
Y826500D01*
X702923Y827283D01*
X702621Y828013D01*
X702140Y828640D01*
X701513Y829121D01*
X700783Y829423D01*
X700000Y829526D01*
X699217Y829423D01*
X698487Y829121D01*
X697860Y828640D01*
X697379Y828013D01*
X697077Y827283D01*
X696974Y826500D01*
Y822026D01*
X690041D01*
X683300Y828767D01*
Y828787D01*
X683279D01*
X683140Y828927D01*
X682513Y829408D01*
X681783Y829710D01*
X681256Y829780D01*
X681240Y830286D01*
X681976Y830433D01*
X682507Y830787D01*
X683300D01*
Y831614D01*
X683396Y831758D01*
X683624Y832037D01*
X684019Y831961D01*
X684033Y831966D01*
X684072Y831959D01*
X703000D01*
X703383Y832117D01*
X703541Y832500D01*
Y844532D01*
X703383Y844914D01*
X703090Y845035D01*
Y850540D01*
X703383Y850661D01*
X703541Y851043D01*
Y875043D01*
X703522Y875089D01*
X703651Y875217D01*
X704536Y876542D01*
X705146Y878014D01*
X705457Y879577D01*
Y881171D01*
X705146Y882734D01*
X704536Y884206D01*
X703651Y885532D01*
X703522Y885660D01*
X703541Y885705D01*
Y891535D01*
X704041Y891739D01*
X704595Y891185D01*
X705507Y890807D01*
X706493D01*
X707405Y891185D01*
X708103Y891882D01*
X708480Y892794D01*
Y893781D01*
X708103Y894692D01*
X707405Y895390D01*
X706493Y895768D01*
X705507D01*
X704595Y895390D01*
X704041Y894836D01*
X703541Y895040D01*
Y910197D01*
X709459D01*
Y888984D01*
D02*
G37*
G36*
X933000Y893533D02*
X875124D01*
X874734Y893455D01*
X874403Y893234D01*
X869962Y888793D01*
X869500Y888984D01*
Y895846D01*
X873135Y899480D01*
X933000D01*
Y893533D01*
D02*
G37*
G36*
X773000D02*
X715624D01*
X715234Y893455D01*
X714903Y893234D01*
X710462Y888793D01*
X710000Y888984D01*
Y910197D01*
X773000D01*
Y893533D01*
D02*
G37*
G36*
X862500Y894845D02*
Y885705D01*
X862038Y885514D01*
X861514Y886038D01*
X860320Y886835D01*
X858993Y887385D01*
X858366Y887510D01*
Y880374D01*
Y875566D01*
X861761Y875667D01*
X861249Y875104D01*
X860791Y874538D01*
X860387Y873969D01*
X860376Y873950D01*
X861514Y874710D01*
X862038Y875234D01*
X862500Y875043D01*
Y851043D01*
X859896D01*
X860047Y850880D01*
X860347Y850680D01*
X860687Y850559D01*
X861067Y850519D01*
X858768D01*
Y847787D01*
Y844532D01*
X862500D01*
Y831500D01*
X843325D01*
X843058Y832000D01*
X843087Y832044D01*
X843281Y833020D01*
Y841333D01*
X843293Y841775D01*
X843350Y842420D01*
X843442Y842975D01*
X843566Y843438D01*
X843717Y843808D01*
X843886Y844086D01*
X844066Y844280D01*
X844257Y844407D01*
X844473Y844484D01*
X844789Y844517D01*
X844815Y844532D01*
X846055D01*
Y851043D01*
X844815D01*
X844789Y851058D01*
X844473Y851091D01*
X844257Y851167D01*
X844066Y851295D01*
X843886Y851489D01*
X843717Y851767D01*
X843566Y852137D01*
X843442Y852600D01*
X843350Y853155D01*
X843293Y853800D01*
X843281Y854242D01*
Y855829D01*
X846559Y859107D01*
X847112Y859934D01*
X847305Y860909D01*
Y866440D01*
X848056Y867191D01*
X848595Y868124D01*
X848874Y869166D01*
Y870244D01*
X848595Y871285D01*
X848056Y872219D01*
X847294Y872981D01*
X846360Y873520D01*
X845319Y873799D01*
X844240D01*
X843199Y873520D01*
X842266Y872981D01*
X841503Y872219D01*
X840964Y871285D01*
X840685Y870244D01*
Y869166D01*
X840964Y868124D01*
X841503Y867191D01*
X842208Y866486D01*
Y861965D01*
X838930Y858688D01*
X838377Y857861D01*
X838183Y856885D01*
Y856307D01*
X837350D01*
X837302Y856328D01*
X837126Y856333D01*
X836991Y856345D01*
X836886Y856362D01*
X836812Y856382D01*
X836800Y856387D01*
Y857287D01*
X832200D01*
Y856392D01*
X832198Y856389D01*
X832178Y856381D01*
X832107Y856362D01*
X832004Y856345D01*
X831871Y856333D01*
X831698Y856328D01*
X831650Y856307D01*
X831010D01*
X830962Y856328D01*
X830786Y856333D01*
X830651Y856345D01*
X830545Y856362D01*
X830472Y856382D01*
X830460Y856387D01*
Y857255D01*
X825860D01*
Y853255D01*
X830460D01*
Y854188D01*
X830472Y854193D01*
X830545Y854213D01*
X830651Y854230D01*
X830786Y854242D01*
X830962Y854246D01*
X831010Y854268D01*
X831650D01*
X831698Y854246D01*
X831871Y854242D01*
X832004Y854230D01*
X832107Y854213D01*
X832178Y854194D01*
X832198Y854185D01*
X832200Y854183D01*
Y853287D01*
X836800D01*
Y854188D01*
X836812Y854193D01*
X836886Y854213D01*
X836991Y854230D01*
X837126Y854242D01*
X837302Y854246D01*
X837350Y854268D01*
X837689D01*
X838165Y853806D01*
X838169Y853768D01*
X838115Y853155D01*
X838023Y852600D01*
X837898Y852137D01*
X837747Y851767D01*
X837578Y851489D01*
X837398Y851295D01*
X837208Y851167D01*
X836992Y851091D01*
X836675Y851058D01*
X836649Y851043D01*
X835409D01*
Y844532D01*
X836649D01*
X836675Y844517D01*
X836992Y844484D01*
X837208Y844407D01*
X837399Y844280D01*
X837578Y844086D01*
X837747Y843808D01*
X837898Y843438D01*
X838023Y842975D01*
X838115Y842420D01*
X838172Y841775D01*
X838183Y841333D01*
Y833820D01*
X838145Y833763D01*
X837951Y832787D01*
X838108Y832000D01*
X837842Y831571D01*
X837752Y831500D01*
X824381D01*
X824000Y831787D01*
X824000Y832000D01*
Y834787D01*
X817000D01*
X810693D01*
X810524Y834618D01*
X810647Y834787D01*
X810000D01*
Y832661D01*
X809977Y832646D01*
X809500Y832508D01*
X808905Y833103D01*
X807993Y833480D01*
X807007D01*
X806095Y833103D01*
X806000Y833008D01*
X805905Y833103D01*
X804993Y833480D01*
X804007D01*
X803095Y833103D01*
X802397Y832405D01*
X802022Y831500D01*
X799500D01*
Y875043D01*
X799962Y875234D01*
X800486Y874710D01*
X801680Y873913D01*
X801790Y873867D01*
X801784Y873876D01*
X801371Y874432D01*
X800903Y874981D01*
X800380Y875524D01*
X803634D01*
Y880374D01*
Y887510D01*
X803007Y887385D01*
X801680Y886835D01*
X800486Y886038D01*
X799962Y885514D01*
X799500Y885705D01*
Y899480D01*
X857865D01*
X862500Y894845D01*
D02*
G37*
G36*
X773000Y885705D02*
X772538Y885514D01*
X772014Y886038D01*
X770820Y886835D01*
X769493Y887385D01*
X768866Y887510D01*
Y880374D01*
Y875688D01*
X772752Y876237D01*
X772290Y875606D01*
X771524Y874383D01*
X772014Y874710D01*
X772538Y875234D01*
X773000Y875043D01*
Y855543D01*
X771147D01*
X771297Y855382D01*
X771597Y855181D01*
X771937Y855060D01*
X772317Y855019D01*
X770768Y855022D01*
Y852287D01*
Y849032D01*
X773000D01*
Y832704D01*
X772334Y831787D01*
X765750D01*
Y837000D01*
X757250D01*
Y831787D01*
X753460D01*
X753423Y832071D01*
X753121Y832800D01*
X752800Y833218D01*
Y833287D01*
X752747D01*
X752640Y833427D01*
X752013Y833908D01*
X751283Y834210D01*
X751152Y834227D01*
X750750Y834464D01*
X750750Y834464D01*
X750750D01*
X750740Y834786D01*
X750753Y834789D01*
X751475Y834933D01*
X752007Y835287D01*
X752800D01*
Y836230D01*
X752855Y836312D01*
X753049Y837287D01*
Y845833D01*
X753061Y846274D01*
X753117Y846918D01*
X753209Y847473D01*
X753334Y847936D01*
X753485Y848306D01*
X753654Y848584D01*
X753834Y848779D01*
X754025Y848907D01*
X754241Y848983D01*
X754558Y849017D01*
X754584Y849032D01*
X758055D01*
Y854961D01*
X758084Y855032D01*
X758072Y855061D01*
X758081Y855091D01*
X758055Y855543D01*
X758004D01*
X757829Y858211D01*
Y866463D01*
X758556Y867191D01*
X759095Y868124D01*
X759374Y869166D01*
Y870244D01*
X759095Y871285D01*
X758556Y872219D01*
X757794Y872981D01*
X756860Y873520D01*
X755819Y873799D01*
X754740D01*
X753699Y873520D01*
X752766Y872981D01*
X752003Y872219D01*
X751464Y871285D01*
X751185Y870244D01*
Y869166D01*
X751464Y868124D01*
X752003Y867191D01*
X752731Y866463D01*
Y858742D01*
X752719Y858301D01*
X752662Y857656D01*
X752570Y857102D01*
X752446Y856639D01*
X752295Y856269D01*
X752126Y855991D01*
X751945Y855796D01*
X751755Y855668D01*
X751538Y855591D01*
X751222Y855557D01*
X751196Y855543D01*
X749604D01*
X749603Y855544D01*
X749598Y855543D01*
X749550D01*
X749522Y855558D01*
X749474Y855543D01*
X749140D01*
X749069Y855585D01*
X748948Y855669D01*
X748619Y855947D01*
X748432Y856128D01*
X748382Y856148D01*
X748021Y856508D01*
X747690Y856729D01*
X747300Y856807D01*
X746850D01*
X746802Y856828D01*
X746626Y856833D01*
X746491Y856845D01*
X746386Y856862D01*
X746312Y856882D01*
X746300Y856887D01*
Y857787D01*
X741700D01*
Y856892D01*
X741698Y856889D01*
X741678Y856881D01*
X741607Y856862D01*
X741504Y856845D01*
X741371Y856833D01*
X741198Y856828D01*
X741150Y856807D01*
X740850D01*
X740802Y856828D01*
X740626Y856833D01*
X740491Y856845D01*
X740386Y856862D01*
X740312Y856882D01*
X740300Y856887D01*
Y857787D01*
X735700D01*
Y853787D01*
X740300D01*
Y854688D01*
X740312Y854693D01*
X740386Y854713D01*
X740491Y854730D01*
X740626Y854742D01*
X740802Y854746D01*
X740850Y854768D01*
X741150D01*
X741198Y854746D01*
X741371Y854742D01*
X741504Y854730D01*
X741607Y854713D01*
X741678Y854694D01*
X741698Y854685D01*
X741700Y854683D01*
Y853787D01*
X746300D01*
Y854688D01*
X746312Y854693D01*
X746386Y854713D01*
X746491Y854730D01*
X746626Y854742D01*
X746802Y854746D01*
X746847Y854766D01*
X747186Y854402D01*
X747309Y854250D01*
X747401Y854119D01*
X747409Y854105D01*
Y853831D01*
X747395Y853804D01*
X747408Y853758D01*
X747394Y853714D01*
X747409Y853682D01*
Y849613D01*
X747380Y849543D01*
X747409Y849472D01*
Y849032D01*
X747692D01*
X747704Y849005D01*
X747763Y848786D01*
X747817Y848479D01*
X747951Y846319D01*
Y837287D01*
X748145Y836312D01*
X748200Y836230D01*
Y835287D01*
X748993D01*
X749524Y834933D01*
X750247Y834789D01*
X750260Y834786D01*
X750250Y834464D01*
X750250D01*
X750250Y834464D01*
X749848Y834227D01*
X749717Y834210D01*
X748987Y833908D01*
X748360Y833427D01*
X748221Y833287D01*
X748200D01*
Y833267D01*
X746721Y831787D01*
X737459D01*
X736993Y831980D01*
X736007D01*
X735541Y831787D01*
X729491D01*
X729320Y831367D01*
X729180Y830846D01*
X729080Y830244D01*
X729020Y829562D01*
X729000Y828799D01*
X725524D01*
Y827000D01*
X725514Y827095D01*
X725484Y827180D01*
X725433Y827255D01*
X725362Y827320D01*
X725271Y827375D01*
X725160Y827420D01*
X725028Y827455D01*
X724876Y827480D01*
X724704Y827495D01*
X724512Y827500D01*
Y828500D01*
X724704Y828505D01*
X724876Y828520D01*
X725028Y828545D01*
X725160Y828580D01*
X725271Y828625D01*
X725362Y828680D01*
X725433Y828745D01*
X725470Y828799D01*
X725000D01*
X724980Y829562D01*
X724920Y830244D01*
X724820Y830846D01*
X724680Y831367D01*
X724509Y831787D01*
X710000D01*
Y839802D01*
X710786D01*
Y840697D01*
X710788Y840700D01*
X710807Y840708D01*
X710879Y840728D01*
X710982Y840745D01*
X711115Y840756D01*
X711288Y840761D01*
X711336Y840782D01*
X711635D01*
X711684Y840761D01*
X711857Y840756D01*
X711989Y840745D01*
X712093Y840728D01*
X712164Y840708D01*
X712184Y840700D01*
X712186Y840697D01*
Y839802D01*
X712186Y839802D01*
X712186D01*
X712236Y839302D01*
X712020Y838781D01*
Y837794D01*
X712397Y836882D01*
X713095Y836185D01*
X714007Y835807D01*
X714993D01*
X715905Y836185D01*
X716603Y836882D01*
X716980Y837794D01*
Y838781D01*
X716764Y839302D01*
X716786Y839802D01*
X716786Y839802D01*
X716786Y839802D01*
Y843802D01*
X712186D01*
Y842907D01*
X712184Y842904D01*
X712164Y842896D01*
X712093Y842877D01*
X711989Y842859D01*
X711857Y842848D01*
X711684Y842843D01*
X711635Y842822D01*
X711336D01*
X711288Y842843D01*
X711115Y842848D01*
X710982Y842859D01*
X710879Y842877D01*
X710807Y842896D01*
X710788Y842904D01*
X710786Y842907D01*
Y843802D01*
X710000D01*
Y845802D01*
X710786D01*
Y846697D01*
X710788Y846700D01*
X710807Y846708D01*
X710879Y846727D01*
X710982Y846745D01*
X711115Y846756D01*
X711288Y846761D01*
X711336Y846782D01*
X711635D01*
X711684Y846761D01*
X711857Y846756D01*
X711989Y846745D01*
X712093Y846727D01*
X712164Y846708D01*
X712184Y846700D01*
X712186Y846697D01*
Y845802D01*
X716786D01*
Y849802D01*
X716786Y849802D01*
X716786D01*
X716756Y850302D01*
X716966Y850808D01*
Y851795D01*
X716589Y852707D01*
X715891Y853404D01*
X714979Y853782D01*
X713993D01*
X713607Y853622D01*
X710000Y857229D01*
Y875043D01*
X710462Y875234D01*
X710986Y874710D01*
X712180Y873913D01*
X712290Y873867D01*
X712284Y873876D01*
X711871Y874432D01*
X711403Y874981D01*
X710880Y875524D01*
X714134D01*
Y880374D01*
Y887510D01*
X713507Y887385D01*
X712180Y886835D01*
X711925Y886665D01*
X711606Y887053D01*
X716047Y891494D01*
X773000D01*
Y885705D01*
D02*
G37*
G36*
X703000D02*
X702538Y885514D01*
X702014Y886038D01*
X700820Y886835D01*
X699493Y887385D01*
X698866Y887510D01*
Y880374D01*
Y875566D01*
X702261Y875667D01*
X701749Y875104D01*
X701291Y874538D01*
X700887Y873969D01*
X700876Y873950D01*
X702014Y874710D01*
X702538Y875234D01*
X703000Y875043D01*
Y851043D01*
X700396D01*
X700547Y850880D01*
X700847Y850680D01*
X701187Y850559D01*
X701567Y850519D01*
X699268D01*
Y847787D01*
Y844532D01*
X703000D01*
Y832500D01*
X684072D01*
X683755Y832887D01*
X683781Y833020D01*
Y841333D01*
X683793Y841775D01*
X683850Y842420D01*
X683942Y842975D01*
X684066Y843438D01*
X684217Y843808D01*
X684386Y844086D01*
X684566Y844280D01*
X684757Y844407D01*
X684973Y844484D01*
X685289Y844517D01*
X685315Y844532D01*
X686555D01*
Y851043D01*
X685315D01*
X685289Y851058D01*
X684973Y851091D01*
X684757Y851167D01*
X684566Y851295D01*
X684386Y851489D01*
X684217Y851767D01*
X684066Y852137D01*
X683942Y852600D01*
X683850Y853155D01*
X683793Y853800D01*
X683781Y854242D01*
Y855829D01*
X687059Y859107D01*
X687611Y859934D01*
X687806Y860909D01*
Y866440D01*
X688556Y867191D01*
X689095Y868124D01*
X689374Y869166D01*
Y870244D01*
X689095Y871285D01*
X688556Y872219D01*
X687794Y872981D01*
X686860Y873520D01*
X685819Y873799D01*
X684740D01*
X683699Y873520D01*
X682765Y872981D01*
X682003Y872219D01*
X681464Y871285D01*
X681185Y870244D01*
Y869166D01*
X681464Y868124D01*
X682003Y867191D01*
X682708Y866486D01*
Y861965D01*
X679430Y858688D01*
X678877Y857861D01*
X678683Y856885D01*
Y856307D01*
X677850D01*
X677802Y856328D01*
X677626Y856333D01*
X677491Y856345D01*
X677386Y856362D01*
X677312Y856382D01*
X677300Y856387D01*
Y857287D01*
X672700D01*
Y856392D01*
X672698Y856389D01*
X672679Y856381D01*
X672607Y856362D01*
X672504Y856345D01*
X672371Y856333D01*
X672198Y856328D01*
X672150Y856307D01*
X671510D01*
X671462Y856328D01*
X671286Y856333D01*
X671151Y856345D01*
X671045Y856362D01*
X670971Y856382D01*
X670960Y856387D01*
Y857255D01*
X666360D01*
Y853255D01*
X670960D01*
Y854188D01*
X670971Y854193D01*
X671045Y854213D01*
X671151Y854230D01*
X671286Y854242D01*
X671462Y854246D01*
X671510Y854268D01*
X672150D01*
X672198Y854246D01*
X672371Y854242D01*
X672504Y854230D01*
X672607Y854213D01*
X672679Y854194D01*
X672698Y854185D01*
X672700Y854183D01*
Y853287D01*
X677300D01*
Y854188D01*
X677312Y854193D01*
X677386Y854213D01*
X677491Y854230D01*
X677626Y854242D01*
X677802Y854246D01*
X677850Y854268D01*
X678189D01*
X678665Y853806D01*
X678669Y853768D01*
X678615Y853155D01*
X678523Y852600D01*
X678398Y852137D01*
X678247Y851767D01*
X678078Y851489D01*
X677898Y851295D01*
X677708Y851167D01*
X677492Y851091D01*
X677176Y851058D01*
X677149Y851043D01*
X675910D01*
Y844532D01*
X677149D01*
X677176Y844517D01*
X677492Y844484D01*
X677708Y844407D01*
X677899Y844280D01*
X678078Y844086D01*
X678247Y843808D01*
X678398Y843438D01*
X678523Y842975D01*
X678615Y842420D01*
X678672Y841775D01*
X678683Y841333D01*
Y833820D01*
X678645Y833763D01*
X678451Y832787D01*
X678215Y832500D01*
X664500D01*
Y834787D01*
X657500D01*
X651193D01*
X651024Y834618D01*
X651147Y834787D01*
X650500D01*
Y832500D01*
X640000D01*
Y875043D01*
X640462Y875234D01*
X640986Y874710D01*
X642180Y873913D01*
X642290Y873867D01*
X642284Y873876D01*
X641871Y874432D01*
X641403Y874981D01*
X640880Y875524D01*
X644134D01*
Y880374D01*
Y887510D01*
X643507Y887385D01*
X642180Y886835D01*
X640986Y886038D01*
X640462Y885514D01*
X640000Y885705D01*
Y910197D01*
X703000D01*
Y885705D01*
D02*
G37*
G36*
X949405Y886514D02*
X949320Y886483D01*
X949245Y886433D01*
X949180Y886362D01*
X949125Y886271D01*
X949080Y886160D01*
X949045Y886028D01*
X949020Y885876D01*
X949005Y885704D01*
X949000Y885512D01*
X948000D01*
X947995Y885704D01*
X947980Y885876D01*
X947955Y886028D01*
X947920Y886160D01*
X947875Y886271D01*
X947820Y886362D01*
X947755Y886433D01*
X947680Y886483D01*
X947595Y886514D01*
X947500Y886524D01*
X949500D01*
X949405Y886514D01*
D02*
G37*
G36*
X933000Y885165D02*
X932676Y885067D01*
X932500Y885052D01*
X931514Y886038D01*
X930320Y886835D01*
X928993Y887385D01*
X928366Y887510D01*
Y880374D01*
Y875688D01*
X932252Y876237D01*
X931790Y875606D01*
X931024Y874383D01*
X931514Y874710D01*
X932500Y875696D01*
X932676Y875682D01*
X933000Y875583D01*
Y855543D01*
X930647D01*
X930797Y855382D01*
X931097Y855181D01*
X931437Y855060D01*
X931817Y855019D01*
X930268Y855022D01*
Y852287D01*
Y849032D01*
X933000D01*
Y832000D01*
X912300D01*
Y833287D01*
X910197D01*
X910000Y833327D01*
X909700D01*
X909503Y833287D01*
X908320D01*
X908274Y833313D01*
X908218Y833297D01*
X908163Y833314D01*
X908111Y833287D01*
X907700D01*
Y832884D01*
X907674Y832837D01*
X907659Y832703D01*
X907620Y832574D01*
X907539Y832395D01*
X907412Y832174D01*
X907296Y832000D01*
X901770D01*
X901603Y832405D01*
X901508Y832500D01*
X901603Y832595D01*
X901980Y833507D01*
Y834493D01*
X901603Y835405D01*
X900905Y836103D01*
X899993Y836480D01*
X899007D01*
X898095Y836103D01*
X898000Y836008D01*
X897905Y836103D01*
X896993Y836480D01*
X896007D01*
X895095Y836103D01*
X894500Y835508D01*
X894023Y835646D01*
X894000Y835661D01*
Y841287D01*
X893255D01*
X893237Y841210D01*
X893249Y841135D01*
X893274Y841025D01*
X893306Y840935D01*
X893343Y840865D01*
X893385Y840815D01*
X893434Y840785D01*
X893488Y840775D01*
X891703Y840763D01*
X891798Y840774D01*
X891883Y840805D01*
X891958Y840856D01*
X892023Y840927D01*
X892078Y841018D01*
X892123Y841129D01*
X892158Y841260D01*
X892152Y841287D01*
X888500D01*
Y838133D01*
X888526Y838111D01*
X889195Y837450D01*
X889241Y837379D01*
X889258Y837328D01*
X889245Y837298D01*
X889203Y837287D01*
Y836287D01*
X889245Y836277D01*
X889258Y836247D01*
X889241Y836196D01*
X889195Y836125D01*
X889120Y836033D01*
X889015Y835922D01*
X888718Y835637D01*
X888304Y835271D01*
Y836787D01*
X887000D01*
Y836287D01*
X887001Y836277D01*
X887000Y836275D01*
Y835287D01*
X885825D01*
X885750Y835226D01*
X885678Y835287D01*
X884001D01*
X884501Y834787D01*
X884230Y834762D01*
X883933Y834685D01*
X883611Y834557D01*
X883264Y834379D01*
X882892Y834149D01*
X882495Y833869D01*
X881626Y833154D01*
X881604Y833134D01*
X881926Y832811D01*
X881849Y832867D01*
X881758Y832894D01*
X881653Y832893D01*
X881533Y832863D01*
X881399Y832805D01*
X881250Y832719D01*
X881087Y832605D01*
X880910Y832462D01*
X880512Y832092D01*
X880000Y832604D01*
Y832500D01*
X880000Y832287D01*
X879619Y832000D01*
X869500D01*
Y839802D01*
X870286D01*
Y840697D01*
X870288Y840700D01*
X870307Y840708D01*
X870379Y840728D01*
X870482Y840745D01*
X870615Y840756D01*
X870788Y840761D01*
X870836Y840782D01*
X871136D01*
X871184Y840761D01*
X871357Y840756D01*
X871490Y840745D01*
X871593Y840728D01*
X871664Y840708D01*
X871684Y840700D01*
X871686Y840697D01*
Y839802D01*
X871686Y839802D01*
X871686D01*
X871736Y839302D01*
X871520Y838781D01*
Y837794D01*
X871897Y836882D01*
X872595Y836185D01*
X873507Y835807D01*
X874493D01*
X875405Y836185D01*
X876103Y836882D01*
X876480Y837794D01*
Y838781D01*
X876264Y839302D01*
X876286Y839802D01*
X876286Y839802D01*
X876286Y839802D01*
Y843802D01*
X871686D01*
Y842907D01*
X871684Y842904D01*
X871664Y842896D01*
X871593Y842877D01*
X871490Y842859D01*
X871357Y842848D01*
X871184Y842843D01*
X871136Y842822D01*
X870836D01*
X870788Y842843D01*
X870615Y842848D01*
X870482Y842859D01*
X870379Y842877D01*
X870307Y842896D01*
X870288Y842904D01*
X870286Y842907D01*
Y843802D01*
X869500D01*
Y845802D01*
X870286D01*
Y846697D01*
X870288Y846700D01*
X870307Y846708D01*
X870379Y846727D01*
X870482Y846745D01*
X870615Y846756D01*
X870788Y846761D01*
X870836Y846782D01*
X871136D01*
X871184Y846761D01*
X871357Y846756D01*
X871490Y846745D01*
X871593Y846727D01*
X871664Y846708D01*
X871684Y846700D01*
X871686Y846697D01*
Y845802D01*
X876286D01*
Y849802D01*
X876286Y849802D01*
X876286D01*
X876256Y850302D01*
X876466Y850808D01*
Y851795D01*
X876089Y852707D01*
X875391Y853404D01*
X874479Y853782D01*
X873493D01*
X873107Y853622D01*
X869500Y857229D01*
Y875043D01*
X869962Y875234D01*
X870486Y874710D01*
X871680Y873913D01*
X871790Y873867D01*
X871784Y873876D01*
X871371Y874432D01*
X870903Y874981D01*
X870380Y875524D01*
X873634D01*
Y880374D01*
Y887510D01*
X873007Y887385D01*
X871680Y886835D01*
X871425Y886665D01*
X871106Y887053D01*
X875547Y891494D01*
X933000D01*
Y885165D01*
D02*
G37*
G36*
X626405Y861514D02*
X626320Y861483D01*
X626245Y861433D01*
X626180Y861362D01*
X626125Y861271D01*
X626080Y861160D01*
X626045Y861028D01*
X626020Y860876D01*
X626005Y860704D01*
X626000Y860512D01*
X625000D01*
X624995Y860704D01*
X624980Y860876D01*
X624955Y861028D01*
X624920Y861160D01*
X624875Y861271D01*
X624820Y861362D01*
X624755Y861433D01*
X624680Y861483D01*
X624595Y861514D01*
X624500Y861524D01*
X626500D01*
X626405Y861514D01*
D02*
G37*
G36*
X757282Y858271D02*
X757493Y855071D01*
X757543Y855031D01*
X751279Y855019D01*
X751659Y855060D01*
X752000Y855181D01*
X752299Y855382D01*
X752560Y855663D01*
X752779Y856024D01*
X752959Y856466D01*
X753099Y856987D01*
X753199Y857588D01*
X753260Y858270D01*
X753279Y859031D01*
X757279D01*
X757282Y858271D01*
D02*
G37*
G36*
X745786Y856692D02*
X745817Y856607D01*
X745867Y856532D01*
X745938Y856467D01*
X746029Y856412D01*
X746140Y856367D01*
X746272Y856332D01*
X746424Y856307D01*
X746596Y856292D01*
X746788Y856287D01*
Y855287D01*
X746596Y855282D01*
X746424Y855267D01*
X746272Y855242D01*
X746140Y855207D01*
X746029Y855162D01*
X745938Y855107D01*
X745867Y855042D01*
X745817Y854967D01*
X745786Y854882D01*
X745776Y854787D01*
Y856787D01*
X745786Y856692D01*
D02*
G37*
G36*
X742212Y854787D02*
X742202Y854882D01*
X742172Y854967D01*
X742122Y855042D01*
X742052Y855107D01*
X741962Y855162D01*
X741852Y855207D01*
X741722Y855242D01*
X741572Y855267D01*
X741402Y855282D01*
X741212Y855287D01*
Y856287D01*
X741402Y856292D01*
X741572Y856307D01*
X741722Y856332D01*
X741852Y856367D01*
X741962Y856412D01*
X742052Y856467D01*
X742122Y856532D01*
X742172Y856607D01*
X742202Y856692D01*
X742212Y856787D01*
Y854787D01*
D02*
G37*
G36*
X739786Y856692D02*
X739817Y856607D01*
X739867Y856532D01*
X739938Y856467D01*
X740029Y856412D01*
X740140Y856367D01*
X740272Y856332D01*
X740424Y856307D01*
X740596Y856292D01*
X740788Y856287D01*
Y855287D01*
X740596Y855282D01*
X740424Y855267D01*
X740272Y855242D01*
X740140Y855207D01*
X740029Y855162D01*
X739938Y855107D01*
X739867Y855042D01*
X739817Y854967D01*
X739786Y854882D01*
X739776Y854787D01*
Y856787D01*
X739786Y856692D01*
D02*
G37*
G36*
X836286Y856192D02*
X836316Y856107D01*
X836367Y856032D01*
X836438Y855967D01*
X836529Y855912D01*
X836640Y855867D01*
X836772Y855832D01*
X836924Y855807D01*
X837096Y855792D01*
X837288Y855787D01*
Y854787D01*
X837096Y854782D01*
X836924Y854767D01*
X836772Y854742D01*
X836640Y854707D01*
X836529Y854662D01*
X836438Y854607D01*
X836367Y854542D01*
X836316Y854467D01*
X836286Y854382D01*
X836276Y854287D01*
Y856287D01*
X836286Y856192D01*
D02*
G37*
G36*
X832712Y854287D02*
X832702Y854382D01*
X832672Y854467D01*
X832622Y854542D01*
X832552Y854607D01*
X832462Y854662D01*
X832352Y854707D01*
X832222Y854742D01*
X832072Y854767D01*
X831902Y854782D01*
X831712Y854787D01*
Y855787D01*
X831902Y855792D01*
X832072Y855807D01*
X832222Y855832D01*
X832352Y855867D01*
X832462Y855912D01*
X832552Y855967D01*
X832622Y856032D01*
X832672Y856107D01*
X832702Y856192D01*
X832712Y856287D01*
Y854287D01*
D02*
G37*
G36*
X829946Y856192D02*
X829976Y856107D01*
X830027Y856032D01*
X830097Y855967D01*
X830189Y855912D01*
X830300Y855867D01*
X830431Y855832D01*
X830583Y855807D01*
X830755Y855792D01*
X830948Y855787D01*
Y854787D01*
X830755Y854782D01*
X830583Y854767D01*
X830431Y854742D01*
X830300Y854707D01*
X830189Y854662D01*
X830097Y854607D01*
X830027Y854542D01*
X829976Y854467D01*
X829946Y854382D01*
X829936Y854287D01*
Y856287D01*
X829946Y856192D01*
D02*
G37*
G36*
X676786D02*
X676817Y856107D01*
X676867Y856032D01*
X676938Y855967D01*
X677029Y855912D01*
X677140Y855867D01*
X677272Y855832D01*
X677424Y855807D01*
X677596Y855792D01*
X677788Y855787D01*
Y854787D01*
X677596Y854782D01*
X677424Y854767D01*
X677272Y854742D01*
X677140Y854707D01*
X677029Y854662D01*
X676938Y854607D01*
X676867Y854542D01*
X676817Y854467D01*
X676786Y854382D01*
X676776Y854287D01*
Y856287D01*
X676786Y856192D01*
D02*
G37*
G36*
X673212Y854287D02*
X673202Y854382D01*
X673172Y854467D01*
X673122Y854542D01*
X673052Y854607D01*
X672962Y854662D01*
X672852Y854707D01*
X672722Y854742D01*
X672572Y854767D01*
X672402Y854782D01*
X672212Y854787D01*
Y855787D01*
X672402Y855792D01*
X672572Y855807D01*
X672722Y855832D01*
X672852Y855867D01*
X672962Y855912D01*
X673052Y855967D01*
X673122Y856032D01*
X673172Y856107D01*
X673202Y856192D01*
X673212Y856287D01*
Y854287D01*
D02*
G37*
G36*
X670446Y856192D02*
X670476Y856107D01*
X670527Y856032D01*
X670598Y855967D01*
X670689Y855912D01*
X670800Y855867D01*
X670931Y855832D01*
X671083Y855807D01*
X671255Y855792D01*
X671448Y855787D01*
Y854787D01*
X671255Y854782D01*
X671083Y854767D01*
X670931Y854742D01*
X670800Y854707D01*
X670689Y854662D01*
X670598Y854607D01*
X670527Y854542D01*
X670476Y854467D01*
X670446Y854382D01*
X670436Y854287D01*
Y856287D01*
X670446Y856192D01*
D02*
G37*
G36*
X748256Y855545D02*
X748617Y855240D01*
X748778Y855127D01*
X748926Y855042D01*
X749061Y854984D01*
X749183Y854952D01*
X749292Y854947D01*
X749388Y854970D01*
X749470Y855019D01*
X747933Y853752D01*
X747995Y853822D01*
X748027Y853909D01*
X748029Y854011D01*
X748001Y854129D01*
X747944Y854262D01*
X747857Y854412D01*
X747741Y854577D01*
X747595Y854757D01*
X747214Y855166D01*
X748056Y855739D01*
X748256Y855545D01*
D02*
G37*
G36*
X873169Y852830D02*
X873256Y852757D01*
X873345Y852691D01*
X873433Y852635D01*
X873522Y852588D01*
X873612Y852549D01*
X873702Y852519D01*
X873792Y852498D01*
X873883Y852486D01*
X873974Y852483D01*
X872805Y851313D01*
X872801Y851405D01*
X872789Y851495D01*
X872768Y851586D01*
X872738Y851676D01*
X872700Y851765D01*
X872652Y851854D01*
X872596Y851943D01*
X872531Y852031D01*
X872457Y852118D01*
X872375Y852206D01*
X873082Y852913D01*
X873169Y852830D01*
D02*
G37*
G36*
X713669D02*
X713757Y852757D01*
X713845Y852691D01*
X713933Y852635D01*
X714022Y852588D01*
X714112Y852549D01*
X714202Y852519D01*
X714292Y852498D01*
X714383Y852486D01*
X714474Y852483D01*
X713305Y851313D01*
X713301Y851405D01*
X713289Y851495D01*
X713268Y851586D01*
X713238Y851676D01*
X713200Y851765D01*
X713152Y851854D01*
X713096Y851943D01*
X713031Y852031D01*
X712957Y852118D01*
X712875Y852206D01*
X713582Y852913D01*
X713669Y852830D01*
D02*
G37*
G36*
X842752Y853769D02*
X842812Y853087D01*
X842912Y852485D01*
X843052Y851964D01*
X843232Y851522D01*
X843452Y851161D01*
X843712Y850880D01*
X844012Y850680D01*
X844352Y850559D01*
X844732Y850519D01*
X836732D01*
X837112Y850559D01*
X837452Y850680D01*
X837752Y850880D01*
X838012Y851161D01*
X838232Y851522D01*
X838412Y851964D01*
X838552Y852485D01*
X838652Y853087D01*
X838712Y853769D01*
X838732Y854531D01*
X842732D01*
X842752Y853769D01*
D02*
G37*
G36*
X683252D02*
X683312Y853087D01*
X683412Y852485D01*
X683552Y851964D01*
X683732Y851522D01*
X683952Y851161D01*
X684212Y850880D01*
X684512Y850680D01*
X684852Y850559D01*
X685232Y850519D01*
X677232D01*
X677612Y850559D01*
X677952Y850680D01*
X678252Y850880D01*
X678512Y851161D01*
X678732Y851522D01*
X678912Y851964D01*
X679052Y852485D01*
X679152Y853087D01*
X679212Y853769D01*
X679232Y854531D01*
X683232D01*
X683252Y853769D01*
D02*
G37*
G36*
X874751Y850391D02*
X874695Y850318D01*
X874646Y850239D01*
X874603Y850155D01*
X874568Y850064D01*
X874538Y849968D01*
X874516Y849867D01*
X874531Y849774D01*
X874566Y849642D01*
X874611Y849531D01*
X874666Y849440D01*
X874731Y849369D01*
X874806Y849319D01*
X874891Y849288D01*
X874986Y849278D01*
X872986D01*
X873081Y849288D01*
X873166Y849319D01*
X873241Y849369D01*
X873306Y849440D01*
X873361Y849531D01*
X873406Y849642D01*
X873441Y849774D01*
X873456Y849867D01*
X873434Y849968D01*
X873404Y850064D01*
X873368Y850155D01*
X873326Y850239D01*
X873277Y850318D01*
X873221Y850391D01*
X873159Y850458D01*
X874813D01*
X874751Y850391D01*
D02*
G37*
G36*
X715251D02*
X715195Y850318D01*
X715146Y850239D01*
X715103Y850155D01*
X715068Y850064D01*
X715038Y849968D01*
X715016Y849867D01*
X715031Y849774D01*
X715066Y849642D01*
X715111Y849531D01*
X715166Y849440D01*
X715231Y849369D01*
X715306Y849319D01*
X715391Y849288D01*
X715486Y849278D01*
X713486D01*
X713581Y849288D01*
X713666Y849319D01*
X713741Y849369D01*
X713806Y849440D01*
X713861Y849531D01*
X713906Y849642D01*
X713941Y849774D01*
X713956Y849867D01*
X713934Y849968D01*
X713904Y850064D01*
X713868Y850155D01*
X713826Y850239D01*
X713777Y850318D01*
X713721Y850391D01*
X713659Y850458D01*
X715313D01*
X715251Y850391D01*
D02*
G37*
G36*
X872198Y846802D02*
X872188Y846897D01*
X872158Y846982D01*
X872108Y847057D01*
X872038Y847122D01*
X871948Y847177D01*
X871838Y847222D01*
X871708Y847257D01*
X871558Y847282D01*
X871388Y847297D01*
X871198Y847302D01*
Y848302D01*
X871388Y848307D01*
X871558Y848322D01*
X871708Y848347D01*
X871838Y848382D01*
X871948Y848427D01*
X872038Y848482D01*
X872108Y848547D01*
X872158Y848622D01*
X872188Y848707D01*
X872198Y848802D01*
Y846802D01*
D02*
G37*
G36*
X869784Y848707D02*
X869814Y848622D01*
X869864Y848547D01*
X869934Y848482D01*
X870024Y848427D01*
X870134Y848382D01*
X870264Y848347D01*
X870414Y848322D01*
X870584Y848307D01*
X870774Y848302D01*
Y847302D01*
X870584Y847297D01*
X870414Y847282D01*
X870264Y847257D01*
X870134Y847222D01*
X870024Y847177D01*
X869934Y847122D01*
X869864Y847057D01*
X869814Y846982D01*
X869784Y846897D01*
X869774Y846802D01*
Y848802D01*
X869784Y848707D01*
D02*
G37*
G36*
X712698Y846802D02*
X712688Y846897D01*
X712658Y846982D01*
X712608Y847057D01*
X712538Y847122D01*
X712448Y847177D01*
X712338Y847222D01*
X712208Y847257D01*
X712058Y847282D01*
X711888Y847297D01*
X711698Y847302D01*
Y848302D01*
X711888Y848307D01*
X712058Y848322D01*
X712208Y848347D01*
X712338Y848382D01*
X712448Y848427D01*
X712538Y848482D01*
X712608Y848547D01*
X712658Y848622D01*
X712688Y848707D01*
X712698Y848802D01*
Y846802D01*
D02*
G37*
G36*
X710284Y848707D02*
X710314Y848622D01*
X710364Y848547D01*
X710434Y848482D01*
X710524Y848427D01*
X710634Y848382D01*
X710764Y848347D01*
X710914Y848322D01*
X711084Y848307D01*
X711274Y848302D01*
Y847302D01*
X711084Y847297D01*
X710914Y847282D01*
X710764Y847257D01*
X710634Y847222D01*
X710524Y847177D01*
X710434Y847122D01*
X710364Y847057D01*
X710314Y846982D01*
X710284Y846897D01*
X710274Y846802D01*
Y848802D01*
X710284Y848707D01*
D02*
G37*
G36*
X754120Y849515D02*
X753780Y849394D01*
X753480Y849193D01*
X753220Y848912D01*
X753000Y848551D01*
X752820Y848109D01*
X752680Y847588D01*
X752580Y846987D01*
X752520Y846305D01*
X752500Y845543D01*
X748500D01*
X748494Y846303D01*
X748355Y848543D01*
X748292Y848903D01*
X748216Y849183D01*
X748130Y849384D01*
X748031Y849504D01*
X747922Y849543D01*
X754500Y849555D01*
X754120Y849515D01*
D02*
G37*
G36*
X844352Y845015D02*
X844012Y844895D01*
X843712Y844694D01*
X843452Y844414D01*
X843232Y844053D01*
X843052Y843611D01*
X842912Y843090D01*
X842812Y842488D01*
X842752Y841806D01*
X842732Y841043D01*
X838732D01*
X838712Y841806D01*
X838652Y842488D01*
X838552Y843090D01*
X838412Y843611D01*
X838232Y844053D01*
X838012Y844414D01*
X837752Y844694D01*
X837452Y844895D01*
X837112Y845015D01*
X836732Y845055D01*
X844732D01*
X844352Y845015D01*
D02*
G37*
G36*
X684852D02*
X684512Y844895D01*
X684212Y844694D01*
X683952Y844414D01*
X683732Y844053D01*
X683552Y843611D01*
X683412Y843090D01*
X683312Y842488D01*
X683252Y841806D01*
X683232Y841043D01*
X679232D01*
X679212Y841806D01*
X679152Y842488D01*
X679052Y843090D01*
X678912Y843611D01*
X678732Y844053D01*
X678512Y844414D01*
X678252Y844694D01*
X677952Y844895D01*
X677612Y845015D01*
X677232Y845055D01*
X685232D01*
X684852Y845015D01*
D02*
G37*
G36*
X872198Y840802D02*
X872188Y840897D01*
X872158Y840982D01*
X872108Y841057D01*
X872038Y841122D01*
X871948Y841177D01*
X871838Y841222D01*
X871708Y841257D01*
X871558Y841282D01*
X871388Y841297D01*
X871198Y841302D01*
Y842302D01*
X871388Y842307D01*
X871558Y842322D01*
X871708Y842347D01*
X871838Y842382D01*
X871948Y842427D01*
X872038Y842482D01*
X872108Y842547D01*
X872158Y842622D01*
X872188Y842707D01*
X872198Y842802D01*
Y840802D01*
D02*
G37*
G36*
X869784Y842707D02*
X869814Y842622D01*
X869864Y842547D01*
X869934Y842482D01*
X870024Y842427D01*
X870134Y842382D01*
X870264Y842347D01*
X870414Y842322D01*
X870584Y842307D01*
X870774Y842302D01*
Y841302D01*
X870584Y841297D01*
X870414Y841282D01*
X870264Y841257D01*
X870134Y841222D01*
X870024Y841177D01*
X869934Y841122D01*
X869864Y841057D01*
X869814Y840982D01*
X869784Y840897D01*
X869774Y840802D01*
Y842802D01*
X869784Y842707D01*
D02*
G37*
G36*
X712698Y840802D02*
X712688Y840897D01*
X712658Y840982D01*
X712608Y841057D01*
X712538Y841122D01*
X712448Y841177D01*
X712338Y841222D01*
X712208Y841257D01*
X712058Y841282D01*
X711888Y841297D01*
X711698Y841302D01*
Y842302D01*
X711888Y842307D01*
X712058Y842322D01*
X712208Y842347D01*
X712338Y842382D01*
X712448Y842427D01*
X712538Y842482D01*
X712608Y842547D01*
X712658Y842622D01*
X712688Y842707D01*
X712698Y842802D01*
Y840802D01*
D02*
G37*
G36*
X710284Y842707D02*
X710314Y842622D01*
X710364Y842547D01*
X710434Y842482D01*
X710524Y842427D01*
X710634Y842382D01*
X710764Y842347D01*
X710914Y842322D01*
X711084Y842307D01*
X711274Y842302D01*
Y841302D01*
X711084Y841297D01*
X710914Y841282D01*
X710764Y841257D01*
X710634Y841222D01*
X710524Y841177D01*
X710434Y841122D01*
X710364Y841057D01*
X710314Y840982D01*
X710284Y840897D01*
X710274Y840802D01*
Y842802D01*
X710284Y842707D01*
D02*
G37*
G36*
X874891Y840316D02*
X874806Y840285D01*
X874731Y840235D01*
X874666Y840164D01*
X874611Y840073D01*
X874566Y839962D01*
X874531Y839830D01*
X874515Y839734D01*
X874516Y839730D01*
X874539Y839628D01*
X874569Y839532D01*
X874605Y839442D01*
X874648Y839357D01*
X874698Y839279D01*
X874754Y839207D01*
X874817Y839141D01*
X873163Y839121D01*
X873225Y839189D01*
X873279Y839262D01*
X873328Y839342D01*
X873370Y839427D01*
X873405Y839517D01*
X873434Y839614D01*
X873457Y839717D01*
X873458Y839725D01*
X873441Y839830D01*
X873406Y839962D01*
X873361Y840073D01*
X873306Y840164D01*
X873241Y840235D01*
X873166Y840285D01*
X873081Y840316D01*
X872986Y840326D01*
X874986D01*
X874891Y840316D01*
D02*
G37*
G36*
X715391D02*
X715306Y840285D01*
X715231Y840235D01*
X715166Y840164D01*
X715111Y840073D01*
X715066Y839962D01*
X715031Y839830D01*
X715015Y839734D01*
X715016Y839730D01*
X715039Y839628D01*
X715069Y839532D01*
X715105Y839442D01*
X715148Y839357D01*
X715198Y839279D01*
X715254Y839207D01*
X715317Y839141D01*
X713663Y839121D01*
X713725Y839189D01*
X713779Y839262D01*
X713828Y839342D01*
X713870Y839427D01*
X713905Y839517D01*
X713934Y839614D01*
X713957Y839717D01*
X713958Y839725D01*
X713941Y839830D01*
X713906Y839962D01*
X713861Y840073D01*
X713806Y840164D01*
X713741Y840235D01*
X713666Y840285D01*
X713581Y840316D01*
X713486Y840326D01*
X715486D01*
X715391Y840316D01*
D02*
G37*
G36*
X900598Y835644D02*
X901144Y835098D01*
X901439Y834386D01*
Y833614D01*
X901144Y832902D01*
X901125Y832883D01*
X900966Y832500D01*
X901125Y832117D01*
X901144Y832098D01*
X901270Y831793D01*
X901347Y831717D01*
X901388Y831617D01*
X901487Y831576D01*
X901563Y831500D01*
X901671D01*
X901770Y831459D01*
X906250D01*
X906459Y831005D01*
X906094Y830576D01*
X905704Y830178D01*
X905702Y830173D01*
X901268Y825739D01*
X894500D01*
Y826287D01*
X890500D01*
Y825739D01*
X888500D01*
Y826281D01*
X888855Y826812D01*
X889049Y827787D01*
Y829089D01*
X889061Y829531D01*
X889117Y830176D01*
X889209Y830731D01*
X889334Y831194D01*
X889485Y831564D01*
X889654Y831842D01*
X889834Y832036D01*
X890024Y832163D01*
X890240Y832240D01*
X890557Y832273D01*
X890583Y832287D01*
X894000D01*
Y834726D01*
X894125Y834819D01*
X894500Y834966D01*
X894626Y835019D01*
X894761Y835033D01*
X894810Y835095D01*
X894883Y835125D01*
X895402Y835644D01*
X896114Y835939D01*
X896886D01*
X897598Y835644D01*
X897617Y835625D01*
X898000Y835466D01*
X898383Y835625D01*
X898402Y835644D01*
X899114Y835939D01*
X899886D01*
X900598Y835644D01*
D02*
G37*
G36*
X882443Y832273D02*
X882760Y832240D01*
X882975Y832163D01*
X883166Y832036D01*
X883346Y831842D01*
X883515Y831564D01*
X883666Y831194D01*
X883790Y830731D01*
X883883Y830176D01*
X883939Y829531D01*
X883951Y829089D01*
Y827787D01*
X884145Y826812D01*
X884500Y826281D01*
Y825739D01*
X878454D01*
X878247Y826239D01*
X878603Y826595D01*
X878980Y827507D01*
Y828493D01*
X878603Y829405D01*
X878581Y829427D01*
X880833Y831678D01*
X880881Y831696D01*
X881264Y832053D01*
X881413Y832172D01*
X881542Y832263D01*
X881584Y832287D01*
X881885D01*
X881926Y832270D01*
X881968Y832287D01*
X881969D01*
X882012Y832277D01*
X882029Y832287D01*
X882417D01*
X882443Y832273D01*
D02*
G37*
G36*
X890120Y832771D02*
X889780Y832651D01*
X889480Y832450D01*
X889220Y832170D01*
X889000Y831808D01*
X888820Y831367D01*
X888680Y830846D01*
X888580Y830244D01*
X888520Y829562D01*
X888500Y828799D01*
X884500D01*
X884480Y829562D01*
X884420Y830244D01*
X884320Y830846D01*
X884180Y831367D01*
X884000Y831808D01*
X883780Y832170D01*
X883520Y832450D01*
X883220Y832651D01*
X882880Y832771D01*
X882500Y832811D01*
X890500D01*
X890120Y832771D01*
D02*
G37*
G36*
X877795Y829375D02*
X877711Y829286D01*
X877640Y829198D01*
X877581Y829112D01*
X877536Y829029D01*
X877504Y828947D01*
X877484Y828867D01*
X877478Y828789D01*
X877484Y828713D01*
X877504Y828639D01*
X877536Y828567D01*
X875988Y829064D01*
X876027Y829087D01*
X876079Y829125D01*
X876224Y829248D01*
X876680Y829678D01*
X876990Y829985D01*
X877795Y829375D01*
D02*
G37*
G36*
X820620Y832271D02*
X820280Y832151D01*
X819980Y831950D01*
X819720Y831670D01*
X819500Y831308D01*
X819320Y830867D01*
X819180Y830346D01*
X819080Y829744D01*
X819020Y829062D01*
X819000Y828299D01*
X815000D01*
X814980Y829062D01*
X814920Y829744D01*
X814820Y830346D01*
X814680Y830867D01*
X814500Y831308D01*
X814280Y831670D01*
X814020Y831950D01*
X813720Y832151D01*
X813380Y832271D01*
X813000Y832311D01*
X821000D01*
X820620Y832271D01*
D02*
G37*
G36*
X911788Y829799D02*
X911490Y829778D01*
X911180Y829715D01*
X910855Y829609D01*
X910518Y829460D01*
X910167Y829269D01*
X909802Y829036D01*
X909425Y828760D01*
X909034Y828442D01*
X908212Y827678D01*
X906091Y829799D01*
X906494Y830211D01*
X907682Y831604D01*
X907873Y831889D01*
X908021Y832149D01*
X908127Y832383D01*
X908191Y832592D01*
X908212Y832775D01*
X911788Y829799D01*
D02*
G37*
G36*
X718410Y828765D02*
X718483Y828709D01*
X718562Y828660D01*
X718647Y828618D01*
X718737Y828582D01*
X718834Y828552D01*
X718936Y828529D01*
X719044Y828513D01*
X719159Y828503D01*
X719279Y828500D01*
Y827500D01*
X719159Y827497D01*
X719044Y827487D01*
X718936Y827471D01*
X718834Y827448D01*
X718737Y827418D01*
X718647Y827382D01*
X718562Y827340D01*
X718483Y827291D01*
X718410Y827235D01*
X718343Y827173D01*
Y828827D01*
X718410Y828765D01*
D02*
G37*
G36*
X661120Y832271D02*
X660780Y832151D01*
X660480Y831950D01*
X660220Y831670D01*
X660000Y831308D01*
X659820Y830867D01*
X659680Y830346D01*
X659580Y829744D01*
X659520Y829062D01*
X659500Y828299D01*
X659121D01*
X659914Y827775D01*
X660098Y827676D01*
X660185Y827635D01*
X660196Y827641D01*
X660258Y827692D01*
X660311Y827751D01*
X660353Y827818D01*
X660386Y827892D01*
X660563Y827507D01*
X660631Y827500D01*
Y827358D01*
X661072Y826399D01*
X661012Y826418D01*
X660935Y826435D01*
X660842Y826451D01*
X660605Y826475D01*
X660493Y826480D01*
X660404Y826456D01*
X660261Y826401D01*
X660098Y826324D01*
X659914Y826225D01*
X659489Y825962D01*
X658984Y825610D01*
X658702Y825402D01*
Y828299D01*
X655500D01*
X655480Y829062D01*
X655420Y829744D01*
X655320Y830346D01*
X655180Y830867D01*
X655000Y831308D01*
X654780Y831670D01*
X654520Y831950D01*
X654220Y832151D01*
X653880Y832271D01*
X653500Y832311D01*
X661500D01*
X661120Y832271D01*
D02*
G37*
G36*
X817002Y827879D02*
X817562Y827532D01*
X817841Y827390D01*
X818120Y827271D01*
X818397Y827174D01*
X818440Y827162D01*
X818517Y827209D01*
X818589Y827265D01*
X818657Y827327D01*
Y827102D01*
X818674Y827098D01*
X818950Y827043D01*
X819225Y827011D01*
X819500Y827000D01*
Y826000D01*
X819225Y825989D01*
X818950Y825957D01*
X818674Y825902D01*
X818657Y825898D01*
Y825673D01*
X818589Y825735D01*
X818517Y825791D01*
X818440Y825838D01*
X818397Y825826D01*
X818120Y825729D01*
X817841Y825609D01*
X817562Y825468D01*
X817282Y825306D01*
X817002Y825121D01*
X816720Y824915D01*
Y828085D01*
X817002Y827879D01*
D02*
G37*
G36*
X833500Y810541D02*
X824399D01*
X824300Y811000D01*
X824300Y811041D01*
Y811500D01*
X824097D01*
X824052Y811472D01*
X823767Y811231D01*
Y811500D01*
X822000D01*
X819700D01*
Y811041D01*
X819700Y811000D01*
X819600Y810541D01*
X813500D01*
X813117Y810383D01*
X812959Y810000D01*
Y800541D01*
X804500D01*
X804117Y800383D01*
X803959Y800000D01*
Y787750D01*
X804117Y787367D01*
X804250Y787312D01*
Y780312D01*
X804213Y780235D01*
X804210Y780180D01*
X804177Y780137D01*
X804198Y779980D01*
X804190Y779821D01*
X804226Y779780D01*
X804234Y779726D01*
X804500Y779272D01*
Y774500D01*
X798917D01*
X798500Y774700D01*
X798500Y775000D01*
Y775500D01*
X796500D01*
X794500D01*
Y775000D01*
X794500Y774700D01*
X794083Y774500D01*
X793854D01*
X793500Y774854D01*
Y799000D01*
X763658D01*
Y789041D01*
X754500D01*
X754117Y788883D01*
X753959Y788500D01*
Y775000D01*
X753625Y774500D01*
X745000D01*
Y789500D01*
X735000D01*
Y815974D01*
X738213D01*
X738996Y816077D01*
X739726Y816380D01*
X740352Y816860D01*
X746492Y823000D01*
X770476D01*
X770677Y821733D01*
X771315Y819771D01*
X772252Y817932D01*
X773465Y816262D01*
X774924Y814803D01*
X776593Y813590D01*
X778432Y812653D01*
X780395Y812016D01*
X782433Y811693D01*
X784496D01*
X786535Y812016D01*
X788497Y812653D01*
X789574Y813202D01*
X790000Y812941D01*
Y810500D01*
X796500D01*
Y813500D01*
X791062D01*
X790900Y814000D01*
X792005Y814803D01*
X793465Y816262D01*
X794677Y817932D01*
X795614Y819771D01*
X796252Y821733D01*
X796453Y823000D01*
X802992D01*
X803095Y822897D01*
X804007Y822520D01*
X804993D01*
X805905Y822897D01*
X806008Y823000D01*
X833500D01*
Y810541D01*
D02*
G37*
G36*
X866500Y792000D02*
X816500D01*
Y775500D01*
X809300D01*
Y776000D01*
X807000D01*
Y777500D01*
X805500D01*
Y779500D01*
X804994D01*
X804700Y780000D01*
X804821Y780250D01*
X805500D01*
Y784000D01*
Y787750D01*
X804500D01*
Y800000D01*
X813500D01*
Y810000D01*
X821803D01*
X822000Y809974D01*
X822197Y810000D01*
X866500D01*
Y792000D01*
D02*
G37*
G36*
X687275Y816380D02*
X688004Y816077D01*
X688787Y815974D01*
X688788Y815974D01*
X734459D01*
Y789500D01*
X734617Y789117D01*
X734901Y789000D01*
X734801Y788500D01*
X734041D01*
X733883Y788883D01*
X733500Y789041D01*
X724000D01*
X723617Y788883D01*
X723459Y788500D01*
Y775000D01*
X723617Y774617D01*
X723901Y774500D01*
X723801Y774000D01*
X715000D01*
Y797504D01*
X684657D01*
Y789146D01*
X684500Y789041D01*
X675000D01*
X674617Y788883D01*
X674459Y788500D01*
Y777020D01*
X672621D01*
X672230Y776942D01*
X671900Y776721D01*
X670962Y775783D01*
X670500Y775975D01*
Y779300D01*
X670000D01*
Y777000D01*
X668500D01*
Y775500D01*
X666500D01*
Y774932D01*
X665000D01*
Y789000D01*
X661000D01*
Y814992D01*
X661603Y815595D01*
X661978Y816500D01*
X687117D01*
X687275Y816380D01*
D02*
G37*
G36*
X764000Y775000D02*
X754500D01*
Y788500D01*
X764000D01*
Y775000D01*
D02*
G37*
G36*
X733500D02*
X724000D01*
Y788500D01*
X733500D01*
Y775000D01*
D02*
G37*
G36*
X684500D02*
X675000D01*
Y788500D01*
X684500D01*
Y775000D01*
D02*
G37*
%LPC*%
G36*
X625500Y908800D02*
Y908150D01*
X626150D01*
X625500Y908800D01*
D02*
G37*
G36*
X622500D02*
X621850Y908150D01*
X622500D01*
Y908800D01*
D02*
G37*
G36*
X950000Y908650D02*
Y908000D01*
X950650D01*
X950000Y908650D01*
D02*
G37*
G36*
X947000D02*
X946350Y908000D01*
X947000D01*
Y908650D01*
D02*
G37*
G36*
X626150Y905150D02*
X625500D01*
Y904500D01*
X626150Y905150D01*
D02*
G37*
G36*
X632300Y908750D02*
X627700D01*
Y904250D01*
X632300D01*
Y905395D01*
X632302Y905398D01*
X632322Y905406D01*
X632393Y905425D01*
X632496Y905443D01*
X632629Y905454D01*
X632802Y905459D01*
X632850Y905480D01*
X633150D01*
X633198Y905459D01*
X633371Y905454D01*
X633504Y905443D01*
X633607Y905425D01*
X633678Y905406D01*
X633698Y905398D01*
X633700Y905395D01*
Y904500D01*
X638300D01*
Y908500D01*
X633700D01*
Y907605D01*
X633698Y907602D01*
X633678Y907594D01*
X633607Y907574D01*
X633504Y907557D01*
X633371Y907546D01*
X633198Y907541D01*
X633150Y907520D01*
X632850D01*
X632802Y907541D01*
X632629Y907546D01*
X632496Y907557D01*
X632393Y907574D01*
X632322Y907594D01*
X632302Y907602D01*
X632300Y907605D01*
Y908750D01*
D02*
G37*
G36*
X622500Y905150D02*
X621850D01*
X622500Y904500D01*
Y905150D01*
D02*
G37*
G36*
X950650Y905000D02*
X950000D01*
Y904350D01*
X950650Y905000D01*
D02*
G37*
G36*
X947000D02*
X946350D01*
X947000Y904350D01*
Y905000D01*
D02*
G37*
G36*
X638300Y902500D02*
X633700D01*
Y898500D01*
X633700Y898500D01*
X633700D01*
X633730Y898000D01*
X633520Y897493D01*
Y896507D01*
X633897Y895595D01*
X634595Y894897D01*
X635507Y894520D01*
X636493D01*
X637405Y894897D01*
X638103Y895595D01*
X638480Y896507D01*
Y897493D01*
X638270Y898000D01*
X638300Y898500D01*
X638300Y898500D01*
X638300Y898500D01*
Y902500D01*
D02*
G37*
G36*
X631350Y902800D02*
X628650D01*
X627500Y901650D01*
Y899350D01*
X628344Y898505D01*
X628582Y898123D01*
X628326Y897834D01*
X627897Y897405D01*
X627520Y896493D01*
Y895507D01*
X627897Y894595D01*
X628595Y893897D01*
X629507Y893520D01*
X630493D01*
X631405Y893897D01*
X632103Y894595D01*
X632480Y895507D01*
Y896493D01*
X632103Y897405D01*
X631674Y897834D01*
X631418Y898123D01*
X631656Y898505D01*
X632500Y899350D01*
Y901650D01*
X631350Y902800D01*
D02*
G37*
G36*
X626300Y902900D02*
X621700D01*
Y898400D01*
X622901D01*
X622906Y898388D01*
X622925Y898314D01*
X622943Y898209D01*
X622954Y898074D01*
X622959Y897898D01*
X622980Y897850D01*
Y897200D01*
X622959Y897152D01*
X622954Y896976D01*
X622943Y896841D01*
X622925Y896736D01*
X622906Y896662D01*
X622901Y896650D01*
X621700D01*
Y892650D01*
X626300D01*
Y896650D01*
X625099D01*
X625094Y896662D01*
X625075Y896736D01*
X625057Y896841D01*
X625046Y896976D01*
X625041Y897152D01*
X625020Y897200D01*
Y897850D01*
X625041Y897898D01*
X625046Y898074D01*
X625057Y898209D01*
X625075Y898314D01*
X625094Y898388D01*
X625099Y898400D01*
X626300D01*
Y902900D01*
D02*
G37*
G36*
X950800Y902750D02*
X946200D01*
Y898250D01*
X947401D01*
X947406Y898238D01*
X947425Y898164D01*
X947443Y898059D01*
X947454Y897924D01*
X947459Y897748D01*
X947480Y897700D01*
Y896550D01*
X947459Y896502D01*
X947454Y896326D01*
X947443Y896191D01*
X947425Y896086D01*
X947406Y896012D01*
X947401Y896000D01*
X946200D01*
Y892000D01*
X950800D01*
Y896000D01*
X949599D01*
X949594Y896012D01*
X949575Y896086D01*
X949557Y896191D01*
X949546Y896326D01*
X949541Y896502D01*
X949520Y896550D01*
Y897700D01*
X949541Y897748D01*
X949546Y897924D01*
X949557Y898059D01*
X949575Y898164D01*
X949594Y898238D01*
X949599Y898250D01*
X950800D01*
Y902750D01*
D02*
G37*
G36*
X626300Y890650D02*
X621700D01*
Y886650D01*
X622901D01*
X622906Y886638D01*
X622925Y886564D01*
X622943Y886459D01*
X622954Y886324D01*
X622959Y886148D01*
X622980Y886100D01*
Y883550D01*
X622959Y883502D01*
X622954Y883326D01*
X622943Y883191D01*
X622925Y883086D01*
X622906Y883012D01*
X622901Y883000D01*
X621250D01*
Y876000D01*
X629750D01*
Y883000D01*
X625099D01*
X625094Y883012D01*
X625075Y883086D01*
X625057Y883191D01*
X625046Y883326D01*
X625041Y883502D01*
X625020Y883550D01*
Y886100D01*
X625041Y886148D01*
X625046Y886324D01*
X625057Y886459D01*
X625075Y886564D01*
X625094Y886638D01*
X625099Y886650D01*
X626300D01*
Y890650D01*
D02*
G37*
G36*
X659800Y823000D02*
X659000D01*
Y822500D01*
X659800D01*
Y823000D01*
D02*
G37*
G36*
X656000D02*
X655200D01*
Y822500D01*
X656000D01*
Y823000D01*
D02*
G37*
G36*
X659800Y819500D02*
X659000D01*
Y819000D01*
X659800D01*
Y819500D01*
D02*
G37*
G36*
X656000D02*
X655200D01*
Y819000D01*
X656000D01*
Y819500D01*
D02*
G37*
G36*
X776756Y797039D02*
X775000D01*
Y794004D01*
X776756D01*
Y797039D01*
D02*
G37*
G36*
X772000D02*
X770244D01*
Y794004D01*
X772000D01*
Y797039D01*
D02*
G37*
G36*
X697756Y795543D02*
X696000D01*
Y792508D01*
X697756D01*
Y795543D01*
D02*
G37*
G36*
X693000D02*
X691244D01*
Y792508D01*
X693000D01*
Y795543D01*
D02*
G37*
G36*
X776756Y791004D02*
X775000D01*
Y787968D01*
X776756D01*
Y791004D01*
D02*
G37*
G36*
X772000D02*
X770244D01*
Y787968D01*
X772000D01*
Y791004D01*
D02*
G37*
G36*
X825756Y790039D02*
X824000D01*
Y787004D01*
X825756D01*
Y790039D01*
D02*
G37*
G36*
X821000D02*
X819244D01*
Y787004D01*
X821000D01*
Y790039D01*
D02*
G37*
G36*
X697756Y789508D02*
X696000D01*
Y786472D01*
X697756D01*
Y789508D01*
D02*
G37*
G36*
X693000D02*
X691244D01*
Y786472D01*
X693000D01*
Y789508D01*
D02*
G37*
G36*
X743250Y788250D02*
X742000D01*
Y786000D01*
X743250D01*
Y788250D01*
D02*
G37*
G36*
X739000D02*
X737750D01*
Y786000D01*
X739000D01*
Y788250D01*
D02*
G37*
G36*
X712750D02*
X711500D01*
Y786000D01*
X712750D01*
Y788250D01*
D02*
G37*
G36*
X708500D02*
X707250D01*
Y786000D01*
X708500D01*
Y788250D01*
D02*
G37*
G36*
X791750Y787750D02*
X790500D01*
Y785500D01*
X791750D01*
Y787750D01*
D02*
G37*
G36*
X787500D02*
X786250D01*
Y785500D01*
X787500D01*
Y787750D01*
D02*
G37*
G36*
X851831Y785488D02*
Y783000D01*
X854319D01*
X854282Y783137D01*
X853724Y784103D01*
X852934Y784893D01*
X851967Y785451D01*
X851831Y785488D01*
D02*
G37*
G36*
X848831D02*
X848694Y785451D01*
X847727Y784893D01*
X846938Y784103D01*
X846379Y783137D01*
X846343Y783000D01*
X848831D01*
Y785488D01*
D02*
G37*
G36*
X825756Y784004D02*
X824000D01*
Y780969D01*
X825756D01*
Y784004D01*
D02*
G37*
G36*
X821000D02*
X819244D01*
Y780969D01*
X821000D01*
Y784004D01*
D02*
G37*
G36*
X743250Y783000D02*
X742000D01*
Y780750D01*
X743250D01*
Y783000D01*
D02*
G37*
G36*
X739000D02*
X737750D01*
Y780750D01*
X739000D01*
Y783000D01*
D02*
G37*
G36*
X712750D02*
X711500D01*
Y780750D01*
X712750D01*
Y783000D01*
D02*
G37*
G36*
X708500D02*
X707250D01*
Y780750D01*
X708500D01*
Y783000D01*
D02*
G37*
G36*
X663750D02*
X662500D01*
Y780750D01*
X663750D01*
Y783000D01*
D02*
G37*
G36*
X659500D02*
X658250D01*
Y780750D01*
X659500D01*
Y783000D01*
D02*
G37*
G36*
X791750Y782500D02*
X790500D01*
Y780250D01*
X791750D01*
Y782500D01*
D02*
G37*
G36*
X787500D02*
X786250D01*
Y780250D01*
X787500D01*
Y782500D01*
D02*
G37*
G36*
X740500Y779800D02*
X740000D01*
Y779000D01*
X740500D01*
Y779800D01*
D02*
G37*
G36*
X710500D02*
X710000D01*
Y779000D01*
X710500D01*
Y779800D01*
D02*
G37*
G36*
X661000Y779300D02*
X660500D01*
Y778500D01*
X661000D01*
Y779300D01*
D02*
G37*
G36*
X789000D02*
X788500D01*
Y778500D01*
X789000D01*
Y779300D01*
D02*
G37*
G36*
X854319Y780000D02*
X851831D01*
Y777512D01*
X851967Y777549D01*
X852934Y778107D01*
X853724Y778897D01*
X854282Y779863D01*
X854319Y780000D01*
D02*
G37*
G36*
X848831D02*
X846343D01*
X846379Y779863D01*
X846938Y778897D01*
X847727Y778107D01*
X848694Y777549D01*
X848831Y777512D01*
Y780000D01*
D02*
G37*
G36*
X740500Y776000D02*
X740000D01*
Y775200D01*
X740500D01*
Y776000D01*
D02*
G37*
G36*
X710500D02*
X710000D01*
Y775200D01*
X710500D01*
Y776000D01*
D02*
G37*
G36*
X789000Y775500D02*
X788500D01*
Y774700D01*
X789000D01*
Y775500D01*
D02*
G37*
G36*
X809300Y773500D02*
X808500D01*
Y773000D01*
X809300D01*
Y773500D01*
D02*
G37*
G36*
X760800D02*
X760000D01*
Y773000D01*
X760800D01*
Y773500D01*
D02*
G37*
G36*
X730300D02*
X729500D01*
Y773000D01*
X730300D01*
Y773500D01*
D02*
G37*
G36*
X805500D02*
X804700D01*
Y773000D01*
X805500D01*
Y773500D01*
D02*
G37*
G36*
X757000D02*
X756200D01*
Y773000D01*
X757000D01*
Y773500D01*
D02*
G37*
G36*
X726500D02*
X725700D01*
Y773000D01*
X726500D01*
Y773500D01*
D02*
G37*
G36*
X680800Y773000D02*
X680000D01*
Y772500D01*
X680800D01*
Y773000D01*
D02*
G37*
G36*
X677000D02*
X676200D01*
Y772500D01*
X677000D01*
Y773000D01*
D02*
G37*
G36*
X809300Y770000D02*
X808500D01*
Y769500D01*
X809300D01*
Y770000D01*
D02*
G37*
G36*
X805500D02*
X804700D01*
Y769500D01*
X805500D01*
Y770000D01*
D02*
G37*
G36*
X760800D02*
X760000D01*
Y769500D01*
X760800D01*
Y770000D01*
D02*
G37*
G36*
X757000D02*
X756200D01*
Y769500D01*
X757000D01*
Y770000D01*
D02*
G37*
G36*
X730300D02*
X729500D01*
Y769500D01*
X730300D01*
Y770000D01*
D02*
G37*
G36*
X726500D02*
X725700D01*
Y769500D01*
X726500D01*
Y770000D01*
D02*
G37*
G36*
X680800Y769500D02*
X680000D01*
Y769000D01*
X680800D01*
Y769500D01*
D02*
G37*
G36*
X677000D02*
X676200D01*
Y769000D01*
X677000D01*
Y769500D01*
D02*
G37*
%LPD*%
G36*
X634212Y905500D02*
X634202Y905595D01*
X634172Y905680D01*
X634122Y905755D01*
X634052Y905820D01*
X633962Y905875D01*
X633852Y905920D01*
X633722Y905955D01*
X633572Y905980D01*
X633402Y905995D01*
X633212Y906000D01*
Y907000D01*
X633402Y907005D01*
X633572Y907020D01*
X633722Y907045D01*
X633852Y907080D01*
X633962Y907125D01*
X634052Y907180D01*
X634122Y907245D01*
X634172Y907320D01*
X634202Y907405D01*
X634212Y907500D01*
Y905500D01*
D02*
G37*
G36*
X631798Y907405D02*
X631828Y907320D01*
X631878Y907245D01*
X631948Y907180D01*
X632038Y907125D01*
X632148Y907080D01*
X632278Y907045D01*
X632428Y907020D01*
X632598Y907005D01*
X632788Y907000D01*
Y906000D01*
X632598Y905995D01*
X632428Y905980D01*
X632278Y905955D01*
X632148Y905920D01*
X632038Y905875D01*
X631948Y905820D01*
X631878Y905755D01*
X631828Y905680D01*
X631798Y905595D01*
X631788Y905500D01*
Y907500D01*
X631798Y907405D01*
D02*
G37*
G36*
X636905Y899014D02*
X636820Y898983D01*
X636745Y898933D01*
X636680Y898862D01*
X636625Y898771D01*
X636580Y898660D01*
X636545Y898528D01*
X636530Y898435D01*
X636552Y898334D01*
X636582Y898237D01*
X636618Y898147D01*
X636660Y898062D01*
X636709Y897983D01*
X636765Y897910D01*
X636827Y897843D01*
X635173D01*
X635235Y897910D01*
X635291Y897983D01*
X635340Y898062D01*
X635382Y898147D01*
X635418Y898237D01*
X635448Y898334D01*
X635470Y898435D01*
X635455Y898528D01*
X635420Y898660D01*
X635375Y898771D01*
X635320Y898862D01*
X635255Y898933D01*
X635180Y898983D01*
X635095Y899014D01*
X635000Y899024D01*
X637000D01*
X636905Y899014D01*
D02*
G37*
G36*
X630905Y898714D02*
X630820Y898683D01*
X630745Y898633D01*
X630680Y898562D01*
X630625Y898471D01*
X630580Y898360D01*
X630545Y898228D01*
X630520Y898076D01*
X630505Y897904D01*
X630501Y897746D01*
X630503Y897659D01*
X630513Y897544D01*
X630529Y897436D01*
X630552Y897334D01*
X630582Y897237D01*
X630618Y897147D01*
X630660Y897062D01*
X630709Y896983D01*
X630765Y896910D01*
X630827Y896844D01*
X629173D01*
X629235Y896910D01*
X629291Y896983D01*
X629340Y897062D01*
X629382Y897147D01*
X629418Y897237D01*
X629448Y897334D01*
X629471Y897436D01*
X629487Y897544D01*
X629497Y897659D01*
X629499Y897746D01*
X629495Y897904D01*
X629480Y898076D01*
X629455Y898228D01*
X629420Y898360D01*
X629375Y898471D01*
X629320Y898562D01*
X629255Y898633D01*
X629180Y898683D01*
X629095Y898714D01*
X629000Y898724D01*
X631000D01*
X630905Y898714D01*
D02*
G37*
G36*
X624905Y898914D02*
X624820Y898884D01*
X624745Y898833D01*
X624680Y898762D01*
X624625Y898671D01*
X624580Y898560D01*
X624545Y898428D01*
X624520Y898276D01*
X624505Y898104D01*
X624500Y897912D01*
X623500D01*
X623495Y898104D01*
X623480Y898276D01*
X623455Y898428D01*
X623420Y898560D01*
X623375Y898671D01*
X623320Y898762D01*
X623255Y898833D01*
X623180Y898884D01*
X623095Y898914D01*
X623000Y898924D01*
X625000D01*
X624905Y898914D01*
D02*
G37*
G36*
X624505Y896946D02*
X624520Y896774D01*
X624545Y896622D01*
X624580Y896490D01*
X624625Y896379D01*
X624680Y896288D01*
X624745Y896217D01*
X624820Y896167D01*
X624905Y896136D01*
X625000Y896126D01*
X623000D01*
X623095Y896136D01*
X623180Y896167D01*
X623255Y896217D01*
X623320Y896288D01*
X623375Y896379D01*
X623420Y896490D01*
X623455Y896622D01*
X623480Y896774D01*
X623495Y896946D01*
X623500Y897138D01*
X624500D01*
X624505Y896946D01*
D02*
G37*
G36*
X949405Y898764D02*
X949320Y898734D01*
X949245Y898683D01*
X949180Y898612D01*
X949125Y898521D01*
X949080Y898410D01*
X949045Y898278D01*
X949020Y898126D01*
X949005Y897954D01*
X949000Y897762D01*
X948000D01*
X947995Y897954D01*
X947980Y898126D01*
X947955Y898278D01*
X947920Y898410D01*
X947875Y898521D01*
X947820Y898612D01*
X947755Y898683D01*
X947680Y898734D01*
X947595Y898764D01*
X947500Y898774D01*
X949500D01*
X949405Y898764D01*
D02*
G37*
G36*
X949005Y896296D02*
X949020Y896124D01*
X949045Y895972D01*
X949080Y895840D01*
X949125Y895729D01*
X949180Y895638D01*
X949245Y895567D01*
X949320Y895516D01*
X949405Y895486D01*
X949500Y895476D01*
X947500D01*
X947595Y895486D01*
X947680Y895516D01*
X947755Y895567D01*
X947820Y895638D01*
X947875Y895729D01*
X947920Y895840D01*
X947955Y895972D01*
X947980Y896124D01*
X947995Y896296D01*
X948000Y896488D01*
X949000D01*
X949005Y896296D01*
D02*
G37*
G36*
X624905Y887164D02*
X624820Y887134D01*
X624745Y887083D01*
X624680Y887012D01*
X624625Y886921D01*
X624580Y886810D01*
X624545Y886678D01*
X624520Y886526D01*
X624505Y886354D01*
X624500Y886162D01*
X623500D01*
X623495Y886354D01*
X623480Y886526D01*
X623455Y886678D01*
X623420Y886810D01*
X623375Y886921D01*
X623320Y887012D01*
X623255Y887083D01*
X623180Y887134D01*
X623095Y887164D01*
X623000Y887174D01*
X625000D01*
X624905Y887164D01*
D02*
G37*
G36*
X624505Y883296D02*
X624520Y883124D01*
X624545Y882972D01*
X624580Y882840D01*
X624625Y882729D01*
X624680Y882638D01*
X624745Y882567D01*
X624820Y882516D01*
X624905Y882486D01*
X625000Y882476D01*
X623000D01*
X623095Y882486D01*
X623180Y882516D01*
X623255Y882567D01*
X623320Y882638D01*
X623375Y882729D01*
X623420Y882840D01*
X623455Y882972D01*
X623480Y883124D01*
X623495Y883296D01*
X623500Y883488D01*
X624500D01*
X624505Y883296D01*
D02*
G37*
%LPC*%
G36*
X784800Y908750D02*
X780200D01*
Y907599D01*
X780188Y907594D01*
X780114Y907575D01*
X780009Y907557D01*
X779874Y907546D01*
X779698Y907541D01*
X779650Y907520D01*
X779350D01*
X779302Y907541D01*
X779126Y907546D01*
X778991Y907557D01*
X778886Y907575D01*
X778812Y907594D01*
X778800Y907599D01*
Y908500D01*
X774200D01*
Y904500D01*
X778800D01*
Y905401D01*
X778812Y905406D01*
X778886Y905425D01*
X778991Y905443D01*
X779126Y905454D01*
X779302Y905459D01*
X779350Y905480D01*
X779650D01*
X779698Y905459D01*
X779874Y905454D01*
X780009Y905443D01*
X780114Y905425D01*
X780188Y905406D01*
X780200Y905401D01*
Y904250D01*
X784800D01*
Y908750D01*
D02*
G37*
G36*
X791800D02*
X787200D01*
Y904250D01*
X791800D01*
Y905395D01*
X791802Y905398D01*
X791821Y905406D01*
X791893Y905425D01*
X791996Y905443D01*
X792129Y905454D01*
X792302Y905459D01*
X792350Y905480D01*
X792650D01*
X792698Y905459D01*
X792871Y905454D01*
X793004Y905443D01*
X793107Y905425D01*
X793179Y905406D01*
X793198Y905398D01*
X793200Y905395D01*
Y904500D01*
X797800D01*
Y908500D01*
X793200D01*
Y907605D01*
X793198Y907602D01*
X793179Y907594D01*
X793107Y907574D01*
X793004Y907557D01*
X792871Y907546D01*
X792698Y907541D01*
X792650Y907520D01*
X792350D01*
X792302Y907541D01*
X792129Y907546D01*
X791996Y907557D01*
X791893Y907574D01*
X791821Y907594D01*
X791802Y907602D01*
X791800Y907605D01*
Y908750D01*
D02*
G37*
G36*
X790850Y902800D02*
X788150D01*
X787000Y901650D01*
Y899350D01*
X788150Y898200D01*
X788192Y897700D01*
X787897Y897405D01*
X787520Y896493D01*
Y895507D01*
X787897Y894595D01*
X788595Y893897D01*
X789507Y893520D01*
X790493D01*
X791405Y893897D01*
X792103Y894595D01*
X792480Y895507D01*
Y896493D01*
X792103Y897405D01*
X791405Y898103D01*
X791360Y898121D01*
X791262Y898612D01*
X792000Y899350D01*
Y901650D01*
X790850Y902800D01*
D02*
G37*
G36*
X811500Y828800D02*
X811000D01*
Y828000D01*
X811500D01*
Y828800D01*
D02*
G37*
G36*
X808000D02*
X807500D01*
Y828000D01*
X808000D01*
Y828800D01*
D02*
G37*
G36*
X811500Y825000D02*
X811000D01*
Y824200D01*
X811500D01*
Y825000D01*
D02*
G37*
G36*
X808000D02*
X807500D01*
Y824200D01*
X808000D01*
Y825000D01*
D02*
G37*
%LPD*%
G36*
X780724Y905500D02*
X780714Y905595D01*
X780684Y905680D01*
X780633Y905755D01*
X780562Y905820D01*
X780471Y905875D01*
X780360Y905920D01*
X780228Y905955D01*
X780076Y905980D01*
X779904Y905995D01*
X779712Y906000D01*
Y907000D01*
X779904Y907005D01*
X780076Y907020D01*
X780228Y907045D01*
X780360Y907080D01*
X780471Y907125D01*
X780562Y907180D01*
X780633Y907245D01*
X780684Y907320D01*
X780714Y907405D01*
X780724Y907500D01*
Y905500D01*
D02*
G37*
G36*
X778286Y907405D02*
X778316Y907320D01*
X778367Y907245D01*
X778438Y907180D01*
X778529Y907125D01*
X778640Y907080D01*
X778772Y907045D01*
X778924Y907020D01*
X779096Y907005D01*
X779288Y907000D01*
Y906000D01*
X779096Y905995D01*
X778924Y905980D01*
X778772Y905955D01*
X778640Y905920D01*
X778529Y905875D01*
X778438Y905820D01*
X778367Y905755D01*
X778316Y905680D01*
X778286Y905595D01*
X778276Y905500D01*
Y907500D01*
X778286Y907405D01*
D02*
G37*
G36*
X793712Y905500D02*
X793702Y905595D01*
X793672Y905680D01*
X793622Y905755D01*
X793552Y905820D01*
X793462Y905875D01*
X793352Y905920D01*
X793222Y905955D01*
X793072Y905980D01*
X792902Y905995D01*
X792712Y906000D01*
Y907000D01*
X792902Y907005D01*
X793072Y907020D01*
X793222Y907045D01*
X793352Y907080D01*
X793462Y907125D01*
X793552Y907180D01*
X793622Y907245D01*
X793672Y907320D01*
X793702Y907405D01*
X793712Y907500D01*
Y905500D01*
D02*
G37*
G36*
X791298Y907405D02*
X791328Y907320D01*
X791378Y907245D01*
X791448Y907180D01*
X791538Y907125D01*
X791648Y907080D01*
X791778Y907045D01*
X791928Y907020D01*
X792098Y907005D01*
X792288Y907000D01*
Y906000D01*
X792098Y905995D01*
X791928Y905980D01*
X791778Y905955D01*
X791648Y905920D01*
X791538Y905875D01*
X791448Y905820D01*
X791378Y905755D01*
X791328Y905680D01*
X791298Y905595D01*
X791288Y905500D01*
Y907500D01*
X791298Y907405D01*
D02*
G37*
G36*
X790405Y898714D02*
X790320Y898683D01*
X790245Y898633D01*
X790180Y898562D01*
X790125Y898471D01*
X790080Y898360D01*
X790045Y898228D01*
X790020Y898076D01*
X790005Y897904D01*
X790002Y897810D01*
X790004Y897767D01*
X790016Y897655D01*
X790035Y897552D01*
X790063Y897460D01*
X790098Y897377D01*
X790141Y897304D01*
X790192Y897242D01*
X790251Y897189D01*
X790317Y897147D01*
X790392Y897114D01*
X788899Y896428D01*
X788918Y896484D01*
X788936Y896547D01*
X788951Y896619D01*
X788975Y896785D01*
X788991Y896982D01*
X789000Y897337D01*
X789678Y897712D01*
X789000D01*
X788995Y897904D01*
X788980Y898076D01*
X788955Y898228D01*
X788920Y898360D01*
X788875Y898471D01*
X788820Y898562D01*
X788755Y898633D01*
X788680Y898683D01*
X788595Y898714D01*
X788500Y898724D01*
X790500D01*
X790405Y898714D01*
D02*
G37*
%LPC*%
G36*
X735000Y830087D02*
X734500D01*
Y829578D01*
X734528Y829580D01*
X734614Y829581D01*
X734614Y829587D01*
X734735Y829591D01*
X734848Y829603D01*
X734952Y829623D01*
X735000Y829637D01*
Y830087D01*
D02*
G37*
G36*
X731500D02*
X731000D01*
Y829287D01*
X731500D01*
Y830087D01*
D02*
G37*
G36*
X735000Y826287D02*
X734500D01*
Y825487D01*
X735000D01*
Y826287D01*
D02*
G37*
G36*
X731500D02*
X731000D01*
Y825487D01*
X731500D01*
Y826287D01*
D02*
G37*
G36*
X806634Y887510D02*
Y881874D01*
X809984D01*
Y885128D01*
X810527Y884605D01*
X811076Y884136D01*
X811632Y883724D01*
X811641Y883718D01*
X811595Y883828D01*
X810797Y885022D01*
X809782Y886038D01*
X808588Y886835D01*
X807261Y887385D01*
X806634Y887510D01*
D02*
G37*
G36*
X855366D02*
X854739Y887385D01*
X853412Y886835D01*
X852218Y886038D01*
X851203Y885022D01*
X850405Y883828D01*
X850359Y883718D01*
X850368Y883724D01*
X850924Y884136D01*
X851473Y884605D01*
X852016Y885128D01*
Y881874D01*
X855366D01*
Y887510D01*
D02*
G37*
G36*
Y878874D02*
X852016D01*
Y875620D01*
X851473Y876143D01*
X850924Y876612D01*
X850368Y877025D01*
X850359Y877030D01*
X850405Y876920D01*
X851203Y875726D01*
X852218Y874710D01*
X853412Y873913D01*
X853680Y873802D01*
X853269Y874330D01*
X852791Y874862D01*
X852258Y875386D01*
X855366Y875478D01*
Y878874D01*
D02*
G37*
G36*
X809984D02*
X806634D01*
Y875524D01*
X809888D01*
X809365Y874981D01*
X808896Y874432D01*
X808483Y873876D01*
X808478Y873867D01*
X808588Y873913D01*
X809782Y874710D01*
X810797Y875726D01*
X811595Y876920D01*
X811641Y877030D01*
X811632Y877025D01*
X811076Y876612D01*
X810527Y876143D01*
X809984Y875620D01*
Y878874D01*
D02*
G37*
G36*
X835476Y873799D02*
X834398D01*
X833357Y873520D01*
X832423Y872981D01*
X831661Y872219D01*
X831289Y871575D01*
X830711D01*
X830339Y872219D01*
X829577Y872981D01*
X828643Y873520D01*
X827602Y873799D01*
X826524D01*
X825483Y873520D01*
X824549Y872981D01*
X823787Y872219D01*
X823248Y871285D01*
X822968Y870244D01*
Y869166D01*
X823248Y868124D01*
X823787Y867191D01*
X824549Y866428D01*
X825483Y865889D01*
X825902Y865777D01*
X825926Y865723D01*
X825981Y865557D01*
X826011Y865409D01*
X826023Y865239D01*
X826043Y865199D01*
Y863799D01*
X826022Y863748D01*
X826020Y863568D01*
X826006Y863273D01*
X826004Y863255D01*
X825860D01*
Y862815D01*
X825830Y862747D01*
X825859Y862675D01*
X825850Y862599D01*
X825860Y862586D01*
Y859255D01*
X830460D01*
Y863255D01*
X828163D01*
X828157Y863268D01*
X828138Y863342D01*
X828120Y863447D01*
X828109Y863581D01*
X828104Y863757D01*
X828083Y863805D01*
Y865199D01*
X828103Y865239D01*
X828115Y865409D01*
X828145Y865557D01*
X828200Y865723D01*
X828224Y865777D01*
X828643Y865889D01*
X829577Y866428D01*
X830339Y867191D01*
X830711Y867835D01*
X831289D01*
X831661Y867191D01*
X832423Y866428D01*
X833357Y865889D01*
X833776Y865777D01*
X833800Y865723D01*
X833855Y865557D01*
X833885Y865409D01*
X833897Y865239D01*
X833917Y865199D01*
Y863838D01*
X833896Y863789D01*
X833891Y863614D01*
X833880Y863479D01*
X833862Y863373D01*
X833843Y863299D01*
X833838Y863287D01*
X832200D01*
Y859287D01*
X836800D01*
Y863287D01*
X836036D01*
X836031Y863299D01*
X836012Y863373D01*
X835994Y863479D01*
X835983Y863614D01*
X835978Y863789D01*
X835957Y863838D01*
Y865199D01*
X835977Y865239D01*
X835989Y865409D01*
X836019Y865557D01*
X836074Y865723D01*
X836098Y865777D01*
X836517Y865889D01*
X837451Y866428D01*
X838213Y867191D01*
X838752Y868124D01*
X839032Y869166D01*
Y870244D01*
X838752Y871285D01*
X838213Y872219D01*
X837451Y872981D01*
X836517Y873520D01*
X835476Y873799D01*
D02*
G37*
G36*
X854238Y851043D02*
X851945D01*
Y849287D01*
X855768D01*
Y850519D01*
X853067D01*
X853447Y850559D01*
X853787Y850680D01*
X854087Y850880D01*
X854238Y851043D01*
D02*
G37*
G36*
X817760Y873799D02*
X816681D01*
X815640Y873520D01*
X814706Y872981D01*
X813944Y872219D01*
X813405Y871285D01*
X813126Y870244D01*
Y869166D01*
X813405Y868124D01*
X813944Y867191D01*
X814671Y866464D01*
X814660Y866044D01*
X814603Y865399D01*
X814511Y864844D01*
X814386Y864381D01*
X814236Y864011D01*
X814067Y863733D01*
X813887Y863539D01*
X813696Y863411D01*
X813480Y863335D01*
X813164Y863302D01*
X813138Y863287D01*
X810000D01*
Y854287D01*
X816121D01*
X816126Y854276D01*
X816130Y854261D01*
X816170Y853741D01*
X816179Y853064D01*
X816201Y853014D01*
Y852936D01*
X816278Y852545D01*
X816314Y852492D01*
X816020Y851781D01*
Y850794D01*
X816397Y849882D01*
X817095Y849185D01*
X818007Y848807D01*
X818993D01*
X819905Y849185D01*
X820603Y849882D01*
X820980Y850794D01*
Y851781D01*
X820603Y852692D01*
X819905Y853390D01*
X818993Y853768D01*
X818816Y854160D01*
X818811Y854200D01*
X818822Y854268D01*
X818851Y854287D01*
X824000D01*
Y863287D01*
X821303D01*
X821277Y863302D01*
X820961Y863335D01*
X820745Y863411D01*
X820554Y863539D01*
X820374Y863733D01*
X820205Y864011D01*
X820054Y864381D01*
X819930Y864844D01*
X819838Y865399D01*
X819781Y866044D01*
X819770Y866464D01*
X820497Y867191D01*
X821036Y868124D01*
X821315Y869166D01*
Y870244D01*
X821036Y871285D01*
X820497Y872219D01*
X819734Y872981D01*
X818801Y873520D01*
X817760Y873799D01*
D02*
G37*
G36*
X855768Y846287D02*
X851945D01*
Y844532D01*
X855768D01*
Y846287D01*
D02*
G37*
G36*
X815500Y840787D02*
X813507D01*
X813519Y840618D01*
X813527Y840570D01*
X814050Y840269D01*
X814588Y840042D01*
X815068Y839928D01*
X815492Y839926D01*
X815500Y839929D01*
Y840787D01*
D02*
G37*
G36*
Y839594D02*
X814841Y838935D01*
X815047Y838810D01*
X815376Y838640D01*
X815500Y838587D01*
Y839594D01*
D02*
G37*
G36*
X824000Y840787D02*
X818500D01*
Y837787D01*
X824000D01*
Y840787D01*
D02*
G37*
G36*
X813852Y837947D02*
X813693Y837787D01*
X813949D01*
X813852Y837947D01*
D02*
G37*
%LPD*%
G36*
X836617Y867427D02*
X836151Y866890D01*
X835961Y866634D01*
X835801Y866387D01*
X835670Y866148D01*
X835568Y865917D01*
X835495Y865696D01*
X835452Y865482D01*
X835437Y865277D01*
X834437D01*
X834422Y865482D01*
X834379Y865696D01*
X834306Y865917D01*
X834204Y866148D01*
X834073Y866387D01*
X833913Y866634D01*
X833723Y866890D01*
X833505Y867154D01*
X832980Y867708D01*
X836894D01*
X836617Y867427D01*
D02*
G37*
G36*
X828743D02*
X828277Y866890D01*
X828087Y866634D01*
X827927Y866387D01*
X827796Y866148D01*
X827694Y865917D01*
X827621Y865696D01*
X827578Y865482D01*
X827563Y865277D01*
X826563D01*
X826548Y865482D01*
X826505Y865696D01*
X826432Y865917D01*
X826330Y866148D01*
X826199Y866387D01*
X826039Y866634D01*
X825849Y866890D01*
X825631Y867154D01*
X825106Y867708D01*
X829020D01*
X828743Y867427D01*
D02*
G37*
G36*
X835442Y863583D02*
X835457Y863411D01*
X835482Y863259D01*
X835517Y863128D01*
X835562Y863016D01*
X835617Y862925D01*
X835682Y862854D01*
X835757Y862804D01*
X835842Y862774D01*
X835937Y862763D01*
X833937D01*
X834032Y862774D01*
X834117Y862804D01*
X834192Y862854D01*
X834257Y862925D01*
X834312Y863016D01*
X834357Y863128D01*
X834392Y863259D01*
X834417Y863411D01*
X834432Y863583D01*
X834437Y863775D01*
X835437D01*
X835442Y863583D01*
D02*
G37*
G36*
X827568Y863551D02*
X827583Y863379D01*
X827608Y863228D01*
X827643Y863097D01*
X827688Y862985D01*
X827743Y862894D01*
X827808Y862823D01*
X827883Y862772D01*
X827968Y862741D01*
X828063Y862731D01*
X826372Y862743D01*
X826408Y862753D01*
X826441Y862783D01*
X826469Y862833D01*
X826494Y862903D01*
X826515Y862993D01*
X826532Y863103D01*
X826546Y863233D01*
X826561Y863553D01*
X826563Y863743D01*
X827563D01*
X827568Y863551D01*
D02*
G37*
G36*
X819240Y866013D02*
X819300Y865331D01*
X819401Y864729D01*
X819541Y864208D01*
X819720Y863766D01*
X819940Y863405D01*
X820201Y863124D01*
X820500Y862924D01*
X820840Y862803D01*
X821220Y862763D01*
X813221D01*
X813601Y862803D01*
X813941Y862924D01*
X814240Y863124D01*
X814501Y863405D01*
X814721Y863766D01*
X814900Y864208D01*
X815040Y864729D01*
X815141Y865331D01*
X815201Y866013D01*
X815221Y866775D01*
X819221D01*
X819240Y866013D01*
D02*
G37*
G36*
X818462Y857384D02*
X818306Y857120D01*
X818169Y856803D01*
X818050Y856431D01*
X817949Y856006D01*
X817867Y855526D01*
X817797Y854811D01*
X818221D01*
X818126Y854801D01*
X818040Y854771D01*
X817966Y854720D01*
X817900Y854650D01*
X817846Y854558D01*
X817801Y854447D01*
X817766Y854315D01*
X817749Y854215D01*
X817730Y853766D01*
X817721Y853071D01*
X816720D01*
X816711Y853766D01*
X816666Y854353D01*
X816640Y854447D01*
X816595Y854558D01*
X816541Y854650D01*
X816475Y854720D01*
X816401Y854771D01*
X816315Y854801D01*
X816220Y854811D01*
X816630D01*
X816574Y855526D01*
X816492Y856006D01*
X816391Y856431D01*
X816272Y856803D01*
X816135Y857120D01*
X815979Y857384D01*
X815805Y857594D01*
X818636D01*
X818462Y857384D01*
D02*
G37*
G36*
X817984Y852882D02*
X818156Y852736D01*
X818242Y852674D01*
X818327Y852618D01*
X818412Y852569D01*
X818497Y852527D01*
X818581Y852492D01*
X818665Y852463D01*
X818749Y852442D01*
X817351Y851560D01*
X817366Y851647D01*
X817370Y851734D01*
X817363Y851822D01*
X817346Y851909D01*
X817317Y851997D01*
X817278Y852085D01*
X817228Y852172D01*
X817167Y852260D01*
X817095Y852349D01*
X817012Y852437D01*
X817898Y852965D01*
X817984Y852882D01*
D02*
G37*
%LPC*%
G36*
X717134Y887510D02*
Y881874D01*
X720484D01*
Y885128D01*
X721027Y884605D01*
X721576Y884136D01*
X722132Y883724D01*
X722141Y883718D01*
X722095Y883828D01*
X721297Y885022D01*
X720282Y886038D01*
X719088Y886835D01*
X717761Y887385D01*
X717134Y887510D01*
D02*
G37*
G36*
X765866D02*
X765239Y887385D01*
X763912Y886835D01*
X762718Y886038D01*
X761703Y885022D01*
X760905Y883828D01*
X760859Y883718D01*
X760868Y883724D01*
X761424Y884136D01*
X761973Y884605D01*
X762516Y885128D01*
Y881874D01*
X765866D01*
Y887510D01*
D02*
G37*
G36*
Y878874D02*
X762516D01*
Y875620D01*
X761973Y876143D01*
X761424Y876612D01*
X760868Y877025D01*
X760859Y877030D01*
X760905Y876920D01*
X761703Y875726D01*
X762718Y874710D01*
X763912Y873913D01*
X764835Y873530D01*
X764410Y873991D01*
X763904Y874458D01*
X763338Y874906D01*
X765866Y875264D01*
Y878874D01*
D02*
G37*
G36*
X720484D02*
X717134D01*
Y875524D01*
X720388D01*
X719865Y874981D01*
X719396Y874432D01*
X718983Y873876D01*
X718978Y873867D01*
X719088Y873913D01*
X720282Y874710D01*
X721297Y875726D01*
X722095Y876920D01*
X722141Y877030D01*
X722132Y877025D01*
X721576Y876612D01*
X721027Y876143D01*
X720484Y875620D01*
Y878874D01*
D02*
G37*
G36*
X745976Y873799D02*
X744898D01*
X743857Y873520D01*
X742923Y872981D01*
X742161Y872219D01*
X741789Y871575D01*
X741211D01*
X740839Y872219D01*
X740077Y872981D01*
X739143Y873520D01*
X738102Y873799D01*
X737024D01*
X735983Y873520D01*
X735049Y872981D01*
X734287Y872219D01*
X733747Y871285D01*
X733468Y870244D01*
Y869166D01*
X733747Y868124D01*
X734287Y867191D01*
X735049Y866428D01*
X735983Y865889D01*
X736402Y865777D01*
X736426Y865723D01*
X736481Y865557D01*
X736511Y865409D01*
X736523Y865239D01*
X736543Y865199D01*
Y864338D01*
X736522Y864289D01*
X736517Y864114D01*
X736506Y863979D01*
X736488Y863873D01*
X736469Y863799D01*
X736464Y863787D01*
X735700D01*
Y859787D01*
X740300D01*
Y863787D01*
X738662D01*
X738657Y863799D01*
X738638Y863873D01*
X738620Y863979D01*
X738609Y864114D01*
X738604Y864289D01*
X738583Y864338D01*
Y865199D01*
X738603Y865239D01*
X738615Y865409D01*
X738645Y865557D01*
X738700Y865723D01*
X738724Y865777D01*
X739143Y865889D01*
X740077Y866428D01*
X740839Y867191D01*
X741211Y867835D01*
X741789D01*
X742161Y867191D01*
X742923Y866428D01*
X743857Y865889D01*
X744138Y865814D01*
X744165Y865750D01*
X744219Y865581D01*
X744248Y865433D01*
X744260Y865268D01*
X744280Y865227D01*
Y864338D01*
X744259Y864289D01*
X744254Y864114D01*
X744243Y863980D01*
X744225Y863875D01*
X744206Y863801D01*
X744200Y863787D01*
X741700D01*
Y859787D01*
X746300D01*
Y862689D01*
X746320Y862787D01*
Y863247D01*
X746329Y863269D01*
X746341Y864269D01*
X746340Y864272D01*
X746341Y864275D01*
X746320Y864328D01*
Y865177D01*
X746340Y865217D01*
X746352Y865391D01*
X746383Y865538D01*
X746438Y865701D01*
X746455Y865739D01*
X747017Y865889D01*
X747951Y866428D01*
X748713Y867191D01*
X749253Y868124D01*
X749532Y869166D01*
Y870244D01*
X749253Y871285D01*
X748713Y872219D01*
X747951Y872981D01*
X747017Y873520D01*
X745976Y873799D01*
D02*
G37*
G36*
X765537Y855543D02*
X763945D01*
Y853787D01*
X767768D01*
Y855026D01*
X764457Y855031D01*
X764810Y855071D01*
X765127Y855191D01*
X765406Y855391D01*
X765537Y855543D01*
D02*
G37*
G36*
X767768Y850787D02*
X763945D01*
Y849032D01*
X767768D01*
Y850787D01*
D02*
G37*
G36*
X728260Y873799D02*
X727181D01*
X726140Y873520D01*
X725206Y872981D01*
X724444Y872219D01*
X723905Y871285D01*
X723626Y870244D01*
Y869166D01*
X723905Y868124D01*
X724444Y867191D01*
X725154Y866480D01*
X725103Y865899D01*
X725011Y865344D01*
X724887Y864881D01*
X724736Y864511D01*
X724567Y864233D01*
X724387Y864039D01*
X724196Y863911D01*
X723980Y863835D01*
X723664Y863802D01*
X723637Y863787D01*
X720500D01*
Y854787D01*
X723901D01*
X723906Y854776D01*
X723925Y854702D01*
X723943Y854596D01*
X723954Y854461D01*
X723959Y854285D01*
X723980Y854237D01*
Y853550D01*
X723595Y853390D01*
X722897Y852692D01*
X722520Y851781D01*
Y850794D01*
X722897Y849882D01*
X723595Y849185D01*
X724507Y848807D01*
X725493D01*
X726405Y849185D01*
X727103Y849882D01*
X727480Y850794D01*
Y851781D01*
X727103Y852692D01*
X726405Y853390D01*
X726020Y853550D01*
Y854237D01*
X726041Y854285D01*
X726046Y854461D01*
X726057Y854596D01*
X726075Y854702D01*
X726094Y854775D01*
X726099Y854787D01*
X734500D01*
Y863787D01*
X731803D01*
X731777Y863802D01*
X731461Y863835D01*
X731245Y863911D01*
X731054Y864039D01*
X730874Y864233D01*
X730705Y864511D01*
X730554Y864881D01*
X730430Y865344D01*
X730338Y865899D01*
X730287Y866480D01*
X730997Y867191D01*
X731536Y868124D01*
X731815Y869166D01*
Y870244D01*
X731536Y871285D01*
X730997Y872219D01*
X730234Y872981D01*
X729301Y873520D01*
X728260Y873799D01*
D02*
G37*
G36*
X726000Y841287D02*
X725831D01*
X725980Y841126D01*
X726000Y841113D01*
Y841287D01*
D02*
G37*
G36*
X734500D02*
X733755D01*
X733737Y841210D01*
X733749Y841135D01*
X733774Y841025D01*
X733806Y840935D01*
X733843Y840865D01*
X733885Y840815D01*
X733934Y840785D01*
X733988Y840775D01*
X732203Y840763D01*
X732298Y840774D01*
X732383Y840805D01*
X732458Y840856D01*
X732523Y840927D01*
X732578Y841018D01*
X732623Y841129D01*
X732658Y841260D01*
X732652Y841287D01*
X729000D01*
Y838287D01*
X734500D01*
Y841287D01*
D02*
G37*
G36*
X721008D02*
X720500D01*
Y838287D01*
X726000D01*
Y840765D01*
X721012Y840775D01*
X721010Y840815D01*
X721008Y841287D01*
D02*
G37*
G36*
X734500Y835287D02*
X729000D01*
Y832811D01*
X731000D01*
X730620Y832771D01*
X730280Y832651D01*
X729980Y832450D01*
X729829Y832287D01*
X734500D01*
Y835287D01*
D02*
G37*
G36*
X726000D02*
X720500D01*
Y832287D01*
X724171D01*
X724020Y832450D01*
X723720Y832651D01*
X723380Y832771D01*
X723000Y832811D01*
X726000D01*
Y835287D01*
D02*
G37*
%LPD*%
G36*
X739243Y867427D02*
X738777Y866890D01*
X738587Y866634D01*
X738427Y866387D01*
X738296Y866148D01*
X738194Y865917D01*
X738121Y865696D01*
X738078Y865482D01*
X738063Y865277D01*
X737063D01*
X737048Y865482D01*
X737005Y865696D01*
X736932Y865917D01*
X736830Y866148D01*
X736699Y866387D01*
X736539Y866634D01*
X736349Y866890D01*
X736131Y867154D01*
X735606Y867708D01*
X739520D01*
X739243Y867427D01*
D02*
G37*
G36*
X747294Y867615D02*
X747010Y867353D01*
X746532Y866845D01*
X746338Y866601D01*
X746173Y866362D01*
X746039Y866129D01*
X745934Y865902D01*
X745860Y865681D01*
X745815Y865465D01*
X745800Y865256D01*
X744800Y865306D01*
X744786Y865506D01*
X744743Y865716D01*
X744673Y865939D01*
X744574Y866172D01*
X744446Y866416D01*
X744290Y866672D01*
X744107Y866939D01*
X743654Y867506D01*
X743385Y867807D01*
X747294Y867615D01*
D02*
G37*
G36*
X745788Y863275D02*
X744300Y863263D01*
X744395Y863274D01*
X744480Y863305D01*
X744555Y863356D01*
X744620Y863427D01*
X744675Y863518D01*
X744720Y863630D01*
X744755Y863761D01*
X744780Y863912D01*
X744795Y864084D01*
X744800Y864275D01*
X745800D01*
X745788Y863275D01*
D02*
G37*
G36*
X738068Y864083D02*
X738083Y863911D01*
X738108Y863759D01*
X738143Y863628D01*
X738188Y863516D01*
X738243Y863425D01*
X738308Y863354D01*
X738383Y863304D01*
X738468Y863274D01*
X738563Y863263D01*
X736563D01*
X736658Y863274D01*
X736743Y863304D01*
X736818Y863354D01*
X736883Y863425D01*
X736938Y863516D01*
X736983Y863628D01*
X737018Y863759D01*
X737043Y863911D01*
X737058Y864083D01*
X737063Y864275D01*
X738063D01*
X738068Y864083D01*
D02*
G37*
G36*
X729740Y866513D02*
X729801Y865831D01*
X729901Y865229D01*
X730041Y864708D01*
X730221Y864266D01*
X730441Y863905D01*
X730700Y863624D01*
X731001Y863424D01*
X731341Y863303D01*
X731720Y863263D01*
X723721D01*
X724100Y863303D01*
X724440Y863424D01*
X724741Y863624D01*
X725000Y863905D01*
X725220Y864266D01*
X725400Y864708D01*
X725540Y865229D01*
X725640Y865831D01*
X725701Y866513D01*
X725721Y867275D01*
X729720D01*
X729740Y866513D01*
D02*
G37*
G36*
X727780Y857307D02*
X727430Y857252D01*
X726523Y857045D01*
X726269Y856961D01*
X726038Y856870D01*
X725831Y856772D01*
X725648Y856666D01*
X725489Y856554D01*
X725353Y856434D01*
X724647Y857141D01*
X724766Y857276D01*
X724879Y857436D01*
X724984Y857619D01*
X725082Y857825D01*
X725173Y858056D01*
X725257Y858311D01*
X725403Y858891D01*
X725465Y859218D01*
X725520Y859568D01*
X727780Y857307D01*
D02*
G37*
G36*
X725905Y855301D02*
X725820Y855271D01*
X725745Y855220D01*
X725680Y855149D01*
X725625Y855058D01*
X725580Y854947D01*
X725545Y854815D01*
X725520Y854664D01*
X725505Y854492D01*
X725500Y854299D01*
X724500D01*
X724495Y854492D01*
X724480Y854664D01*
X724455Y854815D01*
X724420Y854947D01*
X724375Y855058D01*
X724320Y855149D01*
X724255Y855220D01*
X724180Y855271D01*
X724095Y855301D01*
X724000Y855311D01*
X726000D01*
X725905Y855301D01*
D02*
G37*
G36*
X725503Y852946D02*
X725513Y852832D01*
X725529Y852724D01*
X725552Y852621D01*
X725582Y852525D01*
X725618Y852434D01*
X725660Y852350D01*
X725709Y852271D01*
X725765Y852198D01*
X725827Y852131D01*
X724173D01*
X724235Y852198D01*
X724291Y852271D01*
X724340Y852350D01*
X724382Y852434D01*
X724418Y852525D01*
X724448Y852621D01*
X724471Y852724D01*
X724487Y852832D01*
X724497Y852946D01*
X724500Y853066D01*
X725500D01*
X725503Y852946D01*
D02*
G37*
%LPC*%
G36*
X647134Y887510D02*
Y881874D01*
X650484D01*
Y885128D01*
X651027Y884605D01*
X651576Y884136D01*
X652132Y883724D01*
X652141Y883718D01*
X652095Y883828D01*
X651297Y885022D01*
X650282Y886038D01*
X649088Y886835D01*
X647761Y887385D01*
X647134Y887510D01*
D02*
G37*
G36*
X695866D02*
X695239Y887385D01*
X693912Y886835D01*
X692718Y886038D01*
X691703Y885022D01*
X690905Y883828D01*
X690859Y883718D01*
X690868Y883724D01*
X691424Y884136D01*
X691973Y884605D01*
X692516Y885128D01*
Y881874D01*
X695866D01*
Y887510D01*
D02*
G37*
G36*
Y878874D02*
X692516D01*
Y875620D01*
X691973Y876143D01*
X691424Y876612D01*
X690868Y877025D01*
X690859Y877030D01*
X690905Y876920D01*
X691703Y875726D01*
X692718Y874710D01*
X693912Y873913D01*
X694180Y873802D01*
X693769Y874330D01*
X693291Y874862D01*
X692758Y875386D01*
X695866Y875478D01*
Y878874D01*
D02*
G37*
G36*
X650484D02*
X647134D01*
Y875524D01*
X650388D01*
X649864Y874981D01*
X649396Y874432D01*
X648983Y873876D01*
X648978Y873867D01*
X649088Y873913D01*
X650282Y874710D01*
X651297Y875726D01*
X652095Y876920D01*
X652141Y877030D01*
X652132Y877025D01*
X651576Y876612D01*
X651027Y876143D01*
X650484Y875620D01*
Y878874D01*
D02*
G37*
G36*
X675976Y873799D02*
X674898D01*
X673857Y873520D01*
X672923Y872981D01*
X672161Y872219D01*
X671789Y871575D01*
X671211D01*
X670839Y872219D01*
X670077Y872981D01*
X669143Y873520D01*
X668102Y873799D01*
X667024D01*
X665983Y873520D01*
X665049Y872981D01*
X664287Y872219D01*
X663748Y871285D01*
X663469Y870244D01*
Y869166D01*
X663748Y868124D01*
X664287Y867191D01*
X665049Y866428D01*
X665983Y865889D01*
X666402Y865777D01*
X666426Y865723D01*
X666481Y865557D01*
X666511Y865409D01*
X666523Y865239D01*
X666543Y865199D01*
Y863799D01*
X666522Y863748D01*
X666520Y863568D01*
X666506Y863273D01*
X666504Y863255D01*
X666360D01*
Y862815D01*
X666330Y862747D01*
X666359Y862675D01*
X666350Y862599D01*
X666360Y862586D01*
Y859255D01*
X670960D01*
Y863255D01*
X668663D01*
X668657Y863268D01*
X668638Y863342D01*
X668620Y863447D01*
X668609Y863581D01*
X668604Y863757D01*
X668583Y863805D01*
Y865199D01*
X668603Y865239D01*
X668615Y865409D01*
X668645Y865557D01*
X668700Y865723D01*
X668724Y865777D01*
X669143Y865889D01*
X670077Y866428D01*
X670839Y867191D01*
X671211Y867835D01*
X671789D01*
X672161Y867191D01*
X672923Y866428D01*
X673857Y865889D01*
X674276Y865777D01*
X674300Y865723D01*
X674355Y865557D01*
X674385Y865409D01*
X674397Y865239D01*
X674417Y865199D01*
Y863838D01*
X674396Y863789D01*
X674391Y863614D01*
X674380Y863479D01*
X674362Y863373D01*
X674343Y863299D01*
X674338Y863287D01*
X672700D01*
Y859287D01*
X677300D01*
Y863287D01*
X676536D01*
X676531Y863299D01*
X676512Y863373D01*
X676494Y863479D01*
X676483Y863614D01*
X676478Y863789D01*
X676457Y863838D01*
Y865199D01*
X676477Y865239D01*
X676489Y865409D01*
X676519Y865557D01*
X676574Y865723D01*
X676598Y865777D01*
X677017Y865889D01*
X677951Y866428D01*
X678713Y867191D01*
X679252Y868124D01*
X679531Y869166D01*
Y870244D01*
X679252Y871285D01*
X678713Y872219D01*
X677951Y872981D01*
X677017Y873520D01*
X675976Y873799D01*
D02*
G37*
G36*
X694738Y851043D02*
X692445D01*
Y849287D01*
X696268D01*
Y850519D01*
X693567D01*
X693947Y850559D01*
X694287Y850680D01*
X694587Y850880D01*
X694738Y851043D01*
D02*
G37*
G36*
X658259Y873799D02*
X657181D01*
X656140Y873520D01*
X655206Y872981D01*
X654444Y872219D01*
X653905Y871285D01*
X653626Y870244D01*
Y869166D01*
X653905Y868124D01*
X654444Y867191D01*
X655171Y866464D01*
X655160Y866044D01*
X655103Y865399D01*
X655011Y864844D01*
X654886Y864381D01*
X654736Y864011D01*
X654566Y863733D01*
X654387Y863539D01*
X654196Y863411D01*
X653980Y863335D01*
X653664Y863302D01*
X653638Y863287D01*
X650500D01*
Y854287D01*
X656621D01*
X656626Y854276D01*
X656630Y854261D01*
X656670Y853741D01*
X656679Y853064D01*
X656701Y853014D01*
Y852936D01*
X656778Y852545D01*
X656814Y852492D01*
X656520Y851781D01*
Y850794D01*
X656897Y849882D01*
X657595Y849185D01*
X658507Y848807D01*
X659493D01*
X660405Y849185D01*
X661103Y849882D01*
X661480Y850794D01*
Y851781D01*
X661103Y852692D01*
X660405Y853390D01*
X659493Y853768D01*
X659316Y854160D01*
X659311Y854200D01*
X659323Y854268D01*
X659351Y854287D01*
X664500D01*
Y863287D01*
X661803D01*
X661777Y863302D01*
X661461Y863335D01*
X661245Y863411D01*
X661054Y863539D01*
X660874Y863733D01*
X660705Y864011D01*
X660554Y864381D01*
X660430Y864844D01*
X660338Y865399D01*
X660281Y866044D01*
X660270Y866464D01*
X660997Y867191D01*
X661536Y868124D01*
X661815Y869166D01*
Y870244D01*
X661536Y871285D01*
X660997Y872219D01*
X660234Y872981D01*
X659301Y873520D01*
X658259Y873799D01*
D02*
G37*
G36*
X696268Y846287D02*
X692445D01*
Y844532D01*
X696268D01*
Y846287D01*
D02*
G37*
G36*
X656000Y840787D02*
X654007D01*
X654019Y840618D01*
X654027Y840570D01*
X654551Y840269D01*
X655088Y840042D01*
X655568Y839928D01*
X655992Y839926D01*
X656000Y839929D01*
Y840787D01*
D02*
G37*
G36*
Y839594D02*
X655341Y838935D01*
X655547Y838810D01*
X655876Y838640D01*
X656000Y838587D01*
Y839594D01*
D02*
G37*
G36*
X664500Y840787D02*
X659000D01*
Y837787D01*
X664500D01*
Y840787D01*
D02*
G37*
G36*
X654352Y837947D02*
X654193Y837787D01*
X654449D01*
X654352Y837947D01*
D02*
G37*
%LPD*%
G36*
X677117Y867427D02*
X676651Y866890D01*
X676461Y866634D01*
X676301Y866387D01*
X676170Y866148D01*
X676068Y865917D01*
X675995Y865696D01*
X675952Y865482D01*
X675937Y865277D01*
X674937D01*
X674922Y865482D01*
X674879Y865696D01*
X674806Y865917D01*
X674704Y866148D01*
X674573Y866387D01*
X674413Y866634D01*
X674223Y866890D01*
X674005Y867154D01*
X673480Y867708D01*
X677394D01*
X677117Y867427D01*
D02*
G37*
G36*
X669243D02*
X668777Y866890D01*
X668587Y866634D01*
X668427Y866387D01*
X668296Y866148D01*
X668194Y865917D01*
X668121Y865696D01*
X668078Y865482D01*
X668063Y865277D01*
X667063D01*
X667048Y865482D01*
X667005Y865696D01*
X666932Y865917D01*
X666830Y866148D01*
X666699Y866387D01*
X666539Y866634D01*
X666349Y866890D01*
X666131Y867154D01*
X665606Y867708D01*
X669520D01*
X669243Y867427D01*
D02*
G37*
G36*
X675942Y863583D02*
X675957Y863411D01*
X675982Y863259D01*
X676017Y863128D01*
X676062Y863016D01*
X676117Y862925D01*
X676182Y862854D01*
X676257Y862804D01*
X676342Y862774D01*
X676437Y862763D01*
X674437D01*
X674532Y862774D01*
X674617Y862804D01*
X674692Y862854D01*
X674757Y862925D01*
X674812Y863016D01*
X674857Y863128D01*
X674892Y863259D01*
X674917Y863411D01*
X674932Y863583D01*
X674937Y863775D01*
X675937D01*
X675942Y863583D01*
D02*
G37*
G36*
X668068Y863551D02*
X668083Y863379D01*
X668108Y863228D01*
X668143Y863097D01*
X668188Y862985D01*
X668243Y862894D01*
X668308Y862823D01*
X668383Y862772D01*
X668468Y862741D01*
X668563Y862731D01*
X666872Y862743D01*
X666908Y862753D01*
X666940Y862783D01*
X666969Y862833D01*
X666994Y862903D01*
X667015Y862993D01*
X667032Y863103D01*
X667046Y863233D01*
X667061Y863553D01*
X667063Y863743D01*
X668063D01*
X668068Y863551D01*
D02*
G37*
G36*
X659740Y866013D02*
X659800Y865331D01*
X659901Y864729D01*
X660041Y864208D01*
X660220Y863766D01*
X660440Y863405D01*
X660701Y863124D01*
X661000Y862924D01*
X661341Y862803D01*
X661721Y862763D01*
X653721D01*
X654101Y862803D01*
X654440Y862924D01*
X654740Y863124D01*
X655000Y863405D01*
X655221Y863766D01*
X655401Y864208D01*
X655541Y864729D01*
X655641Y865331D01*
X655700Y866013D01*
X655721Y866775D01*
X659721D01*
X659740Y866013D01*
D02*
G37*
G36*
X658962Y857384D02*
X658806Y857120D01*
X658669Y856803D01*
X658550Y856431D01*
X658449Y856006D01*
X658367Y855526D01*
X658297Y854811D01*
X658720D01*
X658626Y854801D01*
X658540Y854771D01*
X658465Y854720D01*
X658400Y854650D01*
X658346Y854558D01*
X658300Y854447D01*
X658265Y854315D01*
X658249Y854215D01*
X658230Y853766D01*
X658220Y853071D01*
X657221D01*
X657211Y853766D01*
X657166Y854353D01*
X657140Y854447D01*
X657095Y854558D01*
X657041Y854650D01*
X656976Y854720D01*
X656901Y854771D01*
X656815Y854801D01*
X656720Y854811D01*
X657130D01*
X657074Y855526D01*
X656992Y856006D01*
X656891Y856431D01*
X656772Y856803D01*
X656635Y857120D01*
X656479Y857384D01*
X656305Y857594D01*
X659136D01*
X658962Y857384D01*
D02*
G37*
G36*
X658484Y852882D02*
X658656Y852736D01*
X658742Y852674D01*
X658827Y852618D01*
X658912Y852569D01*
X658997Y852527D01*
X659081Y852492D01*
X659165Y852463D01*
X659249Y852442D01*
X657851Y851560D01*
X657866Y851647D01*
X657870Y851734D01*
X657864Y851822D01*
X657846Y851909D01*
X657818Y851997D01*
X657778Y852085D01*
X657728Y852172D01*
X657667Y852260D01*
X657595Y852349D01*
X657512Y852437D01*
X658398Y852965D01*
X658484Y852882D01*
D02*
G37*
%LPC*%
G36*
X876634Y887510D02*
Y881874D01*
X879984D01*
Y885128D01*
X880527Y884605D01*
X881076Y884136D01*
X881632Y883724D01*
X881641Y883718D01*
X881595Y883828D01*
X880797Y885022D01*
X879782Y886038D01*
X878588Y886835D01*
X877261Y887385D01*
X876634Y887510D01*
D02*
G37*
G36*
X925366D02*
X924739Y887385D01*
X923412Y886835D01*
X922218Y886038D01*
X921203Y885022D01*
X920405Y883828D01*
X920359Y883718D01*
X920368Y883724D01*
X920924Y884136D01*
X921473Y884605D01*
X922016Y885128D01*
Y881874D01*
X925366D01*
Y887510D01*
D02*
G37*
G36*
Y878874D02*
X922016D01*
Y875620D01*
X921473Y876143D01*
X920924Y876612D01*
X920368Y877025D01*
X920359Y877030D01*
X920405Y876920D01*
X921203Y875726D01*
X922218Y874710D01*
X923412Y873913D01*
X924335Y873530D01*
X923910Y873991D01*
X923404Y874458D01*
X922838Y874906D01*
X925366Y875264D01*
Y878874D01*
D02*
G37*
G36*
X879984D02*
X876634D01*
Y875524D01*
X879888D01*
X879365Y874981D01*
X878896Y874432D01*
X878483Y873876D01*
X878478Y873867D01*
X878588Y873913D01*
X879782Y874710D01*
X880797Y875726D01*
X881595Y876920D01*
X881641Y877030D01*
X881632Y877025D01*
X881076Y876612D01*
X880527Y876143D01*
X879984Y875620D01*
Y878874D01*
D02*
G37*
G36*
X905476Y873799D02*
X904398D01*
X903357Y873520D01*
X902423Y872981D01*
X901661Y872219D01*
X901289Y871575D01*
X900711D01*
X900339Y872219D01*
X899577Y872981D01*
X898643Y873520D01*
X897602Y873799D01*
X896524D01*
X895483Y873520D01*
X894549Y872981D01*
X893787Y872219D01*
X893248Y871285D01*
X892968Y870244D01*
Y869166D01*
X893248Y868124D01*
X893787Y867191D01*
X894549Y866428D01*
X895483Y865889D01*
X895902Y865777D01*
X895926Y865723D01*
X895981Y865557D01*
X896011Y865409D01*
X896023Y865239D01*
X896043Y865199D01*
Y864338D01*
X896022Y864289D01*
X896017Y864114D01*
X896006Y863979D01*
X895988Y863873D01*
X895969Y863799D01*
X895964Y863787D01*
X895200D01*
Y859787D01*
X899800D01*
Y863787D01*
X898162D01*
X898157Y863799D01*
X898138Y863873D01*
X898120Y863979D01*
X898109Y864114D01*
X898104Y864289D01*
X898083Y864338D01*
Y865199D01*
X898103Y865239D01*
X898115Y865409D01*
X898145Y865557D01*
X898200Y865723D01*
X898224Y865777D01*
X898643Y865889D01*
X899577Y866428D01*
X900339Y867191D01*
X900711Y867835D01*
X901289D01*
X901661Y867191D01*
X902423Y866428D01*
X903357Y865889D01*
X903638Y865814D01*
X903665Y865750D01*
X903719Y865581D01*
X903749Y865433D01*
X903760Y865268D01*
X903780Y865227D01*
Y864338D01*
X903759Y864289D01*
X903754Y864114D01*
X903743Y863980D01*
X903725Y863875D01*
X903706Y863801D01*
X903700Y863787D01*
X901200D01*
Y859787D01*
X905800D01*
Y862689D01*
X905820Y862787D01*
Y863247D01*
X905829Y863269D01*
X905841Y864269D01*
X905840Y864272D01*
X905841Y864275D01*
X905820Y864328D01*
Y865177D01*
X905840Y865217D01*
X905852Y865391D01*
X905883Y865538D01*
X905938Y865701D01*
X905955Y865739D01*
X906517Y865889D01*
X907451Y866428D01*
X908213Y867191D01*
X908753Y868124D01*
X909031Y869166D01*
Y870244D01*
X908753Y871285D01*
X908213Y872219D01*
X907451Y872981D01*
X906517Y873520D01*
X905476Y873799D01*
D02*
G37*
G36*
X915319D02*
X914240D01*
X913199Y873520D01*
X912265Y872981D01*
X911503Y872219D01*
X910964Y871285D01*
X910685Y870244D01*
Y869166D01*
X910964Y868124D01*
X911503Y867191D01*
X912231Y866463D01*
Y858742D01*
X912219Y858301D01*
X912162Y857656D01*
X912070Y857102D01*
X911946Y856639D01*
X911795Y856269D01*
X911625Y855991D01*
X911445Y855796D01*
X911255Y855668D01*
X911038Y855591D01*
X910722Y855557D01*
X910696Y855543D01*
X909104D01*
X909103Y855544D01*
X909098Y855543D01*
X909050D01*
X909022Y855558D01*
X908974Y855543D01*
X908640D01*
X908569Y855585D01*
X908448Y855669D01*
X908119Y855947D01*
X907932Y856128D01*
X907882Y856148D01*
X907521Y856508D01*
X907190Y856729D01*
X906800Y856807D01*
X906350D01*
X906302Y856828D01*
X906126Y856833D01*
X905991Y856845D01*
X905886Y856862D01*
X905812Y856882D01*
X905800Y856887D01*
Y857787D01*
X901200D01*
Y856892D01*
X901198Y856889D01*
X901178Y856881D01*
X901107Y856862D01*
X901004Y856845D01*
X900871Y856833D01*
X900698Y856828D01*
X900650Y856807D01*
X900350D01*
X900302Y856828D01*
X900126Y856833D01*
X899991Y856845D01*
X899886Y856862D01*
X899812Y856882D01*
X899800Y856887D01*
Y857787D01*
X895200D01*
Y853787D01*
X899800D01*
Y854688D01*
X899812Y854693D01*
X899886Y854713D01*
X899991Y854730D01*
X900126Y854742D01*
X900302Y854746D01*
X900350Y854768D01*
X900650D01*
X900698Y854746D01*
X900871Y854742D01*
X901004Y854730D01*
X901107Y854713D01*
X901178Y854694D01*
X901198Y854685D01*
X901200Y854683D01*
Y853787D01*
X905800D01*
Y854688D01*
X905812Y854693D01*
X905886Y854713D01*
X905991Y854730D01*
X906126Y854742D01*
X906302Y854746D01*
X906347Y854766D01*
X906686Y854402D01*
X906809Y854250D01*
X906901Y854119D01*
X906909Y854105D01*
Y853831D01*
X906895Y853804D01*
X906909Y853758D01*
X906894Y853714D01*
X906909Y853682D01*
Y849613D01*
X906880Y849543D01*
X906909Y849472D01*
Y849032D01*
X907193D01*
X907204Y849005D01*
X907263Y848786D01*
X907317Y848479D01*
X907451Y846319D01*
Y837287D01*
X907645Y836312D01*
X907700Y836230D01*
Y835287D01*
X908493D01*
X909025Y834933D01*
X910000Y834738D01*
X910975Y834933D01*
X911507Y835287D01*
X912300D01*
Y836230D01*
X912355Y836312D01*
X912549Y837287D01*
Y845833D01*
X912561Y846274D01*
X912617Y846918D01*
X912710Y847473D01*
X912834Y847936D01*
X912985Y848306D01*
X913154Y848584D01*
X913334Y848779D01*
X913525Y848907D01*
X913741Y848983D01*
X914058Y849017D01*
X914084Y849032D01*
X917555D01*
Y854961D01*
X917584Y855032D01*
X917572Y855061D01*
X917581Y855091D01*
X917555Y855543D01*
X917504D01*
X917328Y858211D01*
Y866463D01*
X918056Y867191D01*
X918595Y868124D01*
X918874Y869166D01*
Y870244D01*
X918595Y871285D01*
X918056Y872219D01*
X917294Y872981D01*
X916360Y873520D01*
X915319Y873799D01*
D02*
G37*
G36*
X925037Y855543D02*
X923445D01*
Y853787D01*
X927268D01*
Y855026D01*
X923957Y855031D01*
X924310Y855071D01*
X924627Y855191D01*
X924905Y855391D01*
X925037Y855543D01*
D02*
G37*
G36*
X927268Y850787D02*
X923445D01*
Y849032D01*
X927268D01*
Y850787D01*
D02*
G37*
G36*
X887759Y873799D02*
X886681D01*
X885640Y873520D01*
X884706Y872981D01*
X883944Y872219D01*
X883405Y871285D01*
X883126Y870244D01*
Y869166D01*
X883405Y868124D01*
X883944Y867191D01*
X884654Y866480D01*
X884603Y865899D01*
X884511Y865344D01*
X884387Y864881D01*
X884236Y864511D01*
X884066Y864233D01*
X883887Y864039D01*
X883696Y863911D01*
X883480Y863835D01*
X883164Y863802D01*
X883138Y863787D01*
X880000D01*
Y854787D01*
X883401D01*
X883406Y854776D01*
X883425Y854702D01*
X883443Y854596D01*
X883454Y854461D01*
X883459Y854285D01*
X883480Y854237D01*
Y853550D01*
X883095Y853390D01*
X882397Y852692D01*
X882020Y851781D01*
Y850794D01*
X882397Y849882D01*
X883095Y849185D01*
X884007Y848807D01*
X884993D01*
X885905Y849185D01*
X886603Y849882D01*
X886980Y850794D01*
Y851781D01*
X886603Y852692D01*
X885905Y853390D01*
X885520Y853550D01*
Y854237D01*
X885541Y854285D01*
X885546Y854461D01*
X885557Y854596D01*
X885575Y854702D01*
X885594Y854775D01*
X885599Y854787D01*
X894000D01*
Y863787D01*
X891303D01*
X891277Y863802D01*
X890961Y863835D01*
X890745Y863911D01*
X890554Y864039D01*
X890374Y864233D01*
X890205Y864511D01*
X890054Y864881D01*
X889930Y865344D01*
X889838Y865899D01*
X889787Y866480D01*
X890497Y867191D01*
X891036Y868124D01*
X891315Y869166D01*
Y870244D01*
X891036Y871285D01*
X890497Y872219D01*
X889734Y872981D01*
X888801Y873520D01*
X887759Y873799D01*
D02*
G37*
G36*
X885500Y841287D02*
X885331D01*
X885480Y841126D01*
X885500Y841113D01*
Y841287D01*
D02*
G37*
G36*
X880508D02*
X880000D01*
Y838287D01*
X885500D01*
Y840765D01*
X880512Y840775D01*
X880510Y840815D01*
X880508Y841287D01*
D02*
G37*
G36*
X881928Y835287D02*
X880000D01*
Y833001D01*
X880004Y833006D01*
X880318Y833375D01*
X880432Y833538D01*
X880518Y833686D01*
X880576Y833821D01*
X880605Y833940D01*
X880606Y834046D01*
X880579Y834137D01*
X880524Y834214D01*
X880831Y833906D01*
X881581Y834783D01*
X881862Y835180D01*
X881928Y835287D01*
D02*
G37*
%LPD*%
G36*
X898743Y867427D02*
X898277Y866890D01*
X898087Y866634D01*
X897927Y866387D01*
X897796Y866148D01*
X897694Y865917D01*
X897621Y865696D01*
X897578Y865482D01*
X897563Y865277D01*
X896563D01*
X896548Y865482D01*
X896505Y865696D01*
X896432Y865917D01*
X896330Y866148D01*
X896199Y866387D01*
X896039Y866634D01*
X895849Y866890D01*
X895631Y867154D01*
X895106Y867708D01*
X899020D01*
X898743Y867427D01*
D02*
G37*
G36*
X906793Y867615D02*
X906510Y867353D01*
X906032Y866845D01*
X905838Y866601D01*
X905673Y866362D01*
X905539Y866129D01*
X905434Y865902D01*
X905360Y865681D01*
X905315Y865465D01*
X905300Y865256D01*
X904300Y865306D01*
X904286Y865506D01*
X904243Y865716D01*
X904173Y865939D01*
X904074Y866172D01*
X903946Y866416D01*
X903790Y866672D01*
X903607Y866939D01*
X903154Y867506D01*
X902885Y867807D01*
X906793Y867615D01*
D02*
G37*
G36*
X905288Y863275D02*
X903800Y863263D01*
X903895Y863274D01*
X903980Y863305D01*
X904055Y863356D01*
X904120Y863427D01*
X904175Y863518D01*
X904220Y863630D01*
X904255Y863761D01*
X904280Y863912D01*
X904295Y864084D01*
X904300Y864275D01*
X905300D01*
X905288Y863275D01*
D02*
G37*
G36*
X897568Y864083D02*
X897583Y863911D01*
X897608Y863759D01*
X897643Y863628D01*
X897688Y863516D01*
X897743Y863425D01*
X897808Y863354D01*
X897883Y863304D01*
X897968Y863274D01*
X898063Y863263D01*
X896063D01*
X896158Y863274D01*
X896243Y863304D01*
X896318Y863354D01*
X896383Y863425D01*
X896438Y863516D01*
X896483Y863628D01*
X896518Y863759D01*
X896543Y863911D01*
X896558Y864083D01*
X896563Y864275D01*
X897563D01*
X897568Y864083D01*
D02*
G37*
G36*
X916782Y858271D02*
X916993Y855071D01*
X917043Y855031D01*
X910779Y855019D01*
X911160Y855060D01*
X911500Y855181D01*
X911800Y855382D01*
X912059Y855663D01*
X912280Y856024D01*
X912459Y856466D01*
X912599Y856987D01*
X912700Y857588D01*
X912759Y858270D01*
X912780Y859031D01*
X916780D01*
X916782Y858271D01*
D02*
G37*
G36*
X905286Y856692D02*
X905317Y856607D01*
X905367Y856532D01*
X905438Y856467D01*
X905529Y856412D01*
X905640Y856367D01*
X905772Y856332D01*
X905924Y856307D01*
X906096Y856292D01*
X906288Y856287D01*
Y855287D01*
X906096Y855282D01*
X905924Y855267D01*
X905772Y855242D01*
X905640Y855207D01*
X905529Y855162D01*
X905438Y855107D01*
X905367Y855042D01*
X905317Y854967D01*
X905286Y854882D01*
X905276Y854787D01*
Y856787D01*
X905286Y856692D01*
D02*
G37*
G36*
X901712Y854787D02*
X901702Y854882D01*
X901672Y854967D01*
X901622Y855042D01*
X901552Y855107D01*
X901462Y855162D01*
X901352Y855207D01*
X901222Y855242D01*
X901072Y855267D01*
X900902Y855282D01*
X900712Y855287D01*
Y856287D01*
X900902Y856292D01*
X901072Y856307D01*
X901222Y856332D01*
X901352Y856367D01*
X901462Y856412D01*
X901552Y856467D01*
X901622Y856532D01*
X901672Y856607D01*
X901702Y856692D01*
X901712Y856787D01*
Y854787D01*
D02*
G37*
G36*
X899286Y856692D02*
X899317Y856607D01*
X899367Y856532D01*
X899438Y856467D01*
X899529Y856412D01*
X899640Y856367D01*
X899772Y856332D01*
X899924Y856307D01*
X900096Y856292D01*
X900288Y856287D01*
Y855287D01*
X900096Y855282D01*
X899924Y855267D01*
X899772Y855242D01*
X899640Y855207D01*
X899529Y855162D01*
X899438Y855107D01*
X899367Y855042D01*
X899317Y854967D01*
X899286Y854882D01*
X899276Y854787D01*
Y856787D01*
X899286Y856692D01*
D02*
G37*
G36*
X907756Y855545D02*
X908117Y855240D01*
X908278Y855127D01*
X908426Y855042D01*
X908561Y854984D01*
X908683Y854952D01*
X908792Y854947D01*
X908888Y854970D01*
X908970Y855019D01*
X907434Y853752D01*
X907495Y853822D01*
X907527Y853909D01*
X907529Y854011D01*
X907501Y854129D01*
X907444Y854262D01*
X907357Y854412D01*
X907241Y854577D01*
X907095Y854757D01*
X906714Y855166D01*
X907556Y855739D01*
X907756Y855545D01*
D02*
G37*
G36*
X913620Y849515D02*
X913280Y849394D01*
X912980Y849193D01*
X912720Y848912D01*
X912500Y848551D01*
X912320Y848109D01*
X912180Y847588D01*
X912080Y846987D01*
X912020Y846305D01*
X912000Y845543D01*
X908000D01*
X907994Y846303D01*
X907855Y848543D01*
X907792Y848903D01*
X907716Y849183D01*
X907630Y849384D01*
X907531Y849504D01*
X907421Y849543D01*
X914000Y849555D01*
X913620Y849515D01*
D02*
G37*
G36*
X889240Y866513D02*
X889301Y865831D01*
X889400Y865229D01*
X889540Y864708D01*
X889721Y864266D01*
X889940Y863905D01*
X890201Y863624D01*
X890501Y863424D01*
X890841Y863303D01*
X891220Y863263D01*
X883220D01*
X883601Y863303D01*
X883941Y863424D01*
X884241Y863624D01*
X884501Y863905D01*
X884721Y864266D01*
X884900Y864708D01*
X885040Y865229D01*
X885141Y865831D01*
X885201Y866513D01*
X885221Y867275D01*
X889221D01*
X889240Y866513D01*
D02*
G37*
G36*
X887280Y857307D02*
X886930Y857252D01*
X886023Y857045D01*
X885769Y856961D01*
X885538Y856870D01*
X885331Y856772D01*
X885148Y856666D01*
X884989Y856554D01*
X884853Y856434D01*
X884146Y857141D01*
X884266Y857276D01*
X884379Y857436D01*
X884484Y857619D01*
X884582Y857825D01*
X884673Y858056D01*
X884757Y858311D01*
X884903Y858891D01*
X884965Y859218D01*
X885020Y859568D01*
X887280Y857307D01*
D02*
G37*
G36*
X885405Y855301D02*
X885320Y855271D01*
X885245Y855220D01*
X885180Y855149D01*
X885125Y855058D01*
X885080Y854947D01*
X885045Y854815D01*
X885020Y854664D01*
X885005Y854492D01*
X885000Y854299D01*
X884000D01*
X883995Y854492D01*
X883980Y854664D01*
X883955Y854815D01*
X883920Y854947D01*
X883875Y855058D01*
X883820Y855149D01*
X883755Y855220D01*
X883680Y855271D01*
X883595Y855301D01*
X883500Y855311D01*
X885500D01*
X885405Y855301D01*
D02*
G37*
G36*
X885003Y852946D02*
X885013Y852832D01*
X885029Y852724D01*
X885052Y852621D01*
X885082Y852525D01*
X885118Y852434D01*
X885160Y852350D01*
X885209Y852271D01*
X885265Y852198D01*
X885327Y852131D01*
X883673D01*
X883735Y852198D01*
X883791Y852271D01*
X883840Y852350D01*
X883882Y852434D01*
X883918Y852525D01*
X883948Y852621D01*
X883971Y852724D01*
X883987Y852832D01*
X883997Y852946D01*
X884000Y853066D01*
X885000D01*
X885003Y852946D01*
D02*
G37*
%LPC*%
G36*
X894500Y830087D02*
X894000D01*
Y829287D01*
X894500D01*
Y830087D01*
D02*
G37*
G36*
X891000D02*
X890500D01*
Y829287D01*
X891000D01*
Y830087D01*
D02*
G37*
G36*
X832300Y822500D02*
X831500D01*
Y822000D01*
X832300D01*
Y822500D01*
D02*
G37*
G36*
X826800D02*
X826000D01*
Y822000D01*
X826800D01*
Y822500D01*
D02*
G37*
G36*
X828500D02*
X827700D01*
Y822000D01*
X828500D01*
Y822500D01*
D02*
G37*
G36*
X823000D02*
X822200D01*
Y822000D01*
X823000D01*
Y822500D01*
D02*
G37*
G36*
X764000Y822000D02*
X763000D01*
Y820000D01*
X765750D01*
Y820250D01*
X764000Y822000D01*
D02*
G37*
G36*
X760000D02*
X759000D01*
X757250Y820250D01*
Y820000D01*
X760000D01*
Y822000D01*
D02*
G37*
G36*
X832300Y819000D02*
X831500D01*
Y818500D01*
X832300D01*
Y819000D01*
D02*
G37*
G36*
X828500D02*
X827700D01*
Y818500D01*
X828500D01*
Y819000D01*
D02*
G37*
G36*
X826800D02*
X826000D01*
Y818500D01*
X826800D01*
Y819000D01*
D02*
G37*
G36*
X823000D02*
X822200D01*
Y818500D01*
X823000D01*
Y819000D01*
D02*
G37*
G36*
X765750Y817000D02*
X763000D01*
Y815000D01*
X764000D01*
X765750Y816750D01*
Y817000D01*
D02*
G37*
G36*
X760000D02*
X757250D01*
Y816750D01*
X759000Y815000D01*
X760000D01*
Y817000D01*
D02*
G37*
G36*
X739500Y815300D02*
X739000D01*
Y814500D01*
X739500D01*
Y815300D01*
D02*
G37*
G36*
X824300Y815000D02*
X823500D01*
Y814500D01*
X823767D01*
Y814769D01*
X824052Y814528D01*
X824097Y814500D01*
X824300D01*
Y815000D01*
D02*
G37*
G36*
X820500D02*
X819700D01*
Y814500D01*
X820500D01*
Y815000D01*
D02*
G37*
G36*
X736000Y815300D02*
X735500D01*
Y814500D01*
X736000D01*
Y815300D01*
D02*
G37*
G36*
X757500Y814000D02*
X751000D01*
Y811000D01*
X756988D01*
Y813488D01*
X757038Y813205D01*
X757188Y812952D01*
X757438Y812729D01*
X757500Y812695D01*
Y814000D01*
D02*
G37*
G36*
X801941Y813500D02*
X799500D01*
Y812555D01*
X799793Y812555D01*
X800394Y812698D01*
X801066Y812982D01*
X801808Y813408D01*
X801941Y813500D01*
D02*
G37*
G36*
X748000Y814000D02*
X741500D01*
Y813490D01*
X742012Y813488D01*
X742018Y811000D01*
X748000D01*
Y814000D01*
D02*
G37*
G36*
X739500Y811500D02*
X739000D01*
Y810700D01*
X739500D01*
Y811500D01*
D02*
G37*
G36*
X736000D02*
X735500D01*
Y810700D01*
X736000D01*
Y811500D01*
D02*
G37*
G36*
X799500Y811893D02*
Y810500D01*
X800893D01*
X799500Y811893D01*
D02*
G37*
G36*
X776756Y810032D02*
X775000D01*
Y806996D01*
X776244D01*
Y809519D01*
X776294Y809230D01*
X776444Y808971D01*
X776694Y808743D01*
X776756Y808708D01*
Y810032D01*
D02*
G37*
G36*
X772000D02*
X770244D01*
Y809774D01*
X770756Y809519D01*
X770762Y806996D01*
X772000D01*
Y810032D01*
D02*
G37*
G36*
X806000Y807500D02*
X805104D01*
X805055Y807293D01*
X805054Y806763D01*
X805194Y806305D01*
X805476Y805917D01*
X803893Y807500D01*
X799500D01*
Y805012D01*
X803000D01*
X802525Y804962D01*
X802100Y804812D01*
X801725Y804562D01*
X801667Y804500D01*
X806000D01*
Y807500D01*
D02*
G37*
G36*
X756988Y808000D02*
X751000D01*
Y805512D01*
X754500D01*
X754025Y805462D01*
X753600Y805312D01*
X753225Y805062D01*
X753167Y805000D01*
X757500D01*
Y806305D01*
X757438Y806271D01*
X757188Y806048D01*
X757038Y805795D01*
X756988Y805512D01*
Y808000D01*
D02*
G37*
G36*
X748000D02*
X741500D01*
Y805000D01*
X745833D01*
X745775Y805062D01*
X745400Y805312D01*
X744975Y805462D01*
X744500Y805512D01*
X748000D01*
Y808000D01*
D02*
G37*
G36*
X796500Y807500D02*
X790517D01*
X790512Y805012D01*
X790000Y804806D01*
Y804500D01*
X794333D01*
X794275Y804562D01*
X793900Y804812D01*
X793475Y804962D01*
X793000Y805012D01*
X796500D01*
Y807500D01*
D02*
G37*
G36*
X776244Y803996D02*
X775000D01*
Y800961D01*
X776756D01*
Y802285D01*
X776694Y802250D01*
X776444Y802021D01*
X776294Y801762D01*
X776244Y801473D01*
Y803996D01*
D02*
G37*
G36*
X772000D02*
X770244D01*
Y800961D01*
X772000D01*
Y803996D01*
D02*
G37*
G36*
X752250Y788250D02*
X751000D01*
Y786000D01*
X752250D01*
Y788250D01*
D02*
G37*
G36*
X748000D02*
X746750D01*
Y786000D01*
X748000D01*
Y788250D01*
D02*
G37*
G36*
X800750Y787750D02*
X799500D01*
Y785500D01*
X800750D01*
Y787750D01*
D02*
G37*
G36*
X796500D02*
X795250D01*
Y785500D01*
X796500D01*
Y787750D01*
D02*
G37*
G36*
X752250Y783000D02*
X751000D01*
Y780750D01*
X752250D01*
Y783000D01*
D02*
G37*
G36*
X748000D02*
X746750D01*
Y780750D01*
X748000D01*
Y783000D01*
D02*
G37*
G36*
X800750Y782500D02*
X799500D01*
Y780250D01*
X800750D01*
Y782500D01*
D02*
G37*
G36*
X796500D02*
X795250D01*
Y780250D01*
X796500D01*
Y782500D01*
D02*
G37*
G36*
X750000Y779800D02*
X749500D01*
Y779000D01*
X750000D01*
Y779800D01*
D02*
G37*
G36*
X746500D02*
X746000D01*
Y779000D01*
X746500D01*
Y779800D01*
D02*
G37*
G36*
X798500Y779300D02*
X798000D01*
Y778500D01*
X798500D01*
Y779300D01*
D02*
G37*
G36*
X795000D02*
X794500D01*
Y778500D01*
X795000D01*
Y779300D01*
D02*
G37*
G36*
X750000Y776000D02*
X749500D01*
Y775200D01*
X750000D01*
Y776000D01*
D02*
G37*
G36*
X746500D02*
X746000D01*
Y775200D01*
X746500D01*
Y776000D01*
D02*
G37*
G36*
X824300Y809000D02*
X823500D01*
Y808500D01*
X824300D01*
Y809000D01*
D02*
G37*
G36*
X820500D02*
X819700D01*
Y808500D01*
X820500D01*
Y809000D01*
D02*
G37*
G36*
X824300Y805500D02*
X823500D01*
Y805000D01*
X824300D01*
Y805500D01*
D02*
G37*
G36*
X820500D02*
X819700D01*
Y805000D01*
X820500D01*
Y805500D01*
D02*
G37*
G36*
X854571Y805740D02*
X851831D01*
Y803000D01*
X854571D01*
Y805740D01*
D02*
G37*
G36*
X848831D02*
X846091D01*
Y803000D01*
X848831D01*
Y805740D01*
D02*
G37*
G36*
X825756Y803032D02*
X824000D01*
Y799996D01*
X825756D01*
Y803032D01*
D02*
G37*
G36*
X821000D02*
X819244D01*
Y799996D01*
X821000D01*
Y803032D01*
D02*
G37*
G36*
X854571Y800000D02*
X851831D01*
Y797260D01*
X854571D01*
Y800000D01*
D02*
G37*
G36*
X848831D02*
X846091D01*
Y797260D01*
X848831D01*
Y800000D01*
D02*
G37*
G36*
X825756Y796996D02*
X824000D01*
Y793961D01*
X825756D01*
Y796996D01*
D02*
G37*
G36*
X821000D02*
X819244D01*
Y793961D01*
X821000D01*
Y796996D01*
D02*
G37*
G36*
X809750Y787750D02*
X808500D01*
Y785500D01*
X809750D01*
Y787750D01*
D02*
G37*
G36*
Y782500D02*
X808500D01*
Y780250D01*
X809750D01*
Y782500D01*
D02*
G37*
G36*
X808500Y779500D02*
Y779000D01*
X809300D01*
Y779500D01*
X808500D01*
D02*
G37*
G36*
X733500Y815300D02*
X733000D01*
Y814500D01*
X733500D01*
Y815300D01*
D02*
G37*
G36*
X701800Y815000D02*
X701000D01*
Y814500D01*
X701800D01*
Y815000D01*
D02*
G37*
G36*
X695800D02*
X695000D01*
Y814500D01*
X695800D01*
Y815000D01*
D02*
G37*
G36*
X698000D02*
X697200D01*
Y814500D01*
X698000D01*
Y815000D01*
D02*
G37*
G36*
X692000D02*
X691200D01*
Y814500D01*
X692000D01*
Y815000D01*
D02*
G37*
G36*
X730000Y815300D02*
X729500D01*
Y814500D01*
X730000D01*
Y815300D01*
D02*
G37*
G36*
X727000Y814000D02*
X720500D01*
Y811000D01*
X726483D01*
X726488Y813488D01*
X726518Y813490D01*
X726609Y813492D01*
X727000Y813493D01*
Y814000D01*
D02*
G37*
G36*
X717500D02*
X711000D01*
Y812695D01*
X711062Y812729D01*
X711312Y812952D01*
X711462Y813205D01*
X711512Y813488D01*
Y811000D01*
X717500D01*
Y814000D01*
D02*
G37*
G36*
X701800Y811500D02*
X701000D01*
Y811000D01*
X701800D01*
Y811500D01*
D02*
G37*
G36*
X698000D02*
X697200D01*
Y811000D01*
X698000D01*
Y811500D01*
D02*
G37*
G36*
X691746D02*
X691200D01*
Y811000D01*
X691748D01*
X691746Y811500D01*
D02*
G37*
G36*
X678000Y814000D02*
X671500D01*
Y811000D01*
X677484D01*
X677488Y813488D01*
X678000Y813489D01*
Y814000D01*
D02*
G37*
G36*
X668500D02*
X662000D01*
Y811000D01*
X668500D01*
Y814000D01*
D02*
G37*
G36*
X733500Y811500D02*
X733000D01*
Y810700D01*
X733500D01*
Y811500D01*
D02*
G37*
G36*
X730000D02*
X729500D01*
Y810700D01*
X730000D01*
Y811500D01*
D02*
G37*
G36*
X727000Y808000D02*
X726480D01*
X726476Y807988D01*
X726476Y808000D01*
X720500D01*
Y805512D01*
X724000D01*
X723525Y805462D01*
X723100Y805312D01*
X722725Y805062D01*
X722667Y805000D01*
X727000D01*
Y808000D01*
D02*
G37*
G36*
X717500D02*
X711512D01*
Y805512D01*
X711462Y805795D01*
X711312Y806048D01*
X711062Y806271D01*
X711000Y806305D01*
Y805000D01*
X715333D01*
X715275Y805062D01*
X714900Y805312D01*
X714475Y805462D01*
X714000Y805512D01*
X717500D01*
Y808000D01*
D02*
G37*
G36*
X697756Y808535D02*
X696960D01*
X696989Y808404D01*
X697064Y808193D01*
X697149Y808066D01*
X697244Y808023D01*
X696000D01*
Y805500D01*
X697756D01*
Y808535D01*
D02*
G37*
G36*
X691755D02*
X691244D01*
Y805500D01*
X693000D01*
Y808023D01*
X691756D01*
X691755Y808535D01*
D02*
G37*
G36*
X677479Y808000D02*
X671500D01*
Y805512D01*
X675000D01*
X674525Y805462D01*
X674100Y805312D01*
X673725Y805062D01*
X673667Y805000D01*
X678000D01*
Y807341D01*
X677929Y807275D01*
X677678Y806900D01*
X677527Y806475D01*
X677476Y806000D01*
X677479Y808000D01*
D02*
G37*
G36*
X668500D02*
X662000D01*
Y805000D01*
X666333D01*
X666275Y805062D01*
X665900Y805312D01*
X665475Y805462D01*
X665000Y805512D01*
X668500D01*
Y808000D01*
D02*
G37*
G36*
X697756Y802500D02*
X696000D01*
Y799465D01*
X697756D01*
Y802500D01*
D02*
G37*
G36*
X693000D02*
X691244D01*
Y799465D01*
X693000D01*
Y802500D01*
D02*
G37*
G36*
X721750Y788250D02*
X720500D01*
Y786000D01*
X721750D01*
Y788250D01*
D02*
G37*
G36*
X717500D02*
X716250D01*
Y786000D01*
X717500D01*
Y788250D01*
D02*
G37*
G36*
X672750D02*
X671500D01*
Y786000D01*
X672750D01*
Y788250D01*
D02*
G37*
G36*
X668500D02*
X667250D01*
Y786000D01*
X668500D01*
Y788250D01*
D02*
G37*
G36*
X721750Y783000D02*
X720500D01*
Y780750D01*
X721750D01*
Y783000D01*
D02*
G37*
G36*
X717500D02*
X716250D01*
Y780750D01*
X717500D01*
Y783000D01*
D02*
G37*
G36*
X672750D02*
X671500D01*
Y780750D01*
X672750D01*
Y783000D01*
D02*
G37*
G36*
X668500D02*
X667250D01*
Y780750D01*
X668500D01*
Y783000D01*
D02*
G37*
G36*
X720000Y779800D02*
X719500D01*
Y779000D01*
X720000D01*
Y779800D01*
D02*
G37*
G36*
X716500D02*
X716000D01*
Y779000D01*
X716500D01*
Y779800D01*
D02*
G37*
G36*
X667000Y779300D02*
X666500D01*
Y778500D01*
X667000D01*
Y779300D01*
D02*
G37*
G36*
X720000Y776000D02*
X719500D01*
Y775200D01*
X720000D01*
Y776000D01*
D02*
G37*
G36*
X716500D02*
X716000D01*
Y775200D01*
X716500D01*
Y776000D01*
D02*
G37*
%LPD*%
D10*
X687157Y761079D02*
X687472D01*
D12*
X625500Y776586D02*
Y864500D01*
X628173Y773913D02*
X670533D01*
X672621Y776000D01*
X677500D01*
X678500Y777000D01*
X625500Y776586D02*
X628173Y773913D01*
X624000Y881000D02*
Y888650D01*
Y881000D02*
X625500Y879500D01*
X897063Y862224D02*
Y869705D01*
Y862224D02*
X897500Y861787D01*
X904800Y862787D02*
Y869568D01*
X904937Y869705D01*
X903800Y861787D02*
X904800Y862787D01*
X903500Y861787D02*
X903800D01*
X733000Y827787D02*
Y828087D01*
X734000Y829087D02*
X735719D01*
X736131Y829500D02*
X736500D01*
X733000Y828087D02*
X734000Y829087D01*
X735719D02*
X736131Y829500D01*
X661131Y827500D02*
X661500D01*
X657500Y827000D02*
X660631D01*
X661131Y827500D01*
X892713Y828000D02*
X896500D01*
X892500Y827787D02*
X892713Y828000D01*
X887000Y836787D02*
X889203D01*
X884500D02*
X887000D01*
X876761Y829048D02*
X884500Y836787D01*
X876500Y828000D02*
X876761Y828261D01*
Y829048D01*
X815500Y826500D02*
X819500D01*
X717500Y828000D02*
X726787D01*
X727000Y827787D01*
X933500Y813000D02*
X948500Y828000D01*
Y888000D01*
X822000Y813000D02*
X933500D01*
X948500Y894000D02*
Y900500D01*
X936000Y906500D02*
X942000D01*
X872713Y900500D02*
X936000D01*
X865500Y893287D02*
X872713Y900500D01*
X933813Y892513D02*
X941800Y900500D01*
X942000D01*
X789500Y896500D02*
X790000Y896000D01*
X789500Y896500D02*
Y900500D01*
X858287D02*
X865500Y893287D01*
X795500Y900500D02*
X858287D01*
X789500Y906500D02*
X795500D01*
X776500D02*
X782500D01*
X780013Y892513D02*
X782500Y895000D01*
Y900500D01*
X776500Y896500D02*
Y900500D01*
X630000Y896000D02*
Y900500D01*
Y906500D02*
X636000D01*
Y897000D02*
Y900500D01*
X624000Y894650D02*
Y900650D01*
X813000Y839787D02*
X816500Y836287D01*
X817220Y852936D02*
X818500Y851656D01*
Y851287D02*
Y851656D01*
X817220Y852936D02*
Y859008D01*
X813000Y839787D02*
Y840987D01*
X867986Y841802D02*
X873986D01*
X867986Y847802D02*
X873986D01*
X828063Y861255D02*
X828160D01*
Y855255D02*
X828192Y855287D01*
X834500D01*
X834937Y861724D02*
Y869705D01*
X834500Y861287D02*
X834937Y861724D01*
X840232Y855287D02*
X840732Y854787D01*
X834500Y855287D02*
X840232D01*
X866543Y858744D02*
X873986Y851301D01*
X866543Y858744D02*
Y883932D01*
X875124Y892513D01*
X827063Y862255D02*
X828063Y861255D01*
X827063Y862255D02*
Y869705D01*
X889203Y836787D02*
X892703Y840287D01*
X910756Y852287D02*
X912232D01*
X907909Y854543D02*
X910165Y852287D01*
X907909Y854543D02*
Y854678D01*
X910165Y852287D02*
X910756D01*
X892500Y842422D02*
X892703Y842625D01*
Y840287D02*
Y842219D01*
X892500Y842422D02*
X892703Y842219D01*
X897500Y855787D02*
X903500D01*
X875124Y892513D02*
X933813D01*
X906800Y855787D02*
X907909Y854678D01*
X903500Y855787D02*
X906800D01*
X873986Y838301D02*
Y841802D01*
X884500Y851287D02*
Y856787D01*
X887000Y859287D01*
X873986Y838301D02*
X874000Y838287D01*
X873986Y847802D02*
Y851301D01*
X750665Y852287D02*
X751256D01*
X748409Y854543D02*
X750665Y852287D01*
X748409Y854543D02*
Y854678D01*
X747300Y855787D02*
X748409Y854678D01*
X744000Y855787D02*
X747300D01*
X738000D02*
X744000D01*
X737563Y862224D02*
X738000Y861787D01*
X744300D02*
X745300Y862787D01*
Y869568D01*
X744000Y861787D02*
X744300D01*
X737563Y862224D02*
Y869705D01*
X715624Y892513D02*
X780013D01*
X707043Y883932D02*
X715624Y892513D01*
X751256Y852287D02*
X752732D01*
X745300Y869568D02*
X745437Y869705D01*
X707043Y858744D02*
Y883932D01*
X653500Y839787D02*
Y840987D01*
Y839787D02*
X657000Y836287D01*
X659000Y851287D02*
Y851656D01*
X657721Y852936D02*
X659000Y851656D01*
X657721Y852936D02*
Y859008D01*
X667563Y862255D02*
Y869705D01*
X668563Y861255D02*
X668660D01*
X675437Y861724D02*
Y869705D01*
X675000Y861287D02*
X675437Y861724D01*
X675000Y855287D02*
X680732D01*
X681232Y854787D01*
X668660Y855255D02*
X668692Y855287D01*
X675000D01*
X667563Y862255D02*
X668563Y861255D01*
X714486Y847802D02*
Y851301D01*
Y838301D02*
Y841802D01*
Y838301D02*
X714500Y838287D01*
X733203Y840287D02*
Y842219D01*
X733000Y842422D02*
X733203Y842625D01*
X733000Y842422D02*
X733203Y842219D01*
X708486Y847802D02*
X714486D01*
X708486Y841802D02*
X714486D01*
X707043Y858744D02*
X714486Y851301D01*
X725000Y851287D02*
Y856787D01*
X727500Y859287D01*
X729703Y836787D02*
X733203Y840287D01*
X727500Y836787D02*
X729703D01*
D28*
X671488Y740961D02*
D03*
X672000Y751000D02*
D03*
X685386Y761394D02*
D03*
X672000Y761214D02*
D03*
D34*
X712000Y777500D02*
D03*
X718000D02*
D03*
X790500Y777000D02*
D03*
X796500D02*
D03*
X742000Y777500D02*
D03*
X748000D02*
D03*
X727000Y827787D02*
D03*
X733000D02*
D03*
X815500Y826500D02*
D03*
X809500D02*
D03*
X886500Y827787D02*
D03*
X892500D02*
D03*
X662500Y777000D02*
D03*
X668500D02*
D03*
X731500Y813000D02*
D03*
X737500D02*
D03*
D35*
X728000Y771500D02*
D03*
Y777500D02*
D03*
X750500Y831287D02*
D03*
Y837287D02*
D03*
X624000Y888650D02*
D03*
Y894650D02*
D03*
X830000Y826500D02*
D03*
Y820500D02*
D03*
X824500Y826500D02*
D03*
Y820500D02*
D03*
X807000Y771500D02*
D03*
Y777500D02*
D03*
X758500Y771500D02*
D03*
Y777500D02*
D03*
X681000Y826787D02*
D03*
Y832787D02*
D03*
X776500Y906500D02*
D03*
Y900500D02*
D03*
X744000Y861787D02*
D03*
Y855787D02*
D03*
X738000Y861787D02*
D03*
Y855787D02*
D03*
X714486Y847802D02*
D03*
Y841802D02*
D03*
X708486D02*
D03*
Y847802D02*
D03*
X936000Y906500D02*
D03*
Y900500D02*
D03*
X903500Y861787D02*
D03*
Y855787D02*
D03*
X897500Y861787D02*
D03*
Y855787D02*
D03*
X873986Y847802D02*
D03*
Y841802D02*
D03*
X910000Y831287D02*
D03*
Y837287D02*
D03*
X636000Y906500D02*
D03*
Y900500D02*
D03*
X657500Y827000D02*
D03*
Y821000D02*
D03*
X675000Y861287D02*
D03*
Y855287D02*
D03*
X668660Y861255D02*
D03*
Y855255D02*
D03*
X867986Y841802D02*
D03*
Y847802D02*
D03*
X840500Y826787D02*
D03*
Y832787D02*
D03*
X795500Y906500D02*
D03*
Y900500D02*
D03*
X834500Y861287D02*
D03*
Y855287D02*
D03*
X828160Y861255D02*
D03*
Y855255D02*
D03*
X678500Y771000D02*
D03*
Y777000D02*
D03*
X693500Y819000D02*
D03*
Y813000D02*
D03*
X699500Y819000D02*
D03*
Y813000D02*
D03*
X822000Y807000D02*
D03*
Y813000D02*
D03*
X948500Y894000D02*
D03*
Y888000D02*
D03*
D36*
X822500Y785504D02*
D03*
Y798496D02*
D03*
X773500Y792504D02*
D03*
Y805496D02*
D03*
X694500Y791008D02*
D03*
Y804000D02*
D03*
D37*
X761500Y833500D02*
D03*
X625500Y879500D02*
D03*
D38*
X761500Y818500D02*
D03*
X625500Y864500D02*
D03*
D39*
X624000Y900650D02*
D03*
X782500Y906500D02*
D03*
X942000D02*
D03*
X630000D02*
D03*
X789500D02*
D03*
X948500Y900500D02*
D03*
D40*
X624000Y906650D02*
D03*
X782500Y900500D02*
D03*
X942000D02*
D03*
X630000D02*
D03*
X789500D02*
D03*
X948500Y906500D02*
D03*
D41*
X798000Y809000D02*
D03*
X749500Y809500D02*
D03*
X719000D02*
D03*
X670000D02*
D03*
D42*
X798000Y784000D02*
D03*
X807000D02*
D03*
X789000D02*
D03*
X749500Y784500D02*
D03*
X758500D02*
D03*
X740500D02*
D03*
X719000D02*
D03*
X728000D02*
D03*
X710000D02*
D03*
X670000D02*
D03*
X679000D02*
D03*
X661000D02*
D03*
D43*
X697768Y847787D02*
D03*
X681232D02*
D03*
X769268Y852287D02*
D03*
X752732D02*
D03*
X928768D02*
D03*
X912232D02*
D03*
X857268Y847787D02*
D03*
X840732D02*
D03*
D44*
X727500Y836787D02*
D03*
Y859287D02*
D03*
X887000Y836787D02*
D03*
Y859287D02*
D03*
X657500Y836287D02*
D03*
Y858787D02*
D03*
X817000Y836287D02*
D03*
Y858787D02*
D03*
D45*
X887220Y859508D02*
Y869705D01*
X887000Y859287D02*
X887220Y859508D01*
X927817Y853043D02*
Y879423D01*
X928573Y852287D02*
X928768D01*
X927817Y853043D02*
X928573Y852287D01*
X914779Y854768D02*
Y869705D01*
X875134Y856712D02*
Y880374D01*
X926866D01*
X927817Y879423D01*
X875134Y856712D02*
X878167Y853678D01*
Y851707D02*
Y853678D01*
Y851707D02*
X882500Y847374D01*
Y838787D02*
Y847374D01*
Y838787D02*
X884500Y836787D01*
X912299Y852287D02*
X914779Y854768D01*
X657500Y827000D02*
Y836287D01*
X652500Y838787D02*
X655000Y836287D01*
X815500Y826500D02*
X817000Y828000D01*
Y836287D01*
X812000Y838787D02*
X814500Y836287D01*
X752732Y852287D02*
X752799D01*
X750500Y851532D02*
X751256Y852287D01*
X750500Y837287D02*
Y851532D01*
X805134Y845654D02*
X812000Y838787D01*
X817220Y859008D02*
Y869705D01*
X816500Y836287D02*
X817000D01*
X814500D02*
X816500D01*
X840732Y854787D02*
Y856885D01*
X844757Y860909D02*
Y869682D01*
X840732Y856885D02*
X844757Y860909D01*
X840732Y847787D02*
Y854787D01*
X857067Y847988D02*
X857268Y847787D01*
X840732Y833020D02*
Y847787D01*
X857067Y847988D02*
Y880173D01*
X844757Y869682D02*
X844779Y869705D01*
X886500Y836287D02*
X887000Y836787D01*
X910000Y837287D02*
Y851532D01*
X886500Y827787D02*
Y836287D01*
X840500Y832787D02*
X840732Y833020D01*
X856866Y880374D02*
X857067Y880173D01*
X805134Y880374D02*
X856866D01*
X805134Y845654D02*
Y880374D01*
X912232Y852287D02*
X912299D01*
X910000Y851532D02*
X910756Y852287D01*
X767366Y880374D02*
X768317Y879423D01*
X715634Y880374D02*
X767366D01*
X645634Y845654D02*
Y880374D01*
X727720Y859508D02*
Y869705D01*
X685256Y869682D02*
X685280Y869705D01*
X697366Y880374D02*
X697567Y880173D01*
X645634Y880374D02*
X697366D01*
X769073Y852287D02*
X769268D01*
X768317Y853043D02*
Y879423D01*
Y853043D02*
X769073Y852287D01*
X755279Y854768D02*
Y869705D01*
X752799Y852287D02*
X755279Y854768D01*
X697567Y847988D02*
X697768Y847787D01*
X697567Y847988D02*
Y880173D01*
X681232Y833020D02*
Y847787D01*
X715634Y856712D02*
Y880374D01*
X681232Y847787D02*
Y854787D01*
X655000Y836287D02*
X657000D01*
X657500D01*
X645634Y845654D02*
X652500Y838787D01*
X657721Y859008D02*
Y869705D01*
X681232Y856885D02*
X685256Y860909D01*
Y869682D01*
X681232Y854787D02*
Y856885D01*
X727500Y859287D02*
X727720Y859508D01*
X715634Y856712D02*
X718667Y853678D01*
Y851707D02*
X723000Y847374D01*
X718667Y851707D02*
Y853678D01*
X723000Y838787D02*
Y847374D01*
X725000Y836787D02*
X727500D01*
X723000Y838787D02*
X725000Y836787D01*
X727000Y836287D02*
X727500Y836787D01*
X681000Y832787D02*
X681232Y833020D01*
X727000Y827787D02*
Y836287D01*
D46*
X840500Y826787D02*
X866330D01*
X909700Y831287D02*
X910000D01*
X902113Y823700D02*
X909700Y831287D01*
X869417Y823700D02*
X902113D01*
X866330Y826787D02*
X869417Y823700D01*
X839913Y826500D02*
X840200Y826787D01*
X830000Y826500D02*
X839913D01*
X840200Y826787D02*
X840500D01*
X824500Y826500D02*
X830000D01*
D47*
X813000Y820500D02*
X822000D01*
X801500Y809000D02*
X813000Y820500D01*
X798000Y809000D02*
X801500D01*
X823732Y820500D02*
X824500D01*
X830000D01*
X822000Y818769D02*
X823732Y820500D01*
X822000Y813000D02*
Y818769D01*
X693500Y819000D02*
X699500D01*
X700000Y819500D02*
Y826500D01*
X699500Y819000D02*
X700000Y819500D01*
X738213Y819000D02*
X750500Y831287D01*
X699500Y819000D02*
X738213D01*
X681000Y826787D02*
X688787Y819000D01*
X693500D01*
X798000Y784000D02*
Y809000D01*
X797750Y783750D02*
X798000Y784000D01*
X749500Y784500D02*
Y809500D01*
X749250Y778750D02*
Y784250D01*
X749500Y784500D01*
X719000D02*
Y809500D01*
X718750Y778250D02*
Y784250D01*
X718000Y777500D02*
X718750Y778250D01*
Y784250D02*
X719000Y784500D01*
X694244Y804256D02*
Y812256D01*
Y804256D02*
X694500Y804000D01*
X693500Y813000D02*
X694244Y812256D01*
X669750Y778250D02*
Y784250D01*
X670000Y784500D01*
Y809500D01*
X685000Y811000D02*
X687000Y813000D01*
X670000Y809500D02*
X671500Y811000D01*
X687000Y813000D02*
X693500D01*
X671500Y811000D02*
X685000D01*
X693500Y813000D02*
X699500D01*
X703000Y809500D01*
X719000D01*
X720500Y811000D02*
X729500D01*
X731500Y813000D01*
X719000Y809500D02*
X720500Y811000D01*
X739500D02*
X748000D01*
X749500Y809500D01*
X737500Y813000D02*
X739500Y811000D01*
X770776Y809500D02*
X773500Y806776D01*
X749500Y809500D02*
X770776D01*
X773500Y805496D02*
Y806776D01*
X790996Y805496D02*
X794500Y809000D01*
X773500Y805496D02*
X790996D01*
X794500Y809000D02*
X798000D01*
D48*
X875134Y880374D02*
D03*
X926866D02*
D03*
X645634D02*
D03*
X697366D02*
D03*
X856866D02*
D03*
X805134D02*
D03*
X715634D02*
D03*
X767366D02*
D03*
D49*
X914779Y869705D02*
D03*
X887220D02*
D03*
X904937D02*
D03*
X897063D02*
D03*
X685280D02*
D03*
X657721D02*
D03*
X675437D02*
D03*
X667563D02*
D03*
X827063D02*
D03*
X834937D02*
D03*
X817220D02*
D03*
X844779D02*
D03*
X755279D02*
D03*
X727720D02*
D03*
X745437D02*
D03*
X737563D02*
D03*
D50*
X850331Y801500D02*
D03*
D51*
Y781500D02*
D03*
D52*
X899500Y834000D02*
D03*
X896500D02*
D03*
X899500Y831000D02*
D03*
Y828000D02*
D03*
X896500Y831000D02*
D03*
X807500D02*
D03*
X804500D02*
D03*
Y828000D02*
D03*
Y825000D02*
D03*
X736500Y827000D02*
D03*
Y829500D02*
D03*
X735000Y824500D02*
D03*
X732000D02*
D03*
X661500Y819000D02*
D03*
Y821500D02*
D03*
X659500Y817000D02*
D03*
X656500D02*
D03*
X654000Y819000D02*
D03*
Y821500D02*
D03*
X661500Y827500D02*
D03*
X896500Y828000D02*
D03*
X876500D02*
D03*
X859500Y827000D02*
D03*
X819500Y826500D02*
D03*
X717500Y828000D02*
D03*
X700000Y826500D02*
D03*
X841500Y801000D02*
D03*
Y798000D02*
D03*
Y795000D02*
D03*
X838500D02*
D03*
Y798000D02*
D03*
Y801000D02*
D03*
X835500D02*
D03*
Y798000D02*
D03*
Y795000D02*
D03*
X832500D02*
D03*
Y798000D02*
D03*
Y801000D02*
D03*
X683000Y777500D02*
D03*
Y780500D02*
D03*
Y783500D02*
D03*
Y786500D02*
D03*
X732000Y777500D02*
D03*
Y780500D02*
D03*
Y783500D02*
D03*
Y786500D02*
D03*
X763000D02*
D03*
Y783500D02*
D03*
Y780500D02*
D03*
Y777500D02*
D03*
X811000Y786500D02*
D03*
Y783500D02*
D03*
Y780500D02*
D03*
Y777500D02*
D03*
X790000Y896000D02*
D03*
X776500Y896500D02*
D03*
X630000Y896000D02*
D03*
X636000Y897000D02*
D03*
X653500Y840987D02*
D03*
X659000Y851287D02*
D03*
X865500Y893287D02*
D03*
X884500Y851287D02*
D03*
X874000Y838287D02*
D03*
X873986Y851301D02*
D03*
X892703Y842625D02*
D03*
X818500Y851287D02*
D03*
X714500Y838287D02*
D03*
X706000Y893287D02*
D03*
X813000Y840987D02*
D03*
X725000Y851287D02*
D03*
X714486Y851301D02*
D03*
X733203Y842625D02*
D03*
D53*
X783465Y824803D02*
D03*
X631890Y746063D02*
D03*
X935059D02*
D03*
M02*
