M48
;Layer_Color=9474304
;FILE_FORMAT=2:4
INCH,LZ
;TYPE=PLATED
T1F00S00C0.0118
T2F00S00C0.0362
T3F00S00C0.0551
T4F00S00C0.0906
T5F00S00C0.1260
%
T01
X0683Y07775
Y07805
X0732
Y07775
X0763
Y07805
X0811
Y07775
Y07835
Y07865
X08325Y0795
X08355
X08385
X08415
Y0798
Y0801
X08385
Y0798
X08355
Y0801
X08325
Y0798
X08195Y08265
X08075Y0831
X08045
Y0828
Y0825
X0813Y084099
X08185Y085129
X087399Y08513
X08845Y085129
X08927Y084262
X08965Y0834
X08995
Y0831
Y0828
X08965
Y0831
X08765Y0828
X0874Y083829
X08595Y0827
X08655Y089329
X079Y0896
X07765Y08965
X0706Y089329
X071449Y08513
X0725Y085129
X07332Y084262
X07365Y08295
Y0827
X0735Y08245
X0732
X07175Y0828
X07145Y083829
X07Y08265
X06615Y08275
Y08215
Y0819
X06595Y0817
X06565
X0654Y0819
Y08215
X06535Y084099
X0659Y085129
X0636Y0897
X063Y0896
X0683Y07865
Y07835
X0732
Y07865
X0763
Y07835
T02
X081722Y08697
X082706
X083494
X084478
X088722
X089706
X090494
X091478
X075528
X074544
X073756
X072772
X068528
X067544
X066756
X065772
T03
X085033Y07815
Y08015
T04
X080513Y088037
X085687
X087513
X092687
X076737
X071563
X069737
X064563
T05
X063189Y074606
X093506
X078346Y08248
M30
