G04*
G04 #@! TF.GenerationSoftware,Altium Limited,Altium Designer,21.7.2 (23)*
G04*
G04 Layer_Color=8388736*
%FSLAX25Y25*%
%MOIN*%
G70*
G04*
G04 #@! TF.SameCoordinates,38115651-3DBD-42AD-B4A0-95CC447B3A10*
G04*
G04*
G04 #@! TF.FilePolarity,Negative*
G04*
G01*
G75*
%ADD17R,0.03394X0.03994*%
%ADD18R,0.03994X0.03394*%
%ADD19R,0.05906X0.08465*%
%ADD20R,0.07894X0.06394*%
G04:AMPARAMS|DCode=21|XSize=63.94mil|YSize=78.94mil|CornerRadius=0mil|HoleSize=0mil|Usage=FLASHONLY|Rotation=270.000|XOffset=0mil|YOffset=0mil|HoleType=Round|Shape=Octagon|*
%AMOCTAGOND21*
4,1,8,0.03947,0.01598,0.03947,-0.01598,0.02348,-0.03197,-0.02348,-0.03197,-0.03947,-0.01598,-0.03947,0.01598,-0.02348,0.03197,0.02348,0.03197,0.03947,0.01598,0.0*
%
%ADD21OCTAGOND21*%

%ADD22R,0.03994X0.03894*%
G04:AMPARAMS|DCode=23|XSize=39.94mil|YSize=43.94mil|CornerRadius=0mil|HoleSize=0mil|Usage=FLASHONLY|Rotation=270.000|XOffset=0mil|YOffset=0mil|HoleType=Round|Shape=Octagon|*
%AMOCTAGOND23*
4,1,8,0.02197,0.00998,0.02197,-0.00998,0.01198,-0.01997,-0.01198,-0.01997,-0.02197,-0.00998,-0.02197,0.00998,-0.01198,0.01997,0.01198,0.01997,0.02197,0.00998,0.0*
%
%ADD23OCTAGOND23*%

%ADD24R,0.15394X0.08394*%
%ADD25R,0.04894X0.06894*%
%ADD26R,0.10039X0.05906*%
%ADD27R,0.13394X0.08394*%
%ADD28R,0.00394X0.00394*%
%ADD29C,0.13976*%
%ADD30C,0.05984*%
%ADD31R,0.07874X0.07874*%
%ADD32C,0.07874*%
%ADD33C,0.24016*%
G36*
X675246Y762194D02*
X675298Y762194D01*
X675349Y762193D01*
X675405Y762190D01*
X675460Y762187D01*
X675513Y762182D01*
X675564Y762176D01*
X675620Y762169D01*
X675674Y762160D01*
X675725Y762150D01*
X675775Y762138D01*
X675828Y762124D01*
X675878Y762108D01*
X675925Y762090D01*
X675975Y762069D01*
X676021Y762045D01*
X676066Y762018D01*
X676109Y761989D01*
X676153Y761955D01*
X676191Y761922D01*
X676227Y761886D01*
X676263Y761844D01*
X676263Y761844D01*
X676267Y761838D01*
X676275Y761828D01*
X676283Y761817D01*
X676291Y761806D01*
X676295Y761800D01*
X676306Y761783D01*
X676327Y761746D01*
X676345Y761707D01*
X676362Y761669D01*
X676369Y761649D01*
X676369Y761649D01*
X676372Y761641D01*
X676376Y761627D01*
X676380Y761612D01*
X676384Y761597D01*
X676386Y761590D01*
X676397Y761536D01*
X676404Y761480D01*
X676407Y761429D01*
X676407Y761379D01*
X676405Y761328D01*
X676398Y761272D01*
X676388Y761214D01*
X676374Y761166D01*
X676374Y761166D01*
X676372Y761158D01*
X676367Y761144D01*
X676362Y761129D01*
X676357Y761115D01*
X676354Y761107D01*
X676348Y761093D01*
X676335Y761065D01*
X676321Y761037D01*
X676306Y761010D01*
X676298Y760997D01*
X676298D01*
X676293Y760990D01*
X676284Y760977D01*
X676275Y760964D01*
X676266Y760951D01*
X676261Y760945D01*
X676227Y760903D01*
X676191Y760865D01*
X676151Y760828D01*
X676106Y760793D01*
X676060Y760765D01*
X676013Y760740D01*
X675966Y760719D01*
X675916Y760699D01*
X675868Y760683D01*
X675817Y760669D01*
X675764Y760656D01*
X675714Y760646D01*
X675662Y760637D01*
X675608Y760629D01*
X675558Y760623D01*
X675506Y760618D01*
X675453Y760614D01*
X675398Y760611D01*
X675342Y760608D01*
X675291Y760607D01*
X675239Y760607D01*
X672877D01*
Y753921D01*
X671122D01*
Y760607D01*
X670026Y760607D01*
X669973Y760607D01*
X669921Y760609D01*
X669870Y760611D01*
X669813Y760614D01*
X669759Y760618D01*
X669706Y760623D01*
X669654Y760629D01*
X669605Y760636D01*
X669555Y760644D01*
X669502Y760654D01*
X669452Y760666D01*
X669400Y760680D01*
X669350Y760696D01*
X669299Y760714D01*
X669253Y760734D01*
X669207Y760756D01*
X669162Y760783D01*
X669121Y760812D01*
X669083Y760844D01*
X669042Y760884D01*
X669004Y760928D01*
X668974Y760969D01*
X668974D01*
X668969Y760975D01*
X668961Y760989D01*
X668952Y761002D01*
X668944Y761015D01*
X668940Y761022D01*
X668932Y761035D01*
X668919Y761061D01*
X668906Y761089D01*
X668895Y761116D01*
X668890Y761130D01*
X668887Y761138D01*
X668882Y761153D01*
X668878Y761168D01*
X668873Y761184D01*
X668871Y761191D01*
X668859Y761245D01*
X668851Y761297D01*
X668846Y761352D01*
X668845Y761407D01*
X668846Y761457D01*
X668851Y761509D01*
X668859Y761559D01*
X668871Y761609D01*
X668887Y761661D01*
Y761661D01*
X668890Y761668D01*
X668895Y761680D01*
X668900Y761693D01*
X668905Y761705D01*
X668907Y761711D01*
X668917Y761730D01*
X668937Y761767D01*
X668960Y761802D01*
X668984Y761837D01*
X668997Y761853D01*
X669002Y761859D01*
X669012Y761870D01*
X669022Y761882D01*
X669032Y761893D01*
X669038Y761899D01*
X669078Y761937D01*
X669122Y761972D01*
X669166Y762005D01*
X669211Y762033D01*
X669257Y762058D01*
X669305Y762080D01*
X669352Y762099D01*
X669402Y762115D01*
X669455Y762131D01*
X669504Y762143D01*
X669556Y762154D01*
X669610Y762164D01*
X669660Y762171D01*
X669711Y762178D01*
X669764Y762183D01*
X669819Y762187D01*
X669876Y762191D01*
X669927Y762193D01*
X669979Y762194D01*
X670033Y762194D01*
X675246Y762194D01*
D02*
G37*
G36*
X674508Y750779D02*
X672877D01*
X672878Y743188D01*
X671122D01*
X671122Y752323D01*
X674508D01*
Y750779D01*
D02*
G37*
G36*
X687431Y762194D02*
X687484Y762193D01*
X687535Y762191D01*
X687591Y762188D01*
X687646Y762183D01*
X687700Y762178D01*
X687751Y762171D01*
X687801Y762164D01*
X687855Y762154D01*
X687907Y762143D01*
X687956Y762131D01*
X688009Y762116D01*
X688058Y762099D01*
X688105Y762080D01*
X688154Y762058D01*
X688200Y762034D01*
X688243Y762007D01*
X688288Y761974D01*
X688328Y761941D01*
X688368Y761905D01*
X688407Y761863D01*
X688412Y761857D01*
X688420Y761846D01*
X688429Y761835D01*
X688438Y761824D01*
X688442Y761819D01*
X688452Y761803D01*
X688472Y761772D01*
X688490Y761740D01*
X688506Y761707D01*
X688513Y761690D01*
X688516Y761684D01*
X688521Y761670D01*
X688525Y761657D01*
X688530Y761644D01*
X688533Y761637D01*
X688533Y761637D01*
X688548Y761582D01*
X688558Y761528D01*
X688564Y761473D01*
X688567Y761423D01*
X688567Y761372D01*
X688563Y761320D01*
X688556Y761263D01*
X688544Y761203D01*
X688542Y761197D01*
X688539Y761183D01*
X688535Y761170D01*
X688531Y761157D01*
X688529Y761150D01*
X688522Y761130D01*
X688505Y761091D01*
X688487Y761053D01*
X688468Y761015D01*
X688457Y760997D01*
X688453Y760992D01*
X688446Y760981D01*
X688439Y760971D01*
X688432Y760960D01*
X688428Y760955D01*
X688428Y760955D01*
X688393Y760911D01*
X688356Y760871D01*
X688316Y760833D01*
X688275Y760800D01*
X688231Y760771D01*
X688183Y760746D01*
X688137Y760724D01*
X688089Y760705D01*
X688041Y760689D01*
X687991Y760674D01*
X687942Y760662D01*
X687890Y760650D01*
X687841Y760641D01*
X687786Y760633D01*
X687736Y760626D01*
X687684Y760621D01*
X687631Y760616D01*
X687575Y760612D01*
X687525Y760610D01*
X687474Y760608D01*
X687421Y760607D01*
X686290Y760607D01*
Y741594D01*
X688274D01*
X688328Y741594D01*
X688378Y741593D01*
X688435Y741590D01*
X688490Y741587D01*
X688543Y741582D01*
X688594Y741577D01*
X688644Y741570D01*
X688699Y741562D01*
X688751Y741552D01*
X688801Y741541D01*
X688854Y741527D01*
X688905Y741511D01*
X688953Y741494D01*
X689003Y741472D01*
X689048Y741450D01*
X689094Y741424D01*
X689137Y741396D01*
X689179Y741363D01*
X689222Y741327D01*
X689264Y741286D01*
X689269Y741280D01*
X689278Y741270D01*
X689287Y741259D01*
X689296Y741249D01*
X689300Y741244D01*
X689304Y741238D01*
X689312Y741228D01*
X689320Y741217D01*
X689328Y741206D01*
X689332Y741200D01*
X689340Y741187D01*
X689357Y741161D01*
X689371Y741133D01*
X689385Y741105D01*
X689391Y741090D01*
X689393Y741084D01*
X689398Y741070D01*
X689403Y741057D01*
X689408Y741044D01*
X689410Y741037D01*
Y741037D01*
X689425Y740982D01*
X689435Y740928D01*
X689442Y740873D01*
X689444Y740823D01*
X689444Y740770D01*
X689440Y740713D01*
X689431Y740653D01*
X689429Y740646D01*
X689426Y740632D01*
X689423Y740618D01*
X689419Y740604D01*
X689418Y740597D01*
X689416Y740591D01*
X689411Y740577D01*
X689407Y740564D01*
X689402Y740550D01*
X689400Y740544D01*
X689396Y740534D01*
X689388Y740514D01*
X689379Y740494D01*
X689370Y740475D01*
X689365Y740465D01*
X689361Y740459D01*
X689355Y740448D01*
X689348Y740436D01*
X689341Y740424D01*
X689338Y740419D01*
X689338Y740419D01*
X689304Y740371D01*
X689271Y740329D01*
X689234Y740290D01*
X689194Y740251D01*
X689152Y740217D01*
X689108Y740186D01*
X689062Y740158D01*
X689014Y740134D01*
X688965Y740113D01*
X688918Y740095D01*
X688868Y740079D01*
X688815Y740064D01*
X688766Y740053D01*
X688714Y740042D01*
X688661Y740033D01*
X688605Y740026D01*
X688554Y740020D01*
X688501Y740015D01*
X688447Y740011D01*
X688390Y740009D01*
X688340Y740007D01*
X688288Y740007D01*
X682174Y740007D01*
X682121Y740007D01*
X682070Y740008D01*
X682014Y740011D01*
X681959Y740014D01*
X681906Y740019D01*
X681854Y740024D01*
X681804Y740031D01*
X681750Y740039D01*
X681698Y740049D01*
X681648Y740061D01*
X681595Y740075D01*
X681544Y740090D01*
X681496Y740108D01*
X681446Y740129D01*
X681400Y740151D01*
X681354Y740177D01*
X681312Y740205D01*
X681270Y740238D01*
X681230Y740274D01*
X681195Y740310D01*
X681157Y740354D01*
X681121Y740403D01*
X681117Y740410D01*
X681109Y740423D01*
X681101Y740436D01*
X681093Y740449D01*
X681089Y740456D01*
X681089Y740456D01*
X681081Y740472D01*
X681065Y740504D01*
X681051Y740537D01*
X681039Y740571D01*
X681034Y740588D01*
X681032Y740595D01*
X681028Y740610D01*
X681024Y740625D01*
X681021Y740640D01*
X681019Y740648D01*
X681010Y740700D01*
X681005Y740751D01*
X681005Y740758D01*
X681005Y740772D01*
X681004Y740786D01*
X681004Y740800D01*
X681004Y740807D01*
Y740807D01*
X681006Y740857D01*
X681010Y740908D01*
X681018Y740962D01*
X681030Y741016D01*
X681046Y741070D01*
X681049Y741076D01*
X681053Y741089D01*
X681058Y741101D01*
X681063Y741114D01*
X681066Y741120D01*
X681074Y741137D01*
X681091Y741170D01*
X681110Y741202D01*
X681131Y741234D01*
X681141Y741249D01*
X681141D01*
X681146Y741255D01*
X681156Y741267D01*
X681166Y741279D01*
X681176Y741291D01*
X681180Y741297D01*
Y741297D01*
X681216Y741333D01*
X681254Y741367D01*
X681296Y741399D01*
X681340Y741428D01*
X681387Y741454D01*
X681435Y741476D01*
X681481Y741495D01*
X681531Y741512D01*
X681582Y741528D01*
X681631Y741540D01*
X681683Y741552D01*
X681736Y741562D01*
X681792Y741570D01*
X681843Y741577D01*
X681896Y741582D01*
X681951Y741587D01*
X682007Y741590D01*
X682058Y741593D01*
X682110Y741594D01*
X682164Y741594D01*
X684514Y741594D01*
Y750779D01*
X676122D01*
Y752366D01*
X684514D01*
Y760607D01*
X682614D01*
Y762194D01*
X687376D01*
X687431Y762194D01*
D02*
G37*
G36*
X675246Y741594D02*
X675298Y741594D01*
X675349Y741593D01*
X675405Y741590D01*
X675460Y741586D01*
X675513Y741582D01*
X675564Y741576D01*
X675620Y741569D01*
X675674Y741560D01*
X675725Y741549D01*
X675775Y741538D01*
X675828Y741524D01*
X675878Y741507D01*
X675925Y741490D01*
X675975Y741468D01*
X676021Y741445D01*
X676066Y741418D01*
X676109Y741389D01*
X676153Y741355D01*
X676191Y741321D01*
X676227Y741286D01*
X676263Y741244D01*
X676263Y741244D01*
X676267Y741238D01*
X676275Y741228D01*
X676283Y741217D01*
X676291Y741206D01*
X676295Y741200D01*
X676305Y741186D01*
X676323Y741155D01*
X676339Y741123D01*
X676354Y741091D01*
X676360Y741074D01*
X676363Y741067D01*
X676368Y741053D01*
X676372Y741038D01*
X676377Y741024D01*
X676379Y741017D01*
X676392Y740966D01*
X676401Y740914D01*
X676406Y740861D01*
X676408Y740810D01*
X676406Y740755D01*
X676402Y740704D01*
X676394Y740653D01*
X676381Y740597D01*
X676381D01*
X676379Y740591D01*
X676374Y740577D01*
X676370Y740564D01*
X676365Y740550D01*
X676363Y740544D01*
X676358Y740531D01*
X676348Y740506D01*
X676336Y740482D01*
X676324Y740458D01*
X676318Y740446D01*
X676314Y740440D01*
X676306Y740428D01*
X676299Y740415D01*
X676291Y740403D01*
X676287Y740397D01*
X676256Y740356D01*
X676223Y740317D01*
X676187Y740280D01*
X676147Y740243D01*
X676105Y740209D01*
X676061Y740180D01*
X676015Y740153D01*
X675969Y740130D01*
X675919Y740109D01*
X675871Y740092D01*
X675821Y740076D01*
X675768Y740062D01*
X675718Y740050D01*
X675666Y740040D01*
X675612Y740031D01*
X675562Y740025D01*
X675511Y740019D01*
X675457Y740015D01*
X675403Y740011D01*
X675347Y740009D01*
X675296Y740007D01*
X675244Y740007D01*
X669113Y740007D01*
X669062Y740008D01*
X669012Y740009D01*
X668956Y740012D01*
X668902Y740016D01*
X668849Y740021D01*
X668798Y740027D01*
X668743Y740034D01*
X668690Y740044D01*
X668639Y740054D01*
X668589Y740066D01*
X668537Y740081D01*
X668488Y740097D01*
X668441Y740115D01*
X668392Y740137D01*
X668345Y740161D01*
X668299Y740189D01*
X668255Y740220D01*
X668214Y740255D01*
X668174Y740294D01*
X668137Y740333D01*
X668103Y740376D01*
X668070Y740426D01*
Y740426D01*
X668066Y740432D01*
X668058Y740445D01*
X668051Y740459D01*
X668044Y740472D01*
X668040Y740479D01*
X668034Y740492D01*
X668021Y740519D01*
X668011Y740546D01*
X668001Y740574D01*
X667997Y740588D01*
X667995Y740595D01*
X667991Y740610D01*
X667987Y740625D01*
X667984Y740640D01*
X667982Y740648D01*
X667974Y740700D01*
X667969Y740751D01*
X667967Y740807D01*
X667969Y740857D01*
X667974Y740909D01*
X667982Y740959D01*
X667993Y741009D01*
X668010Y741061D01*
X668010Y741061D01*
X668012Y741068D01*
X668017Y741080D01*
X668022Y741092D01*
X668027Y741105D01*
X668030Y741111D01*
X668039Y741128D01*
X668057Y741163D01*
X668078Y741196D01*
X668099Y741228D01*
X668111Y741243D01*
X668111D01*
X668116Y741249D01*
X668125Y741259D01*
X668134Y741270D01*
X668143Y741280D01*
X668148Y741286D01*
X668190Y741327D01*
X668233Y741363D01*
X668275Y741396D01*
X668318Y741424D01*
X668364Y741451D01*
X668411Y741473D01*
X668461Y741494D01*
X668509Y741511D01*
X668560Y741527D01*
X668613Y741541D01*
X668663Y741552D01*
X668715Y741562D01*
X668769Y741571D01*
X668819Y741577D01*
X668871Y741583D01*
X668924Y741587D01*
X668979Y741590D01*
X669036Y741593D01*
X669086Y741594D01*
X669137Y741594D01*
X675246Y741594D01*
D02*
G37*
D17*
X712000Y777500D02*
D03*
X718000D02*
D03*
X790500Y777000D02*
D03*
X796500D02*
D03*
X742000Y777500D02*
D03*
X748000D02*
D03*
X727000Y827787D02*
D03*
X733000D02*
D03*
X815500Y826500D02*
D03*
X809500D02*
D03*
X886500Y827787D02*
D03*
X892500D02*
D03*
X662500Y777000D02*
D03*
X668500D02*
D03*
X731500Y813000D02*
D03*
X737500D02*
D03*
D18*
X728000Y771500D02*
D03*
Y777500D02*
D03*
X750500Y831287D02*
D03*
Y837287D02*
D03*
X624000Y888650D02*
D03*
Y894650D02*
D03*
X830000Y826500D02*
D03*
Y820500D02*
D03*
X824500Y826500D02*
D03*
Y820500D02*
D03*
X807000Y771500D02*
D03*
Y777500D02*
D03*
X758500Y771500D02*
D03*
Y777500D02*
D03*
X681000Y826787D02*
D03*
Y832787D02*
D03*
X776500Y906500D02*
D03*
Y900500D02*
D03*
X744000Y861787D02*
D03*
Y855787D02*
D03*
X738000Y861787D02*
D03*
Y855787D02*
D03*
X714486Y847802D02*
D03*
Y841802D02*
D03*
X708486D02*
D03*
Y847802D02*
D03*
X936000Y906500D02*
D03*
Y900500D02*
D03*
X903500Y861787D02*
D03*
Y855787D02*
D03*
X897500Y861787D02*
D03*
Y855787D02*
D03*
X873986Y847802D02*
D03*
Y841802D02*
D03*
X910000Y831287D02*
D03*
Y837287D02*
D03*
X636000Y906500D02*
D03*
Y900500D02*
D03*
X657500Y827000D02*
D03*
Y821000D02*
D03*
X675000Y861287D02*
D03*
Y855287D02*
D03*
X668660Y861255D02*
D03*
Y855255D02*
D03*
X867986Y841802D02*
D03*
Y847802D02*
D03*
X840500Y826787D02*
D03*
Y832787D02*
D03*
X795500Y906500D02*
D03*
Y900500D02*
D03*
X834500Y861287D02*
D03*
Y855287D02*
D03*
X828160Y861255D02*
D03*
Y855255D02*
D03*
X678500Y771000D02*
D03*
Y777000D02*
D03*
X693500Y819000D02*
D03*
Y813000D02*
D03*
X699500Y819000D02*
D03*
Y813000D02*
D03*
X822000Y807000D02*
D03*
Y813000D02*
D03*
X948500Y894000D02*
D03*
Y888000D02*
D03*
D19*
X822500Y785504D02*
D03*
Y798496D02*
D03*
X773500Y792504D02*
D03*
Y805496D02*
D03*
X694500Y791008D02*
D03*
Y804000D02*
D03*
D20*
X761500Y833500D02*
D03*
X625500Y879500D02*
D03*
D21*
X761500Y818500D02*
D03*
X625500Y864500D02*
D03*
D22*
X624000Y900650D02*
D03*
X782500Y906500D02*
D03*
X942000D02*
D03*
X630000D02*
D03*
X789500D02*
D03*
X948500Y900500D02*
D03*
D23*
X624000Y906650D02*
D03*
X782500Y900500D02*
D03*
X942000D02*
D03*
X630000D02*
D03*
X789500D02*
D03*
X948500Y906500D02*
D03*
D24*
X798000Y809000D02*
D03*
X749500Y809500D02*
D03*
X719000D02*
D03*
X670000D02*
D03*
D25*
X798000Y784000D02*
D03*
X807000D02*
D03*
X789000D02*
D03*
X749500Y784500D02*
D03*
X758500D02*
D03*
X740500D02*
D03*
X719000D02*
D03*
X728000D02*
D03*
X710000D02*
D03*
X670000D02*
D03*
X679000D02*
D03*
X661000D02*
D03*
D26*
X697768Y847787D02*
D03*
X681232D02*
D03*
X769268Y852287D02*
D03*
X752732D02*
D03*
X928768D02*
D03*
X912232D02*
D03*
X857268Y847787D02*
D03*
X840732D02*
D03*
D27*
X727500Y836787D02*
D03*
Y859287D02*
D03*
X887000Y836787D02*
D03*
Y859287D02*
D03*
X657500Y836287D02*
D03*
Y858787D02*
D03*
X817000Y836287D02*
D03*
Y858787D02*
D03*
D28*
X671488Y740961D02*
D03*
X672000Y751000D02*
D03*
X685386Y761394D02*
D03*
X672000Y761214D02*
D03*
D29*
X875134Y880374D02*
D03*
X926866D02*
D03*
X645634D02*
D03*
X697366D02*
D03*
X856866D02*
D03*
X805134D02*
D03*
X715634D02*
D03*
X767366D02*
D03*
D30*
X914779Y869705D02*
D03*
X887220D02*
D03*
X904937D02*
D03*
X897063D02*
D03*
X685280D02*
D03*
X657721D02*
D03*
X675437D02*
D03*
X667563D02*
D03*
X827063D02*
D03*
X834937D02*
D03*
X817220D02*
D03*
X844779D02*
D03*
X755279D02*
D03*
X727720D02*
D03*
X745437D02*
D03*
X737563D02*
D03*
D31*
X850331Y801500D02*
D03*
D32*
Y781500D02*
D03*
D33*
X783465Y824803D02*
D03*
X631890Y746063D02*
D03*
X935059D02*
D03*
M02*
