G04*
G04 #@! TF.GenerationSoftware,Altium Limited,Altium Designer,21.7.2 (23)*
G04*
G04 Layer_Color=32896*
%FSLAX25Y25*%
%MOIN*%
G70*
G04*
G04 #@! TF.SameCoordinates,38115651-3DBD-42AD-B4A0-95CC447B3A10*
G04*
G04*
G04 #@! TF.FilePolarity,Positive*
G04*
G01*
G75*
%ADD10C,0.00787*%
%ADD14C,0.00600*%
%ADD58C,0.00984*%
D10*
X903500Y879787D02*
Y884787D01*
Y879787D02*
X906500D01*
X903500Y884787D02*
X906500D01*
X911500Y879787D02*
X914500D01*
X911500Y884787D02*
X914500D01*
Y879787D02*
Y884787D01*
X897500D02*
X902500D01*
X897500Y881787D02*
Y884787D01*
X902500Y881787D02*
Y884787D01*
X897500Y873787D02*
Y876787D01*
X902500Y873787D02*
Y876787D01*
X897500Y873787D02*
X902500D01*
X903500D02*
Y878787D01*
Y873787D02*
X906500D01*
X903500Y878787D02*
X906500D01*
X911500Y873787D02*
X914500D01*
X911500Y878787D02*
X914500D01*
Y873787D02*
Y878787D01*
X829000Y873287D02*
Y878287D01*
X826000D02*
X829000D01*
X826000Y873287D02*
X829000D01*
X818000Y878287D02*
X821000D01*
X818000Y873287D02*
X821000D01*
X818000D02*
Y878287D01*
X829000Y879287D02*
Y884287D01*
X826000D02*
X829000D01*
X826000Y879287D02*
X829000D01*
X818000Y884287D02*
X821000D01*
X818000Y879287D02*
X821000D01*
X818000D02*
Y884287D01*
X830000Y873287D02*
X835000D01*
Y876287D01*
X830000Y873287D02*
Y876287D01*
X835000Y881287D02*
Y884287D01*
X830000Y881287D02*
Y884287D01*
X835000D01*
X744000Y879787D02*
Y884787D01*
Y879787D02*
X747000D01*
X744000Y884787D02*
X747000D01*
X752000Y879787D02*
X755000D01*
X752000Y884787D02*
X755000D01*
Y879787D02*
Y884787D01*
X738000D02*
X743000D01*
X738000Y881787D02*
Y884787D01*
X743000Y881787D02*
Y884787D01*
X738000Y873787D02*
Y876787D01*
X743000Y873787D02*
Y876787D01*
X738000Y873787D02*
X743000D01*
X744000D02*
Y878787D01*
Y873787D02*
X747000D01*
X744000Y878787D02*
X747000D01*
X752000Y873787D02*
X755000D01*
X752000Y878787D02*
X755000D01*
Y873787D02*
Y878787D01*
X670500Y873287D02*
X675500D01*
Y876287D01*
X670500Y873287D02*
Y876287D01*
X675500Y881287D02*
Y884287D01*
X670500Y881287D02*
Y884287D01*
X675500D01*
X669500Y879287D02*
Y884287D01*
X666500D02*
X669500D01*
X666500Y879287D02*
X669500D01*
X658500Y884287D02*
X661500D01*
X658500Y879287D02*
X661500D01*
X658500D02*
Y884287D01*
X669500Y873287D02*
Y878287D01*
X666500D02*
X669500D01*
X666500Y873287D02*
X669500D01*
X658500Y878287D02*
X661500D01*
X658500Y873287D02*
X661500D01*
X658500D02*
Y878287D01*
X735500Y849287D02*
X738500D01*
Y854287D01*
X735500D02*
X738500D01*
X727500D02*
X730500D01*
X727500Y849287D02*
Y854287D01*
Y849287D02*
X730500D01*
X735500Y843287D02*
X738500D01*
Y848287D01*
X735500D02*
X738500D01*
X727500D02*
X730500D01*
X727500Y843287D02*
Y848287D01*
Y843287D02*
X730500D01*
X718000Y853787D02*
X723000D01*
X718000Y850787D02*
Y853787D01*
X723000Y850787D02*
Y853787D01*
X718000Y842787D02*
Y845787D01*
X723000Y842787D02*
Y845787D01*
X718000Y842787D02*
X723000D01*
X700610Y838161D02*
Y849972D01*
X704153Y838161D02*
Y849972D01*
X700610Y838161D02*
X704153D01*
X700610Y849972D02*
X704153D01*
X697000Y856787D02*
X700000D01*
X697000Y851787D02*
Y856787D01*
Y851787D02*
X700000D01*
X705000D02*
X708000D01*
Y856787D01*
X705000D02*
X708000D01*
X807000Y847287D02*
X810000D01*
X807000Y842287D02*
Y847287D01*
Y842287D02*
X810000D01*
X815000D02*
X818000D01*
Y847287D01*
X815000D02*
X818000D01*
X807000Y853287D02*
X810000D01*
X807000Y848287D02*
Y853287D01*
Y848287D02*
X810000D01*
X815000D02*
X818000D01*
Y853287D01*
X815000D02*
X818000D01*
X860110Y838161D02*
Y849972D01*
X863653Y838161D02*
Y849972D01*
X860110Y838161D02*
X863653D01*
X860110Y849972D02*
X863653D01*
X877500Y853787D02*
X882500D01*
X877500Y850787D02*
Y853787D01*
X882500Y850787D02*
Y853787D01*
X877500Y842787D02*
Y845787D01*
X882500Y842787D02*
Y845787D01*
X877500Y842787D02*
X882500D01*
X819000Y845287D02*
Y850287D01*
Y845287D02*
X822000D01*
X819000Y850287D02*
X822000D01*
X827000Y845287D02*
X830000D01*
X827000Y850287D02*
X830000D01*
Y845287D02*
Y850287D01*
X848500Y837787D02*
X853500D01*
Y840787D01*
X848500Y837787D02*
Y840787D01*
X853500Y845787D02*
Y848787D01*
X848500Y845787D02*
Y848787D01*
X853500D01*
X842500Y837787D02*
Y840787D01*
Y837787D02*
X847500D01*
Y840787D01*
Y845787D02*
Y848787D01*
X842500D02*
X847500D01*
X842500Y845787D02*
Y848787D01*
X868000Y831787D02*
Y836787D01*
X865000D02*
X868000D01*
X865000Y831787D02*
X868000D01*
X857000Y836787D02*
X860000D01*
X857000Y831787D02*
X860000D01*
X857000D02*
Y836787D01*
X875500Y825287D02*
Y830287D01*
X872500D02*
X875500D01*
X872500Y825287D02*
X875500D01*
X864500Y830287D02*
X867500D01*
X864500Y825287D02*
X867500D01*
X864500D02*
Y830287D01*
X845000Y825287D02*
Y830287D01*
Y825287D02*
X848000D01*
X845000Y830287D02*
X848000D01*
X853000Y825287D02*
X856000D01*
X853000Y830287D02*
X856000D01*
Y825287D02*
Y830287D01*
X845000Y831287D02*
Y836287D01*
Y831287D02*
X848000D01*
X845000Y836287D02*
X848000D01*
X853000Y831287D02*
X856000D01*
X853000Y836287D02*
X856000D01*
Y831287D02*
Y836287D01*
X895000Y843287D02*
X898000D01*
Y848287D01*
X895000D02*
X898000D01*
X887000D02*
X890000D01*
X887000Y843287D02*
Y848287D01*
Y843287D02*
X890000D01*
X895000Y849287D02*
X898000D01*
Y854287D01*
X895000D02*
X898000D01*
X887000D02*
X890000D01*
X887000Y849287D02*
Y854287D01*
Y849287D02*
X890000D01*
X856500Y856787D02*
X859500D01*
X856500Y851787D02*
Y856787D01*
Y851787D02*
X859500D01*
X864500D02*
X867500D01*
Y856787D01*
X864500D02*
X867500D01*
X685500Y831287D02*
Y836287D01*
Y831287D02*
X688500D01*
X685500Y836287D02*
X688500D01*
X693500Y831287D02*
X696500D01*
X693500Y836287D02*
X696500D01*
Y831287D02*
Y836287D01*
X708500Y831787D02*
Y836787D01*
X705500D02*
X708500D01*
X705500Y831787D02*
X708500D01*
X697500Y836787D02*
X700500D01*
X697500Y831787D02*
X700500D01*
X697500D02*
Y836787D01*
X689000Y837787D02*
X694000D01*
Y840787D01*
X689000Y837787D02*
Y840787D01*
X694000Y845787D02*
Y848787D01*
X689000Y845787D02*
Y848787D01*
X694000D01*
X683000Y837787D02*
Y840787D01*
Y837787D02*
X688000D01*
Y840787D01*
Y845787D02*
Y848787D01*
X683000D02*
X688000D01*
X683000Y845787D02*
Y848787D01*
X716000Y825287D02*
Y830287D01*
X713000D02*
X716000D01*
X713000Y825287D02*
X716000D01*
X705000Y830287D02*
X708000D01*
X705000Y825287D02*
X708000D01*
X705000D02*
Y830287D01*
X685500Y825287D02*
Y830287D01*
Y825287D02*
X688500D01*
X685500Y830287D02*
X688500D01*
X693500Y825287D02*
X696500D01*
X693500Y830287D02*
X696500D01*
Y825287D02*
Y830287D01*
X659500Y845287D02*
Y850287D01*
Y845287D02*
X662500D01*
X659500Y850287D02*
X662500D01*
X667500Y845287D02*
X670500D01*
X667500Y850287D02*
X670500D01*
Y845287D02*
Y850287D01*
X647500Y847287D02*
X650500D01*
X647500Y842287D02*
Y847287D01*
Y842287D02*
X650500D01*
X655500D02*
X658500D01*
Y847287D01*
X655500D02*
X658500D01*
X647500Y853287D02*
X650500D01*
X647500Y848287D02*
Y853287D01*
Y848287D02*
X650500D01*
X655500D02*
X658500D01*
Y853287D01*
X655500D02*
X658500D01*
D14*
X668265Y885900D02*
Y889100D01*
X666666D01*
X666133Y888566D01*
Y887500D01*
X666666Y886967D01*
X668265D01*
X667199D02*
X666133Y885900D01*
X665066Y888566D02*
X664533Y889100D01*
X663467D01*
X662934Y888566D01*
Y888033D01*
X663467Y887500D01*
X664000D01*
X663467D01*
X662934Y886967D01*
Y886434D01*
X663467Y885900D01*
X664533D01*
X665066Y886434D01*
X660268Y885900D02*
Y889100D01*
X661867Y887500D01*
X659735D01*
X826765Y885900D02*
Y889100D01*
X825166D01*
X824633Y888566D01*
Y887500D01*
X825166Y886967D01*
X826765D01*
X825699D02*
X824633Y885900D01*
X823566Y888566D02*
X823033Y889100D01*
X821967D01*
X821434Y888566D01*
Y888033D01*
X821967Y887500D01*
X822500D01*
X821967D01*
X821434Y886967D01*
Y886434D01*
X821967Y885900D01*
X823033D01*
X823566Y886434D01*
X818235Y885900D02*
X820367D01*
X818235Y888033D01*
Y888566D01*
X818768Y889100D01*
X819834D01*
X820367Y888566D01*
X680099Y883765D02*
X676900D01*
Y882166D01*
X677434Y881633D01*
X678500D01*
X679033Y882166D01*
Y883765D01*
Y882699D02*
X680099Y881633D01*
X677434Y880566D02*
X676900Y880033D01*
Y878967D01*
X677434Y878434D01*
X677967D01*
X678500Y878967D01*
Y879500D01*
Y878967D01*
X679033Y878434D01*
X679566D01*
X680099Y878967D01*
Y880033D01*
X679566Y880566D01*
X677434Y877367D02*
X676900Y876834D01*
Y875768D01*
X677434Y875235D01*
X677967D01*
X678500Y875768D01*
Y876301D01*
Y875768D01*
X679033Y875235D01*
X679566D01*
X680099Y875768D01*
Y876834D01*
X679566Y877367D01*
X839600Y882732D02*
X836401D01*
Y881133D01*
X836934Y880599D01*
X838000D01*
X838533Y881133D01*
Y882732D01*
Y881666D02*
X839600Y880599D01*
X836934Y879533D02*
X836401Y879000D01*
Y877934D01*
X836934Y877400D01*
X837467D01*
X838000Y877934D01*
Y878467D01*
Y877934D01*
X838533Y877400D01*
X839066D01*
X839600Y877934D01*
Y879000D01*
X839066Y879533D01*
X839600Y876334D02*
Y875268D01*
Y875801D01*
X836401D01*
X836934Y876334D01*
X657099Y883765D02*
X653900D01*
Y882166D01*
X654434Y881633D01*
X655500D01*
X656033Y882166D01*
Y883765D01*
Y882699D02*
X657099Y881633D01*
X654434Y880566D02*
X653900Y880033D01*
Y878967D01*
X654434Y878434D01*
X654967D01*
X655500Y878967D01*
Y879500D01*
Y878967D01*
X656033Y878434D01*
X656566D01*
X657099Y878967D01*
Y880033D01*
X656566Y880566D01*
X654434Y877367D02*
X653900Y876834D01*
Y875768D01*
X654434Y875235D01*
X654967D01*
X655500Y875768D01*
X656033Y875235D01*
X656566D01*
X657099Y875768D01*
Y876834D01*
X656566Y877367D01*
X656033D01*
X655500Y876834D01*
X654967Y877367D01*
X654434D01*
X655500Y876834D02*
Y875768D01*
X816599Y881765D02*
X813400D01*
Y880166D01*
X813934Y879633D01*
X815000D01*
X815533Y880166D01*
Y881765D01*
Y880699D02*
X816599Y879633D01*
X813934Y878566D02*
X813400Y878033D01*
Y876967D01*
X813934Y876434D01*
X814467D01*
X815000Y876967D01*
Y877500D01*
Y876967D01*
X815533Y876434D01*
X816066D01*
X816599Y876967D01*
Y878033D01*
X816066Y878566D01*
X813400Y875367D02*
Y873235D01*
X813934D01*
X816066Y875367D01*
X816599D01*
X759599Y884265D02*
X756400D01*
Y882666D01*
X756934Y882133D01*
X758000D01*
X758533Y882666D01*
Y884265D01*
Y883199D02*
X759599Y882133D01*
X756934Y881066D02*
X756400Y880533D01*
Y879467D01*
X756934Y878934D01*
X757467D01*
X758000Y879467D01*
Y880000D01*
Y879467D01*
X758533Y878934D01*
X759066D01*
X759599Y879467D01*
Y880533D01*
X759066Y881066D01*
X756400Y875735D02*
X756934Y876801D01*
X758000Y877867D01*
X759066D01*
X759599Y877334D01*
Y876268D01*
X759066Y875735D01*
X758533D01*
X758000Y876268D01*
Y877867D01*
X919100Y883265D02*
X915901D01*
Y881666D01*
X916434Y881133D01*
X917500D01*
X918033Y881666D01*
Y883265D01*
Y882199D02*
X919100Y881133D01*
X916434Y880066D02*
X915901Y879533D01*
Y878467D01*
X916434Y877934D01*
X916967D01*
X917500Y878467D01*
Y879000D01*
Y878467D01*
X918033Y877934D01*
X918566D01*
X919100Y878467D01*
Y879533D01*
X918566Y880066D01*
X915901Y874735D02*
Y876867D01*
X917500D01*
X916967Y875801D01*
Y875268D01*
X917500Y874735D01*
X918566D01*
X919100Y875268D01*
Y876334D01*
X918566Y876867D01*
X736599Y883765D02*
X733400D01*
Y882166D01*
X733934Y881633D01*
X735000D01*
X735533Y882166D01*
Y883765D01*
Y882699D02*
X736599Y881633D01*
X733934Y880566D02*
X733400Y880033D01*
Y878967D01*
X733934Y878434D01*
X734467D01*
X735000Y878967D01*
Y879500D01*
Y878967D01*
X735533Y878434D01*
X736066D01*
X736599Y878967D01*
Y880033D01*
X736066Y880566D01*
X733934Y877367D02*
X733400Y876834D01*
Y875768D01*
X733934Y875235D01*
X736066D01*
X736599Y875768D01*
Y876834D01*
X736066Y877367D01*
X733934D01*
X896099Y883765D02*
X892900D01*
Y882166D01*
X893434Y881633D01*
X894500D01*
X895033Y882166D01*
Y883765D01*
Y882699D02*
X896099Y881633D01*
Y878434D02*
Y880566D01*
X893967Y878434D01*
X893434D01*
X892900Y878967D01*
Y880033D01*
X893434Y880566D01*
Y877367D02*
X892900Y876834D01*
Y875768D01*
X893434Y875235D01*
X893967D01*
X894500Y875768D01*
X895033Y875235D01*
X895566D01*
X896099Y875768D01*
Y876834D01*
X895566Y877367D01*
X895033D01*
X894500Y876834D01*
X893967Y877367D01*
X893434D01*
X894500Y876834D02*
Y875768D01*
X753765Y886401D02*
Y889600D01*
X752166D01*
X751633Y889066D01*
Y888000D01*
X752166Y887467D01*
X753765D01*
X752699D02*
X751633Y886401D01*
X748434D02*
X750566D01*
X748434Y888533D01*
Y889066D01*
X748967Y889600D01*
X750033D01*
X750566Y889066D01*
X747367Y886934D02*
X746834Y886401D01*
X745768D01*
X745235Y886934D01*
Y889066D01*
X745768Y889600D01*
X746834D01*
X747367Y889066D01*
Y888533D01*
X746834Y888000D01*
X745235D01*
X913765Y885900D02*
Y889100D01*
X912166D01*
X911633Y888566D01*
Y887500D01*
X912166Y886967D01*
X913765D01*
X912699D02*
X911633Y885900D01*
X908434D02*
X910566D01*
X908434Y888033D01*
Y888566D01*
X908967Y889100D01*
X910033D01*
X910566Y888566D01*
X907367Y889100D02*
X905235D01*
Y888566D01*
X907367Y886434D01*
Y885900D01*
X693099Y859265D02*
X689900D01*
Y857666D01*
X690434Y857133D01*
X691500D01*
X692033Y857666D01*
Y859265D01*
Y858199D02*
X693099Y857133D01*
Y854467D02*
X689900D01*
X691500Y856066D01*
Y853934D01*
X690434Y852867D02*
X689900Y852334D01*
Y851268D01*
X690434Y850735D01*
X692566D01*
X693099Y851268D01*
Y852334D01*
X692566Y852867D01*
X690434D01*
X852600Y859265D02*
X849401D01*
Y857666D01*
X849934Y857133D01*
X851000D01*
X851533Y857666D01*
Y859265D01*
Y858199D02*
X852600Y857133D01*
X849934Y856066D02*
X849401Y855533D01*
Y854467D01*
X849934Y853934D01*
X850467D01*
X851000Y854467D01*
Y855000D01*
Y854467D01*
X851533Y853934D01*
X852066D01*
X852600Y854467D01*
Y855533D01*
X852066Y856066D01*
Y852867D02*
X852600Y852334D01*
Y851268D01*
X852066Y850735D01*
X849934D01*
X849401Y851268D01*
Y852334D01*
X849934Y852867D01*
X850467D01*
X851000Y852334D01*
Y850735D01*
X694765Y820688D02*
Y823887D01*
X693166D01*
X692633Y823354D01*
Y822287D01*
X693166Y821754D01*
X694765D01*
X693699D02*
X692633Y820688D01*
X689967D02*
Y823887D01*
X691566Y822287D01*
X689434D01*
X688367Y823354D02*
X687834Y823887D01*
X686768D01*
X686235Y823354D01*
Y822821D01*
X686768Y822287D01*
X686235Y821754D01*
Y821221D01*
X686768Y820688D01*
X687834D01*
X688367Y821221D01*
Y821754D01*
X687834Y822287D01*
X688367Y822821D01*
Y823354D01*
X687834Y822287D02*
X686768D01*
X854265Y820688D02*
Y823887D01*
X852666D01*
X852133Y823354D01*
Y822287D01*
X852666Y821754D01*
X854265D01*
X853199D02*
X852133Y820688D01*
X849467D02*
Y823887D01*
X851066Y822287D01*
X848934D01*
X845735Y823887D02*
X846801Y823354D01*
X847867Y822287D01*
Y821221D01*
X847334Y820688D01*
X846268D01*
X845735Y821221D01*
Y821754D01*
X846268Y822287D01*
X847867D01*
X683765Y832401D02*
Y835600D01*
X682166D01*
X681633Y835066D01*
Y834000D01*
X682166Y833467D01*
X683765D01*
X682699D02*
X681633Y832401D01*
X678967D02*
Y835600D01*
X680566Y834000D01*
X678434D01*
X675768Y832401D02*
Y835600D01*
X677367Y834000D01*
X675235D01*
X843265Y831901D02*
Y835100D01*
X841666D01*
X841133Y834566D01*
Y833500D01*
X841666Y832967D01*
X843265D01*
X842199D02*
X841133Y831901D01*
X838467D02*
Y835100D01*
X840066Y833500D01*
X837934D01*
X836867Y834566D02*
X836334Y835100D01*
X835268D01*
X834735Y834566D01*
Y834033D01*
X835268Y833500D01*
X835801D01*
X835268D01*
X834735Y832967D01*
Y832434D01*
X835268Y831901D01*
X836334D01*
X836867Y832434D01*
X714265Y820688D02*
Y823887D01*
X712666D01*
X712133Y823354D01*
Y822287D01*
X712666Y821754D01*
X714265D01*
X713199D02*
X712133Y820688D01*
X709467D02*
Y823887D01*
X711066Y822287D01*
X708934D01*
X707867Y823887D02*
X705735D01*
Y823354D01*
X707867Y821221D01*
Y820688D01*
X873765D02*
Y823887D01*
X872166D01*
X871633Y823354D01*
Y822287D01*
X872166Y821754D01*
X873765D01*
X872699D02*
X871633Y820688D01*
X868967D02*
Y823887D01*
X870566Y822287D01*
X868434D01*
X865235Y823887D02*
X867367D01*
Y822287D01*
X866301Y822821D01*
X865768D01*
X865235Y822287D01*
Y821221D01*
X865768Y820688D01*
X866834D01*
X867367Y821221D01*
X719265Y832401D02*
Y835600D01*
X717666D01*
X717133Y835066D01*
Y834000D01*
X717666Y833467D01*
X719265D01*
X718199D02*
X717133Y832401D01*
X714467D02*
Y835600D01*
X716066Y834000D01*
X713934D01*
X710735Y832401D02*
X712867D01*
X710735Y834533D01*
Y835066D01*
X711268Y835600D01*
X712334D01*
X712867Y835066D01*
X880232Y832688D02*
Y835887D01*
X878633D01*
X878100Y835354D01*
Y834287D01*
X878633Y833754D01*
X880232D01*
X879166D02*
X878100Y832688D01*
X875434D02*
Y835887D01*
X877033Y834287D01*
X874901D01*
X873834Y832688D02*
X872768D01*
X873301D01*
Y835887D01*
X873834Y835354D01*
X670666Y843887D02*
Y840688D01*
X668533D01*
X667467Y843354D02*
X666934Y843887D01*
X665867D01*
X665334Y843354D01*
Y842821D01*
X665867Y842287D01*
X665334Y841754D01*
Y841221D01*
X665867Y840688D01*
X666934D01*
X667467Y841221D01*
Y841754D01*
X666934Y842287D01*
X667467Y842821D01*
Y843354D01*
X666934Y842287D02*
X665867D01*
X827166Y844100D02*
Y840901D01*
X825033D01*
X823967Y844100D02*
X821834D01*
Y843566D01*
X823967Y841434D01*
Y840901D01*
X723166Y858599D02*
Y855400D01*
X721033D01*
X717834Y858599D02*
X718900Y858066D01*
X719967Y857000D01*
Y855934D01*
X719434Y855400D01*
X718367D01*
X717834Y855934D01*
Y856467D01*
X718367Y857000D01*
X719967D01*
X882666Y858599D02*
Y855400D01*
X880533D01*
X877334Y858599D02*
X879467D01*
Y857000D01*
X878401Y857533D01*
X877867D01*
X877334Y857000D01*
Y855934D01*
X877867Y855400D01*
X878934D01*
X879467Y855934D01*
X711401Y849499D02*
Y848432D01*
Y848965D01*
X714600D01*
Y849499D01*
Y848432D01*
X711934Y844700D02*
X711401Y845233D01*
Y846300D01*
X711934Y846833D01*
X714066D01*
X714600Y846300D01*
Y845233D01*
X714066Y844700D01*
X711401Y841501D02*
X711934Y842568D01*
X713000Y843634D01*
X714066D01*
X714600Y843101D01*
Y842034D01*
X714066Y841501D01*
X713533D01*
X713000Y842034D01*
Y843634D01*
X870901Y850286D02*
Y849220D01*
Y849753D01*
X874100D01*
Y850286D01*
Y849220D01*
X871434Y845488D02*
X870901Y846021D01*
Y847087D01*
X871434Y847620D01*
X873566D01*
X874100Y847087D01*
Y846021D01*
X873566Y845488D01*
X870901Y842289D02*
Y844421D01*
X872500D01*
X871967Y843355D01*
Y842822D01*
X872500Y842289D01*
X873566D01*
X874100Y842822D01*
Y843888D01*
X873566Y844421D01*
X678934Y845633D02*
X678401Y846166D01*
Y847232D01*
X678934Y847765D01*
X681066D01*
X681600Y847232D01*
Y846166D01*
X681066Y845633D01*
X681600Y842434D02*
Y844566D01*
X679467Y842434D01*
X678934D01*
X678401Y842967D01*
Y844033D01*
X678934Y844566D01*
X678401Y839235D02*
Y841367D01*
X680000D01*
X679467Y840301D01*
Y839768D01*
X680000Y839235D01*
X681066D01*
X681600Y839768D01*
Y840834D01*
X681066Y841367D01*
X838434Y845633D02*
X837901Y846166D01*
Y847232D01*
X838434Y847765D01*
X840566D01*
X841099Y847232D01*
Y846166D01*
X840566Y845633D01*
X841099Y842434D02*
Y844566D01*
X838967Y842434D01*
X838434D01*
X837901Y842967D01*
Y844033D01*
X838434Y844566D01*
X841099Y839768D02*
X837901D01*
X839500Y841367D01*
Y839235D01*
X643633Y852066D02*
X644166Y852600D01*
X645232D01*
X645765Y852066D01*
Y849934D01*
X645232Y849401D01*
X644166D01*
X643633Y849934D01*
X640434Y849401D02*
X642566D01*
X640434Y851533D01*
Y852066D01*
X640967Y852600D01*
X642033D01*
X642566Y852066D01*
X639367D02*
X638834Y852600D01*
X637768D01*
X637235Y852066D01*
Y851533D01*
X637768Y851000D01*
X638301D01*
X637768D01*
X637235Y850467D01*
Y849934D01*
X637768Y849401D01*
X638834D01*
X639367Y849934D01*
X803133Y852066D02*
X803666Y852600D01*
X804732D01*
X805265Y852066D01*
Y849934D01*
X804732Y849401D01*
X803666D01*
X803133Y849934D01*
X799934Y849401D02*
X802066D01*
X799934Y851533D01*
Y852066D01*
X800467Y852600D01*
X801533D01*
X802066Y852066D01*
X796735Y849401D02*
X798867D01*
X796735Y851533D01*
Y852066D01*
X797268Y852600D01*
X798334D01*
X798867Y852066D01*
X643633Y846066D02*
X644166Y846599D01*
X645232D01*
X645765Y846066D01*
Y843934D01*
X645232Y843400D01*
X644166D01*
X643633Y843934D01*
X640434Y843400D02*
X642566D01*
X640434Y845533D01*
Y846066D01*
X640967Y846599D01*
X642033D01*
X642566Y846066D01*
X639367Y843934D02*
X638834Y843400D01*
X637768D01*
X637235Y843934D01*
Y846066D01*
X637768Y846599D01*
X638834D01*
X639367Y846066D01*
Y845533D01*
X638834Y845000D01*
X637235D01*
X803133Y846066D02*
X803666Y846599D01*
X804732D01*
X805265Y846066D01*
Y843934D01*
X804732Y843400D01*
X803666D01*
X803133Y843934D01*
X799934Y843400D02*
X802066D01*
X799934Y845533D01*
Y846066D01*
X800467Y846599D01*
X801533D01*
X802066Y846066D01*
X798867D02*
X798334Y846599D01*
X797268D01*
X796735Y846066D01*
Y845533D01*
X797268Y845000D01*
X796735Y844467D01*
Y843934D01*
X797268Y843400D01*
X798334D01*
X798867Y843934D01*
Y844467D01*
X798334Y845000D01*
X798867Y845533D01*
Y846066D01*
X798334Y845000D02*
X797268D01*
X745600Y852566D02*
X746133Y853100D01*
X747199D01*
X747732Y852566D01*
Y850434D01*
X747199Y849901D01*
X746133D01*
X745600Y850434D01*
X742401Y849901D02*
X744533D01*
X742401Y852033D01*
Y852566D01*
X742934Y853100D01*
X744000D01*
X744533Y852566D01*
X741334Y849901D02*
X740268D01*
X740801D01*
Y853100D01*
X741334Y852566D01*
X906133Y853066D02*
X906666Y853599D01*
X907732D01*
X908265Y853066D01*
Y850934D01*
X907732Y850401D01*
X906666D01*
X906133Y850934D01*
X902934Y850401D02*
X905066D01*
X902934Y852533D01*
Y853066D01*
X903467Y853599D01*
X904533D01*
X905066Y853066D01*
X901867D02*
X901334Y853599D01*
X900268D01*
X899735Y853066D01*
Y850934D01*
X900268Y850401D01*
X901334D01*
X901867Y850934D01*
Y853066D01*
X746633Y847066D02*
X747166Y847600D01*
X748232D01*
X748765Y847066D01*
Y844934D01*
X748232Y844401D01*
X747166D01*
X746633Y844934D01*
X743434Y844401D02*
X745566D01*
X743434Y846533D01*
Y847066D01*
X743967Y847600D01*
X745033D01*
X745566Y847066D01*
X742367Y847600D02*
X740235D01*
Y847066D01*
X742367Y844934D01*
Y844401D01*
X906633Y847066D02*
X907166Y847600D01*
X908232D01*
X908765Y847066D01*
Y844934D01*
X908232Y844401D01*
X907166D01*
X906633Y844934D01*
X903434Y844401D02*
X905566D01*
X903434Y846533D01*
Y847066D01*
X903967Y847600D01*
X905033D01*
X905566Y847066D01*
X900235Y847600D02*
X901301Y847066D01*
X902367Y846000D01*
Y844934D01*
X901834Y844401D01*
X900768D01*
X900235Y844934D01*
Y845467D01*
X900768Y846000D01*
X902367D01*
X704366Y860854D02*
X704899Y861387D01*
X705966D01*
X706499Y860854D01*
Y858721D01*
X705966Y858188D01*
X704899D01*
X704366Y858721D01*
X703300Y858188D02*
X702233D01*
X702767D01*
Y861387D01*
X703300Y860854D01*
X700634Y858721D02*
X700101Y858188D01*
X699035D01*
X698501Y858721D01*
Y860854D01*
X699035Y861387D01*
X700101D01*
X700634Y860854D01*
Y860321D01*
X700101Y859787D01*
X698501D01*
X863866Y860854D02*
X864399Y861387D01*
X865466D01*
X865999Y860854D01*
Y858721D01*
X865466Y858188D01*
X864399D01*
X863866Y858721D01*
X862800Y858188D02*
X861733D01*
X862267D01*
Y861387D01*
X862800Y860854D01*
X860134D02*
X859601Y861387D01*
X858534D01*
X858001Y860854D01*
Y860321D01*
X858534Y859787D01*
X858001Y859254D01*
Y858721D01*
X858534Y858188D01*
X859601D01*
X860134Y858721D01*
Y859254D01*
X859601Y859787D01*
X860134Y860321D01*
Y860854D01*
X859601Y859787D02*
X858534D01*
D58*
X707874Y850567D02*
X707136Y850993D01*
Y850141D01*
X707874Y850567D01*
X867374D02*
X866636Y850993D01*
Y850141D01*
X867374Y850567D01*
M02*
