G04*
G04 #@! TF.GenerationSoftware,Altium Limited,Altium Designer,21.7.2 (23)*
G04*
G04 Layer_Color=16711935*
%FSLAX25Y25*%
%MOIN*%
G70*
G04*
G04 #@! TF.SameCoordinates,38115651-3DBD-42AD-B4A0-95CC447B3A10*
G04*
G04*
G04 #@! TF.FilePolarity,Negative*
G04*
G01*
G75*
%ADD17R,0.03394X0.03994*%
%ADD18R,0.03994X0.03394*%
%ADD29C,0.13976*%
%ADD30C,0.05984*%
%ADD31R,0.07874X0.07874*%
%ADD32C,0.07874*%
%ADD33C,0.24016*%
%ADD56R,0.04528X0.02165*%
G04:AMPARAMS|DCode=57|XSize=21.65mil|YSize=45.28mil|CornerRadius=6.4mil|HoleSize=0mil|Usage=FLASHONLY|Rotation=90.000|XOffset=0mil|YOffset=0mil|HoleType=Round|Shape=RoundedRectangle|*
%AMROUNDEDRECTD57*
21,1,0.02165,0.03248,0,0,90.0*
21,1,0.00886,0.04528,0,0,90.0*
1,1,0.01280,0.01624,0.00443*
1,1,0.01280,0.01624,-0.00443*
1,1,0.01280,-0.01624,-0.00443*
1,1,0.01280,-0.01624,0.00443*
%
%ADD57ROUNDEDRECTD57*%
D17*
X906000Y882287D02*
D03*
X912000D02*
D03*
X906000Y876287D02*
D03*
X912000D02*
D03*
X826500Y875787D02*
D03*
X820500D02*
D03*
X826500Y881787D02*
D03*
X820500D02*
D03*
X746500Y882287D02*
D03*
X752500D02*
D03*
X746500Y876287D02*
D03*
X752500D02*
D03*
X667000Y881787D02*
D03*
X661000D02*
D03*
X667000Y875787D02*
D03*
X661000D02*
D03*
X730000Y851787D02*
D03*
X736000D02*
D03*
X730000Y845787D02*
D03*
X736000D02*
D03*
X705500Y854287D02*
D03*
X699500D02*
D03*
X815500Y844787D02*
D03*
X809500D02*
D03*
X815500Y850787D02*
D03*
X809500D02*
D03*
X821500Y847787D02*
D03*
X827500D02*
D03*
X865500Y834287D02*
D03*
X859500D02*
D03*
X873000Y827787D02*
D03*
X867000D02*
D03*
X847500D02*
D03*
X853500D02*
D03*
X847500Y833787D02*
D03*
X853500D02*
D03*
X889500Y845787D02*
D03*
X895500D02*
D03*
X889500Y851787D02*
D03*
X895500D02*
D03*
X865000Y854287D02*
D03*
X859000D02*
D03*
X688000Y833787D02*
D03*
X694000D02*
D03*
X706000Y834287D02*
D03*
X700000D02*
D03*
X713500Y827787D02*
D03*
X707500D02*
D03*
X688000D02*
D03*
X694000D02*
D03*
X662000Y847787D02*
D03*
X668000D02*
D03*
X656000Y844787D02*
D03*
X650000D02*
D03*
X656000Y850787D02*
D03*
X650000D02*
D03*
D18*
X900000Y882287D02*
D03*
Y876287D02*
D03*
X832500Y875787D02*
D03*
Y881787D02*
D03*
X740500Y882287D02*
D03*
Y876287D02*
D03*
X673000Y875787D02*
D03*
Y881787D02*
D03*
X720500Y851287D02*
D03*
Y845287D02*
D03*
X880000Y851287D02*
D03*
Y845287D02*
D03*
X851000Y840287D02*
D03*
Y846287D02*
D03*
X845000D02*
D03*
Y840287D02*
D03*
X691500D02*
D03*
Y846287D02*
D03*
X685500D02*
D03*
Y840287D02*
D03*
D29*
X875134Y880374D02*
D03*
X926866D02*
D03*
X645634D02*
D03*
X697366D02*
D03*
X856866D02*
D03*
X805134D02*
D03*
X715634D02*
D03*
X767366D02*
D03*
D30*
X914779Y869705D02*
D03*
X887220D02*
D03*
X904937D02*
D03*
X897063D02*
D03*
X685280D02*
D03*
X657721D02*
D03*
X675437D02*
D03*
X667563D02*
D03*
X827063D02*
D03*
X834937D02*
D03*
X817220D02*
D03*
X844779D02*
D03*
X755279D02*
D03*
X727720D02*
D03*
X745437D02*
D03*
X737563D02*
D03*
D31*
X850331Y801500D02*
D03*
D32*
Y781500D02*
D03*
D33*
X783465Y824803D02*
D03*
X631890Y746063D02*
D03*
X935059D02*
D03*
D56*
X697264Y847906D02*
D03*
Y845347D02*
D03*
Y842787D02*
D03*
X707500D02*
D03*
Y845347D02*
D03*
Y840228D02*
D03*
X697264D02*
D03*
X856764Y847906D02*
D03*
Y845347D02*
D03*
Y842787D02*
D03*
X867000D02*
D03*
Y845347D02*
D03*
Y840228D02*
D03*
X856764D02*
D03*
D57*
X707500Y847906D02*
D03*
X867000D02*
D03*
M02*
