999
DXF file: pcb_pb_holder.dxf
999
Pro/ENGINEER 2020053 by Parametric Technology Corporation
  0
SECTION
  2
HEADER
  9
$ACADVER
  1
AC1027
  9
$DWGCODEPAGE
  3
ANSI_1252
  9
$EXTMAX
 10
11.6929133858
 20
8.2677165354
 30
0.0
  9
$EXTMIN
 10
0.0
 20
-0.0
 30
0.0
  9
$LIMMIN
 10
0.0
 20
-0.0
  9
$LIMMAX
 10
11.6929133858
 20
8.2677165354
  9
$VIEWCTR
 10
5.8464566929
 20
4.1338582677
  9
$VIEWSIZE
 40
8.2677165354
  9
$CLAYER
  8
0
  9
$LTSCALE
 40
0.6431102362
  9
$CELTYPE
  6
BYLAYER
  9
$DIMSCALE
 40
1.0
  9
$DIMASZ
 40
0.1875
  9
$DIMEXO
 40
0.0625
  9
$DIMDLI
 40
0.4443307087
  9
$DIMEXE
 40
0.125
  9
$DIMCEN
 40
0.1052362205
  9
$DIMLFAC
 40
1.0
  9
$DIMBLK
  1
_FILLED
  9
$DIMALT
 70
0
  9
$DIMALTF
 40
25.4
  9
$DIMTXT
 40
0.15625
  9
$DIMTOL
 70
0
  9
$DIMLIM
 70
0
  9
$DIMTFAC
 40
1.0
  9
$DIMGAP
 40
0.09
  9
$DIMDSEP
 70
46
  9
$AUNITS
 70
0
  9
$PDMODE
 70
3
  9
$PDSIZE
 40
0.3125
  9
$HANDSEED
  5
244
  9
$TILEMODE
 70
1
  9
$MEASUREMENT
 70
0
  9
$INSUNITS
 70
1
  0
ENDSEC
  0
SECTION
  2
CLASSES
  0
CLASS
  1
ACDBDICTIONARYWDFLT
  2
AcDbDictionaryWithDefault
  3
AutoCAD 2000
 90
0
 91
1
280
0
281
0
  0
CLASS
  1
ACDBPLACEHOLDER
  2
AcDbPlaceHolder
  3
AutoCAD 2000
 90
0
 91
1
280
0
281
0
  0
CLASS
  1
LAYOUT
  2
AcDbLayout
  3
AutoCAD 2000
 90
0
 91
0
280
0
281
0
  0
ENDSEC
  0
SECTION
  2
TABLES
  0
TABLE
  2
VPORT
  5
8
100
AcDbSymbolTable
 70
2
  0
VPORT
  5
1F4
100
AcDbSymbolTableRecord
100
AcDbViewportTableRecord
  2
*ACTIVE
 70
0
 10
0.0
 20
0.0
 11
1.0
 21
1.0
 12
5.8464566929
 22
4.1338582677
 13
0.0
 23
0.0
 14
1.0
 24
1.0
 15
0.0
 25
0.0
 16
0.0
 26
0.0
 36
1.0
 17
0.0
 27
0.0
 37
0.0
 40
8.2677165354
 41
1.4142857143
 42
50.0
 43
0.0
 44
0.0
 50
0.0
 51
0.0
 71
0
 72
100
 73
1
 74
1
 75
0
 76
0
 77
0
 78
0
  0
ENDTAB
  0
TABLE
  2
LTYPE
  5
5
100
AcDbSymbolTable
 70
6
  0
LTYPE
  5
14
100
AcDbSymbolTableRecord
100
AcDbLinetypeTableRecord
  2
BYBLOCK
 70
0
  3

 72
65
 73
0
 40
0.0
  0
LTYPE
  5
15
100
AcDbSymbolTableRecord
100
AcDbLinetypeTableRecord
  2
BYLAYER
 70
0
  3

 72
65
 73
0
 40
0.0
  0
LTYPE
  5
16
100
AcDbSymbolTableRecord
100
AcDbLinetypeTableRecord
  2
CONTINUOUS
 70
64
  3
Solid line
 72
65
 73
0
 40
0.0
  0
LTYPE
  5
1F5
100
AcDbSymbolTableRecord
100
AcDbLinetypeTableRecord
  2
CENTER
 70
64
  3
____ _ ____ _ ____ _ ____ _ ____ _ ____ _ ____
 72
65
 73
4
 40
0.6
 49
0.375
 74
0
 49
-0.075
 74
0
 49
0.075
 74
0
 49
-0.075
 74
0
  0
LTYPE
  5
1F6
100
AcDbSymbolTableRecord
100
AcDbLinetypeTableRecord
  2
HIDDEN
 70
64
  3
- - - - - - - - - - - - - - - - - - - -
 72
65
 73
2
 40
0.2
 49
0.1
 74
0
 49
-0.1
 74
0
  0
LTYPE
  5
1F7
100
AcDbSymbolTableRecord
100
AcDbLinetypeTableRecord
  2
PHANTOM
 70
64
  3
_____ _ _ _____ _ _ _____ _ _ _____
 72
65
 73
6
 40
0.8
 49
0.45
 74
0
 49
-0.05
 74
0
 49
0.1
 74
0
 49
-0.05
 74
0
 49
0.1
 74
0
 49
-0.05
 74
0
  0
LTYPE
  5
1F8
100
AcDbSymbolTableRecord
100
AcDbLinetypeTableRecord
  2
DOT
 70
64
  3
. . . . . . . . . . . . . . . . . . . .
 72
65
 73
2
 40
0.2
 49
0.1
 74
0
 49
-0.1
 74
0
  0
LTYPE
  5
1F9
100
AcDbSymbolTableRecord
100
AcDbLinetypeTableRecord
  2
DASHED
 70
64
  3
- - - - - - - - - - - - - - - - - - - -
 72
65
 73
2
 40
0.2
 49
0.1
 74
0
 49
-0.1
 74
0
  0
ENDTAB
  0
TABLE
  2
LAYER
  5
2
100
AcDbSymbolTable
 70
36
  0
LAYER
  5
10
100
AcDbSymbolTableRecord
100
AcDbLayerTableRecord
  2
0
 70
0
 62
7
  6
CONTINUOUS
370
-3
390
F
  0
LAYER
  5
1FA
100
AcDbSymbolTableRecord
100
AcDbLayerTableRecord
  2
DEFAULT_1
 70
0
 62
7
  6
CENTER
370
-3
390
F
  0
LAYER
  5
1FB
100
AcDbSymbolTableRecord
100
AcDbLayerTableRecord
  2
DEFAULT_2
 70
0
 62
8
  6
HIDDEN
370
-3
390
F
  0
LAYER
  5
1FC
100
AcDbSymbolTableRecord
100
AcDbLayerTableRecord
  2
DEFAULT_3
 70
0
 62
7
  6
PHANTOM
370
-3
390
F
  0
LAYER
  5
1FD
100
AcDbSymbolTableRecord
100
AcDbLayerTableRecord
  2
A_BASIS
 70
0
 62
7
  6
CONTINUOUS
370
-3
390
F
  0
LAYER
  5
1FE
100
AcDbSymbolTableRecord
100
AcDbLayerTableRecord
  2
A_GTOL
 70
0
 62
7
  6
CONTINUOUS
370
-3
390
F
  0
LAYER
  5
1FF
100
AcDbSymbolTableRecord
100
AcDbLayerTableRecord
  2
A_HILFS
 70
0
 62
7
  6
CONTINUOUS
370
-3
390
F
  0
LAYER
  5
200
100
AcDbSymbolTableRecord
100
AcDbLayerTableRecord
  2
A_KONSTRUKTIONSELEMENTE
 70
0
 62
7
  6
CONTINUOUS
370
-3
390
F
  0
LAYER
  5
201
100
AcDbSymbolTableRecord
100
AcDbLayerTableRecord
  2
C_BASIS
 70
0
 62
7
  6
CONTINUOUS
370
-3
390
F
  0
LAYER
  5
202
100
AcDbSymbolTableRecord
100
AcDbLayerTableRecord
  2
C_HILFS
 70
0
 62
7
  6
CONTINUOUS
370
-3
390
F
  0
LAYER
  5
203
100
AcDbSymbolTableRecord
100
AcDbLayerTableRecord
  2
E_BASIS
 70
0
 62
7
  6
CONTINUOUS
370
-3
390
F
  0
LAYER
  5
204
100
AcDbSymbolTableRecord
100
AcDbLayerTableRecord
  2
E_GTOL
 70
0
 62
7
  6
CONTINUOUS
370
-3
390
F
  0
LAYER
  5
205
100
AcDbSymbolTableRecord
100
AcDbLayerTableRecord
  2
E_HILFS
 70
0
 62
7
  6
CONTINUOUS
370
-3
390
F
  0
LAYER
  5
206
100
AcDbSymbolTableRecord
100
AcDbLayerTableRecord
  2
F_HILFS
 70
0
 62
7
  6
CONTINUOUS
370
-3
390
F
  0
LAYER
  5
207
100
AcDbSymbolTableRecord
100
AcDbLayerTableRecord
  2
K_HILFS
 70
0
 62
7
  6
CONTINUOUS
370
-3
390
F
  0
LAYER
  5
208
100
AcDbSymbolTableRecord
100
AcDbLayerTableRecord
  2
K_KENNZEICHNUNG
 70
0
 62
7
  6
CONTINUOUS
370
-3
390
F
  0
LAYER
  5
209
100
AcDbSymbolTableRecord
100
AcDbLayerTableRecord
  2
P_HILFS
 70
0
 62
7
  6
CONTINUOUS
370
-3
390
F
  0
LAYER
  5
20A
100
AcDbSymbolTableRecord
100
AcDbLayerTableRecord
  2
P_XXXXX
 70
0
 62
7
  6
CONTINUOUS
370
-3
390
F
  0
LAYER
  5
20B
100
AcDbSymbolTableRecord
100
AcDbLayerTableRecord
  2
T_GTOL
 70
0
 62
7
  6
CONTINUOUS
370
-3
390
F
  0
LAYER
  5
20C
100
AcDbSymbolTableRecord
100
AcDbLayerTableRecord
  2
XSEC_DATUMS
 70
0
 62
7
  6
CONTINUOUS
370
-3
390
F
  0
ENDTAB
  0
TABLE
  2
STYLE
  5
3
100
AcDbSymbolTable
 70
1
  0
STYLE
  5
11
100
AcDbSymbolTableRecord
100
AcDbTextStyleTableRecord
  2
STANDARD
 70
0
 40
0.0
 41
0.8
 50
0.0
 71
0
 42
0.2
  3
txt
  4

  0
STYLE
  5
20D
100
AcDbSymbolTableRecord
100
AcDbTextStyleTableRecord
  2
TEXTSTYLE_1
 70
0
 40
0.0
 41
0.8
 50
0.0
 71
0
 42
0.2
  3
gdt
  4

  0
ENDTAB
  0
TABLE
  2
VIEW
  5
6
100
AcDbSymbolTable
 70
0
  0
ENDTAB
  0
TABLE
  2
UCS
  5
7
100
AcDbSymbolTable
 70
0
  0
ENDTAB
  0
TABLE
  2
APPID
  5
9
100
AcDbSymbolTable
 70
1
  0
APPID
  5
20E
100
AcDbSymbolTableRecord
100
AcDbRegAppTableRecord
  2
ACAD
 70
0
  0
ENDTAB
  0
TABLE
  2
BLOCK_RECORD
  5
1
100
AcDbSymbolTable
 70
0
  0
BLOCK_RECORD
  5
20F
100
AcDbSymbolTableRecord
100
AcDbBlockTableRecord
  2
*Model_Space
  0
BLOCK_RECORD
  5
210
100
AcDbSymbolTableRecord
100
AcDbBlockTableRecord
  2
*Paper_Space
  0
BLOCK_RECORD
  5
211
100
AcDbSymbolTableRecord
100
AcDbBlockTableRecord
  2
_FILLED
  0
ENDTAB
  0
TABLE
  2
DIMSTYLE
  5
A
100
AcDbSymbolTable
 70
1
100
AcDbDimStyleTable
 71
0
  0
DIMSTYLE
105
212
100
AcDbSymbolTableRecord
100
AcDbDimStyleTableRecord
  2
STANDARD
 70
0
  3

  4

 40
1.0
 41
0.1875
 42
0.0625
 43
0.38
 44
0.125
 45
0.0
 46
0.0
 47
0.01
 48
0.01
140
0.15625
141
0.09
142
0.0
143
25.4
144
1.0
145
0.0
146
1.0
147
0.09
 71
0
 72
0
 73
1
 74
1
 75
0
 76
0
 77
0
 78
4
 79
1
170
0
171
1
172
0
173
0
174
0
175
0
176
0
177
0
178
0
270
2
179
2
271
2
272
2
273
2
274
2
275
0
280
0
281
0
282
0
283
1
284
4
285
0
286
0
287
3
288
0
340
11
278
46
341
211
342
211
343
211
344
211
  0
ENDTAB
  0
ENDSEC
  0
SECTION
  2
BLOCKS
  0
BLOCK
  5
20
100
AcDbEntity
  8
0
100
AcDbBlockBegin
  2
*Model_Space
 70
0
 10
0.0
 20
0.0
 30
0.0
  3
*Model_Space
  1

  0
ENDBLK
  5
21
100
AcDbEntity
  8
0
100
AcDbBlockEnd
  0
BLOCK
  5
1C
100
AcDbEntity
  8
0
100
AcDbBlockBegin
  2
*Paper_Space
 70
0
 10
0.0
 20
0.0
 30
0.0
  3
*Paper_Space
  1

  0
ENDBLK
  5
1D
100
AcDbEntity
  8
0
100
AcDbBlockEnd
  0
BLOCK
  5
213
100
AcDbEntity
  8
0
100
AcDbBlockBegin
  2
_FILLED
 70
64
 10
0.0
 20
0.0
  3
_FILLED
  1

  0
SOLID
  5
214
100
AcDbEntity
  8
0
  6
BYBLOCK
 62
0
100
AcDbTrace
 10
0.0
 20
0.0
 11
-1.0
 21
0.1666666667
 12
-1.0
 22
-0.1666666667
 13
-1.0
 23
-0.1666666667
  0
ENDBLK
  5
215
100
AcDbEntity
  8
0
  6
BYBLOCK
 62
0
100
AcDbBlockEnd
  0
ENDSEC
  0
SECTION
  2
ENTITIES
  0
HATCH
  5
216
100
AcDbEntity
  8
0
100
AcDbHatch
 62
2
  6
CONTINUOUS
 10
0.0
 20
0.0
 30
0.0
210
0.0
220
0.0
230
1.0
  2
XSEC0002
 70
0
 71
0
 91
1
 92
1
 93
8
 72
1
 10
-1.811023622
 20
-1.3385826772
 11
-1.811023622
 21
1.3385826772
 72
1
 10
-1.811023622
 20
1.3385826772
 11
1.7322834646
 21
1.3385826772
 72
1
 10
1.7322834646
 20
-1.3385826772
 11
1.7322834646
 21
1.3385826772
 72
1
 10
-1.811023622
 20
-1.3385826772
 11
1.7322834646
 21
-1.3385826772
 72
1
 10
-1.7519685039
 20
-1.2401574803
 11
1.6732283465
 21
-1.2401574803
 72
1
 10
1.6732283465
 20
-1.2401574803
 11
1.6732283465
 21
1.2401574803
 72
1
 10
-1.7519685039
 20
1.2401574803
 11
1.6732283465
 21
1.2401574803
 72
1
 10
-1.7519685039
 20
-1.2401574803
 11
-1.7519685039
 21
1.2401574803
 97
0
 75
0
 76
0
 52
45.0
 41
0.3383490958
 77
0
 78
1
 53
45.0
 43
0.0
 44
0.0
 45
-0.23924894
 46
0.23924894
 79
0
 98
1
 10
0.0
 20
0.0
  0
LINE
  5
217
100
AcDbEntity
  8
C_BASIS
100
AcDbLine
 62
7
  6
CONTINUOUS
 10
0.3698818898
 20
-0.9448818898
 11
-0.0393700787
 21
-0.9448818898
  0
SOLID
  5
218
100
AcDbEntity
  8
C_BASIS
100
AcDbTrace
 62
7
  6
CONTINUOUS
 10
0.3698818898
 20
-0.9448818898
 11
0.1823818898
 21
-0.9761318898
 12
0.1823818898
 22
-0.9136318898
 13
0.1823818898
 23
-0.9136318898
  0
LINE
  5
219
100
AcDbEntity
  8
C_BASIS
100
AcDbLine
 62
7
  6
CONTINUOUS
 10
-0.0393700787
 20
-0.5356299213
 11
-0.0393700787
 21
-0.9448818898
  0
SOLID
  5
21A
100
AcDbEntity
  8
C_BASIS
100
AcDbTrace
 62
7
  6
CONTINUOUS
 10
-0.0393700787
 20
-0.5356299213
 11
-0.0081200787
 21
-0.7231299213
 12
-0.0706200787
 22
-0.7231299213
 13
-0.0706200787
 23
-0.7231299213
  0
MTEXT
  5
21B
100
AcDbEntity
  8
C_BASIS
100
AcDbMText
 62
7
  6
CONTINUOUS
  7
STANDARD
 71
1
 72
1
 10
0.3932677165
 20
-0.9682677165
 30
0.0
 11
1.0
 21
0.0
 31
0.0
 73
2
 44
0.9
  1
X
 40
0.105706025
 41
0.08456482
  0
MTEXT
  5
21C
100
AcDbEntity
  8
C_BASIS
100
AcDbMText
 62
7
  6
CONTINUOUS
  7
STANDARD
 71
1
 72
1
 10
-0.015984252
 20
-0.4065380695
 30
0.0
 11
1.0
 21
0.0
 31
0.0
 73
2
 44
0.9
  1
Y
 40
0.105706025
 41
0.08456482
  0
MTEXT
  5
21D
100
AcDbEntity
  8
C_BASIS
100
AcDbMText
 62
7
  6
CONTINUOUS
  7
STANDARD
 71
1
 72
1
 10
-0.015984252
 20
-0.815790038
 30
0.0
 11
1.0
 21
0.0
 31
0.0
 73
2
 44
0.9
  1
Z
 40
0.105706025
 41
0.08456482
  0
MTEXT
  5
21E
100
AcDbEntity
  8
C_BASIS
100
AcDbMText
 62
7
  6
CONTINUOUS
  7
STANDARD
 71
1
 72
1
 10
-0.015984252
 20
-0.9682677165
 30
0.0
 11
1.0
 21
0.0
 31
0.0
 73
2
 44
0.9
  1
CS0
 40
0.15625
 41
0.375
  0
POINT
  5
21F
100
AcDbEntity
  8
0
100
AcDbPoint
 62
1
  6
CONTINUOUS
 10
-1.5551181102
 20
-0.4133858268
  0
POINT
  5
220
100
AcDbEntity
  8
0
100
AcDbPoint
 62
1
  6
CONTINUOUS
 10
1.4763779528
 20
-0.4133858268
  0
POINT
  5
221
100
AcDbEntity
  8
0
100
AcDbPoint
 62
1
  6
CONTINUOUS
 10
-0.0393700787
 20
0.374015748
  0
MTEXT
  5
222
100
AcDbEntity
  8
0
100
AcDbMText
 62
2
  6
CONTINUOUS
  7
STANDARD
 71
3
 72
1
 10
0.0
 20
-1.4751722441
 30
0.0
 11
1.0
 21
0.0
 31
0.0
 73
2
 44
0.9
  1
SCHNITT XSEC0002-XSEC0002\PMASSSTAB 1.000
 40
0.15625
 41
3.125
  0
LINE
  5
223
100
AcDbEntity
  8
0
100
AcDbLine
 62
7
  6
CONTINUOUS
 10
0.0
 20
-0.0
 11
0.0
 21
8.2677165354
  0
LINE
  5
224
100
AcDbEntity
  8
0
100
AcDbLine
 62
7
  6
CONTINUOUS
 10
0.0
 20
-0.0
 11
11.6929133858
 21
-0.0
  0
LINE
  5
225
100
AcDbEntity
  8
0
100
AcDbLine
 62
7
  6
CONTINUOUS
 10
0.0
 20
8.2677165354
 11
11.6929133858
 21
8.2677165354
  0
LINE
  5
226
100
AcDbEntity
  8
0
100
AcDbLine
 62
7
  6
CONTINUOUS
 10
11.6929133858
 20
-0.0
 11
11.6929133858
 21
8.2677165354
  0
LINE
  5
227
100
AcDbEntity
  8
0
100
AcDbLine
 62
7
  6
CONTINUOUS
 10
-1.811023622
 20
1.3385826772
 11
-1.811023622
 21
-1.3385826772
  0
LINE
  5
228
100
AcDbEntity
  8
0
100
AcDbLine
 62
7
  6
CONTINUOUS
 10
-1.7519685039
 20
1.2401574803
 11
-1.7519685039
 21
-1.2401574803
  0
LINE
  5
229
100
AcDbEntity
  8
0
100
AcDbLine
 62
7
  6
CONTINUOUS
 10
-1.811023622
 20
-1.3385826772
 11
1.7322834646
 21
-1.3385826772
  0
LINE
  5
22A
100
AcDbEntity
  8
0
100
AcDbLine
 62
7
  6
CONTINUOUS
 10
-1.7519685039
 20
-1.2401574803
 11
1.6732283465
 21
-1.2401574803
  0
LINE
  5
22B
100
AcDbEntity
  8
E_BASIS
100
AcDbLine
 62
9
  6
CONTINUOUS
 10
-2.9766465919
 20
-0.9624212598
 11
2.9557203351
 21
-0.9624212598
  0
LINE
  5
22C
100
AcDbEntity
  8
E_BASIS
100
AcDbLine
 62
7
  6
CONTINUOUS
 10
-2.9766465919
 20
-0.9273425197
 11
2.9557203351
 21
-0.9273425197
  0
LINE
  5
22D
100
AcDbEntity
  8
E_BASIS
100
AcDbLine
 62
9
  6
CONTINUOUS
 10
-0.0569094488
 20
1.3723158833
 11
-0.0569094488
 21
-1.3723158833
  0
LINE
  5
22E
100
AcDbEntity
  8
E_BASIS
100
AcDbLine
 62
7
  6
CONTINUOUS
 10
-0.0218307087
 20
1.3723158833
 11
-0.0218307087
 21
-1.3723158833
  0
LINE
  5
22F
100
AcDbEntity
  8
0
100
AcDbLine
 62
7
  6
CONTINUOUS
 10
-2.9766465919
 20
-0.0175393701
 11
2.9557203351
 21
-0.0175393701
  0
LINE
  5
230
100
AcDbEntity
  8
0
100
AcDbLine
 62
9
  6
CONTINUOUS
 10
-2.9766465919
 20
0.0175393701
 11
2.9557203351
 21
0.0175393701
  0
LINE
  5
231
100
AcDbEntity
  8
0
100
AcDbLine
 62
7
  6
CONTINUOUS
 10
-1.7519685039
 20
1.2401574803
 11
1.6732283465
 21
1.2401574803
  0
LINE
  5
232
100
AcDbEntity
  8
0
100
AcDbLine
 62
7
  6
CONTINUOUS
 10
-1.811023622
 20
1.3385826772
 11
1.7322834646
 21
1.3385826772
  0
LINE
  5
233
100
AcDbEntity
  8
0
100
AcDbLine
 62
7
  6
CONTINUOUS
 10
1.6732283465
 20
1.2401574803
 11
1.6732283465
 21
-1.2401574803
  0
LINE
  5
234
100
AcDbEntity
  8
0
100
AcDbLine
 62
7
  6
CONTINUOUS
 10
1.7322834646
 20
-1.3385826772
 11
1.7322834646
 21
1.3385826772
  0
CIRCLE
  5
235
100
AcDbEntity
  8
0
100
AcDbCircle
 62
7
  6
CONTINUOUS
 10
-0.5039370079
 20
-0.4669244619
 40
0.1968503937
  0
CIRCLE
  5
236
100
AcDbEntity
  8
0
100
AcDbCircle
 62
7
  6
CONTINUOUS
 10
-1.5551181102
 20
-0.4133858268
 40
0.1456692913
  0
CIRCLE
  5
237
100
AcDbEntity
  8
0
100
AcDbCircle
 62
7
  6
CONTINUOUS
 10
-1.5551181102
 20
-0.4133858268
 40
0.0787401575
  0
CIRCLE
  5
238
100
AcDbEntity
  8
0
100
AcDbCircle
 62
7
  6
CONTINUOUS
 10
-1.5551181102
 20
-0.4133858268
 40
0.0688976378
  0
CIRCLE
  5
239
100
AcDbEntity
  8
0
100
AcDbCircle
 62
7
  6
CONTINUOUS
 10
-0.0393700787
 20
-0.4321845247
 40
0.2362204724
  0
CIRCLE
  5
23A
100
AcDbEntity
  8
0
100
AcDbCircle
 62
7
  6
CONTINUOUS
 10
0.4251968504
 20
-0.4669244619
 40
0.1968503937
  0
CIRCLE
  5
23B
100
AcDbEntity
  8
0
100
AcDbCircle
 62
7
  6
CONTINUOUS
 10
1.4763779528
 20
-0.4133858268
 40
0.1456692913
  0
CIRCLE
  5
23C
100
AcDbEntity
  8
0
100
AcDbCircle
 62
7
  6
CONTINUOUS
 10
-0.0393700787
 20
-0.9448818898
 40
0.1289370079
  0
CIRCLE
  5
23D
100
AcDbEntity
  8
0
100
AcDbCircle
 62
7
  6
CONTINUOUS
 10
1.4763779528
 20
-0.4133858268
 40
0.0787401575
  0
CIRCLE
  5
23E
100
AcDbEntity
  8
0
100
AcDbCircle
 62
7
  6
CONTINUOUS
 10
1.4763779528
 20
-0.4133858268
 40
0.0688976378
  0
CIRCLE
  5
23F
100
AcDbEntity
  8
0
100
AcDbCircle
 62
7
  6
CONTINUOUS
 10
-0.0393700787
 20
0.374015748
 40
0.1456692913
  0
CIRCLE
  5
240
100
AcDbEntity
  8
0
100
AcDbCircle
 62
7
  6
CONTINUOUS
 10
-0.0393700787
 20
0.374015748
 40
0.0787401575
  0
CIRCLE
  5
241
100
AcDbEntity
  8
0
100
AcDbCircle
 62
7
  6
CONTINUOUS
 10
-0.0393700787
 20
0.374015748
 40
0.0688976378
  0
ENDSEC
  0
SECTION
  2
OBJECTS
  0
DICTIONARY
  5
C
100
AcDbDictionary
280
0
281
1
  3
ACAD_GROUP
350
D
  3
ACAD_MLINESTYLE
350
17
  3
ACAD_LAYOUT
350
1A
  3
ACAD_PLOTSETTINGS
350
19
  3
ACAD_PLOTSTYLENAME
350
E
  0
DICTIONARY
  5
D
102
{ACAD_REACTORS
330
C
102
}
100
AcDbDictionary
280
0
281
1
  0
ACDBDICTIONARYWDFLT
  5
E
102
{ACAD_REACTORS
330
C
102
}
100
AcDbDictionary
281
1
  3
Normal
350
F
100
AcDbDictionaryWithDefault
340
F
  0
DICTIONARY
  5
17
102
{ACAD_REACTORS
330
C
102
}
100
AcDbDictionary
280
0
281
1
  3
Standard
350
18
  0
DICTIONARY
  5
19
102
{ACAD_REACTORS
330
C
102
}
100
AcDbDictionary
281
1
  0
DICTIONARY
  5
1A
102
{ACAD_REACTORS
330
C
102
}
100
AcDbDictionary
281
1
  3
Model
350
242
  3
Layout1
350
243
  0
ACDBPLACEHOLDER
  5
F
102
{ACAD_REACTORS
330
E
102
}
  0
MLINESTYLE
  5
18
102
{ACAD_REACTORS
330
17
102
}
100
AcDbMlineStyle
  2
STANDARD
 70
0
  3

 62
256
 51
90.0
 52
90.0
 71
2
 49
0.5
 62
256
  6
BYLAYER
 49
-0.5
 62
256
  6
BYLAYER
  0
LAYOUT
  5
242
102
{ACAD_REACTORS
330
1A
102
}
100
AcDbPlotSettings
  1

  2
none_device
  4
ISO_A4_(297.00_x_210.00_MM)
  6

 40
0.0
 41
0.0
 42
0.0
 43
0.0
 44
297.0
 45
210.0
 46
0.0
 47
0.0
 48
0.0
 49
0.0
140
0.0
141
0.0
142
1.0
143
1.0
 70
1024
 72
0
 73
0
 74
0
  7

 75
0
147
1.0
148
0.0
149
0.0
100
AcDbLayout
  1
Model
 70
0
 71
0
 10
0.0
 20
0.0
 11
11.6929133858
 21
8.2677165354
 12
0.0
 22
0.0
 32
0.0
 14
0.0
 24
0.0
 34
0.0
 15
0.0
 25
0.0
 35
0.0
146
0.0
 13
0.0
 23
0.0
 33
0.0
 16
1.0
 26
0.0
 36
0.0
 17
0.0
 27
1.0
 37
0.0
 76
0
330
20F
345
0
346
0
  0
LAYOUT
  5
243
102
{ACAD_REACTORS
330
1A
102
}
100
AcDbPlotSettings
  1

  2
none_device
  4
ISO_A4_(297.00_x_210.00_MM)
  6

 40
0.0
 41
0.0
 42
0.0
 43
0.0
 44
297.0
 45
210.0
 46
0.0
 47
0.0
 48
0.0
 49
0.0
140
0.0
141
0.0
142
1.0
143
1.0
 70
0
 72
0
 73
0
 74
0
  7

 75
0
147
1.0
148
0.0
149
0.0
100
AcDbLayout
  1
Layout1
 70
0
 71
1
 10
0.0
 20
0.0
 11
11.6929133858
 21
8.2677165354
 12
0.0
 22
0.0
 32
0.0
 14
0.0
 24
0.0
 34
0.0
 15
0.0
 25
0.0
 35
0.0
146
0.0
 13
0.0
 23
0.0
 33
0.0
 16
1.0
 26
0.0
 36
0.0
 17
0.0
 27
1.0
 37
0.0
 76
0
330
210
345
0
346
0
  0
ENDSEC
  0
EOF
