G04*
G04 #@! TF.GenerationSoftware,Altium Limited,Altium Designer,21.7.2 (23)*
G04*
G04 Layer_Color=8388736*
%FSLAX25Y25*%
%MOIN*%
G70*
G04*
G04 #@! TF.SameCoordinates,A1ADA5E8-AEB3-433E-A02D-67FD1DACD288*
G04*
G04*
G04 #@! TF.FilePolarity,Negative*
G04*
G01*
G75*
%ADD15R,0.03394X0.03994*%
%ADD16R,0.03994X0.03394*%
%ADD17C,0.04331*%
%ADD18O,0.01968X0.03740*%
%ADD19R,0.04134X0.02756*%
%ADD20R,0.20079X0.10630*%
%ADD21R,0.00394X0.00394*%
%ADD22R,0.10236X0.20079*%
G04:AMPARAMS|DCode=23|XSize=97.21mil|YSize=24.49mil|CornerRadius=12.25mil|HoleSize=0mil|Usage=FLASHONLY|Rotation=90.000|XOffset=0mil|YOffset=0mil|HoleType=Round|Shape=RoundedRectangle|*
%AMROUNDEDRECTD23*
21,1,0.09721,0.00000,0,0,90.0*
21,1,0.07272,0.02449,0,0,90.0*
1,1,0.02449,0.00000,0.03636*
1,1,0.02449,0.00000,-0.03636*
1,1,0.02449,0.00000,-0.03636*
1,1,0.02449,0.00000,0.03636*
%
%ADD23ROUNDEDRECTD23*%
%ADD24R,0.02449X0.09721*%
%ADD25R,0.04528X0.02165*%
%ADD26R,0.13394X0.08394*%
G04:AMPARAMS|DCode=27|XSize=53.94mil|YSize=33.94mil|CornerRadius=0mil|HoleSize=0mil|Usage=FLASHONLY|Rotation=180.000|XOffset=0mil|YOffset=0mil|HoleType=Round|Shape=Octagon|*
%AMOCTAGOND27*
4,1,8,-0.02697,0.00848,-0.02697,-0.00848,-0.01848,-0.01697,0.01848,-0.01697,0.02697,-0.00848,0.02697,0.00848,0.01848,0.01697,-0.01848,0.01697,-0.02697,0.00848,0.0*
%
%ADD27OCTAGOND27*%

%ADD28R,0.04394X0.04394*%
%ADD29R,0.08858X0.10039*%
%ADD30R,0.10630X0.12598*%
G04:AMPARAMS|DCode=31|XSize=31.5mil|YSize=19.68mil|CornerRadius=7.87mil|HoleSize=0mil|Usage=FLASHONLY|Rotation=180.000|XOffset=0mil|YOffset=0mil|HoleType=Round|Shape=RoundedRectangle|*
%AMROUNDEDRECTD31*
21,1,0.03150,0.00394,0,0,180.0*
21,1,0.01575,0.01968,0,0,180.0*
1,1,0.01575,-0.00787,0.00197*
1,1,0.01575,0.00787,0.00197*
1,1,0.01575,0.00787,-0.00197*
1,1,0.01575,-0.00787,-0.00197*
%
%ADD31ROUNDEDRECTD31*%
%ADD32R,0.03150X0.01968*%
%ADD33R,0.06102X0.09646*%
%ADD34R,0.06394X0.07894*%
G04:AMPARAMS|DCode=35|XSize=63.94mil|YSize=78.94mil|CornerRadius=0mil|HoleSize=0mil|Usage=FLASHONLY|Rotation=180.000|XOffset=0mil|YOffset=0mil|HoleType=Round|Shape=Octagon|*
%AMOCTAGOND35*
4,1,8,0.01598,-0.03947,-0.01598,-0.03947,-0.03197,-0.02348,-0.03197,0.02348,-0.01598,0.03947,0.01598,0.03947,0.03197,0.02348,0.03197,-0.02348,0.01598,-0.03947,0.0*
%
%ADD35OCTAGOND35*%

G04:AMPARAMS|DCode=36|XSize=21.65mil|YSize=45.28mil|CornerRadius=6.4mil|HoleSize=0mil|Usage=FLASHONLY|Rotation=90.000|XOffset=0mil|YOffset=0mil|HoleType=Round|Shape=RoundedRectangle|*
%AMROUNDEDRECTD36*
21,1,0.02165,0.03248,0,0,90.0*
21,1,0.00886,0.04528,0,0,90.0*
1,1,0.01280,0.01624,0.00443*
1,1,0.01280,0.01624,-0.00443*
1,1,0.01280,-0.01624,-0.00443*
1,1,0.01280,-0.01624,0.00443*
%
%ADD36ROUNDEDRECTD36*%
%ADD37C,0.03543*%
G36*
X292039Y325050D02*
X292076Y325039D01*
X292110Y325020D01*
X292140Y324996D01*
X292164Y324966D01*
X292183Y324932D01*
X292194Y324894D01*
X292198Y324856D01*
Y288778D01*
X292194Y288739D01*
X292183Y288702D01*
X292164Y288668D01*
X292140Y288638D01*
X292110Y288613D01*
X292076Y288595D01*
X292039Y288584D01*
X292000Y288580D01*
X278000D01*
X277961Y288584D01*
X277924Y288595D01*
X277890Y288613D01*
X277860Y288638D01*
X277835Y288668D01*
X277817Y288702D01*
X277806Y288739D01*
X277802Y288778D01*
Y324856D01*
X277806Y324894D01*
X277817Y324932D01*
X277835Y324966D01*
X277860Y324996D01*
X277890Y325020D01*
X277924Y325039D01*
X277961Y325050D01*
X278000Y325054D01*
X292000D01*
X292039Y325050D01*
D02*
G37*
G36*
X292217Y287148D02*
X292254Y287137D01*
X292288Y287118D01*
X292318Y287094D01*
X292342Y287064D01*
X292361Y287030D01*
X292372Y286993D01*
X292376Y286954D01*
Y272522D01*
X292372Y272483D01*
X292361Y272446D01*
X292342Y272412D01*
X292318Y272382D01*
X292288Y272357D01*
X292254Y272339D01*
X292217Y272328D01*
X292178Y272324D01*
X277866D01*
X277828Y272328D01*
X277791Y272339D01*
X277757Y272357D01*
X277727Y272382D01*
X277702Y272412D01*
X277684Y272446D01*
X277672Y272483D01*
X277669Y272522D01*
X277669Y286954D01*
X277673Y286993D01*
X277684Y287030D01*
X277702Y287064D01*
X277727Y287094D01*
X277757Y287118D01*
X277791Y287137D01*
X277828Y287148D01*
X277867Y287152D01*
X292178D01*
X292217Y287148D01*
D02*
G37*
G36*
X280223Y225816D02*
X280274Y225815D01*
X280325Y225814D01*
X280381Y225812D01*
X280436Y225808D01*
X280489Y225803D01*
X280540Y225798D01*
X280596Y225790D01*
X280650Y225781D01*
X280701Y225771D01*
X280751Y225759D01*
X280804Y225745D01*
X280854Y225729D01*
X280901Y225711D01*
X280951Y225690D01*
X280997Y225667D01*
X281043Y225640D01*
X281085Y225610D01*
X281129Y225576D01*
X281167Y225543D01*
X281203Y225507D01*
X281240Y225465D01*
X281239Y225465D01*
X281243Y225460D01*
X281252Y225449D01*
X281259Y225438D01*
X281267Y225427D01*
X281271Y225422D01*
X281282Y225404D01*
X281303Y225367D01*
X281321Y225329D01*
X281338Y225290D01*
X281346Y225270D01*
X281346Y225270D01*
X281348Y225263D01*
X281352Y225248D01*
X281356Y225233D01*
X281360Y225219D01*
X281363Y225211D01*
X281373Y225157D01*
X281380Y225101D01*
X281383Y225051D01*
X281383Y225000D01*
X281381Y224950D01*
X281374Y224893D01*
X281364Y224836D01*
X281350Y224787D01*
X281350Y224787D01*
X281348Y224780D01*
X281343Y224765D01*
X281338Y224750D01*
X281333Y224736D01*
X281330Y224729D01*
X281324Y224714D01*
X281311Y224686D01*
X281297Y224658D01*
X281282Y224631D01*
X281274Y224618D01*
X281274D01*
X281269Y224612D01*
X281260Y224599D01*
X281251Y224586D01*
X281242Y224573D01*
X281237Y224566D01*
X281203Y224525D01*
X281167Y224486D01*
X281127Y224449D01*
X281082Y224415D01*
X281036Y224386D01*
X280989Y224361D01*
X280942Y224340D01*
X280892Y224321D01*
X280844Y224305D01*
X280793Y224290D01*
X280740Y224278D01*
X280690Y224267D01*
X280638Y224258D01*
X280584Y224250D01*
X280534Y224244D01*
X280482Y224239D01*
X280429Y224235D01*
X280374Y224232D01*
X280318Y224230D01*
X280267Y224229D01*
X280215Y224228D01*
X277853D01*
Y217543D01*
X276098D01*
Y224228D01*
X275003Y224228D01*
X274949Y224229D01*
X274897Y224230D01*
X274846Y224232D01*
X274790Y224235D01*
X274735Y224239D01*
X274682Y224244D01*
X274630Y224250D01*
X274581Y224257D01*
X274531Y224266D01*
X274478Y224276D01*
X274428Y224287D01*
X274376Y224301D01*
X274326Y224317D01*
X274275Y224335D01*
X274229Y224355D01*
X274184Y224378D01*
X274138Y224404D01*
X274097Y224433D01*
X274059Y224466D01*
X274018Y224506D01*
X273980Y224550D01*
X273950Y224590D01*
X273950D01*
X273945Y224597D01*
X273937Y224610D01*
X273928Y224623D01*
X273920Y224637D01*
X273916Y224643D01*
X273908Y224656D01*
X273895Y224683D01*
X273882Y224710D01*
X273871Y224738D01*
X273866Y224752D01*
X273863Y224759D01*
X273858Y224775D01*
X273854Y224790D01*
X273849Y224805D01*
X273847Y224813D01*
X273835Y224867D01*
X273827Y224919D01*
X273822Y224973D01*
X273821Y225028D01*
X273822Y225079D01*
X273827Y225130D01*
X273835Y225181D01*
X273847Y225230D01*
X273863Y225283D01*
Y225283D01*
X273866Y225289D01*
X273871Y225302D01*
X273876Y225314D01*
X273881Y225326D01*
X273884Y225332D01*
X273893Y225351D01*
X273914Y225388D01*
X273936Y225424D01*
X273960Y225458D01*
X273973Y225475D01*
X273978Y225480D01*
X273988Y225492D01*
X273998Y225503D01*
X274009Y225514D01*
X274014Y225520D01*
X274054Y225558D01*
X274098Y225594D01*
X274143Y225627D01*
X274187Y225655D01*
X274233Y225679D01*
X274282Y225701D01*
X274329Y225720D01*
X274378Y225737D01*
X274431Y225752D01*
X274480Y225764D01*
X274532Y225776D01*
X274586Y225785D01*
X274636Y225793D01*
X274687Y225799D01*
X274740Y225804D01*
X274795Y225809D01*
X274852Y225812D01*
X274903Y225814D01*
X274955Y225815D01*
X275009Y225816D01*
X280223Y225816D01*
D02*
G37*
G36*
X279484Y214400D02*
X277853D01*
X277854Y206809D01*
X276098D01*
X276098Y215944D01*
X279484D01*
Y214400D01*
D02*
G37*
G36*
X292407Y225815D02*
X292460Y225814D01*
X292511Y225812D01*
X292567Y225809D01*
X292622Y225805D01*
X292676Y225799D01*
X292727Y225793D01*
X292777Y225785D01*
X292831Y225776D01*
X292883Y225765D01*
X292932Y225752D01*
X292985Y225737D01*
X293035Y225720D01*
X293082Y225702D01*
X293130Y225680D01*
X293176Y225656D01*
X293220Y225628D01*
X293264Y225595D01*
X293304Y225563D01*
X293344Y225526D01*
X293383Y225484D01*
X293388Y225479D01*
X293396Y225468D01*
X293405Y225457D01*
X293414Y225446D01*
X293418Y225440D01*
X293428Y225425D01*
X293448Y225394D01*
X293466Y225361D01*
X293482Y225329D01*
X293489Y225312D01*
X293492Y225305D01*
X293497Y225292D01*
X293501Y225278D01*
X293506Y225265D01*
X293509Y225259D01*
X293509Y225259D01*
X293524Y225203D01*
X293534Y225150D01*
X293540Y225094D01*
X293543Y225044D01*
X293543Y224993D01*
X293540Y224942D01*
X293532Y224884D01*
X293520Y224825D01*
X293518Y224818D01*
X293515Y224805D01*
X293511Y224791D01*
X293507Y224778D01*
X293505Y224771D01*
X293498Y224751D01*
X293481Y224712D01*
X293463Y224674D01*
X293444Y224637D01*
X293433Y224618D01*
X293429Y224613D01*
X293422Y224603D01*
X293415Y224592D01*
X293408Y224582D01*
X293405Y224577D01*
X293405Y224577D01*
X293369Y224532D01*
X293332Y224492D01*
X293292Y224454D01*
X293251Y224422D01*
X293207Y224393D01*
X293160Y224367D01*
X293113Y224345D01*
X293065Y224327D01*
X293017Y224310D01*
X292967Y224295D01*
X292918Y224283D01*
X292867Y224272D01*
X292817Y224263D01*
X292763Y224254D01*
X292712Y224248D01*
X292660Y224242D01*
X292607Y224237D01*
X292551Y224234D01*
X292501Y224231D01*
X292450Y224230D01*
X292397Y224229D01*
X291266Y224228D01*
Y205216D01*
X293251D01*
X293304Y205215D01*
X293355Y205214D01*
X293411Y205212D01*
X293466Y205208D01*
X293519Y205204D01*
X293571Y205198D01*
X293620Y205192D01*
X293675Y205183D01*
X293727Y205173D01*
X293777Y205162D01*
X293830Y205148D01*
X293881Y205132D01*
X293929Y205115D01*
X293979Y205094D01*
X294024Y205072D01*
X294071Y205045D01*
X294113Y205017D01*
X294155Y204984D01*
X294198Y204948D01*
X294240Y204907D01*
X294245Y204902D01*
X294254Y204891D01*
X294263Y204881D01*
X294272Y204870D01*
X294276Y204865D01*
X294280Y204860D01*
X294288Y204849D01*
X294296Y204838D01*
X294304Y204827D01*
X294308Y204822D01*
X294317Y204809D01*
X294333Y204782D01*
X294348Y204754D01*
X294361Y204726D01*
X294367Y204712D01*
X294369Y204705D01*
X294374Y204692D01*
X294379Y204678D01*
X294384Y204665D01*
X294386Y204659D01*
Y204659D01*
X294401Y204603D01*
X294411Y204550D01*
X294418Y204494D01*
X294420Y204444D01*
X294420Y204392D01*
X294416Y204335D01*
X294407Y204275D01*
X294405Y204268D01*
X294402Y204254D01*
X294399Y204240D01*
X294395Y204226D01*
X294394Y204219D01*
X294392Y204212D01*
X294387Y204199D01*
X294383Y204185D01*
X294378Y204172D01*
X294376Y204165D01*
X294372Y204155D01*
X294364Y204135D01*
X294355Y204115D01*
X294346Y204096D01*
X294341Y204086D01*
X294338Y204081D01*
X294331Y204069D01*
X294324Y204057D01*
X294317Y204046D01*
X294314Y204040D01*
X294314Y204040D01*
X294281Y203992D01*
X294247Y203950D01*
X294210Y203911D01*
X294170Y203873D01*
X294128Y203838D01*
X294084Y203807D01*
X294038Y203780D01*
X293990Y203755D01*
X293941Y203734D01*
X293894Y203716D01*
X293844Y203700D01*
X293791Y203686D01*
X293742Y203674D01*
X293690Y203664D01*
X293637Y203655D01*
X293581Y203647D01*
X293530Y203641D01*
X293477Y203636D01*
X293423Y203633D01*
X293367Y203630D01*
X293316Y203629D01*
X293264Y203628D01*
X287150Y203628D01*
X287097Y203629D01*
X287046Y203630D01*
X286990Y203632D01*
X286935Y203636D01*
X286882Y203640D01*
X286830Y203646D01*
X286780Y203652D01*
X286726Y203661D01*
X286674Y203671D01*
X286624Y203682D01*
X286571Y203696D01*
X286520Y203712D01*
X286472Y203729D01*
X286422Y203750D01*
X286377Y203772D01*
X286330Y203799D01*
X286288Y203827D01*
X286246Y203859D01*
X286207Y203895D01*
X286171Y203931D01*
X286133Y203975D01*
X286097Y204024D01*
X286093Y204031D01*
X286085Y204044D01*
X286077Y204057D01*
X286069Y204070D01*
X286065Y204077D01*
X286065Y204077D01*
X286057Y204093D01*
X286041Y204125D01*
X286028Y204158D01*
X286015Y204192D01*
X286010Y204209D01*
X286008Y204217D01*
X286004Y204232D01*
X286000Y204246D01*
X285997Y204261D01*
X285995Y204269D01*
X285986Y204321D01*
X285982Y204372D01*
X285981Y204379D01*
X285981Y204393D01*
X285981Y204407D01*
X285980Y204421D01*
X285980Y204428D01*
Y204428D01*
X285982Y204479D01*
X285986Y204529D01*
X285994Y204584D01*
X286006Y204637D01*
X286022Y204692D01*
X286025Y204698D01*
X286030Y204710D01*
X286034Y204722D01*
X286039Y204735D01*
X286042Y204741D01*
X286050Y204758D01*
X286068Y204791D01*
X286086Y204823D01*
X286107Y204855D01*
X286117Y204871D01*
X286117D01*
X286122Y204877D01*
X286132Y204889D01*
X286142Y204900D01*
X286152Y204912D01*
X286157Y204918D01*
Y204918D01*
X286192Y204955D01*
X286230Y204988D01*
X286273Y205021D01*
X286316Y205049D01*
X286363Y205075D01*
X286411Y205098D01*
X286457Y205116D01*
X286507Y205134D01*
X286559Y205149D01*
X286608Y205162D01*
X286659Y205173D01*
X286712Y205183D01*
X286768Y205192D01*
X286819Y205198D01*
X286872Y205204D01*
X286927Y205208D01*
X286983Y205212D01*
X287034Y205214D01*
X287086Y205215D01*
X287140Y205216D01*
X289490Y205216D01*
Y214400D01*
X281098D01*
Y215988D01*
X289490D01*
Y224228D01*
X287590D01*
Y225816D01*
X292352D01*
X292407Y225815D01*
D02*
G37*
G36*
X280223Y205216D02*
X280274Y205215D01*
X280325Y205214D01*
X280381Y205211D01*
X280436Y205208D01*
X280489Y205203D01*
X280540Y205198D01*
X280596Y205190D01*
X280650Y205181D01*
X280701Y205171D01*
X280751Y205159D01*
X280804Y205145D01*
X280854Y205129D01*
X280901Y205111D01*
X280951Y205090D01*
X280997Y205067D01*
X281043Y205040D01*
X281085Y205010D01*
X281129Y204976D01*
X281167Y204943D01*
X281203Y204907D01*
X281240Y204865D01*
X281239Y204865D01*
X281243Y204860D01*
X281251Y204849D01*
X281259Y204838D01*
X281267Y204827D01*
X281271Y204822D01*
X281281Y204807D01*
X281299Y204776D01*
X281315Y204745D01*
X281330Y204712D01*
X281336Y204696D01*
X281339Y204689D01*
X281344Y204674D01*
X281348Y204660D01*
X281353Y204645D01*
X281356Y204638D01*
X281368Y204587D01*
X281377Y204535D01*
X281382Y204482D01*
X281384Y204431D01*
X281382Y204376D01*
X281378Y204326D01*
X281370Y204275D01*
X281357Y204219D01*
X281357D01*
X281355Y204212D01*
X281350Y204199D01*
X281346Y204185D01*
X281342Y204172D01*
X281339Y204165D01*
X281334Y204152D01*
X281324Y204128D01*
X281312Y204103D01*
X281300Y204080D01*
X281294Y204068D01*
X281290Y204062D01*
X281282Y204049D01*
X281275Y204037D01*
X281267Y204025D01*
X281263Y204019D01*
X281232Y203977D01*
X281199Y203938D01*
X281163Y203901D01*
X281123Y203864D01*
X281081Y203830D01*
X281037Y203801D01*
X280991Y203774D01*
X280945Y203751D01*
X280895Y203730D01*
X280847Y203713D01*
X280797Y203697D01*
X280744Y203683D01*
X280694Y203672D01*
X280642Y203661D01*
X280588Y203653D01*
X280538Y203646D01*
X280487Y203641D01*
X280434Y203636D01*
X280379Y203632D01*
X280323Y203630D01*
X280272Y203629D01*
X280220Y203628D01*
X274090Y203628D01*
X274038Y203629D01*
X273988Y203631D01*
X273932Y203633D01*
X273878Y203637D01*
X273825Y203642D01*
X273774Y203648D01*
X273719Y203656D01*
X273666Y203665D01*
X273615Y203676D01*
X273566Y203687D01*
X273513Y203702D01*
X273464Y203718D01*
X273417Y203736D01*
X273368Y203758D01*
X273321Y203783D01*
X273275Y203810D01*
X273232Y203842D01*
X273190Y203876D01*
X273150Y203915D01*
X273113Y203955D01*
X273079Y203998D01*
X273046Y204047D01*
Y204047D01*
X273042Y204053D01*
X273035Y204067D01*
X273027Y204080D01*
X273020Y204093D01*
X273016Y204100D01*
X273010Y204113D01*
X272998Y204140D01*
X272987Y204167D01*
X272977Y204195D01*
X272973Y204209D01*
X272971Y204217D01*
X272967Y204232D01*
X272964Y204246D01*
X272960Y204261D01*
X272958Y204269D01*
X272950Y204321D01*
X272945Y204372D01*
X272943Y204428D01*
X272945Y204479D01*
X272950Y204530D01*
X272958Y204580D01*
X272969Y204630D01*
X272986Y204683D01*
X272986Y204683D01*
X272988Y204689D01*
X272993Y204701D01*
X272998Y204714D01*
X273004Y204726D01*
X273006Y204732D01*
X273015Y204750D01*
X273033Y204784D01*
X273054Y204817D01*
X273076Y204849D01*
X273087Y204865D01*
X273087D01*
X273092Y204870D01*
X273101Y204881D01*
X273110Y204891D01*
X273119Y204902D01*
X273124Y204907D01*
X273166Y204948D01*
X273210Y204985D01*
X273251Y205017D01*
X273294Y205046D01*
X273341Y205072D01*
X273387Y205095D01*
X273437Y205116D01*
X273485Y205133D01*
X273536Y205148D01*
X273589Y205162D01*
X273639Y205174D01*
X273691Y205184D01*
X273745Y205192D01*
X273795Y205199D01*
X273847Y205204D01*
X273900Y205208D01*
X273955Y205212D01*
X274012Y205214D01*
X274062Y205215D01*
X274113Y205216D01*
X280223Y205216D01*
D02*
G37*
D15*
X253285Y235876D02*
D03*
X259285D02*
D03*
X201305Y290667D02*
D03*
X207305D02*
D03*
X215931Y302622D02*
D03*
X209931D02*
D03*
X201449Y296612D02*
D03*
X207449D02*
D03*
X228500Y260000D02*
D03*
X234500D02*
D03*
X207500Y236500D02*
D03*
X213500D02*
D03*
Y242500D02*
D03*
X207500D02*
D03*
X272000Y239500D02*
D03*
X278000D02*
D03*
X241000Y224200D02*
D03*
X265500Y233500D02*
D03*
X271500D02*
D03*
X228500Y224000D02*
D03*
X234500D02*
D03*
X264984Y274982D02*
D03*
X258984D02*
D03*
X246984D02*
D03*
X252984D02*
D03*
X227500Y229000D02*
D03*
X221500D02*
D03*
X247000Y224200D02*
D03*
X234500Y205200D02*
D03*
X240500D02*
D03*
D16*
X219416Y290676D02*
D03*
Y296676D02*
D03*
X213401Y290568D02*
D03*
Y296568D02*
D03*
X271500Y251500D02*
D03*
Y257500D02*
D03*
X271000Y273500D02*
D03*
Y267500D02*
D03*
X240500Y260500D02*
D03*
Y266500D02*
D03*
X242000Y241500D02*
D03*
Y235500D02*
D03*
X246500Y210199D02*
D03*
Y216199D02*
D03*
X252500Y210199D02*
D03*
Y216199D02*
D03*
X258500Y210199D02*
D03*
Y216199D02*
D03*
X221000Y217199D02*
D03*
Y223200D02*
D03*
X215000Y217199D02*
D03*
Y223200D02*
D03*
X224500Y205200D02*
D03*
Y211199D02*
D03*
X218500D02*
D03*
Y205200D02*
D03*
X219500Y236500D02*
D03*
Y242500D02*
D03*
D17*
X215795Y308411D02*
D03*
X209888Y308196D02*
D03*
D18*
X252698Y221450D02*
D03*
X255258D02*
D03*
X257817D02*
D03*
X252698Y230308D02*
D03*
X255258D02*
D03*
X257817D02*
D03*
D19*
X287557Y259034D02*
D03*
X278187Y255294D02*
D03*
Y262774D02*
D03*
D20*
X283888Y319882D02*
D03*
X261000D02*
D03*
D21*
X276464Y204582D02*
D03*
X276976Y214621D02*
D03*
X290362Y225015D02*
D03*
X276976Y224836D02*
D03*
D22*
X216000Y272500D02*
D03*
X204000D02*
D03*
D23*
X248484Y264985D02*
D03*
X253484D02*
D03*
X258484D02*
D03*
X263484D02*
D03*
Y245980D02*
D03*
X258484D02*
D03*
X253484D02*
D03*
D24*
X248484D02*
D03*
D25*
X240588Y218215D02*
D03*
Y210538D02*
D03*
X230351D02*
D03*
Y215656D02*
D03*
Y213097D02*
D03*
X240588D02*
D03*
Y215656D02*
D03*
D26*
X285000Y305500D02*
D03*
Y283000D02*
D03*
D27*
X228500Y273000D02*
D03*
X239000Y280000D02*
D03*
D28*
X239500Y273000D02*
D03*
X228000Y280000D02*
D03*
D29*
X229087Y289724D02*
D03*
Y305276D02*
D03*
D30*
X264913Y297500D02*
D03*
D31*
X224764Y241650D02*
D03*
Y238500D02*
D03*
Y235350D02*
D03*
X235236Y241650D02*
D03*
Y238500D02*
D03*
D32*
Y235350D02*
D03*
D33*
X230000Y238500D02*
D03*
D34*
X227500Y250500D02*
D03*
D35*
X212500D02*
D03*
D36*
X230351Y218215D02*
D03*
D37*
X280831Y298425D02*
D03*
Y291407D02*
D03*
X289193Y291364D02*
D03*
Y298425D02*
D03*
X289194Y311088D02*
D03*
X280829Y311046D02*
D03*
M02*
