G04*
G04 #@! TF.GenerationSoftware,Altium Limited,Altium Designer,21.7.2 (23)*
G04*
G04 Layer_Color=65535*
%FSLAX25Y25*%
%MOIN*%
G70*
G04*
G04 #@! TF.SameCoordinates,A1ADA5E8-AEB3-433E-A02D-67FD1DACD288*
G04*
G04*
G04 #@! TF.FilePolarity,Positive*
G04*
G01*
G75*
%ADD10C,0.00984*%
%ADD11C,0.00787*%
%ADD12C,0.00600*%
%ADD13C,0.00800*%
%ADD14C,0.02000*%
G36*
X269190Y205464D02*
X269155Y205501D01*
X269116Y205548D01*
X269112Y205553D01*
X269104Y205565D01*
X269096Y205576D01*
X269088Y205588D01*
X269084Y205594D01*
X269078Y205603D01*
X269067Y205623D01*
X269055Y205643D01*
X269044Y205663D01*
X269039Y205673D01*
X269035Y205681D01*
X269028Y205697D01*
X269022Y205713D01*
X269015Y205729D01*
X269012Y205737D01*
X269010Y205745D01*
X269005Y205759D01*
X269001Y205773D01*
X268996Y205787D01*
X268994Y205794D01*
X268994Y205794D01*
X268982Y205844D01*
X268974Y205894D01*
X268969Y205945D01*
X268966Y205999D01*
X268967Y206049D01*
X268970Y206099D01*
X268976Y206151D01*
X268985Y206201D01*
X269000Y206257D01*
X269017Y206308D01*
X269020Y206316D01*
X269027Y206331D01*
X269033Y206346D01*
X269040Y206361D01*
X269043Y206368D01*
X269050Y206381D01*
X269065Y206406D01*
X269080Y206430D01*
X269095Y206454D01*
X269104Y206466D01*
X269108Y206471D01*
X269116Y206481D01*
X269125Y206492D01*
X269133Y206502D01*
X269137Y206507D01*
X269137Y206507D01*
X269177Y206549D01*
X269220Y206588D01*
X269262Y206622D01*
X269304Y206651D01*
X269349Y206677D01*
X269396Y206701D01*
X269446Y206721D01*
X269497Y206739D01*
X269545Y206754D01*
X269596Y206767D01*
X269648Y206778D01*
X269698Y206786D01*
X269749Y206793D01*
X269802Y206799D01*
X269857Y206804D01*
X269908Y206807D01*
X269960Y206808D01*
X270013Y206809D01*
X272174Y206809D01*
Y225841D01*
X270029D01*
X269974Y225842D01*
X269922Y225843D01*
X269871Y225846D01*
X269815Y225850D01*
X269762Y225855D01*
X269710Y225861D01*
X269660Y225869D01*
X269607Y225878D01*
X269556Y225890D01*
X269508Y225902D01*
X269457Y225918D01*
X269409Y225936D01*
X269360Y225957D01*
X269312Y225982D01*
X269269Y226008D01*
X269228Y226038D01*
X269186Y226076D01*
X269150Y226115D01*
X269146Y226120D01*
X269137Y226131D01*
X269128Y226142D01*
X269120Y226152D01*
X269115Y226158D01*
X269110Y226166D01*
X269099Y226182D01*
X269088Y226199D01*
X269077Y226215D01*
X269072Y226224D01*
X269066Y226234D01*
X269055Y226254D01*
X269044Y226275D01*
X269034Y226296D01*
X269030Y226307D01*
X269030D01*
X269027Y226314D01*
X269022Y226327D01*
X269017Y226341D01*
X269011Y226354D01*
X269009Y226361D01*
Y226361D01*
X268994Y226410D01*
X268983Y226460D01*
X268974Y226511D01*
X268969Y226565D01*
X268966Y226622D01*
X268967Y226673D01*
X268970Y226727D01*
X268978Y226782D01*
X268980Y226789D01*
X268983Y226804D01*
X268986Y226818D01*
X268989Y226833D01*
X268991Y226841D01*
X268992Y226847D01*
X268996Y226859D01*
X268999Y226872D01*
X269003Y226884D01*
X269005Y226890D01*
X269010Y226905D01*
X269021Y226933D01*
X269032Y226961D01*
X269045Y226988D01*
X269052Y227002D01*
X269056Y227008D01*
X269062Y227019D01*
X269069Y227031D01*
X269076Y227043D01*
X269079Y227049D01*
X269079Y227049D01*
X269108Y227092D01*
X269139Y227133D01*
X269174Y227172D01*
X269212Y227211D01*
X269250Y227246D01*
X269292Y227280D01*
X269335Y227307D01*
X269381Y227331D01*
X269428Y227351D01*
X269476Y227368D01*
X269527Y227383D01*
X269578Y227396D01*
X269627Y227406D01*
X269679Y227414D01*
X269729Y227421D01*
X269781Y227426D01*
X269836Y227431D01*
X269887Y227433D01*
X269944Y227436D01*
X269997Y227437D01*
X287589Y227437D01*
Y221948D01*
X287589Y221892D01*
X287587Y221840D01*
X287584Y221789D01*
X287580Y221733D01*
X287575Y221680D01*
X287568Y221628D01*
X287559Y221578D01*
X287549Y221525D01*
X287536Y221474D01*
X287522Y221426D01*
X287505Y221375D01*
X287486Y221327D01*
X287463Y221279D01*
X287436Y221231D01*
X287406Y221185D01*
X287374Y221145D01*
X287340Y221108D01*
X287303Y221073D01*
X287256Y221035D01*
X287250Y221030D01*
X287240Y221023D01*
X287228Y221015D01*
X287217Y221007D01*
X287212Y221003D01*
X287203Y220998D01*
X287187Y220988D01*
X287170Y220978D01*
X287153Y220969D01*
X287145Y220964D01*
X287145D01*
X287135Y220959D01*
X287113Y220949D01*
X287092Y220940D01*
X287071Y220932D01*
X287060Y220928D01*
X287053Y220926D01*
X287039Y220921D01*
X287026Y220917D01*
X287012Y220913D01*
X287005Y220911D01*
X287005Y220911D01*
X286957Y220900D01*
X286899Y220890D01*
X286849Y220886D01*
X286796Y220884D01*
X286741Y220885D01*
X286690Y220889D01*
X286634Y220897D01*
X286580Y220908D01*
X286572Y220910D01*
X286558Y220914D01*
X286544Y220918D01*
X286530Y220922D01*
X286523Y220924D01*
X286516Y220926D01*
X286504Y220930D01*
X286492Y220935D01*
X286480Y220939D01*
X286474Y220941D01*
X286456Y220949D01*
X286419Y220967D01*
X286384Y220986D01*
X286349Y221007D01*
X286332Y221018D01*
X286327Y221022D01*
X286317Y221029D01*
X286306Y221037D01*
X286296Y221045D01*
X286291Y221049D01*
X286291D01*
X286246Y221087D01*
X286206Y221128D01*
X286171Y221169D01*
X286140Y221212D01*
X286113Y221257D01*
X286089Y221304D01*
X286068Y221353D01*
X286050Y221400D01*
X286034Y221453D01*
X286021Y221503D01*
X286010Y221555D01*
X286000Y221609D01*
X285992Y221660D01*
X285986Y221713D01*
X285982Y221768D01*
X285979Y221819D01*
X285977Y221870D01*
X285976Y221924D01*
X285975Y225841D01*
X273769D01*
Y217541D01*
X279483D01*
Y219345D01*
X279484Y219400D01*
X279485Y219453D01*
X279488Y219504D01*
X279492Y219559D01*
X279498Y219613D01*
X279504Y219665D01*
X279513Y219715D01*
X279523Y219768D01*
X279536Y219819D01*
X279550Y219867D01*
X279567Y219918D01*
X279586Y219966D01*
X279609Y220014D01*
X279636Y220062D01*
X279666Y220108D01*
X279698Y220148D01*
X279736Y220188D01*
X279775Y220225D01*
X279781Y220229D01*
X279791Y220238D01*
X279802Y220247D01*
X279813Y220255D01*
X279819Y220259D01*
X279827Y220265D01*
X279843Y220276D01*
X279859Y220287D01*
X279876Y220298D01*
X279884Y220303D01*
X279894Y220309D01*
X279915Y220320D01*
X279936Y220331D01*
X279958Y220341D01*
X279968Y220346D01*
X279975Y220348D01*
X279989Y220354D01*
X280002Y220359D01*
X280015Y220364D01*
X280022Y220366D01*
X280022Y220366D01*
X280071Y220381D01*
X280121Y220392D01*
X280172Y220401D01*
X280226Y220406D01*
X280283Y220409D01*
X280337Y220408D01*
X280393Y220404D01*
X280449Y220396D01*
X280456Y220395D01*
X280470Y220392D01*
X280484Y220389D01*
X280498Y220386D01*
X280505Y220384D01*
X280511Y220382D01*
X280523Y220379D01*
X280535Y220375D01*
X280547Y220372D01*
X280553Y220370D01*
X280553D01*
X280572Y220363D01*
X280609Y220348D01*
X280645Y220332D01*
X280681Y220313D01*
X280698Y220303D01*
X280703Y220300D01*
X280714Y220293D01*
X280724Y220286D01*
X280735Y220279D01*
X280740Y220276D01*
X280740Y220276D01*
X280787Y220240D01*
X280829Y220203D01*
X280868Y220163D01*
X280901Y220124D01*
X280932Y220081D01*
X280959Y220036D01*
X280983Y219989D01*
X281005Y219939D01*
X281022Y219892D01*
X281038Y219840D01*
X281051Y219790D01*
X281063Y219738D01*
X281072Y219684D01*
X281080Y219632D01*
X281086Y219579D01*
X281090Y219525D01*
X281094Y219474D01*
X281096Y219422D01*
X281097Y219369D01*
X281097Y214141D01*
X281096Y214086D01*
X281095Y214034D01*
X281092Y213983D01*
X281088Y213927D01*
X281082Y213873D01*
X281075Y213822D01*
X281067Y213772D01*
X281056Y213719D01*
X281044Y213668D01*
X281030Y213619D01*
X281013Y213568D01*
X280994Y213520D01*
X280971Y213473D01*
X280944Y213424D01*
X280913Y213379D01*
X280881Y213338D01*
X280847Y213302D01*
X280811Y213267D01*
X280764Y213228D01*
X280758Y213224D01*
X280747Y213216D01*
X280736Y213208D01*
X280725Y213200D01*
X280719Y213197D01*
X280711Y213192D01*
X280695Y213182D01*
X280678Y213172D01*
X280661Y213162D01*
X280652Y213158D01*
X280642Y213153D01*
X280621Y213143D01*
X280600Y213134D01*
X280578Y213125D01*
X280568Y213121D01*
X280561Y213119D01*
X280547Y213115D01*
X280534Y213111D01*
X280520Y213106D01*
X280513Y213104D01*
X280513D01*
X280464Y213093D01*
X280406Y213084D01*
X280357Y213079D01*
X280303Y213077D01*
X280249Y213079D01*
X280198Y213083D01*
X280142Y213090D01*
X280087Y213101D01*
X280080Y213103D01*
X280066Y213107D01*
X280051Y213111D01*
X280037Y213115D01*
X280030Y213118D01*
X280024Y213120D01*
X280012Y213124D01*
X280000Y213128D01*
X279988Y213133D01*
X279982Y213135D01*
Y213135D01*
X279963Y213143D01*
X279927Y213160D01*
X279891Y213179D01*
X279857Y213200D01*
X279840Y213211D01*
X279835Y213215D01*
X279824Y213223D01*
X279814Y213231D01*
X279804Y213238D01*
X279799Y213242D01*
X279799Y213242D01*
X279754Y213281D01*
X279714Y213321D01*
X279678Y213363D01*
X279648Y213406D01*
X279621Y213451D01*
X279597Y213497D01*
X279575Y213547D01*
X279558Y213594D01*
X279542Y213646D01*
X279529Y213696D01*
X279517Y213748D01*
X279507Y213803D01*
X279500Y213854D01*
X279494Y213907D01*
X279489Y213962D01*
X279486Y214012D01*
X279484Y214064D01*
X279483Y214117D01*
X279483Y215945D01*
X273769D01*
Y206809D01*
X279236D01*
X279291Y206809D01*
X279344Y206807D01*
X279395Y206805D01*
X279450Y206800D01*
X279504Y206795D01*
X279556Y206788D01*
X279605Y206780D01*
X279659Y206769D01*
X279710Y206757D01*
X279758Y206743D01*
X279809Y206725D01*
X279857Y206706D01*
X279904Y206684D01*
X279953Y206657D01*
X279998Y206626D01*
X280039Y206594D01*
X280079Y206558D01*
X280114Y206523D01*
X280119Y206517D01*
X280129Y206506D01*
X280138Y206495D01*
X280147Y206484D01*
X280152Y206479D01*
X280163Y206464D01*
X280184Y206434D01*
X280203Y206402D01*
X280221Y206370D01*
X280229Y206353D01*
Y206353D01*
X280232Y206346D01*
X280238Y206333D01*
X280244Y206319D01*
X280249Y206306D01*
X280252Y206299D01*
X280252Y206299D01*
X280268Y206250D01*
X280282Y206194D01*
X280291Y206139D01*
X280297Y206086D01*
X280299Y206036D01*
X280299Y205981D01*
X280295Y205927D01*
X280289Y205874D01*
X280278Y205820D01*
X280276Y205813D01*
X280272Y205798D01*
X280268Y205783D01*
X280263Y205767D01*
X280261Y205760D01*
X280258Y205751D01*
X280252Y205734D01*
X280245Y205716D01*
X280238Y205699D01*
X280234Y205691D01*
X280231Y205683D01*
X280224Y205668D01*
X280216Y205652D01*
X280208Y205637D01*
X280204Y205630D01*
X280200Y205624D01*
X280192Y205611D01*
X280184Y205598D01*
X280176Y205586D01*
X280172Y205579D01*
X280172Y205579D01*
X280142Y205538D01*
X280110Y205500D01*
X280074Y205462D01*
X280032Y205424D01*
X279992Y205393D01*
X279946Y205363D01*
X279902Y205339D01*
X279854Y205316D01*
X279805Y205296D01*
X279754Y205279D01*
X279705Y205266D01*
X279654Y205253D01*
X279601Y205243D01*
X279551Y205235D01*
X279499Y205228D01*
X279445Y205223D01*
X279389Y205218D01*
X279338Y205216D01*
X279286Y205214D01*
X270029Y205214D01*
X269974Y205215D01*
X269922Y205216D01*
X269871Y205219D01*
X269815Y205223D01*
X269762Y205228D01*
X269710Y205235D01*
X269660Y205244D01*
X269607Y205254D01*
X269556Y205267D01*
X269508Y205281D01*
X269457Y205298D01*
X269409Y205317D01*
X269361Y205340D01*
X269313Y205367D01*
X269267Y205397D01*
X269227Y205430D01*
X269190Y205464D01*
D02*
G37*
G36*
X243562Y326554D02*
X243712Y326521D01*
X243878Y326471D01*
X244061Y326388D01*
X244245Y326288D01*
X244428Y326138D01*
X244445Y326121D01*
X244478Y326088D01*
X244528Y326021D01*
X244578Y325971D01*
X244595Y325954D01*
X244628Y325904D01*
X244678Y325821D01*
X244728Y325738D01*
X244745Y325688D01*
X250209Y316225D01*
X250226Y316208D01*
X250259Y316142D01*
X250292Y316042D01*
X250342Y315925D01*
X250376Y315758D01*
X250392Y315575D01*
Y315375D01*
X250359Y315159D01*
Y315142D01*
X250342Y315092D01*
X250326Y315025D01*
X250292Y314926D01*
Y314909D01*
X250259Y314859D01*
X250226Y314759D01*
Y314626D01*
X250159D01*
X250226Y314759D01*
X250209Y314742D01*
X250159Y314659D01*
X250093Y314559D01*
X249976Y314442D01*
X249843Y314309D01*
X249693Y314192D01*
X249493Y314076D01*
X249293Y313993D01*
X249259D01*
X249209Y313976D01*
X249126Y313959D01*
X249076Y313943D01*
X249060D01*
X249010Y313926D01*
X248943D01*
X248843Y313909D01*
X237781D01*
X237664Y313926D01*
X237514Y313959D01*
X237331Y314009D01*
X237148Y314092D01*
X236964Y314192D01*
X236781Y314326D01*
X236765Y314342D01*
X236715Y314392D01*
X236665Y314442D01*
X236614Y314509D01*
X236598Y314526D01*
X236564Y314559D01*
X236531Y314592D01*
X236515Y314609D01*
X236448D01*
Y314742D01*
X236431Y314759D01*
X236415Y314826D01*
X236365Y314926D01*
X236331Y315059D01*
X236298Y315209D01*
X236265Y315392D01*
Y315609D01*
X236298Y315825D01*
X236315Y315858D01*
X236331Y315908D01*
X236348Y315975D01*
X236365Y316025D01*
Y316042D01*
X236381Y316075D01*
X236415Y316142D01*
X236448Y316225D01*
Y316242D01*
X236465Y316275D01*
X236481Y316308D01*
Y316325D01*
X236498Y316342D01*
X236515Y316358D01*
Y316375D01*
X236531D01*
X241996Y325821D01*
Y325838D01*
X242029Y325854D01*
X242112Y325954D01*
X242179Y326004D01*
X242262Y326054D01*
X242362Y326088D01*
X242394Y326092D01*
X242412Y326138D01*
X242479Y326271D01*
X242529Y326338D01*
X242562Y326371D01*
X242579Y326388D01*
X242629Y326404D01*
X242695Y326437D01*
X242779Y326471D01*
X242895Y326504D01*
X243029Y326537D01*
X243179Y326571D01*
X243428D01*
X243562Y326554D01*
D02*
G37*
%LPC*%
G36*
X243145Y325455D02*
Y325271D01*
Y325255D01*
X243129Y325238D01*
X243095Y325221D01*
X243045Y325188D01*
X243012Y325171D01*
X242945Y325138D01*
X242962D01*
X242945Y325121D01*
X242929Y325105D01*
X242879Y325038D01*
X242829Y324955D01*
X240413Y320873D01*
X240979Y320540D01*
Y320556D01*
X240996Y320573D01*
X241063Y320640D01*
X241113Y320690D01*
X241179Y320740D01*
X241196Y320757D01*
X241246Y320806D01*
X241346Y320873D01*
X241463Y320956D01*
X241479Y320973D01*
X241546Y321006D01*
X241563D01*
X241579Y321023D01*
X241663Y321073D01*
X241696Y321090D01*
X241762Y321123D01*
X241829Y321173D01*
X241896Y321206D01*
X241912Y321223D01*
X241979Y321273D01*
X242079Y321323D01*
X242196Y321406D01*
X242329Y321490D01*
X242479Y321573D01*
X242645Y321656D01*
X242795Y321723D01*
X242812D01*
X242879Y321739D01*
X242962Y321773D01*
X243079Y321789D01*
X243229Y321806D01*
X243395Y321823D01*
X243578Y321839D01*
X244078D01*
X244128Y321823D01*
X244212D01*
X244395Y321806D01*
X244711D01*
X244795Y321823D01*
X244895Y321839D01*
X245011Y321856D01*
X245161Y321889D01*
X245311Y321923D01*
X245578Y322073D01*
X243878Y324888D01*
X243862Y324905D01*
X243828Y324955D01*
X243795Y325005D01*
X243778Y325055D01*
X243762Y325071D01*
X243678Y325138D01*
X243662Y325155D01*
X243612Y325205D01*
X243562Y325255D01*
X243528Y325271D01*
X243145Y325455D01*
D02*
G37*
G36*
X245694Y321756D02*
X245678Y321623D01*
X245211Y321373D01*
X245194D01*
X245178Y321356D01*
X245128Y321340D01*
X245061Y321306D01*
X244878Y321273D01*
X244645Y321240D01*
X244245D01*
X244012Y321256D01*
X243995Y321273D01*
X243962Y321290D01*
X243862Y321373D01*
X243712Y321506D01*
X243578Y321639D01*
X243562Y321623D01*
X243528Y321589D01*
X243478Y321523D01*
X243395Y321456D01*
X243212Y321290D01*
X243095Y321223D01*
X242979Y321173D01*
X242962D01*
X242929Y321156D01*
X242862Y321123D01*
X242762Y321090D01*
X242662Y321023D01*
X242529Y320956D01*
X242395Y320873D01*
X242246Y320757D01*
X242229Y320740D01*
X242179Y320707D01*
X242079Y320656D01*
X241946Y320573D01*
X241912Y320556D01*
X241862Y320523D01*
X241779Y320473D01*
X241762Y320457D01*
X241696Y320423D01*
X241613Y320373D01*
X241513Y320290D01*
X241496Y320273D01*
X241479D01*
X241445Y320262D01*
X245144Y318158D01*
X245161D01*
X245194Y318174D01*
X245244Y318208D01*
X245328Y318257D01*
X245428Y318341D01*
X245561Y318424D01*
X245694Y318557D01*
X245861Y318724D01*
X245878Y318741D01*
X245894Y318774D01*
X245977Y318857D01*
X245994Y318891D01*
X246061Y318957D01*
X246077Y318974D01*
X246094Y319024D01*
X246144Y319124D01*
X246177Y319190D01*
X246211Y319274D01*
Y319290D01*
X246227Y319307D01*
X246261Y319424D01*
X246327Y319557D01*
X246411Y319724D01*
X246427Y319757D01*
X246477Y319824D01*
X246544Y319907D01*
X246644Y320023D01*
X246660Y320040D01*
X246677Y320057D01*
X246710Y320073D01*
X246727Y320057D01*
X245694Y321756D01*
D02*
G37*
G36*
X242179Y318874D02*
X242162Y318841D01*
X242146Y318857D01*
X242129Y318841D01*
X242096Y318807D01*
X242079Y318757D01*
X242062Y318741D01*
X242046Y318641D01*
X242039Y318601D01*
X242046Y318607D01*
X242062Y318641D01*
X242112Y318707D01*
X242146Y318774D01*
X242179Y318841D01*
Y318874D01*
D02*
G37*
G36*
X242596Y318624D02*
X242579Y318607D01*
X242562D01*
X242629Y318541D01*
Y318574D01*
Y318591D01*
Y318607D01*
X242596Y318624D01*
D02*
G37*
G36*
X243245Y318259D02*
X243245Y318257D01*
X243262Y318224D01*
X243279Y318191D01*
Y318185D01*
X243312Y318208D01*
X243362Y318191D01*
X243245Y318259D01*
D02*
G37*
G36*
X242039Y318601D02*
X241996Y318557D01*
X241946Y318474D01*
X241929Y318424D01*
Y318407D01*
Y318374D01*
X241962Y318274D01*
X241979Y318191D01*
X242012Y318108D01*
Y318091D01*
X242029Y318041D01*
Y317941D01*
X242046Y317824D01*
X242062Y317758D01*
Y317741D01*
X242077Y317812D01*
X242062Y317891D01*
X242046Y317974D01*
X242029Y318041D01*
Y318108D01*
Y318124D01*
Y318158D01*
Y318274D01*
Y318291D01*
Y318324D01*
Y318441D01*
Y318474D01*
Y318541D01*
X242039Y318601D01*
D02*
G37*
G36*
X242629Y318541D02*
X242612Y318441D01*
Y318424D01*
Y318391D01*
Y318274D01*
Y318158D01*
Y318124D01*
Y318108D01*
Y318091D01*
Y318024D01*
Y317941D01*
X242629Y317874D01*
X242645Y317858D01*
X242662Y317774D01*
X242679Y317741D01*
Y317724D01*
X242684Y317709D01*
X242762Y317774D01*
X242862Y317841D01*
X242845D01*
X242812Y317858D01*
X242779Y317891D01*
X242762Y317941D01*
X242745Y317958D01*
X242712Y318008D01*
X242695Y318041D01*
X242679Y318108D01*
X242662Y318208D01*
X242645Y318341D01*
Y318357D01*
Y318424D01*
X242662Y318474D01*
X242679Y318491D01*
X242629Y318541D01*
D02*
G37*
G36*
X242096Y317874D02*
Y317858D01*
X242079Y317824D01*
X242077Y317812D01*
X242096Y317708D01*
Y317624D01*
Y317558D01*
Y317524D01*
X242079Y317458D01*
X242062Y317358D01*
Y317241D01*
X242046D01*
X242029Y317225D01*
X241966Y317209D01*
X242029Y317158D01*
X242096Y317058D01*
X242146Y316941D01*
X242129Y316991D01*
X242112Y317025D01*
Y317075D01*
X242096Y317158D01*
Y317258D01*
X242112Y317241D01*
X242162Y317208D01*
X242196Y317175D01*
X242229Y317125D01*
X242237D01*
X242262Y317175D01*
X242329Y317241D01*
X242312Y317258D01*
X242262Y317308D01*
X242212Y317391D01*
X242146Y317524D01*
Y317541D01*
X242162Y317558D01*
X242179Y317641D01*
Y317691D01*
Y317758D01*
X242146Y317808D01*
X242096Y317874D01*
D02*
G37*
G36*
X243745Y317908D02*
X243728Y317891D01*
X243678Y317841D01*
X243595Y317758D01*
X243445Y317641D01*
X243428D01*
X243412Y317608D01*
X243312Y317524D01*
X243179Y317391D01*
X243029Y317241D01*
X243012Y317225D01*
X242962Y317175D01*
X242895Y317091D01*
X242829Y316991D01*
X242745Y316891D01*
X242725Y316856D01*
X242729Y316858D01*
X242745Y316875D01*
X242829D01*
X242895Y316891D01*
X242945D01*
X243045Y316908D01*
X243362D01*
X243378Y316891D01*
X243439Y316879D01*
X243462Y316925D01*
X243512Y317008D01*
Y317025D01*
X243528Y317058D01*
X243595Y317158D01*
X243695Y317274D01*
X243828Y317408D01*
X243845Y317425D01*
X243878Y317458D01*
X243962Y317508D01*
X244028Y317558D01*
X244111Y317608D01*
X244128D01*
X244145Y317624D01*
X244212Y317658D01*
X244230D01*
X243745Y317908D01*
D02*
G37*
G36*
X244395Y316908D02*
Y316891D01*
X244411Y316875D01*
X244395Y316908D01*
D02*
G37*
G36*
X244328Y317075D02*
X244311D01*
Y317058D01*
X244295Y317041D01*
X244178Y316958D01*
X244162Y316941D01*
X244128Y316908D01*
X244107Y316880D01*
X244128Y316875D01*
X244262Y316858D01*
X244385Y316846D01*
X244395Y316875D01*
Y316891D01*
X244378Y316908D01*
X244361Y316941D01*
X244345Y316958D01*
X244311Y317008D01*
Y317058D01*
X244328Y317075D01*
D02*
G37*
G36*
X244061Y316891D02*
X243995D01*
X244012Y316875D01*
Y316858D01*
X244028D01*
X244012Y316775D01*
Y316741D01*
X244078Y316841D01*
X244107Y316880D01*
X244061Y316891D01*
D02*
G37*
G36*
X241113Y316758D02*
X241013D01*
X240979Y316741D01*
X241121D01*
X241113Y316758D01*
D02*
G37*
G36*
X243362Y316458D02*
X243345D01*
X243328Y316441D01*
X243362D01*
Y316458D01*
D02*
G37*
G36*
X240963Y319590D02*
Y319574D01*
Y319557D01*
X240946Y319507D01*
X240930Y319457D01*
X240896Y319374D01*
X240846Y319274D01*
X240796Y319157D01*
Y319140D01*
X240779Y319124D01*
X240729Y319024D01*
X240696Y318940D01*
X240680Y318907D01*
X240663Y318891D01*
Y318857D01*
Y318807D01*
Y318757D01*
Y318674D01*
X240680Y318574D01*
X240696Y318474D01*
X240729Y318341D01*
X240746Y318324D01*
X240763Y318274D01*
X240779Y318208D01*
X240796Y318124D01*
Y318108D01*
Y318074D01*
X240813Y317991D01*
X240829Y317924D01*
X240846Y317841D01*
X240863Y317724D01*
X240880Y317608D01*
Y317591D01*
Y317558D01*
X240896Y317508D01*
Y317441D01*
X240930Y317308D01*
X240946Y317175D01*
X240963Y317141D01*
X240979Y317075D01*
X241029Y316958D01*
X241096Y316808D01*
Y316791D01*
X241113Y316758D01*
X241196D01*
X241263Y316741D01*
X241346Y316708D01*
X241429Y316675D01*
X241529Y316608D01*
X241629Y316508D01*
X241677Y316441D01*
X241663Y316492D01*
X241629Y316625D01*
X241579Y316791D01*
Y316825D01*
X241563Y316858D01*
X241546Y316941D01*
X241529Y316975D01*
X241513Y317008D01*
X241496Y317058D01*
Y317075D01*
Y317091D01*
X241479Y317141D01*
Y317158D01*
Y317191D01*
Y317208D01*
Y317241D01*
Y317291D01*
Y317358D01*
X241496Y317508D01*
X241529Y317691D01*
Y317724D01*
X241513Y317758D01*
X241479Y317841D01*
Y317858D01*
X241463Y317924D01*
X241429Y318008D01*
X241413Y318108D01*
X241363Y318341D01*
X241346Y318441D01*
Y318524D01*
Y318557D01*
X241379Y318641D01*
X241446Y318757D01*
X241529Y318891D01*
Y318907D01*
X241546Y318924D01*
X241596Y318990D01*
X241646Y319057D01*
X241663Y319074D01*
X240963Y319590D01*
D02*
G37*
G36*
X243900Y316408D02*
X243862D01*
X243828Y316391D01*
X243812D01*
Y316375D01*
X243828Y316358D01*
X243845D01*
X243856Y316353D01*
X243845Y316342D01*
X243812D01*
X243778Y316358D01*
X243662D01*
X243678Y316342D01*
X243728Y316325D01*
X243778Y316292D01*
X243828Y316275D01*
X243845D01*
X243828Y316258D01*
Y316242D01*
X243845Y316258D01*
X243862Y316275D01*
X243845D01*
X243862Y316292D01*
X243878D01*
Y316308D01*
X243895Y316325D01*
Y316342D01*
X243878D01*
X243856Y316353D01*
X243895Y316391D01*
X243900Y316408D01*
D02*
G37*
G36*
X244461Y316292D02*
X244445D01*
Y316289D01*
X244461Y316292D01*
D02*
G37*
G36*
X241677Y316441D02*
X241696Y316375D01*
X241712Y316308D01*
X241729Y316258D01*
Y316208D01*
Y316192D01*
X241696Y316125D01*
X241663Y316075D01*
X241613Y316025D01*
X241596Y316008D01*
X241646D01*
X241746Y316025D01*
X241896D01*
Y316042D01*
X241879Y316075D01*
Y316092D01*
X241846Y316175D01*
X241796Y316258D01*
X241762Y316325D01*
X241746Y316342D01*
X241729Y316375D01*
X241712Y316391D01*
X241677Y316441D01*
D02*
G37*
G36*
X243245Y316458D02*
X243129D01*
X243079Y316441D01*
X242995D01*
X242945Y316425D01*
X242929D01*
X242895Y316408D01*
X242862D01*
X242845Y316391D01*
X242795D01*
X242762Y316375D01*
X242679Y316308D01*
Y316292D01*
X242662Y316275D01*
X242645Y316208D01*
X242629Y316175D01*
X242612Y316125D01*
Y316108D01*
X242629Y316075D01*
X242662Y316042D01*
X242695Y315992D01*
X242879D01*
X242912Y316008D01*
X242929D01*
X242945Y316025D01*
X242979Y316058D01*
X242995Y316075D01*
X243045Y316108D01*
X243112Y316175D01*
X243195Y316292D01*
Y316308D01*
X243212Y316325D01*
X243279Y316391D01*
X243328Y316441D01*
X243245Y316458D01*
D02*
G37*
G36*
X241113Y316641D02*
X241079Y316575D01*
X241063Y316508D01*
Y316391D01*
X241096Y316325D01*
X241113Y316292D01*
X241129D01*
X241196Y316275D01*
X241246Y316225D01*
X241279Y316175D01*
X241296Y316158D01*
X241313Y316108D01*
X241329Y316092D01*
X241346Y316075D01*
X241363Y316058D01*
X241396Y315975D01*
X241413Y315958D01*
Y315942D01*
Y315925D01*
Y315892D01*
X241396Y315875D01*
Y315858D01*
Y315808D01*
Y315792D01*
X241413Y315892D01*
X241446Y315942D01*
X241479Y315958D01*
X241496D01*
X241463Y315975D01*
X241429Y316008D01*
X241413Y316025D01*
X241396Y316042D01*
X241379Y316075D01*
X241346Y316125D01*
X241296Y316275D01*
X241279Y316325D01*
X241263Y316391D01*
X241246Y316425D01*
Y316441D01*
X241113Y316641D01*
D02*
G37*
G36*
X246975Y319527D02*
X246960Y319507D01*
X246894Y319424D01*
X246860Y319357D01*
X246827Y319257D01*
X246761Y319140D01*
Y319124D01*
X246744Y319091D01*
X246727Y319024D01*
X246694Y318940D01*
X246627Y318791D01*
X246594Y318707D01*
X246544Y318641D01*
Y318624D01*
X246511Y318591D01*
X246427Y318474D01*
X246411Y318457D01*
X246377Y318424D01*
X246277Y318307D01*
X246261Y318291D01*
X246211Y318241D01*
X246127Y318174D01*
X246011Y318091D01*
X245894Y318008D01*
X245778Y317924D01*
X245661Y317874D01*
X245544Y317841D01*
X249110Y315787D01*
Y315808D01*
Y315825D01*
Y315842D01*
X249093Y315858D01*
X249060Y315925D01*
X249010Y316025D01*
X248993D01*
X246975Y319527D01*
D02*
G37*
G36*
X239997Y320107D02*
X237647Y315975D01*
Y315958D01*
X237631Y315925D01*
X237614Y315875D01*
X237597Y315867D01*
Y315858D01*
X237581Y315825D01*
X237564Y315758D01*
Y315725D01*
X237547Y315658D01*
X237564Y315575D01*
X237581Y315492D01*
X237597D01*
X237614Y315475D01*
X237631Y315409D01*
X237681Y315359D01*
X237714Y315309D01*
Y315292D01*
X237747Y315259D01*
X237781Y315242D01*
X237864Y315192D01*
X237981Y315125D01*
X238131Y315109D01*
X248626D01*
X248647Y315115D01*
X244828Y317282D01*
Y317274D01*
X244845Y317258D01*
X244861Y317225D01*
X244911Y317141D01*
X244961Y317025D01*
X244978Y316875D01*
Y316858D01*
X244961Y316791D01*
X244945Y316708D01*
X244911Y316592D01*
X244895Y316575D01*
X244861Y316492D01*
X244828Y316458D01*
X244795Y316425D01*
X244728Y316391D01*
X244661Y316358D01*
X244561Y316308D01*
X244461Y316292D01*
Y316258D01*
Y316225D01*
X244445Y316175D01*
Y316142D01*
X244428Y316108D01*
X244395Y316042D01*
Y316025D01*
X244378Y316008D01*
X244328Y315942D01*
X244311D01*
X244262Y315925D01*
X244212Y315908D01*
X244145Y315875D01*
X244078Y315858D01*
X244012Y315842D01*
X243978Y315825D01*
X243962D01*
X243978Y315808D01*
X243995Y315758D01*
X243978Y315742D01*
X243945Y315725D01*
X243878Y315708D01*
X243745D01*
X243662Y315725D01*
X243562Y315758D01*
X243528Y315792D01*
X243512Y315825D01*
Y315808D01*
X243478Y315758D01*
X243428Y315692D01*
X243345Y315609D01*
X243328D01*
X243295Y315575D01*
X243229Y315542D01*
X243145Y315492D01*
X243129D01*
X243079Y315459D01*
X243012Y315442D01*
X242945Y315425D01*
X242612D01*
X242512Y315459D01*
X242395Y315509D01*
X242279Y315592D01*
X242262Y315609D01*
X242246Y315642D01*
X242196Y315692D01*
X242153Y315763D01*
X242079Y315675D01*
X241979Y315575D01*
X241962Y315559D01*
X241912Y315525D01*
X241829Y315492D01*
X241746Y315442D01*
X241729D01*
X241663Y315425D01*
X241563Y315409D01*
X241446Y315392D01*
X241396D01*
X241346Y315409D01*
X241296Y315425D01*
X241146Y315492D01*
X241063Y315559D01*
X240996Y315625D01*
Y315642D01*
X240963Y315658D01*
X240930Y315708D01*
X240896Y315775D01*
X240846Y315875D01*
X240796Y315992D01*
X240729Y316125D01*
X240680Y316275D01*
Y316292D01*
Y316308D01*
X240663Y316325D01*
Y316342D01*
Y316358D01*
X240646Y316391D01*
X240613Y316492D01*
X240580Y316558D01*
X240546Y316641D01*
Y316658D01*
X240530Y316691D01*
X240480Y316791D01*
X240430Y316908D01*
X240396Y317041D01*
Y317058D01*
X240363Y317141D01*
X240346Y317191D01*
Y317274D01*
X240330Y317374D01*
X240313Y317491D01*
Y317508D01*
Y317558D01*
X240296Y317624D01*
X240280Y317691D01*
X240263Y317874D01*
X240246Y317958D01*
X240230Y318024D01*
X240213D01*
Y318041D01*
Y318057D01*
X240196Y318124D01*
Y318158D01*
X240180Y318224D01*
X240146Y318324D01*
X240130Y318457D01*
X240080Y318741D01*
Y318874D01*
X240096Y318974D01*
X240113Y319007D01*
X240130Y319074D01*
X240180Y319174D01*
X240246Y319290D01*
Y319307D01*
X240280Y319357D01*
X240296Y319424D01*
X240330Y319507D01*
X240396Y319674D01*
X240413Y319740D01*
X240430Y319790D01*
X239997Y320107D01*
D02*
G37*
%LPD*%
D10*
X250238Y221450D02*
X249500Y221876D01*
Y221024D01*
X250238Y221450D01*
X278679Y266121D02*
X277941Y266547D01*
Y265695D01*
X278679Y266121D01*
X248976Y238954D02*
X248238Y239380D01*
Y238528D01*
X248976Y238954D01*
X238760Y232988D02*
X238022Y233414D01*
Y232562D01*
X238760Y232988D01*
X230962Y220877D02*
X230223Y221303D01*
Y220450D01*
X230962Y220877D01*
D11*
X250785Y233376D02*
Y238376D01*
X253785D01*
X250785Y233376D02*
X253785D01*
X258785Y238376D02*
X261785D01*
X258785Y233376D02*
X261785D01*
Y238376D01*
X216916Y288176D02*
X221916D01*
X216916D02*
Y291176D01*
X221916Y288176D02*
Y291176D01*
X216916Y296176D02*
Y299176D01*
X221916Y296176D02*
Y299176D01*
X216916D02*
X221916D01*
X198804Y288167D02*
Y293167D01*
X201804D01*
X198804Y288167D02*
X201804D01*
X206804Y293167D02*
X209805D01*
X206804Y288167D02*
X209805D01*
Y293167D01*
X218431Y300122D02*
Y305122D01*
X215431Y300122D02*
X218431D01*
X215431Y305122D02*
X218431D01*
X207431Y300122D02*
X210431D01*
X207431Y305122D02*
X210431D01*
X207431Y300122D02*
Y305122D01*
X210901Y288068D02*
X215901D01*
X210901D02*
Y291068D01*
X215901Y288068D02*
Y291068D01*
X210901Y296068D02*
Y299068D01*
X215901Y296068D02*
Y299068D01*
X210901D02*
X215901D01*
X198949Y294112D02*
Y299112D01*
X201949D01*
X198949Y294112D02*
X201949D01*
X206949Y299112D02*
X209949D01*
X206949Y294112D02*
X209949D01*
Y299112D01*
X250927Y224698D02*
X259588D01*
X250927Y227060D02*
X259588D01*
X250927Y224698D02*
Y227060D01*
X259588Y224698D02*
Y227060D01*
X285687Y252932D02*
Y256278D01*
X281750Y252932D02*
X285687D01*
Y261790D02*
Y265137D01*
X281750D02*
X285687D01*
X226000Y257500D02*
Y262500D01*
X229000D01*
X226000Y257500D02*
X229000D01*
X234000Y262500D02*
X237000D01*
X234000Y257500D02*
X237000D01*
Y262500D01*
X246329Y252809D02*
X265640D01*
Y258155D01*
X246329D02*
X265640D01*
X246329Y252809D02*
Y258155D01*
X205000Y234000D02*
Y239000D01*
X208000D01*
X205000Y234000D02*
X208000D01*
X213000Y239000D02*
X216000D01*
X213000Y234000D02*
X216000D01*
Y239000D01*
X205000Y245000D02*
X208000D01*
X205000Y240000D02*
Y245000D01*
Y240000D02*
X208000D01*
X213000D02*
X216000D01*
Y245000D01*
X213000D02*
X216000D01*
X269500Y237000D02*
Y242000D01*
X272500D01*
X269500Y237000D02*
X272500D01*
X277500Y242000D02*
X280500D01*
X277500Y237000D02*
X280500D01*
Y242000D01*
X271000Y231000D02*
X274000D01*
Y236000D01*
X271000D02*
X274000D01*
X263000D02*
X266000D01*
X263000Y231000D02*
Y236000D01*
Y231000D02*
X266000D01*
X226000Y221500D02*
Y226500D01*
X229000D01*
X226000Y221500D02*
X229000D01*
X234000Y226500D02*
X237000D01*
X234000Y221500D02*
X237000D01*
Y226500D01*
X269000Y249000D02*
X274000D01*
X269000D02*
Y252000D01*
X274000Y249000D02*
Y252000D01*
X269000Y257000D02*
Y260000D01*
X274000Y257000D02*
Y260000D01*
X269000D02*
X274000D01*
X292500Y278000D02*
Y310500D01*
X277500D02*
X292500D01*
X277500Y278000D02*
Y310500D01*
Y278000D02*
X292500D01*
X268500Y265000D02*
Y268000D01*
Y265000D02*
X273500D01*
Y268000D01*
Y273000D02*
Y276000D01*
X268500D02*
X273500D01*
X268500Y273000D02*
Y276000D01*
X256484Y277482D02*
X259484D01*
X256484Y272482D02*
Y277482D01*
Y272482D02*
X259484D01*
X264484D02*
X267484D01*
Y277482D01*
X264484D02*
X267484D01*
X243000Y266000D02*
Y269000D01*
X238000D02*
X243000D01*
X238000Y266000D02*
Y269000D01*
Y258000D02*
Y261000D01*
Y258000D02*
X243000D01*
Y261000D01*
X244484Y272482D02*
Y277482D01*
X247484D01*
X244484Y272482D02*
X247484D01*
X252484Y277482D02*
X255484D01*
X252484Y272482D02*
X255484D01*
Y277482D01*
X232000Y270000D02*
Y276000D01*
X225000Y270000D02*
X242500D01*
Y276000D01*
X225000D02*
X242500D01*
X225000Y270000D02*
Y276000D01*
X235500Y277000D02*
Y283000D01*
X225000D02*
X242500D01*
X225000Y277000D02*
Y283000D01*
Y277000D02*
X242500D01*
Y283000D01*
X259598Y310492D02*
X269047D01*
Y304587D02*
Y310492D01*
X226134Y295532D02*
Y299468D01*
X259598Y284508D02*
X269047D01*
Y290413D01*
X239500Y233000D02*
Y236000D01*
Y233000D02*
X244500D01*
Y236000D01*
Y241000D02*
Y244000D01*
X239500D02*
X244500D01*
X239500Y241000D02*
Y244000D01*
X223583Y244799D02*
X236417D01*
X223583Y232201D02*
X236417D01*
X219000Y231500D02*
X222000D01*
X219000Y226500D02*
Y231500D01*
Y226500D02*
X222000D01*
X227000D02*
X230000D01*
Y231500D01*
X227000D02*
X230000D01*
X246500Y221700D02*
X249500D01*
Y226699D01*
X246500D02*
X249500D01*
X238500D02*
X241500D01*
X238500Y221700D02*
Y226699D01*
Y221700D02*
X241500D01*
X210110Y246000D02*
X226000D01*
X208500Y247610D02*
X210110Y246000D01*
X208500Y247610D02*
Y253390D01*
X210110Y255000D02*
X225000D01*
X208500Y253390D02*
X210110Y255000D01*
X225000Y246000D02*
X231500D01*
X225000Y255000D02*
X231500D01*
Y246200D02*
Y254800D01*
X217000Y246500D02*
Y254500D01*
X244000Y207699D02*
X249000D01*
X244000D02*
Y210700D01*
X249000Y207699D02*
Y210700D01*
X244000Y215700D02*
Y218700D01*
X249000Y215700D02*
Y218700D01*
X244000D02*
X249000D01*
X255000Y215700D02*
Y218700D01*
X250000D02*
X255000D01*
X250000Y215700D02*
Y218700D01*
Y207699D02*
Y210700D01*
Y207699D02*
X255000D01*
Y210700D01*
X256000Y207699D02*
X261000D01*
X256000D02*
Y210700D01*
X261000Y207699D02*
Y210700D01*
X256000Y215700D02*
Y218700D01*
X261000Y215700D02*
Y218700D01*
X256000D02*
X261000D01*
X223500Y222699D02*
Y225699D01*
X218500D02*
X223500D01*
X218500Y222699D02*
Y225699D01*
Y214700D02*
Y217700D01*
Y214700D02*
X223500D01*
Y217700D01*
X212500Y214700D02*
X217500D01*
X212500D02*
Y217700D01*
X217500Y214700D02*
Y217700D01*
X212500Y222699D02*
Y225699D01*
X217500Y222699D02*
Y225699D01*
X212500D02*
X217500D01*
X233698Y220282D02*
X237241D01*
X233698Y208471D02*
X237241D01*
X233698D02*
Y220282D01*
X237241Y208471D02*
Y220282D01*
X232000Y202699D02*
Y207699D01*
X235000D01*
X232000Y202699D02*
X235000D01*
X240000Y207699D02*
X243000D01*
X240000Y202699D02*
X243000D01*
Y207699D01*
X222000Y202699D02*
X227000D01*
X222000D02*
Y205699D01*
X227000Y202699D02*
Y205699D01*
X222000Y210700D02*
Y213700D01*
X227000Y210700D02*
Y213700D01*
X222000D02*
X227000D01*
X216000D02*
X221000D01*
Y210700D02*
Y213700D01*
X216000Y210700D02*
Y213700D01*
X221000Y202699D02*
Y205699D01*
X216000Y202699D02*
Y205699D01*
Y202699D02*
X221000D01*
X222000Y242000D02*
Y245000D01*
X217000D02*
X222000D01*
X217000Y242000D02*
Y245000D01*
Y234000D02*
Y237000D01*
Y234000D02*
X222000D01*
Y237000D01*
D12*
X229628Y299116D02*
Y296526D01*
X229476Y296069D01*
X229171Y295917D01*
X228867D01*
X228562Y296069D01*
X228410Y296374D01*
Y296678D01*
X228562Y296831D01*
X228714Y296678D01*
X228562Y296526D01*
X229476Y299116D02*
Y296526D01*
X229324Y296069D01*
X229171Y295917D01*
X229019Y299116D02*
X230085D01*
X231061D02*
Y295917D01*
X231213Y299116D02*
Y295917D01*
X230603Y299116D02*
X231670D01*
X230603Y295917D02*
X232889D01*
Y296831D01*
X232736Y295917D01*
X235479Y298659D02*
X235631Y298202D01*
Y299116D01*
X235479Y298659D01*
X235174Y298964D01*
X234717Y299116D01*
X234412D01*
X233955Y298964D01*
X233650Y298659D01*
X233498Y298354D01*
X233346Y297897D01*
Y297135D01*
X233498Y296678D01*
X233650Y296374D01*
X233955Y296069D01*
X234412Y295917D01*
X234717D01*
X235174Y296069D01*
X235479Y296374D01*
X235631Y296678D01*
X234412Y299116D02*
X234107Y298964D01*
X233803Y298659D01*
X233650Y298354D01*
X233498Y297897D01*
Y297135D01*
X233650Y296678D01*
X233803Y296374D01*
X234107Y296069D01*
X234412Y295917D01*
X237307Y299116D02*
Y296526D01*
X237154Y296069D01*
X236850Y295917D01*
X236545D01*
X236240Y296069D01*
X236088Y296374D01*
Y296678D01*
X236240Y296831D01*
X236393Y296678D01*
X236240Y296526D01*
X237154Y299116D02*
Y296526D01*
X237002Y296069D01*
X236850Y295917D01*
X236697Y299116D02*
X237764D01*
X238739D02*
Y295917D01*
X238891Y299116D02*
Y295917D01*
X238282Y299116D02*
X239348D01*
X238282Y295917D02*
X240567D01*
Y296831D01*
X240415Y295917D01*
X243157Y298659D02*
X243309Y298202D01*
Y299116D01*
X243157Y298659D01*
X242852Y298964D01*
X242395Y299116D01*
X242091D01*
X241633Y298964D01*
X241329Y298659D01*
X241176Y298354D01*
X241024Y297897D01*
Y297135D01*
X241176Y296678D01*
X241329Y296374D01*
X241633Y296069D01*
X242091Y295917D01*
X242395D01*
X242852Y296069D01*
X243157Y296374D01*
X243309Y296678D01*
X242091Y299116D02*
X241786Y298964D01*
X241481Y298659D01*
X241329Y298354D01*
X241176Y297897D01*
Y297135D01*
X241329Y296678D01*
X241481Y296374D01*
X241786Y296069D01*
X242091Y295917D01*
X244985Y299116D02*
Y296526D01*
X244833Y296069D01*
X244528Y295917D01*
X244223D01*
X243919Y296069D01*
X243766Y296374D01*
Y296678D01*
X243919Y296831D01*
X244071Y296678D01*
X243919Y296526D01*
X244833Y299116D02*
Y296526D01*
X244680Y296069D01*
X244528Y295917D01*
X244376Y299116D02*
X245442D01*
X246417D02*
Y295917D01*
X246569Y299116D02*
Y295917D01*
X245960Y299116D02*
X247027D01*
X245960Y295917D02*
X248245D01*
Y296831D01*
X248093Y295917D01*
X250835Y298659D02*
X250988Y298202D01*
Y299116D01*
X250835Y298659D01*
X250531Y298964D01*
X250074Y299116D01*
X249769D01*
X249312Y298964D01*
X249007Y298659D01*
X248855Y298354D01*
X248702Y297897D01*
Y297135D01*
X248855Y296678D01*
X249007Y296374D01*
X249312Y296069D01*
X249769Y295917D01*
X250074D01*
X250531Y296069D01*
X250835Y296374D01*
X250988Y296678D01*
X249769Y299116D02*
X249464Y298964D01*
X249160Y298659D01*
X249007Y298354D01*
X248855Y297897D01*
Y297135D01*
X249007Y296678D01*
X249160Y296374D01*
X249464Y296069D01*
X249769Y295917D01*
X252663Y299116D02*
Y296526D01*
X252511Y296069D01*
X252206Y295917D01*
X251902D01*
X251597Y296069D01*
X251445Y296374D01*
Y296678D01*
X251597Y296831D01*
X251749Y296678D01*
X251597Y296526D01*
X252511Y299116D02*
Y296526D01*
X252359Y296069D01*
X252206Y295917D01*
X252054Y299116D02*
X253120D01*
X254096D02*
Y295917D01*
X254248Y299116D02*
Y295917D01*
X253639Y299116D02*
X254705D01*
X253639Y295917D02*
X255924D01*
Y296831D01*
X255771Y295917D01*
X258514Y298659D02*
X258666Y298202D01*
Y299116D01*
X258514Y298659D01*
X258209Y298964D01*
X257752Y299116D01*
X257447D01*
X256990Y298964D01*
X256685Y298659D01*
X256533Y298354D01*
X256381Y297897D01*
Y297135D01*
X256533Y296678D01*
X256685Y296374D01*
X256990Y296069D01*
X257447Y295917D01*
X257752D01*
X258209Y296069D01*
X258514Y296374D01*
X258666Y296678D01*
X257447Y299116D02*
X257142Y298964D01*
X256838Y298659D01*
X256685Y298354D01*
X256533Y297897D01*
Y297135D01*
X256685Y296678D01*
X256838Y296374D01*
X257142Y296069D01*
X257447Y295917D01*
X263451Y203028D02*
Y199829D01*
X263603Y203028D02*
Y199829D01*
X264517Y202114D02*
Y200895D01*
X262994Y203028D02*
X265432D01*
Y202114D01*
X265279Y203028D01*
X263603Y201505D02*
X264517D01*
X262994Y199829D02*
X264060D01*
X266026Y200134D02*
X265874Y199981D01*
X266026Y199829D01*
X266178Y199981D01*
X266026Y200134D01*
X270170Y203028D02*
Y199829D01*
X270322Y203028D02*
Y199829D01*
X272150Y203028D02*
Y199829D01*
X272303Y203028D02*
Y199829D01*
X269713Y203028D02*
X270779D01*
X271693D02*
X272760D01*
X270322Y201505D02*
X272150D01*
X269713Y199829D02*
X270779D01*
X271693D02*
X272760D01*
X274055Y201962D02*
X273598Y201809D01*
X273293Y201505D01*
X273141Y201048D01*
Y200743D01*
X273293Y200286D01*
X273598Y199981D01*
X274055Y199829D01*
X274359D01*
X274816Y199981D01*
X275121Y200286D01*
X275273Y200743D01*
Y201048D01*
X275121Y201505D01*
X274816Y201809D01*
X274359Y201962D01*
X274055D01*
X273750Y201809D01*
X273445Y201505D01*
X273293Y201048D01*
Y200743D01*
X273445Y200286D01*
X273750Y199981D01*
X274055Y199829D01*
X274359D02*
X274664Y199981D01*
X274969Y200286D01*
X275121Y200743D01*
Y201048D01*
X274969Y201505D01*
X274664Y201809D01*
X274359Y201962D01*
X277574Y201505D02*
X277421Y201352D01*
X277574Y201200D01*
X277726Y201352D01*
Y201505D01*
X277421Y201809D01*
X277117Y201962D01*
X276660D01*
X276203Y201809D01*
X275898Y201505D01*
X275746Y201048D01*
Y200743D01*
X275898Y200286D01*
X276203Y199981D01*
X276660Y199829D01*
X276964D01*
X277421Y199981D01*
X277726Y200286D01*
X276660Y201962D02*
X276355Y201809D01*
X276050Y201505D01*
X275898Y201048D01*
Y200743D01*
X276050Y200286D01*
X276355Y199981D01*
X276660Y199829D01*
X278671Y203028D02*
Y199829D01*
X278823Y203028D02*
Y199829D01*
Y201505D02*
X279128Y201809D01*
X279585Y201962D01*
X279889D01*
X280346Y201809D01*
X280499Y201505D01*
Y199829D01*
X279889Y201962D02*
X280194Y201809D01*
X280346Y201505D01*
Y199829D01*
X278214Y203028D02*
X278823D01*
X278214Y199829D02*
X279280D01*
X279889D02*
X280956D01*
X281824Y203028D02*
Y199829D01*
X281977Y203028D02*
Y199829D01*
Y201505D02*
X282281Y201809D01*
X282586Y201962D01*
X282891D01*
X283348Y201809D01*
X283652Y201505D01*
X283805Y201048D01*
Y200743D01*
X283652Y200286D01*
X283348Y199981D01*
X282891Y199829D01*
X282586D01*
X282281Y199981D01*
X281977Y200286D01*
X282891Y201962D02*
X283195Y201809D01*
X283500Y201505D01*
X283652Y201048D01*
Y200743D01*
X283500Y200286D01*
X283195Y199981D01*
X282891Y199829D01*
X281367Y203028D02*
X281977D01*
X284399Y201048D02*
X286227D01*
Y201352D01*
X286075Y201657D01*
X285923Y201809D01*
X285618Y201962D01*
X285161D01*
X284704Y201809D01*
X284399Y201505D01*
X284247Y201048D01*
Y200743D01*
X284399Y200286D01*
X284704Y199981D01*
X285161Y199829D01*
X285465D01*
X285923Y199981D01*
X286227Y200286D01*
X286075Y201048D02*
Y201505D01*
X285923Y201809D01*
X285161Y201962D02*
X284856Y201809D01*
X284551Y201505D01*
X284399Y201048D01*
Y200743D01*
X284551Y200286D01*
X284856Y199981D01*
X285161Y199829D01*
X287172Y201962D02*
Y199829D01*
X287324Y201962D02*
Y199829D01*
Y201048D02*
X287476Y201505D01*
X287781Y201809D01*
X288086Y201962D01*
X288543D01*
X288695Y201809D01*
Y201657D01*
X288543Y201505D01*
X288390Y201657D01*
X288543Y201809D01*
X286715Y201962D02*
X287324D01*
X286715Y199829D02*
X287781D01*
X290097Y201962D02*
X289792Y201809D01*
X289640Y201657D01*
X289487Y201352D01*
Y201048D01*
X289640Y200743D01*
X289792Y200591D01*
X290097Y200438D01*
X290402D01*
X290706Y200591D01*
X290859Y200743D01*
X291011Y201048D01*
Y201352D01*
X290859Y201657D01*
X290706Y201809D01*
X290402Y201962D01*
X290097D01*
X289792Y201809D02*
X289640Y201505D01*
Y200895D01*
X289792Y200591D01*
X290706D02*
X290859Y200895D01*
Y201505D01*
X290706Y201809D01*
X290859Y201657D02*
X291011Y201809D01*
X291316Y201962D01*
Y201809D01*
X291011D01*
X289640Y200743D02*
X289487Y200591D01*
X289335Y200286D01*
Y200134D01*
X289487Y199829D01*
X289945Y199677D01*
X290706D01*
X291163Y199524D01*
X291316Y199372D01*
X289335Y200134D02*
X289487Y199981D01*
X289945Y199829D01*
X290706D01*
X291163Y199677D01*
X291316Y199372D01*
Y199220D01*
X291163Y198915D01*
X290706Y198763D01*
X289792D01*
X289335Y198915D01*
X289183Y199220D01*
Y199372D01*
X289335Y199677D01*
X289792Y199829D01*
X217150Y283448D02*
Y286647D01*
X218750D01*
X219283Y286114D01*
Y285047D01*
X218750Y284514D01*
X217150D01*
X218217D02*
X219283Y283448D01*
X221949D02*
Y286647D01*
X220349Y285047D01*
X222482D01*
X199473Y283820D02*
Y287019D01*
X201073D01*
X201606Y286486D01*
Y285420D01*
X201073Y284886D01*
X199473D01*
X200540D02*
X201606Y283820D01*
X202672Y287019D02*
X204805D01*
Y286486D01*
X202672Y284353D01*
Y283820D01*
X199650Y304448D02*
Y307647D01*
X201249D01*
X201782Y307114D01*
Y306048D01*
X201249Y305514D01*
X199650D01*
X200716D02*
X201782Y304448D01*
X202849Y307114D02*
X203382Y307647D01*
X204448D01*
X204981Y307114D01*
Y306581D01*
X204448Y306048D01*
X203915D01*
X204448D01*
X204981Y305514D01*
Y304981D01*
X204448Y304448D01*
X203382D01*
X202849Y304981D01*
X208266Y283634D02*
Y286833D01*
X209866D01*
X210399Y286300D01*
Y285233D01*
X209866Y284700D01*
X208266D01*
X209332D02*
X210399Y283634D01*
X213598Y286833D02*
X212531Y286300D01*
X211465Y285233D01*
Y284167D01*
X211998Y283634D01*
X213065D01*
X213598Y284167D01*
Y284700D01*
X213065Y285233D01*
X211465D01*
X199705Y300153D02*
Y303352D01*
X201304D01*
X201837Y302819D01*
Y301753D01*
X201304Y301219D01*
X199705D01*
X200771D02*
X201837Y300153D01*
X205036Y303352D02*
X202904D01*
Y301753D01*
X203970Y302286D01*
X204503D01*
X205036Y301753D01*
Y300686D01*
X204503Y300153D01*
X203437D01*
X202904Y300686D01*
X265575Y221953D02*
X262376D01*
Y223552D01*
X262909Y224085D01*
X263976D01*
X264509Y223552D01*
Y221953D01*
Y223019D02*
X265575Y224085D01*
Y225152D02*
Y226218D01*
Y225685D01*
X262376D01*
X262909Y225152D01*
Y227817D02*
X262376Y228350D01*
Y229417D01*
X262909Y229950D01*
X265042D01*
X265575Y229417D01*
Y228350D01*
X265042Y227817D01*
X262909D01*
X218719Y310260D02*
Y307061D01*
X220319D01*
X220852Y307595D01*
Y309727D01*
X220319Y310260D01*
X218719D01*
X221918Y308661D02*
X224051D01*
X199659Y311727D02*
Y308528D01*
X201258D01*
X201792Y309061D01*
Y311193D01*
X201258Y311727D01*
X199659D01*
X202858Y310127D02*
X204991D01*
X203924Y311193D02*
Y309061D01*
X220949Y260863D02*
Y257664D01*
X223082D01*
X224148D02*
X225215D01*
X224681D01*
Y260863D01*
X224148Y260330D01*
X198473Y238188D02*
Y234989D01*
X200606D01*
X201672Y237655D02*
X202205Y238188D01*
X203272D01*
X203805Y237655D01*
Y237122D01*
X203272Y236589D01*
X202738D01*
X203272D01*
X203805Y236055D01*
Y235522D01*
X203272Y234989D01*
X202205D01*
X201672Y235522D01*
X227600Y214534D02*
X224400D01*
Y216134D01*
X224934Y216667D01*
X226000D01*
X226533Y216134D01*
Y214534D01*
Y215601D02*
X227600Y216667D01*
Y217733D02*
Y218800D01*
Y218267D01*
X224400D01*
X224934Y217733D01*
X227600Y220399D02*
Y221465D01*
Y220932D01*
X224400D01*
X224934Y220399D01*
X281642Y237094D02*
X284841D01*
Y239227D01*
Y242426D02*
Y240293D01*
X282709Y242426D01*
X282175D01*
X281642Y241893D01*
Y240826D01*
X282175Y240293D01*
X233401Y246501D02*
Y247568D01*
Y247035D01*
X236599D01*
Y246501D01*
Y247568D01*
X233934Y251300D02*
X233401Y250767D01*
Y249700D01*
X233934Y249167D01*
X236066D01*
X236599Y249700D01*
Y250767D01*
X236066Y251300D01*
X236599Y254499D02*
Y252366D01*
X234467Y254499D01*
X233934D01*
X233401Y253965D01*
Y252899D01*
X233934Y252366D01*
X204033Y247817D02*
X207232D01*
Y249416D01*
X206699Y249950D01*
X204566D01*
X204033Y249416D01*
Y247817D01*
X204566Y251016D02*
X204033Y251549D01*
Y252615D01*
X204566Y253149D01*
X205100D01*
X205633Y252615D01*
Y252082D01*
Y252615D01*
X206166Y253149D01*
X206699D01*
X207232Y252615D01*
Y251549D01*
X206699Y251016D01*
X287100Y255240D02*
X289232D01*
X288166D01*
Y252041D01*
X290299D02*
X291365D01*
X290832D01*
Y255240D01*
X290299Y254707D01*
X218499Y198417D02*
Y201616D01*
X220098D01*
X220631Y201083D01*
Y200016D01*
X220098Y199483D01*
X218499D01*
X219565D02*
X220631Y198417D01*
X221698D02*
X222764D01*
X222231D01*
Y201616D01*
X221698Y201083D01*
X226496Y201616D02*
X225430Y201083D01*
X224363Y200016D01*
Y198950D01*
X224897Y198417D01*
X225963D01*
X226496Y198950D01*
Y199483D01*
X225963Y200016D01*
X224363D01*
X233609Y198352D02*
Y201551D01*
X235209D01*
X235742Y201018D01*
Y199952D01*
X235209Y199419D01*
X233609D01*
X234675D02*
X235742Y198352D01*
X236808D02*
X237874D01*
X237341D01*
Y201551D01*
X236808Y201018D01*
X239474Y201551D02*
X241606D01*
Y201018D01*
X239474Y198886D01*
Y198352D01*
X279738Y245157D02*
X276539D01*
Y246756D01*
X277072Y247289D01*
X278138D01*
X278671Y246756D01*
Y245157D01*
Y246223D02*
X279738Y247289D01*
X279204Y248356D02*
X279738Y248889D01*
Y249955D01*
X279204Y250488D01*
X277072D01*
X276539Y249955D01*
Y248889D01*
X277072Y248356D01*
X277605D01*
X278138Y248889D01*
Y250488D01*
X211100Y217001D02*
X207901D01*
Y218601D01*
X208434Y219134D01*
X209500D01*
X210033Y218601D01*
Y217001D01*
Y218068D02*
X211100Y219134D01*
Y220200D02*
Y221267D01*
Y220733D01*
X207901D01*
X208434Y220200D01*
X211100Y224999D02*
Y222866D01*
X208967Y224999D01*
X208434D01*
X207901Y224465D01*
Y223399D01*
X208434Y222866D01*
X247892Y198902D02*
X244693D01*
Y200501D01*
X245226Y201034D01*
X246292D01*
X246825Y200501D01*
Y198902D01*
Y199968D02*
X247892Y201034D01*
Y202101D02*
Y203167D01*
Y202634D01*
X244693D01*
X245226Y202101D01*
Y204767D02*
X244693Y205300D01*
Y206366D01*
X245226Y206899D01*
X245759D01*
X246292Y206366D01*
Y205833D01*
Y206366D01*
X246825Y206899D01*
X247358D01*
X247892Y206366D01*
Y205300D01*
X247358Y204767D01*
X276826Y281431D02*
X273627D01*
Y283031D01*
X274160Y283564D01*
X275226D01*
X275760Y283031D01*
Y281431D01*
Y282498D02*
X276826Y283564D01*
Y286763D02*
Y284630D01*
X274693Y286763D01*
X274160D01*
X273627Y286230D01*
Y285163D01*
X274160Y284630D01*
X214599Y204701D02*
X211401D01*
Y206300D01*
X211934Y206833D01*
X213000D01*
X213533Y206300D01*
Y204701D01*
Y205767D02*
X214599Y206833D01*
Y207900D02*
Y208966D01*
Y208433D01*
X211401D01*
X211934Y207900D01*
X211401Y212698D02*
Y210565D01*
X213000D01*
X212467Y211632D01*
Y212165D01*
X213000Y212698D01*
X214066D01*
X214599Y212165D01*
Y211099D01*
X214066Y210565D01*
X260021Y199140D02*
X256822D01*
Y200740D01*
X257355Y201273D01*
X258421D01*
X258954Y200740D01*
Y199140D01*
Y200206D02*
X260021Y201273D01*
Y202339D02*
Y203405D01*
Y202872D01*
X256822D01*
X257355Y202339D01*
X260021Y206604D02*
X256822D01*
X258421Y205005D01*
Y207138D01*
X272375Y310777D02*
Y313976D01*
X273975D01*
X274508Y313443D01*
Y312377D01*
X273975Y311844D01*
X272375D01*
X273442D02*
X274508Y310777D01*
X275574D02*
X276641D01*
X276108D01*
Y313976D01*
X275574Y313443D01*
X250883Y279373D02*
Y282572D01*
X252483D01*
X253016Y282039D01*
Y280973D01*
X252483Y280439D01*
X250883D01*
X251949D02*
X253016Y279373D01*
X254082Y282039D02*
X254615Y282572D01*
X255681D01*
X256215Y282039D01*
Y281506D01*
X255681Y280973D01*
X256215Y280439D01*
Y279906D01*
X255681Y279373D01*
X254615D01*
X254082Y279906D01*
Y280439D01*
X254615Y280973D01*
X254082Y281506D01*
Y282039D01*
X254615Y280973D02*
X255681D01*
X246360Y228791D02*
Y229858D01*
Y229325D01*
X249559D01*
Y228791D01*
Y229858D01*
X246894Y233590D02*
X246360Y233057D01*
Y231990D01*
X246894Y231457D01*
X249026D01*
X249559Y231990D01*
Y233057D01*
X249026Y233590D01*
X246894Y234656D02*
X246360Y235189D01*
Y236256D01*
X246894Y236789D01*
X247427D01*
X247960Y236256D01*
Y235722D01*
Y236256D01*
X248493Y236789D01*
X249026D01*
X249559Y236256D01*
Y235189D01*
X249026Y234656D01*
X227993Y199793D02*
Y200859D01*
Y200326D01*
X231192D01*
Y199793D01*
Y200859D01*
X228527Y204591D02*
X227993Y204058D01*
Y202992D01*
X228527Y202458D01*
X230659D01*
X231192Y202992D01*
Y204058D01*
X230659Y204591D01*
X231192Y207257D02*
X227993D01*
X229593Y205657D01*
Y207790D01*
X268682Y246936D02*
X269748D01*
X269215D01*
Y243737D01*
X268682D01*
X269748D01*
X273481Y246402D02*
X272947Y246936D01*
X271881D01*
X271348Y246402D01*
Y244270D01*
X271881Y243737D01*
X272947D01*
X273481Y244270D01*
X274547Y243737D02*
X275613D01*
X275080D01*
Y246936D01*
X274547Y246402D01*
X224834Y268600D02*
Y265401D01*
X226434D01*
X226967Y265934D01*
Y268066D01*
X226434Y268600D01*
X224834D01*
X230166Y265401D02*
X228033D01*
X230166Y267533D01*
Y268066D01*
X229633Y268600D01*
X228566D01*
X228033Y268066D01*
X244517Y282388D02*
Y279189D01*
X246116D01*
X246649Y279722D01*
Y281855D01*
X246116Y282388D01*
X244517D01*
X247715Y279189D02*
X248782D01*
X248249D01*
Y282388D01*
X247715Y281855D01*
X212234Y229109D02*
X211701Y229643D01*
X210634D01*
X210101Y229109D01*
Y226977D01*
X210634Y226444D01*
X211701D01*
X212234Y226977D01*
X213300Y226444D02*
X214366D01*
X213833D01*
Y229643D01*
X213300Y229109D01*
X215966D02*
X216499Y229643D01*
X217565D01*
X218098Y229109D01*
Y226977D01*
X217565Y226444D01*
X216499D01*
X215966Y226977D01*
Y229109D01*
X251350Y201806D02*
X250817Y201273D01*
Y200206D01*
X251350Y199673D01*
X253483D01*
X254016Y200206D01*
Y201273D01*
X253483Y201806D01*
X254016Y202872D02*
Y203939D01*
Y203405D01*
X250817D01*
X251350Y202872D01*
X254016Y205538D02*
Y206604D01*
Y206071D01*
X250817D01*
X251350Y205538D01*
X278671Y234804D02*
X278137Y235337D01*
X277071D01*
X276538Y234804D01*
Y232671D01*
X277071Y232138D01*
X278137D01*
X278671Y232671D01*
X279737Y235337D02*
X281870D01*
Y234804D01*
X279737Y232671D01*
Y232138D01*
X240396Y230316D02*
X239863Y230849D01*
X238797D01*
X238264Y230316D01*
Y228183D01*
X238797Y227650D01*
X239863D01*
X240396Y228183D01*
X241463D02*
X241996Y227650D01*
X243062D01*
X243595Y228183D01*
Y230316D01*
X243062Y230849D01*
X241996D01*
X241463Y230316D01*
Y229783D01*
X241996Y229250D01*
X243595D01*
X233427Y230245D02*
X232894Y230779D01*
X231828D01*
X231295Y230245D01*
Y228113D01*
X231828Y227580D01*
X232894D01*
X233427Y228113D01*
X234494Y230245D02*
X235027Y230779D01*
X236093D01*
X236626Y230245D01*
Y229712D01*
X236093Y229179D01*
X236626Y228646D01*
Y228113D01*
X236093Y227580D01*
X235027D01*
X234494Y228113D01*
Y228646D01*
X235027Y229179D01*
X234494Y229712D01*
Y230245D01*
X235027Y229179D02*
X236093D01*
X240934Y246967D02*
X240401Y246434D01*
Y245367D01*
X240934Y244834D01*
X243066D01*
X243600Y245367D01*
Y246434D01*
X243066Y246967D01*
X240401Y250166D02*
X240934Y249099D01*
X242000Y248033D01*
X243066D01*
X243600Y248566D01*
Y249633D01*
X243066Y250166D01*
X242533D01*
X242000Y249633D01*
Y248033D01*
X214244Y232720D02*
X213711Y233254D01*
X212645D01*
X212111Y232720D01*
Y230588D01*
X212645Y230054D01*
X213711D01*
X214244Y230588D01*
X217443Y233254D02*
X215311D01*
Y231654D01*
X216377Y232187D01*
X216910D01*
X217443Y231654D01*
Y230588D01*
X216910Y230054D01*
X215844D01*
X215311Y230588D01*
X260818Y281993D02*
X260285Y282526D01*
X259218D01*
X258685Y281993D01*
Y279860D01*
X259218Y279327D01*
X260285D01*
X260818Y279860D01*
X261884Y279327D02*
X262951D01*
X262417D01*
Y282526D01*
X261884Y281993D01*
X270467Y280566D02*
X269934Y281100D01*
X268867D01*
X268334Y280566D01*
Y278434D01*
X268867Y277901D01*
X269934D01*
X270467Y278434D01*
X273666Y277901D02*
X271533D01*
X273666Y280033D01*
Y280566D01*
X273133Y281100D01*
X272066D01*
X271533Y280566D01*
X240467Y256066D02*
X239934Y256599D01*
X238867D01*
X238334Y256066D01*
Y253934D01*
X238867Y253400D01*
X239934D01*
X240467Y253934D01*
X241533Y256066D02*
X242066Y256599D01*
X243133D01*
X243666Y256066D01*
Y255533D01*
X243133Y255000D01*
X242600D01*
X243133D01*
X243666Y254467D01*
Y253934D01*
X243133Y253400D01*
X242066D01*
X241533Y253934D01*
X200819Y243851D02*
X200286Y244384D01*
X199220D01*
X198687Y243851D01*
Y241718D01*
X199220Y241185D01*
X200286D01*
X200819Y241718D01*
X203485Y241185D02*
Y244384D01*
X201886Y242784D01*
X204018D01*
D13*
X203786Y327340D02*
Y322341D01*
X204024Y327340D02*
Y322341D01*
X202357Y327340D02*
X202119Y325912D01*
Y327340D01*
X205690D01*
Y325912D01*
X205452Y327340D01*
X203072Y322341D02*
X204738D01*
X206642Y324246D02*
X209499D01*
Y324722D01*
X209261Y325198D01*
X209023Y325436D01*
X208547Y325674D01*
X207832D01*
X207118Y325436D01*
X206642Y324960D01*
X206404Y324246D01*
Y323769D01*
X206642Y323055D01*
X207118Y322579D01*
X207832Y322341D01*
X208309D01*
X209023Y322579D01*
X209499Y323055D01*
X209261Y324246D02*
Y324960D01*
X209023Y325436D01*
X207832Y325674D02*
X207356Y325436D01*
X206880Y324960D01*
X206642Y324246D01*
Y323769D01*
X206880Y323055D01*
X207356Y322579D01*
X207832Y322341D01*
X210975Y327340D02*
Y322341D01*
X211213Y327340D02*
Y322341D01*
X210261Y327340D02*
X211213D01*
X210261Y322341D02*
X211927D01*
X213069Y324246D02*
X215926D01*
Y324722D01*
X215688Y325198D01*
X215450Y325436D01*
X214974Y325674D01*
X214260D01*
X213545Y325436D01*
X213069Y324960D01*
X212831Y324246D01*
Y323769D01*
X213069Y323055D01*
X213545Y322579D01*
X214260Y322341D01*
X214736D01*
X215450Y322579D01*
X215926Y323055D01*
X215688Y324246D02*
Y324960D01*
X215450Y325436D01*
X214260Y325674D02*
X213784Y325436D01*
X213307Y324960D01*
X213069Y324246D01*
Y323769D01*
X213307Y323055D01*
X213784Y322579D01*
X214260Y322341D01*
X219068Y325198D02*
X219306Y325674D01*
Y324722D01*
X219068Y325198D01*
X218830Y325436D01*
X218354Y325674D01*
X217402D01*
X216926Y325436D01*
X216688Y325198D01*
Y324722D01*
X216926Y324484D01*
X217402Y324246D01*
X218592Y323769D01*
X219068Y323532D01*
X219306Y323293D01*
X216688Y324960D02*
X216926Y324722D01*
X217402Y324484D01*
X218592Y324008D01*
X219068Y323769D01*
X219306Y323532D01*
Y322817D01*
X219068Y322579D01*
X218592Y322341D01*
X217640D01*
X217164Y322579D01*
X216926Y322817D01*
X216688Y323293D01*
Y322341D01*
X216926Y322817D01*
X222972Y324960D02*
X222734Y324722D01*
X222972Y324484D01*
X223210Y324722D01*
Y324960D01*
X222734Y325436D01*
X222258Y325674D01*
X221544D01*
X220830Y325436D01*
X220354Y324960D01*
X220115Y324246D01*
Y323769D01*
X220354Y323055D01*
X220830Y322579D01*
X221544Y322341D01*
X222020D01*
X222734Y322579D01*
X223210Y323055D01*
X221544Y325674D02*
X221068Y325436D01*
X220592Y324960D01*
X220354Y324246D01*
Y323769D01*
X220592Y323055D01*
X221068Y322579D01*
X221544Y322341D01*
X225400Y325674D02*
X224686Y325436D01*
X224210Y324960D01*
X223972Y324246D01*
Y323769D01*
X224210Y323055D01*
X224686Y322579D01*
X225400Y322341D01*
X225876D01*
X226590Y322579D01*
X227066Y323055D01*
X227305Y323769D01*
Y324246D01*
X227066Y324960D01*
X226590Y325436D01*
X225876Y325674D01*
X225400D01*
X224924Y325436D01*
X224448Y324960D01*
X224210Y324246D01*
Y323769D01*
X224448Y323055D01*
X224924Y322579D01*
X225400Y322341D01*
X225876D02*
X226352Y322579D01*
X226828Y323055D01*
X227066Y323769D01*
Y324246D01*
X226828Y324960D01*
X226352Y325436D01*
X225876Y325674D01*
X228756D02*
Y320675D01*
X228995Y325674D02*
Y320675D01*
Y324960D02*
X229471Y325436D01*
X229947Y325674D01*
X230423D01*
X231137Y325436D01*
X231613Y324960D01*
X231851Y324246D01*
Y323769D01*
X231613Y323055D01*
X231137Y322579D01*
X230423Y322341D01*
X229947D01*
X229471Y322579D01*
X228995Y323055D01*
X230423Y325674D02*
X230899Y325436D01*
X231375Y324960D01*
X231613Y324246D01*
Y323769D01*
X231375Y323055D01*
X230899Y322579D01*
X230423Y322341D01*
X228042Y325674D02*
X228995D01*
X228042Y320675D02*
X229709D01*
X232780Y324246D02*
X235636D01*
Y324722D01*
X235398Y325198D01*
X235160Y325436D01*
X234684Y325674D01*
X233970D01*
X233256Y325436D01*
X232780Y324960D01*
X232541Y324246D01*
Y323769D01*
X232780Y323055D01*
X233256Y322579D01*
X233970Y322341D01*
X234446D01*
X235160Y322579D01*
X235636Y323055D01*
X235398Y324246D02*
Y324960D01*
X235160Y325436D01*
X233970Y325674D02*
X233494Y325436D01*
X233017Y324960D01*
X232780Y324246D01*
Y323769D01*
X233017Y323055D01*
X233494Y322579D01*
X233970Y322341D01*
X209903Y317755D02*
Y312756D01*
X210141Y317755D02*
Y312756D01*
X212998Y317755D02*
Y312756D01*
X213236Y317755D02*
Y312756D01*
X209189Y317755D02*
X210856D01*
X212284D02*
X213950D01*
X210141Y315375D02*
X212998D01*
X209189Y312756D02*
X210856D01*
X212284D02*
X213950D01*
X214783Y314661D02*
X217640D01*
Y315137D01*
X217402Y315613D01*
X217164Y315851D01*
X216688Y316089D01*
X215974D01*
X215259Y315851D01*
X214783Y315375D01*
X214545Y314661D01*
Y314184D01*
X214783Y313470D01*
X215259Y312994D01*
X215974Y312756D01*
X216450D01*
X217164Y312994D01*
X217640Y313470D01*
X217402Y314661D02*
Y315375D01*
X217164Y315851D01*
X215974Y316089D02*
X215497Y315851D01*
X215021Y315375D01*
X214783Y314661D01*
Y314184D01*
X215021Y313470D01*
X215497Y312994D01*
X215974Y312756D01*
X218878Y315613D02*
Y315375D01*
X218640D01*
Y315613D01*
X218878Y315851D01*
X219354Y316089D01*
X220306D01*
X220782Y315851D01*
X221020Y315613D01*
X221258Y315137D01*
Y313470D01*
X221496Y312994D01*
X221734Y312756D01*
X221020Y315613D02*
Y313470D01*
X221258Y312994D01*
X221734Y312756D01*
X221972D01*
X221020Y315137D02*
X220782Y314899D01*
X219354Y314661D01*
X218640Y314422D01*
X218402Y313946D01*
Y313470D01*
X218640Y312994D01*
X219354Y312756D01*
X220068D01*
X220544Y312994D01*
X221020Y313470D01*
X219354Y314661D02*
X218878Y314422D01*
X218640Y313946D01*
Y313470D01*
X218878Y312994D01*
X219354Y312756D01*
X224115D02*
X223877Y312994D01*
X223639Y313708D01*
Y317755D01*
X223400D01*
Y313708D01*
X223639Y312994D01*
X224115Y312756D01*
X224591D01*
X225067Y312994D01*
X225305Y313470D01*
X222686Y316089D02*
X224591D01*
X226352Y314661D02*
X229209D01*
Y315137D01*
X228971Y315613D01*
X228733Y315851D01*
X228257Y316089D01*
X227542D01*
X226828Y315851D01*
X226352Y315375D01*
X226114Y314661D01*
Y314184D01*
X226352Y313470D01*
X226828Y312994D01*
X227542Y312756D01*
X228019D01*
X228733Y312994D01*
X229209Y313470D01*
X228971Y314661D02*
Y315375D01*
X228733Y315851D01*
X227542Y316089D02*
X227066Y315851D01*
X226590Y315375D01*
X226352Y314661D01*
Y314184D01*
X226590Y313470D01*
X227066Y312994D01*
X227542Y312756D01*
X230685Y316089D02*
Y312756D01*
X230923Y316089D02*
Y312756D01*
Y314661D02*
X231161Y315375D01*
X231637Y315851D01*
X232113Y316089D01*
X232827D01*
X233065Y315851D01*
Y315613D01*
X232827Y315375D01*
X232589Y315613D01*
X232827Y315851D01*
X229971Y316089D02*
X230923D01*
X229971Y312756D02*
X231637D01*
X289531Y229180D02*
X289341Y229560D01*
X288769Y230132D01*
X292768D01*
X288960Y229941D02*
X292768D01*
Y229180D02*
Y230893D01*
X288769Y232722D02*
X288960Y232150D01*
X289531Y231769D01*
X290483Y231579D01*
X291055D01*
X292007Y231769D01*
X292578Y232150D01*
X292768Y232722D01*
Y233103D01*
X292578Y233674D01*
X292007Y234055D01*
X291055Y234245D01*
X290483D01*
X289531Y234055D01*
X288960Y233674D01*
X288769Y233103D01*
Y232722D01*
X288960Y232341D01*
X289150Y232150D01*
X289531Y231960D01*
X290483Y231769D01*
X291055D01*
X292007Y231960D01*
X292388Y232150D01*
X292578Y232341D01*
X292768Y232722D01*
Y233103D02*
X292578Y233483D01*
X292388Y233674D01*
X292007Y233864D01*
X291055Y234055D01*
X290483D01*
X289531Y233864D01*
X289150Y233674D01*
X288960Y233483D01*
X288769Y233103D01*
X289531Y238454D02*
X292768Y235216D01*
Y234836D01*
X288769Y238835D01*
Y239216D01*
X289531Y238454D01*
Y239311D02*
X289721Y239501D01*
X289912Y239311D01*
X289721Y239120D01*
X289531D01*
X289150Y239311D01*
X288960Y239501D01*
X288769Y240072D01*
Y240834D01*
X288960Y241406D01*
X289150Y241596D01*
X289531Y241787D01*
X289912D01*
X290293Y241596D01*
X290674Y241025D01*
X291055Y240072D01*
X291245Y239692D01*
X291626Y239311D01*
X292197Y239120D01*
X292768D01*
X288769Y240834D02*
X288960Y241215D01*
X289150Y241406D01*
X289531Y241596D01*
X289912D01*
X290293Y241406D01*
X290674Y240834D01*
X291055Y240072D01*
X292388Y239120D02*
X292197Y239311D01*
Y239692D01*
X292578Y240644D01*
Y241215D01*
X292388Y241596D01*
X292197Y241787D01*
X291816D01*
X292197Y239692D02*
X292768Y240644D01*
Y241406D01*
X292578Y241596D01*
X292197Y241787D01*
X288769Y243519D02*
X288960Y242948D01*
X289531Y242567D01*
X290483Y242377D01*
X291055D01*
X292007Y242567D01*
X292578Y242948D01*
X292768Y243519D01*
Y243900D01*
X292578Y244472D01*
X292007Y244852D01*
X291055Y245043D01*
X290483D01*
X289531Y244852D01*
X288960Y244472D01*
X288769Y243900D01*
Y243519D01*
X288960Y243139D01*
X289150Y242948D01*
X289531Y242758D01*
X290483Y242567D01*
X291055D01*
X292007Y242758D01*
X292388Y242948D01*
X292578Y243139D01*
X292768Y243519D01*
Y243900D02*
X292578Y244281D01*
X292388Y244472D01*
X292007Y244662D01*
X291055Y244852D01*
X290483D01*
X289531Y244662D01*
X289150Y244472D01*
X288960Y244281D01*
X288769Y243900D01*
X289531Y245824D02*
X289721Y246014D01*
X289912Y245824D01*
X289721Y245633D01*
X289531D01*
X289150Y245824D01*
X288960Y246014D01*
X288769Y246585D01*
Y247347D01*
X288960Y247919D01*
X289150Y248109D01*
X289531Y248299D01*
X289912D01*
X290293Y248109D01*
X290674Y247538D01*
X291055Y246585D01*
X291245Y246205D01*
X291626Y245824D01*
X292197Y245633D01*
X292768D01*
X288769Y247347D02*
X288960Y247728D01*
X289150Y247919D01*
X289531Y248109D01*
X289912D01*
X290293Y247919D01*
X290674Y247347D01*
X291055Y246585D01*
X292388Y245633D02*
X292197Y245824D01*
Y246205D01*
X292578Y247157D01*
Y247728D01*
X292388Y248109D01*
X292197Y248299D01*
X291816D01*
X292197Y246205D02*
X292768Y247157D01*
Y247919D01*
X292578Y248109D01*
X292197Y248299D01*
X289531Y248890D02*
X289341Y249271D01*
X288769Y249842D01*
X292768D01*
X288960Y249651D02*
X292768D01*
Y248890D02*
Y250604D01*
D14*
X201462Y258015D02*
X206604D01*
X204033Y255444D02*
Y260586D01*
X218649Y258341D02*
X213507D01*
M02*
